<svg width="1920" height="1080" viewBox="0 0 1920 1080" fill="none" xmlns="http://www.w3.org/2000/svg">
<rect width="1920" height="1080" rx="100" fill="white"/>
<circle cx="608" cy="399" r="282" fill="#0075FF" fill-opacity="0.1"/>
<circle cx="420" cy="681" r="282" fill="#00FF47" fill-opacity="0.1"/>
<circle cx="771" cy="681" r="282" fill="#FAFF00" fill-opacity="0.15"/>
<circle cx="1292" cy="700" r="17" fill="#FCFF69" fill-opacity="0.5" stroke="#EFF400" stroke-width="4"/>
<circle cx="1292" cy="801" r="17" fill="#0075FF" fill-opacity="0.1" stroke="#005FCF" stroke-width="4"/>
<circle cx="1292" cy="925" r="17" fill="#00FF47" fill-opacity="0.1" stroke="#00D83C" stroke-width="4"/>
<path d="M586.688 324.375C586.688 316.594 593.562 314.812 599.438 314.375C601.625 314.219 607.094 313.906 608.625 313.875V311.125C608.625 306.812 606.062 304.312 600.938 304.312C596.656 304.312 594.062 306.281 593.312 308.875H587.688C588.375 303.406 593.688 299.625 601.188 299.625C605.625 299.625 613.969 300.938 613.938 311.625V334H608.625V329.375H608.375C607.25 331.656 604.156 334.781 598.25 334.812C591.812 334.781 586.688 331 586.688 324.375ZM592.062 324.625C592.094 328.219 595.062 330.031 599.188 330C605.25 330.031 608.625 325.969 608.625 321.688V318.281C607.031 318.375 601.688 318.781 600.062 318.875C595.188 319.188 592.094 320.906 592.062 324.625Z" fill="#2C8DFF"/>
<path d="M1040.69 313.625V334H1035.31V288.75H1040.69V305.375H1041.12C1042.72 301.875 1045.75 299.625 1051.12 299.625C1058.06 299.625 1062.69 303.719 1062.69 312.438V334H1057.31V312.812C1057.31 307.469 1054.38 304.438 1049.5 304.438C1044.44 304.438 1040.69 307.75 1040.69 313.625Z" fill="black" fill-opacity="0.7"/>
<path d="M753.125 529.688C744.656 529.719 738.688 522.906 738.688 512.125C738.688 501.375 744.656 494.625 753.188 494.625C759.781 494.625 761.844 498.625 763 500.438H763.375V483.75H768.812V529H763.562V523.812H763C761.812 525.688 759.594 529.719 753.125 529.688ZM744.125 512C744.125 519.219 747.438 524.875 753.875 524.875C760.094 524.875 763.531 519.625 763.562 512C763.531 504.469 760.188 499.438 753.875 499.438C747.344 499.438 744.125 504.906 744.125 512Z" fill="#4BD669"/>
<path d="M441 529V483.75H446.375V500.438H446.812C447.969 498.625 450 494.625 456.625 494.625C465.125 494.625 471.094 501.375 471.125 512.125C471.094 522.906 465.125 529.719 456.688 529.688C450.188 529.719 447.969 525.688 446.812 523.812H446.188V529H441ZM446.25 512C446.25 519.625 449.688 524.875 455.875 524.875C462.344 524.875 465.656 519.219 465.688 512C465.656 504.906 462.438 499.438 455.875 499.438C449.625 499.438 446.25 504.469 446.25 512Z" fill="#1DD9BF"/>
<path d="M595.188 602.688C585.562 602.719 579.688 595.375 579.688 585.188C579.688 574.875 585.844 567.625 595.062 567.625C602.281 567.625 607.719 571.906 608.562 578.312H603.188C602.406 575.219 599.719 572.375 595.188 572.375C589.125 572.375 585.094 577.375 585.062 585C585.094 592.844 589.031 597.875 595.188 597.875C599.188 597.875 602.25 595.719 603.188 592H608.562C607.719 598.062 602.719 602.719 595.188 602.688Z" fill="#00AD3B"/>
<path d="M344.562 756.688C334.75 756.719 328.688 749.719 328.688 739.312C328.688 728.875 334.844 721.625 344.062 721.625C351.188 721.625 358.719 726 358.688 738.562V740.812H334.062C334.344 748 338.531 751.938 344.562 751.938C348.625 751.938 351.188 750.156 352.438 748.062H358.188C356.594 753.219 351.562 756.719 344.562 756.688ZM334.094 736.25H353.25C353.219 730.594 349.656 726.375 344.062 726.375C338.188 726.375 334.469 731 334.094 736.25Z" fill="#5CDD84"/>
<path d="M860.062 769.438C851.844 769.438 846.281 765.844 845.688 759.562H851.312C852.031 763.031 855.25 764.75 860.062 764.75C865.875 764.75 869.438 762.219 869.438 756.625V749.75H869C867.844 751.625 865.688 755.469 859.125 755.5C850.875 755.469 844.688 749.25 844.688 738.562C844.688 728.125 850.656 721.625 859.188 721.625C865.781 721.625 867.906 725.625 869.125 727.438H869.562V722.062H874.812V756.938C874.781 765.688 868.344 769.438 860.062 769.438ZM850.125 738.75C850.125 745.781 853.438 750.688 859.875 750.688C866.094 750.688 869.531 746.219 869.562 738.75C869.531 731.469 866.188 726.438 859.875 726.438C853.344 726.438 850.125 731.906 850.125 738.75Z" fill="#CDD200"/>
<path d="M603.5 746.062V750.562H596V780H590.562V750.562H585.125V746.062H590.562V741.438C590.594 735.938 594.25 732.625 600.25 732.625C601.562 732.625 603.125 732.781 604.25 733V737.812C603.094 737.625 602.125 737.562 601.438 737.562C597.656 737.562 595.969 739.125 596 742.625V746.062H603.5Z" fill="#CCD000"/>
<path d="M1356.5 685.375H1359.88L1367.5 704H1367.78L1375.41 685.375H1378.78V708H1376.12V690.906H1375.91L1368.88 708H1366.38L1359.34 690.906H1359.16V708H1356.5V685.375ZM1382.62 703.188C1382.62 699.297 1386.06 698.406 1389 698.188C1390.09 698.109 1392.83 697.953 1393.59 697.938V696.562C1393.59 694.406 1392.31 693.156 1389.75 693.156C1387.61 693.156 1386.31 694.141 1385.94 695.438H1383.12C1383.47 692.703 1386.12 690.812 1389.88 690.812C1392.09 690.812 1396.27 691.469 1396.25 696.812V708H1393.59V705.688H1393.47C1392.91 706.828 1391.36 708.391 1388.41 708.406C1385.19 708.391 1382.62 706.5 1382.62 703.188ZM1385.31 703.312C1385.33 705.109 1386.81 706.016 1388.88 706C1391.91 706.016 1393.59 703.984 1393.59 701.844V700.141C1392.8 700.188 1390.12 700.391 1389.31 700.438C1386.88 700.594 1385.33 701.453 1385.31 703.312ZM1407.97 691.031V693.281H1404.41V703.125C1404.39 705.297 1405.48 705.656 1406.62 705.656C1407.11 705.656 1407.83 705.609 1408.22 705.594V708.094C1407.8 708.156 1407.14 708.219 1406.34 708.219C1404.08 708.219 1401.7 706.812 1401.69 703.812V693.281H1399.12V691.031H1401.69V686.969H1404.41V691.031H1407.97ZM1418.19 708.344C1413.38 708.359 1410.44 704.688 1410.44 699.594C1410.44 694.438 1413.52 690.812 1418.12 690.812C1421.73 690.812 1424.45 692.953 1424.88 696.156H1422.19C1421.8 694.609 1420.45 693.188 1418.19 693.188C1415.16 693.188 1413.14 695.688 1413.12 699.5C1413.14 703.422 1415.11 705.938 1418.19 705.938C1420.19 705.938 1421.72 704.859 1422.19 703H1424.88C1424.45 706.031 1421.95 708.359 1418.19 708.344ZM1430.88 697.812V708H1428.19V685.375H1430.88V693.688H1431.09C1431.89 691.938 1433.41 690.812 1436.09 690.812C1439.56 690.812 1441.88 692.859 1441.88 697.219V708H1439.19V697.406C1439.19 694.734 1437.72 693.219 1435.28 693.219C1432.75 693.219 1430.88 694.875 1430.88 697.812ZM1453.31 708.344C1448.41 708.359 1445.38 704.859 1445.38 699.656C1445.38 694.438 1448.45 690.812 1453.06 690.812C1456.62 690.812 1460.39 693 1460.38 699.281V700.406H1448.06C1448.2 704 1450.3 705.969 1453.31 705.969C1455.34 705.969 1456.62 705.078 1457.25 704.031H1460.12C1459.33 706.609 1456.81 708.359 1453.31 708.344ZM1448.08 698.125H1457.66C1457.64 695.297 1455.86 693.188 1453.06 693.188C1450.12 693.188 1448.27 695.5 1448.08 698.125ZM1470.28 708.344C1466.05 708.359 1463.06 704.953 1463.06 699.562C1463.06 694.188 1466.05 690.812 1470.31 690.812C1473.61 690.812 1474.64 692.812 1475.22 693.719H1475.41V685.375H1478.12V708H1475.5V705.406H1475.22C1474.62 706.344 1473.52 708.359 1470.28 708.344ZM1465.78 699.5C1465.78 703.109 1467.44 705.938 1470.66 705.938C1473.77 705.938 1475.48 703.312 1475.5 699.5C1475.48 695.734 1473.81 693.219 1470.66 693.219C1467.39 693.219 1465.78 695.953 1465.78 699.5ZM1497.94 708.344C1493.03 708.359 1490 704.859 1490 699.656C1490 694.438 1493.08 690.812 1497.69 690.812C1501.25 690.812 1505.02 693 1505 699.281V700.406H1492.69C1492.83 704 1494.92 705.969 1497.94 705.969C1499.97 705.969 1501.25 705.078 1501.88 704.031H1504.75C1503.95 706.609 1501.44 708.359 1497.94 708.344ZM1492.7 698.125H1502.28C1502.27 695.297 1500.48 693.188 1497.69 693.188C1494.75 693.188 1492.89 695.5 1492.7 698.125ZM1511.19 685.375V708H1508.5V685.375H1511.19ZM1522.59 708.344C1517.69 708.359 1514.66 704.859 1514.66 699.656C1514.66 694.438 1517.73 690.812 1522.34 690.812C1525.91 690.812 1529.67 693 1529.66 699.281V700.406H1517.34C1517.48 704 1519.58 705.969 1522.59 705.969C1524.62 705.969 1525.91 705.078 1526.53 704.031H1529.41C1528.61 706.609 1526.09 708.359 1522.59 708.344ZM1517.36 698.125H1526.94C1526.92 695.297 1525.14 693.188 1522.34 693.188C1519.41 693.188 1517.55 695.5 1517.36 698.125ZM1533.16 708V691.031H1535.75V693.688H1535.97C1536.67 691.875 1538.31 690.812 1540.53 690.812C1542.75 690.812 1544.27 691.875 1545.06 693.688H1545.25C1546.11 691.938 1547.91 690.812 1550.34 690.812C1553.36 690.812 1555.53 692.656 1555.53 696.656V708H1552.84V696.688C1552.83 694.188 1551.27 693.219 1549.41 693.219C1547.05 693.219 1545.7 694.812 1545.69 696.969V708H1542.97V696.406C1542.98 694.5 1541.61 693.219 1539.66 693.219C1537.62 693.219 1535.84 694.938 1535.84 697.406V708H1533.16ZM1566.97 708.344C1562.06 708.359 1559.03 704.859 1559.03 699.656C1559.03 694.438 1562.11 690.812 1566.72 690.812C1570.28 690.812 1574.05 693 1574.03 699.281V700.406H1561.72C1561.86 704 1563.95 705.969 1566.97 705.969C1569 705.969 1570.28 705.078 1570.91 704.031H1573.78C1572.98 706.609 1570.47 708.359 1566.97 708.344ZM1561.73 698.125H1571.31C1571.3 695.297 1569.52 693.188 1566.72 693.188C1563.78 693.188 1561.92 695.5 1561.73 698.125ZM1580.22 697.812V708H1577.53V691.031H1580.12V693.688H1580.34C1581.14 691.953 1582.73 690.812 1585.31 690.812C1588.75 690.812 1591.05 692.906 1591.03 697.219V708H1588.34V697.406C1588.34 694.781 1586.91 693.219 1584.5 693.219C1582.03 693.219 1580.22 694.875 1580.22 697.812ZM1602.75 691.031V693.281H1599.19V703.125C1599.17 705.297 1600.27 705.656 1601.41 705.656C1601.89 705.656 1602.61 705.609 1603 705.594V708.094C1602.58 708.156 1601.92 708.219 1601.12 708.219C1598.86 708.219 1596.48 706.812 1596.47 703.812V693.281H1593.91V691.031H1596.47V686.969H1599.19V691.031H1602.75ZM1615.34 695.438C1614.97 694.031 1613.89 693.109 1611.91 693.094C1609.81 693.109 1608.33 694.234 1608.31 695.656C1608.33 696.781 1609.23 697.547 1611.22 698.031L1613.75 698.656C1616.78 699.375 1618.27 700.891 1618.28 703.25C1618.27 706.188 1615.88 708.359 1611.62 708.344C1607.81 708.359 1605.55 706.656 1605.09 703.562H1607.91C1608.22 705.219 1609.42 706.016 1611.56 706C1613.98 706.016 1615.5 705 1615.5 703.406C1615.5 702.203 1614.64 701.422 1612.72 700.969L1610.16 700.375C1607.2 699.688 1605.62 698.078 1605.62 695.812C1605.62 692.906 1608.17 690.812 1611.91 690.812C1615.42 690.812 1617.62 692.688 1617.97 695.438H1615.34ZM1636.75 708.344C1632.12 708.359 1629 704.859 1629 699.594C1629 694.297 1632.12 690.812 1636.75 690.812C1641.36 690.812 1644.45 694.297 1644.44 699.594C1644.45 704.859 1641.36 708.359 1636.75 708.344ZM1631.69 699.594C1631.7 702.984 1633.3 705.969 1636.75 705.969C1640.17 705.969 1641.75 702.984 1641.75 699.594C1641.75 696.219 1640.17 693.188 1636.75 693.188C1633.3 693.188 1631.7 696.219 1631.69 699.594ZM1655.56 691.031V693.281H1651.81V708H1649.09V693.281H1646.38V691.031H1649.09V688.719C1649.11 685.969 1650.94 684.312 1653.94 684.312C1654.59 684.312 1655.38 684.391 1655.94 684.5V686.906C1655.36 686.812 1654.88 686.781 1654.53 686.781C1652.64 686.781 1651.8 687.562 1651.81 689.312V691.031H1655.56ZM1672.31 688.844L1668.94 683.812H1673.25L1675.59 688.844H1672.31ZM1681.72 708V691.031H1686.19V693.969H1686.38C1686.98 691.891 1688.56 690.781 1690.47 690.781C1690.94 690.781 1691.53 690.844 1691.94 690.938V695.062C1691.5 694.922 1690.61 694.812 1689.97 694.812C1687.88 694.812 1686.33 696.266 1686.34 698.344V708H1681.72ZM1701.34 708.344C1696.14 708.328 1692.95 704.969 1692.97 699.594C1692.95 694.359 1696.19 690.812 1701.16 690.812C1705.61 690.812 1709.12 693.625 1709.12 699.406V700.719H1697.53C1697.53 703.281 1699.05 704.859 1701.44 704.875C1703.02 704.859 1704.14 704.172 1704.59 703.156H1709C1708.34 706.297 1705.53 708.328 1701.34 708.344ZM1697.53 697.812H1704.75C1704.73 695.75 1703.31 694.266 1701.25 694.281C1699.12 694.266 1697.62 695.859 1697.53 697.812ZM1716.66 698.188V708H1712.03V691.031H1716.44V694H1716.62C1717.39 692.047 1719.2 690.812 1721.72 690.812C1725.27 690.812 1727.58 693.234 1727.56 697.188V708H1722.97V698C1722.95 695.906 1721.83 694.656 1719.91 694.656C1717.98 694.656 1716.66 695.953 1716.66 698.188ZM1738.84 708.344C1733.64 708.328 1730.45 704.969 1730.47 699.594C1730.45 694.359 1733.69 690.812 1738.66 690.812C1743.11 690.812 1746.62 693.625 1746.62 699.406V700.719H1735.03C1735.03 703.281 1736.55 704.859 1738.94 704.875C1740.52 704.859 1741.64 704.172 1742.09 703.156H1746.5C1745.84 706.297 1743.03 708.328 1738.84 708.344ZM1735.03 697.812H1742.25C1742.23 695.75 1740.81 694.266 1738.75 694.281C1736.62 694.266 1735.12 695.859 1735.03 697.812ZM1752.75 708L1748.12 691.031H1752.81L1755.47 702.5H1755.62L1758.41 691.031H1763L1765.81 702.438H1765.97L1768.59 691.031H1773.28L1768.62 708H1763.75L1760.81 697.219H1760.59L1757.66 708H1752.75ZM1781.5 688.844L1778.12 683.812H1782.44L1784.78 688.844H1781.5Z" fill="black" fill-opacity="0.7"/>
<path d="M1356.5 771.375H1359.88L1367.5 790H1367.78L1375.41 771.375H1378.78V794H1376.12V776.906H1375.91L1368.88 794H1366.38L1359.34 776.906H1359.16V794H1356.5V771.375ZM1382.62 789.188C1382.62 785.297 1386.06 784.406 1389 784.188C1390.09 784.109 1392.83 783.953 1393.59 783.938V782.562C1393.59 780.406 1392.31 779.156 1389.75 779.156C1387.61 779.156 1386.31 780.141 1385.94 781.438H1383.12C1383.47 778.703 1386.12 776.812 1389.88 776.812C1392.09 776.812 1396.27 777.469 1396.25 782.812V794H1393.59V791.688H1393.47C1392.91 792.828 1391.36 794.391 1388.41 794.406C1385.19 794.391 1382.62 792.5 1382.62 789.188ZM1385.31 789.312C1385.33 791.109 1386.81 792.016 1388.88 792C1391.91 792.016 1393.59 789.984 1393.59 787.844V786.141C1392.8 786.188 1390.12 786.391 1389.31 786.438C1386.88 786.594 1385.33 787.453 1385.31 789.312ZM1407.97 777.031V779.281H1404.41V789.125C1404.39 791.297 1405.48 791.656 1406.62 791.656C1407.11 791.656 1407.83 791.609 1408.22 791.594V794.094C1407.8 794.156 1407.14 794.219 1406.34 794.219C1404.08 794.219 1401.7 792.812 1401.69 789.812V779.281H1399.12V777.031H1401.69V772.969H1404.41V777.031H1407.97ZM1418.19 794.344C1413.38 794.359 1410.44 790.688 1410.44 785.594C1410.44 780.438 1413.52 776.812 1418.12 776.812C1421.73 776.812 1424.45 778.953 1424.88 782.156H1422.19C1421.8 780.609 1420.45 779.188 1418.19 779.188C1415.16 779.188 1413.14 781.688 1413.12 785.5C1413.14 789.422 1415.11 791.938 1418.19 791.938C1420.19 791.938 1421.72 790.859 1422.19 789H1424.88C1424.45 792.031 1421.95 794.359 1418.19 794.344ZM1430.88 783.812V794H1428.19V771.375H1430.88V779.688H1431.09C1431.89 777.938 1433.41 776.812 1436.09 776.812C1439.56 776.812 1441.88 778.859 1441.88 783.219V794H1439.19V783.406C1439.19 780.734 1437.72 779.219 1435.28 779.219C1432.75 779.219 1430.88 780.875 1430.88 783.812ZM1453.31 794.344C1448.41 794.359 1445.38 790.859 1445.38 785.656C1445.38 780.438 1448.45 776.812 1453.06 776.812C1456.62 776.812 1460.39 779 1460.38 785.281V786.406H1448.06C1448.2 790 1450.3 791.969 1453.31 791.969C1455.34 791.969 1456.62 791.078 1457.25 790.031H1460.12C1459.33 792.609 1456.81 794.359 1453.31 794.344ZM1448.08 784.125H1457.66C1457.64 781.297 1455.86 779.188 1453.06 779.188C1450.12 779.188 1448.27 781.5 1448.08 784.125ZM1470.28 794.344C1466.05 794.359 1463.06 790.953 1463.06 785.562C1463.06 780.188 1466.05 776.812 1470.31 776.812C1473.61 776.812 1474.64 778.812 1475.22 779.719H1475.41V771.375H1478.12V794H1475.5V791.406H1475.22C1474.62 792.344 1473.52 794.359 1470.28 794.344ZM1465.78 785.5C1465.78 789.109 1467.44 791.938 1470.66 791.938C1473.77 791.938 1475.48 789.312 1475.5 785.5C1475.48 781.734 1473.81 779.219 1470.66 779.219C1467.39 779.219 1465.78 781.953 1465.78 785.5ZM1497.94 794.344C1493.03 794.359 1490 790.859 1490 785.656C1490 780.438 1493.08 776.812 1497.69 776.812C1501.25 776.812 1505.02 779 1505 785.281V786.406H1492.69C1492.83 790 1494.92 791.969 1497.94 791.969C1499.97 791.969 1501.25 791.078 1501.88 790.031H1504.75C1503.95 792.609 1501.44 794.359 1497.94 794.344ZM1492.7 784.125H1502.28C1502.27 781.297 1500.48 779.188 1497.69 779.188C1494.75 779.188 1492.89 781.5 1492.7 784.125ZM1511.19 771.375V794H1508.5V771.375H1511.19ZM1522.59 794.344C1517.69 794.359 1514.66 790.859 1514.66 785.656C1514.66 780.438 1517.73 776.812 1522.34 776.812C1525.91 776.812 1529.67 779 1529.66 785.281V786.406H1517.34C1517.48 790 1519.58 791.969 1522.59 791.969C1524.62 791.969 1525.91 791.078 1526.53 790.031H1529.41C1528.61 792.609 1526.09 794.359 1522.59 794.344ZM1517.36 784.125H1526.94C1526.92 781.297 1525.14 779.188 1522.34 779.188C1519.41 779.188 1517.55 781.5 1517.36 784.125ZM1533.16 794V777.031H1535.75V779.688H1535.97C1536.67 777.875 1538.31 776.812 1540.53 776.812C1542.75 776.812 1544.27 777.875 1545.06 779.688H1545.25C1546.11 777.938 1547.91 776.812 1550.34 776.812C1553.36 776.812 1555.53 778.656 1555.53 782.656V794H1552.84V782.688C1552.83 780.188 1551.27 779.219 1549.41 779.219C1547.05 779.219 1545.7 780.812 1545.69 782.969V794H1542.97V782.406C1542.98 780.5 1541.61 779.219 1539.66 779.219C1537.62 779.219 1535.84 780.938 1535.84 783.406V794H1533.16ZM1566.97 794.344C1562.06 794.359 1559.03 790.859 1559.03 785.656C1559.03 780.438 1562.11 776.812 1566.72 776.812C1570.28 776.812 1574.05 779 1574.03 785.281V786.406H1561.72C1561.86 790 1563.95 791.969 1566.97 791.969C1569 791.969 1570.28 791.078 1570.91 790.031H1573.78C1572.98 792.609 1570.47 794.359 1566.97 794.344ZM1561.73 784.125H1571.31C1571.3 781.297 1569.52 779.188 1566.72 779.188C1563.78 779.188 1561.92 781.5 1561.73 784.125ZM1580.22 783.812V794H1577.53V777.031H1580.12V779.688H1580.34C1581.14 777.953 1582.73 776.812 1585.31 776.812C1588.75 776.812 1591.05 778.906 1591.03 783.219V794H1588.34V783.406C1588.34 780.781 1586.91 779.219 1584.5 779.219C1582.03 779.219 1580.22 780.875 1580.22 783.812ZM1602.75 777.031V779.281H1599.19V789.125C1599.17 791.297 1600.27 791.656 1601.41 791.656C1601.89 791.656 1602.61 791.609 1603 791.594V794.094C1602.58 794.156 1601.92 794.219 1601.12 794.219C1598.86 794.219 1596.48 792.812 1596.47 789.812V779.281H1593.91V777.031H1596.47V772.969H1599.19V777.031H1602.75ZM1615.34 781.438C1614.97 780.031 1613.89 779.109 1611.91 779.094C1609.81 779.109 1608.33 780.234 1608.31 781.656C1608.33 782.781 1609.23 783.547 1611.22 784.031L1613.75 784.656C1616.78 785.375 1618.27 786.891 1618.28 789.25C1618.27 792.188 1615.88 794.359 1611.62 794.344C1607.81 794.359 1605.55 792.656 1605.09 789.562H1607.91C1608.22 791.219 1609.42 792.016 1611.56 792C1613.98 792.016 1615.5 791 1615.5 789.406C1615.5 788.203 1614.64 787.422 1612.72 786.969L1610.16 786.375C1607.2 785.688 1605.62 784.078 1605.62 781.812C1605.62 778.906 1608.17 776.812 1611.91 776.812C1615.42 776.812 1617.62 778.688 1617.97 781.438H1615.34ZM1636.75 794.344C1632.12 794.359 1629 790.859 1629 785.594C1629 780.297 1632.12 776.812 1636.75 776.812C1641.36 776.812 1644.45 780.297 1644.44 785.594C1644.45 790.859 1641.36 794.359 1636.75 794.344ZM1631.69 785.594C1631.7 788.984 1633.3 791.969 1636.75 791.969C1640.17 791.969 1641.75 788.984 1641.75 785.594C1641.75 782.219 1640.17 779.188 1636.75 779.188C1633.3 779.188 1631.7 782.219 1631.69 785.594ZM1655.56 777.031V779.281H1651.81V794H1649.09V779.281H1646.38V777.031H1649.09V774.719C1649.11 771.969 1650.94 770.312 1653.94 770.312C1654.59 770.312 1655.38 770.391 1655.94 770.5V772.906C1655.36 772.812 1654.88 772.781 1654.53 772.781C1652.64 772.781 1651.8 773.562 1651.81 775.312V777.031H1655.56ZM1672.31 774.844L1668.94 769.812H1673.25L1675.59 774.844H1672.31ZM1690.75 777.031V780.5H1687.38V794H1682.75V780.5H1680.34V777.031H1682.75V775.75C1682.75 772.172 1684.91 770.312 1688.31 770.312C1689.36 770.312 1690.25 770.406 1691.06 770.594V774.094C1690.39 774.031 1689.91 774.016 1689.66 774C1688.17 774.016 1687.38 774.578 1687.38 776V777.031H1690.75ZM1693.47 794V777.031H1698.09V794H1693.47ZM1693.25 772.469C1693.25 771.156 1694.39 770.109 1695.78 770.094C1697.16 770.109 1698.3 771.156 1698.28 772.469C1698.3 773.75 1697.16 774.812 1695.78 774.812C1694.39 774.812 1693.25 773.75 1693.25 772.469ZM1706.31 771.375V794H1701.69V771.375H1706.31ZM1717.59 794.344C1712.39 794.328 1709.2 790.969 1709.22 785.594C1709.2 780.359 1712.44 776.812 1717.41 776.812C1721.86 776.812 1725.38 779.625 1725.38 785.406V786.719H1713.78C1713.78 789.281 1715.3 790.859 1717.69 790.875C1719.27 790.859 1720.39 790.172 1720.84 789.156H1725.25C1724.59 792.297 1721.78 794.328 1717.59 794.344ZM1713.78 783.812H1721C1720.98 781.75 1719.56 780.266 1717.5 780.281C1715.38 780.266 1713.88 781.859 1713.78 783.812ZM1737.97 782.062C1737.77 780.875 1736.73 780.109 1735.19 780.094C1733.69 780.109 1732.55 780.812 1732.56 781.844C1732.55 782.609 1733.14 783.203 1734.75 783.531L1737.78 784.156C1741.08 784.844 1742.67 786.312 1742.69 788.75C1742.67 792.094 1739.67 794.328 1735.16 794.344C1730.58 794.328 1727.89 792.281 1727.5 788.969H1732.16C1732.38 790.297 1733.45 790.984 1735.16 791C1736.84 790.984 1737.97 790.312 1737.97 789.219C1737.97 788.344 1737.25 787.797 1735.66 787.469L1732.84 786.906C1729.61 786.266 1727.95 784.609 1727.97 782.094C1727.95 778.844 1730.75 776.812 1735.12 776.812C1739.41 776.812 1742.06 778.844 1742.31 782.062H1737.97ZM1751.41 774.844L1748.03 769.812H1752.34L1754.69 774.844H1751.41ZM1363.56 815.031V817.281H1360V827.125C1359.98 829.297 1361.08 829.656 1362.22 829.656C1362.7 829.656 1363.42 829.609 1363.81 829.594V832.094C1363.39 832.156 1362.73 832.219 1361.94 832.219C1359.67 832.219 1357.3 830.812 1357.28 827.812V817.281H1354.72V815.031H1357.28V810.969H1360V815.031H1363.56ZM1370.09 821.812V832H1367.41V809.375H1370.09V817.688H1370.31C1371.11 815.938 1372.62 814.812 1375.31 814.812C1378.78 814.812 1381.09 816.859 1381.09 821.219V832H1378.41V821.406C1378.41 818.734 1376.94 817.219 1374.5 817.219C1371.97 817.219 1370.09 818.875 1370.09 821.812ZM1384.59 827.188C1384.59 823.297 1388.03 822.406 1390.97 822.188C1392.06 822.109 1394.8 821.953 1395.56 821.938V820.562C1395.56 818.406 1394.28 817.156 1391.72 817.156C1389.58 817.156 1388.28 818.141 1387.91 819.438H1385.09C1385.44 816.703 1388.09 814.812 1391.84 814.812C1394.06 814.812 1398.23 815.469 1398.22 820.812V832H1395.56V829.688H1395.44C1394.88 830.828 1393.33 832.391 1390.38 832.406C1387.16 832.391 1384.59 830.5 1384.59 827.188ZM1387.28 827.312C1387.3 829.109 1388.78 830.016 1390.84 830C1393.88 830.016 1395.56 827.984 1395.56 825.844V824.141C1394.77 824.188 1392.09 824.391 1391.28 824.438C1388.84 824.594 1387.3 825.453 1387.28 827.312ZM1409.94 815.031V817.281H1406.38V827.125C1406.36 829.297 1407.45 829.656 1408.59 829.656C1409.08 829.656 1409.8 829.609 1410.19 829.594V832.094C1409.77 832.156 1409.11 832.219 1408.31 832.219C1406.05 832.219 1403.67 830.812 1403.66 827.812V817.281H1401.09V815.031H1403.66V810.969H1406.38V815.031H1409.94ZM1428.56 832.344C1423.66 832.359 1420.62 828.859 1420.62 823.656C1420.62 818.438 1423.7 814.812 1428.31 814.812C1431.88 814.812 1435.64 817 1435.62 823.281V824.406H1423.31C1423.45 828 1425.55 829.969 1428.56 829.969C1430.59 829.969 1431.88 829.078 1432.5 828.031H1435.38C1434.58 830.609 1432.06 832.359 1428.56 832.344ZM1423.33 822.125H1432.91C1432.89 819.297 1431.11 817.188 1428.31 817.188C1425.38 817.188 1423.52 819.5 1423.33 822.125ZM1440.72 815.031L1444.72 821.938L1448.75 815.031H1451.84L1446.38 823.5L1451.84 832H1448.78L1444.72 825.438L1440.72 832H1437.62L1442.97 823.5L1437.62 815.031H1440.72ZM1455.09 832V815.031H1457.78V832H1455.09ZM1454.56 810.438C1454.55 809.438 1455.41 808.641 1456.44 808.656C1457.47 808.641 1458.33 809.438 1458.34 810.438C1458.33 811.422 1457.47 812.219 1456.44 812.219C1455.41 812.219 1454.55 811.422 1454.56 810.438ZM1471.5 819.438C1471.12 818.031 1470.05 817.109 1468.06 817.094C1465.97 817.109 1464.48 818.234 1464.47 819.656C1464.48 820.781 1465.39 821.547 1467.38 822.031L1469.91 822.656C1472.94 823.375 1474.42 824.891 1474.44 827.25C1474.42 830.188 1472.03 832.359 1467.78 832.344C1463.97 832.359 1461.7 830.656 1461.25 827.562H1464.06C1464.38 829.219 1465.58 830.016 1467.72 830C1470.14 830.016 1471.66 829 1471.66 827.406C1471.66 826.203 1470.8 825.422 1468.88 824.969L1466.31 824.375C1463.36 823.688 1461.78 822.078 1461.78 819.812C1461.78 816.906 1464.33 814.812 1468.06 814.812C1471.58 814.812 1473.78 816.688 1474.12 819.438H1471.5ZM1485.34 815.031V817.281H1481.78V827.125C1481.77 829.297 1482.86 829.656 1484 829.656C1484.48 829.656 1485.2 829.609 1485.59 829.594V832.094C1485.17 832.156 1484.52 832.219 1483.72 832.219C1481.45 832.219 1479.08 830.812 1479.06 827.812V817.281H1476.5V815.031H1479.06V810.969H1481.78V815.031H1485.34ZM1503.78 832.344C1499.16 832.359 1496.03 828.859 1496.03 823.594C1496.03 818.297 1499.16 814.812 1503.78 814.812C1508.39 814.812 1511.48 818.297 1511.47 823.594C1511.48 828.859 1508.39 832.359 1503.78 832.344ZM1498.72 823.594C1498.73 826.984 1500.33 829.969 1503.78 829.969C1507.2 829.969 1508.78 826.984 1508.78 823.594C1508.78 820.219 1507.2 817.188 1503.78 817.188C1500.33 817.188 1498.73 820.219 1498.72 823.594ZM1517.69 821.812V832H1515V815.031H1517.59V817.688H1517.81C1518.61 815.953 1520.2 814.812 1522.78 814.812C1526.22 814.812 1528.52 816.906 1528.5 821.219V832H1525.81V821.406C1525.81 818.781 1524.38 817.219 1521.97 817.219C1519.5 817.219 1517.69 818.875 1517.69 821.812ZM1548.25 815.031V817.281H1544.69V827.125C1544.67 829.297 1545.77 829.656 1546.91 829.656C1547.39 829.656 1548.11 829.609 1548.5 829.594V832.094C1548.08 832.156 1547.42 832.219 1546.62 832.219C1544.36 832.219 1541.98 830.812 1541.97 827.812V817.281H1539.41V815.031H1541.97V810.969H1544.69V815.031H1548.25ZM1554.78 821.812V832H1552.09V809.375H1554.78V817.688H1555C1555.8 815.938 1557.31 814.812 1560 814.812C1563.47 814.812 1565.78 816.859 1565.78 821.219V832H1563.09V821.406C1563.09 818.734 1561.62 817.219 1559.19 817.219C1556.66 817.219 1554.78 818.875 1554.78 821.812ZM1577.22 832.344C1572.31 832.359 1569.28 828.859 1569.28 823.656C1569.28 818.438 1572.36 814.812 1576.97 814.812C1580.53 814.812 1584.3 817 1584.28 823.281V824.406H1571.97C1572.11 828 1574.2 829.969 1577.22 829.969C1579.25 829.969 1580.53 829.078 1581.16 828.031H1584.03C1583.23 830.609 1580.72 832.359 1577.22 832.344ZM1571.98 822.125H1581.56C1581.55 819.297 1579.77 817.188 1576.97 817.188C1574.03 817.188 1572.17 819.5 1571.98 822.125ZM1603.41 815.031V817.281H1599.66V832H1596.94V817.281H1594.22V815.031H1596.94V812.719C1596.95 809.969 1598.78 808.312 1601.78 808.312C1602.44 808.312 1603.22 808.391 1603.78 808.5V810.906C1603.2 810.812 1602.72 810.781 1602.38 810.781C1600.48 810.781 1599.64 811.562 1599.66 813.312V815.031H1603.41ZM1606.59 832V815.031H1609.28V832H1606.59ZM1606.06 810.438C1606.05 809.438 1606.91 808.641 1607.94 808.656C1608.97 808.641 1609.83 809.438 1609.84 810.438C1609.83 811.422 1608.97 812.219 1607.94 812.219C1606.91 812.219 1606.05 811.422 1606.06 810.438ZM1616.25 809.375V832H1613.56V809.375H1616.25ZM1627.66 832.344C1622.75 832.359 1619.72 828.859 1619.72 823.656C1619.72 818.438 1622.8 814.812 1627.41 814.812C1630.97 814.812 1634.73 817 1634.72 823.281V824.406H1622.41C1622.55 828 1624.64 829.969 1627.66 829.969C1629.69 829.969 1630.97 829.078 1631.59 828.031H1634.47C1633.67 830.609 1631.16 832.359 1627.66 832.344ZM1622.42 822.125H1632C1631.98 819.297 1630.2 817.188 1627.41 817.188C1624.47 817.188 1622.61 819.5 1622.42 822.125ZM1647.66 819.438C1647.28 818.031 1646.2 817.109 1644.22 817.094C1642.12 817.109 1640.64 818.234 1640.62 819.656C1640.64 820.781 1641.55 821.547 1643.53 822.031L1646.06 822.656C1649.09 823.375 1650.58 824.891 1650.59 827.25C1650.58 830.188 1648.19 832.359 1643.94 832.344C1640.12 832.359 1637.86 830.656 1637.41 827.562H1640.22C1640.53 829.219 1641.73 830.016 1643.88 830C1646.3 830.016 1647.81 829 1647.81 827.406C1647.81 826.203 1646.95 825.422 1645.03 824.969L1642.47 824.375C1639.52 823.688 1637.94 822.078 1637.94 819.812C1637.94 816.906 1640.48 814.812 1644.22 814.812C1647.73 814.812 1649.94 816.688 1650.28 819.438H1647.66ZM1655.81 838.375C1655.23 838.359 1654.66 838.344 1654.31 838.312V835.906C1654.59 835.938 1655.2 835.953 1655.62 835.969C1656.72 835.953 1657.64 835.891 1658.53 833.406L1659.03 832.125L1652.75 815.031H1655.69L1660.31 828.5H1660.5L1665.12 815.031H1668.06L1660.88 834.438C1659.88 837.109 1658.22 838.359 1655.81 838.375ZM1680.47 819.438C1680.09 818.031 1679.02 817.109 1677.03 817.094C1674.94 817.109 1673.45 818.234 1673.44 819.656C1673.45 820.781 1674.36 821.547 1676.34 822.031L1678.88 822.656C1681.91 823.375 1683.39 824.891 1683.41 827.25C1683.39 830.188 1681 832.359 1676.75 832.344C1672.94 832.359 1670.67 830.656 1670.22 827.562H1673.03C1673.34 829.219 1674.55 830.016 1676.69 830C1679.11 830.016 1680.62 829 1680.62 827.406C1680.62 826.203 1679.77 825.422 1677.84 824.969L1675.28 824.375C1672.33 823.688 1670.75 822.078 1670.75 819.812C1670.75 816.906 1673.3 814.812 1677.03 814.812C1680.55 814.812 1682.75 816.688 1683.09 819.438H1680.47ZM1694.31 815.031V817.281H1690.75V827.125C1690.73 829.297 1691.83 829.656 1692.97 829.656C1693.45 829.656 1694.17 829.609 1694.56 829.594V832.094C1694.14 832.156 1693.48 832.219 1692.69 832.219C1690.42 832.219 1688.05 830.812 1688.03 827.812V817.281H1685.47V815.031H1688.03V810.969H1690.75V815.031H1694.31ZM1704.72 832.344C1699.81 832.359 1696.78 828.859 1696.78 823.656C1696.78 818.438 1699.86 814.812 1704.47 814.812C1708.03 814.812 1711.8 817 1711.78 823.281V824.406H1699.47C1699.61 828 1701.7 829.969 1704.72 829.969C1706.75 829.969 1708.03 829.078 1708.66 828.031H1711.53C1710.73 830.609 1708.22 832.359 1704.72 832.344ZM1699.48 822.125H1709.06C1709.05 819.297 1707.27 817.188 1704.47 817.188C1701.53 817.188 1699.67 819.5 1699.48 822.125ZM1715.28 832V815.031H1717.88V817.688H1718.09C1718.8 815.875 1720.44 814.812 1722.66 814.812C1724.88 814.812 1726.39 815.875 1727.19 817.688H1727.38C1728.23 815.938 1730.03 814.812 1732.47 814.812C1735.48 814.812 1737.66 816.656 1737.66 820.656V832H1734.97V820.688C1734.95 818.188 1733.39 817.219 1731.53 817.219C1729.17 817.219 1727.83 818.812 1727.81 820.969V832H1725.09V820.406C1725.11 818.5 1723.73 817.219 1721.78 817.219C1719.75 817.219 1717.97 818.938 1717.97 821.406V832H1715.28Z" fill="black" fill-opacity="0.7"/>
<path d="M1356.5 895.375H1359.88L1367.5 914H1367.78L1375.41 895.375H1378.78V918H1376.12V900.906H1375.91L1368.88 918H1366.38L1359.34 900.906H1359.16V918H1356.5V895.375ZM1382.62 913.188C1382.62 909.297 1386.06 908.406 1389 908.188C1390.09 908.109 1392.83 907.953 1393.59 907.938V906.562C1393.59 904.406 1392.31 903.156 1389.75 903.156C1387.61 903.156 1386.31 904.141 1385.94 905.438H1383.12C1383.47 902.703 1386.12 900.812 1389.88 900.812C1392.09 900.812 1396.27 901.469 1396.25 906.812V918H1393.59V915.688H1393.47C1392.91 916.828 1391.36 918.391 1388.41 918.406C1385.19 918.391 1382.62 916.5 1382.62 913.188ZM1385.31 913.312C1385.33 915.109 1386.81 916.016 1388.88 916C1391.91 916.016 1393.59 913.984 1393.59 911.844V910.141C1392.8 910.188 1390.12 910.391 1389.31 910.438C1386.88 910.594 1385.33 911.453 1385.31 913.312ZM1407.97 901.031V903.281H1404.41V913.125C1404.39 915.297 1405.48 915.656 1406.62 915.656C1407.11 915.656 1407.83 915.609 1408.22 915.594V918.094C1407.8 918.156 1407.14 918.219 1406.34 918.219C1404.08 918.219 1401.7 916.812 1401.69 913.812V903.281H1399.12V901.031H1401.69V896.969H1404.41V901.031H1407.97ZM1418.19 918.344C1413.38 918.359 1410.44 914.688 1410.44 909.594C1410.44 904.438 1413.52 900.812 1418.12 900.812C1421.73 900.812 1424.45 902.953 1424.88 906.156H1422.19C1421.8 904.609 1420.45 903.188 1418.19 903.188C1415.16 903.188 1413.14 905.688 1413.12 909.5C1413.14 913.422 1415.11 915.938 1418.19 915.938C1420.19 915.938 1421.72 914.859 1422.19 913H1424.88C1424.45 916.031 1421.95 918.359 1418.19 918.344ZM1430.88 907.812V918H1428.19V895.375H1430.88V903.688H1431.09C1431.89 901.938 1433.41 900.812 1436.09 900.812C1439.56 900.812 1441.88 902.859 1441.88 907.219V918H1439.19V907.406C1439.19 904.734 1437.72 903.219 1435.28 903.219C1432.75 903.219 1430.88 904.875 1430.88 907.812ZM1453.31 918.344C1448.41 918.359 1445.38 914.859 1445.38 909.656C1445.38 904.438 1448.45 900.812 1453.06 900.812C1456.62 900.812 1460.39 903 1460.38 909.281V910.406H1448.06C1448.2 914 1450.3 915.969 1453.31 915.969C1455.34 915.969 1456.62 915.078 1457.25 914.031H1460.12C1459.33 916.609 1456.81 918.359 1453.31 918.344ZM1448.08 908.125H1457.66C1457.64 905.297 1455.86 903.188 1453.06 903.188C1450.12 903.188 1448.27 905.5 1448.08 908.125ZM1470.28 918.344C1466.05 918.359 1463.06 914.953 1463.06 909.562C1463.06 904.188 1466.05 900.812 1470.31 900.812C1473.61 900.812 1474.64 902.812 1475.22 903.719H1475.41V895.375H1478.12V918H1475.5V915.406H1475.22C1474.62 916.344 1473.52 918.359 1470.28 918.344ZM1465.78 909.5C1465.78 913.109 1467.44 915.938 1470.66 915.938C1473.77 915.938 1475.48 913.312 1475.5 909.5C1475.48 905.734 1473.81 903.219 1470.66 903.219C1467.39 903.219 1465.78 905.953 1465.78 909.5ZM1497.94 918.344C1493.03 918.359 1490 914.859 1490 909.656C1490 904.438 1493.08 900.812 1497.69 900.812C1501.25 900.812 1505.02 903 1505 909.281V910.406H1492.69C1492.83 914 1494.92 915.969 1497.94 915.969C1499.97 915.969 1501.25 915.078 1501.88 914.031H1504.75C1503.95 916.609 1501.44 918.359 1497.94 918.344ZM1492.7 908.125H1502.28C1502.27 905.297 1500.48 903.188 1497.69 903.188C1494.75 903.188 1492.89 905.5 1492.7 908.125ZM1511.19 895.375V918H1508.5V895.375H1511.19ZM1522.59 918.344C1517.69 918.359 1514.66 914.859 1514.66 909.656C1514.66 904.438 1517.73 900.812 1522.34 900.812C1525.91 900.812 1529.67 903 1529.66 909.281V910.406H1517.34C1517.48 914 1519.58 915.969 1522.59 915.969C1524.62 915.969 1525.91 915.078 1526.53 914.031H1529.41C1528.61 916.609 1526.09 918.359 1522.59 918.344ZM1517.36 908.125H1526.94C1526.92 905.297 1525.14 903.188 1522.34 903.188C1519.41 903.188 1517.55 905.5 1517.36 908.125ZM1533.16 918V901.031H1535.75V903.688H1535.97C1536.67 901.875 1538.31 900.812 1540.53 900.812C1542.75 900.812 1544.27 901.875 1545.06 903.688H1545.25C1546.11 901.938 1547.91 900.812 1550.34 900.812C1553.36 900.812 1555.53 902.656 1555.53 906.656V918H1552.84V906.688C1552.83 904.188 1551.27 903.219 1549.41 903.219C1547.05 903.219 1545.7 904.812 1545.69 906.969V918H1542.97V906.406C1542.98 904.5 1541.61 903.219 1539.66 903.219C1537.62 903.219 1535.84 904.938 1535.84 907.406V918H1533.16ZM1566.97 918.344C1562.06 918.359 1559.03 914.859 1559.03 909.656C1559.03 904.438 1562.11 900.812 1566.72 900.812C1570.28 900.812 1574.05 903 1574.03 909.281V910.406H1561.72C1561.86 914 1563.95 915.969 1566.97 915.969C1569 915.969 1570.28 915.078 1570.91 914.031H1573.78C1572.98 916.609 1570.47 918.359 1566.97 918.344ZM1561.73 908.125H1571.31C1571.3 905.297 1569.52 903.188 1566.72 903.188C1563.78 903.188 1561.92 905.5 1561.73 908.125ZM1580.22 907.812V918H1577.53V901.031H1580.12V903.688H1580.34C1581.14 901.953 1582.73 900.812 1585.31 900.812C1588.75 900.812 1591.05 902.906 1591.03 907.219V918H1588.34V907.406C1588.34 904.781 1586.91 903.219 1584.5 903.219C1582.03 903.219 1580.22 904.875 1580.22 907.812ZM1602.75 901.031V903.281H1599.19V913.125C1599.17 915.297 1600.27 915.656 1601.41 915.656C1601.89 915.656 1602.61 915.609 1603 915.594V918.094C1602.58 918.156 1601.92 918.219 1601.12 918.219C1598.86 918.219 1596.48 916.812 1596.47 913.812V903.281H1593.91V901.031H1596.47V896.969H1599.19V901.031H1602.75ZM1615.34 905.438C1614.97 904.031 1613.89 903.109 1611.91 903.094C1609.81 903.109 1608.33 904.234 1608.31 905.656C1608.33 906.781 1609.23 907.547 1611.22 908.031L1613.75 908.656C1616.78 909.375 1618.27 910.891 1618.28 913.25C1618.27 916.188 1615.88 918.359 1611.62 918.344C1607.81 918.359 1605.55 916.656 1605.09 913.562H1607.91C1608.22 915.219 1609.42 916.016 1611.56 916C1613.98 916.016 1615.5 915 1615.5 913.406C1615.5 912.203 1614.64 911.422 1612.72 910.969L1610.16 910.375C1607.2 909.688 1605.62 908.078 1605.62 905.812C1605.62 902.906 1608.17 900.812 1611.91 900.812C1615.42 900.812 1617.62 902.688 1617.97 905.438H1615.34ZM1636.75 918.344C1632.12 918.359 1629 914.859 1629 909.594C1629 904.297 1632.12 900.812 1636.75 900.812C1641.36 900.812 1644.45 904.297 1644.44 909.594C1644.45 914.859 1641.36 918.359 1636.75 918.344ZM1631.69 909.594C1631.7 912.984 1633.3 915.969 1636.75 915.969C1640.17 915.969 1641.75 912.984 1641.75 909.594C1641.75 906.219 1640.17 903.188 1636.75 903.188C1633.3 903.188 1631.7 906.219 1631.69 909.594ZM1655.56 901.031V903.281H1651.81V918H1649.09V903.281H1646.38V901.031H1649.09V898.719C1649.11 895.969 1650.94 894.312 1653.94 894.312C1654.59 894.312 1655.38 894.391 1655.94 894.5V896.906C1655.36 896.812 1654.88 896.781 1654.53 896.781C1652.64 896.781 1651.8 897.562 1651.81 899.312V901.031H1655.56ZM1672.31 898.844L1668.94 893.812H1673.25L1675.59 898.844H1672.31ZM1690.75 901.031V904.5H1687.38V918H1682.75V904.5H1680.34V901.031H1682.75V899.75C1682.75 896.172 1684.91 894.312 1688.31 894.312C1689.36 894.312 1690.25 894.406 1691.06 894.594V898.094C1690.39 898.031 1689.91 898.016 1689.66 898C1688.17 898.016 1687.38 898.578 1687.38 900V901.031H1690.75ZM1693.47 918V901.031H1698.09V918H1693.47ZM1693.25 896.469C1693.25 895.156 1694.39 894.109 1695.78 894.094C1697.16 894.109 1698.3 895.156 1698.28 896.469C1698.3 897.75 1697.16 898.812 1695.78 898.812C1694.39 898.812 1693.25 897.75 1693.25 896.469ZM1706.31 895.375V918H1701.69V895.375H1706.31ZM1717.59 918.344C1712.39 918.328 1709.2 914.969 1709.22 909.594C1709.2 904.359 1712.44 900.812 1717.41 900.812C1721.86 900.812 1725.38 903.625 1725.38 909.406V910.719H1713.78C1713.78 913.281 1715.3 914.859 1717.69 914.875C1719.27 914.859 1720.39 914.172 1720.84 913.156H1725.25C1724.59 916.297 1721.78 918.328 1717.59 918.344ZM1713.78 907.812H1721C1720.98 905.75 1719.56 904.266 1717.5 904.281C1715.38 904.266 1713.88 905.859 1713.78 907.812ZM1737.97 906.062C1737.77 904.875 1736.73 904.109 1735.19 904.094C1733.69 904.109 1732.55 904.812 1732.56 905.844C1732.55 906.609 1733.14 907.203 1734.75 907.531L1737.78 908.156C1741.08 908.844 1742.67 910.312 1742.69 912.75C1742.67 916.094 1739.67 918.328 1735.16 918.344C1730.58 918.328 1727.89 916.281 1727.5 912.969H1732.16C1732.38 914.297 1733.45 914.984 1735.16 915C1736.84 914.984 1737.97 914.312 1737.97 913.219C1737.97 912.344 1737.25 911.797 1735.66 911.469L1732.84 910.906C1729.61 910.266 1727.95 908.609 1727.97 906.094C1727.95 902.844 1730.75 900.812 1735.12 900.812C1739.41 900.812 1742.06 902.844 1742.31 906.062H1737.97ZM1751.41 898.844L1748.03 893.812H1752.34L1754.69 898.844H1751.41ZM1356.16 956V939.031H1358.84V956H1356.16ZM1355.62 934.438C1355.61 933.438 1356.47 932.641 1357.5 932.656C1358.53 932.641 1359.39 933.438 1359.41 934.438C1359.39 935.422 1358.53 936.219 1357.5 936.219C1356.47 936.219 1355.61 935.422 1355.62 934.438ZM1365.81 945.812V956H1363.12V939.031H1365.72V941.688H1365.94C1366.73 939.953 1368.33 938.812 1370.91 938.812C1374.34 938.812 1376.64 940.906 1376.62 945.219V956H1373.94V945.406C1373.94 942.781 1372.5 941.219 1370.09 941.219C1367.62 941.219 1365.81 942.875 1365.81 945.812ZM1396.38 939.031V941.281H1392.81V951.125C1392.8 953.297 1393.89 953.656 1395.03 953.656C1395.52 953.656 1396.23 953.609 1396.62 953.594V956.094C1396.2 956.156 1395.55 956.219 1394.75 956.219C1392.48 956.219 1390.11 954.812 1390.09 951.812V941.281H1387.53V939.031H1390.09V934.969H1392.81V939.031H1396.38ZM1402.91 945.812V956H1400.22V933.375H1402.91V941.688H1403.12C1403.92 939.938 1405.44 938.812 1408.12 938.812C1411.59 938.812 1413.91 940.859 1413.91 945.219V956H1411.22V945.406C1411.22 942.734 1409.75 941.219 1407.31 941.219C1404.78 941.219 1402.91 942.875 1402.91 945.812ZM1425.34 956.344C1420.44 956.359 1417.41 952.859 1417.41 947.656C1417.41 942.438 1420.48 938.812 1425.09 938.812C1428.66 938.812 1432.42 941 1432.41 947.281V948.406H1420.09C1420.23 952 1422.33 953.969 1425.34 953.969C1427.38 953.969 1428.66 953.078 1429.28 952.031H1432.16C1431.36 954.609 1428.84 956.359 1425.34 956.344ZM1420.11 946.125H1429.69C1429.67 943.297 1427.89 941.188 1425.09 941.188C1422.16 941.188 1420.3 943.5 1420.11 946.125ZM1443.94 962.375V939.031H1446.53V941.719H1446.84C1447.42 940.812 1448.45 938.812 1451.75 938.812C1456.02 938.812 1458.97 942.188 1458.97 947.562C1458.97 952.953 1456.02 956.359 1451.78 956.344C1448.55 956.359 1447.42 954.344 1446.84 953.406H1446.62V962.375H1443.94ZM1446.56 947.5C1446.58 951.312 1448.28 953.938 1451.41 953.938C1454.62 953.938 1456.28 951.109 1456.28 947.5C1456.28 943.953 1454.67 941.219 1451.41 941.219C1448.23 941.219 1446.58 943.734 1446.56 947.5ZM1462.47 956V939.031H1465.06V941.625H1465.25C1465.86 939.906 1467.62 938.766 1469.62 938.75C1470.03 938.766 1470.72 938.781 1471.03 938.812V941.531C1470.83 941.484 1470.11 941.344 1469.41 941.344C1466.97 941.344 1465.16 943.031 1465.16 945.312V956H1462.47ZM1480.22 956.344C1475.31 956.359 1472.28 952.859 1472.28 947.656C1472.28 942.438 1475.36 938.812 1479.97 938.812C1483.53 938.812 1487.3 941 1487.28 947.281V948.406H1474.97C1475.11 952 1477.2 953.969 1480.22 953.969C1482.25 953.969 1483.53 953.078 1484.16 952.031H1487.03C1486.23 954.609 1483.72 956.359 1480.22 956.344ZM1474.98 946.125H1484.56C1484.55 943.297 1482.77 941.188 1479.97 941.188C1477.03 941.188 1475.17 943.5 1474.98 946.125ZM1504.22 939.031L1497.94 956H1495.16L1488.91 939.031H1491.84L1496.47 952.5H1496.66L1501.28 939.031H1504.22ZM1507.19 956V939.031H1509.88V956H1507.19ZM1506.66 934.438C1506.64 933.438 1507.5 932.641 1508.53 932.656C1509.56 932.641 1510.42 933.438 1510.44 934.438C1510.42 935.422 1509.56 936.219 1508.53 936.219C1507.5 936.219 1506.64 935.422 1506.66 934.438ZM1521.09 956.344C1516.47 956.359 1513.34 952.859 1513.34 947.594C1513.34 942.297 1516.47 938.812 1521.09 938.812C1525.7 938.812 1528.8 942.297 1528.78 947.594C1528.8 952.859 1525.7 956.359 1521.09 956.344ZM1516.03 947.594C1516.05 950.984 1517.64 953.969 1521.09 953.969C1524.52 953.969 1526.09 950.984 1526.09 947.594C1526.09 944.219 1524.52 941.188 1521.09 941.188C1517.64 941.188 1516.05 944.219 1516.03 947.594ZM1543.03 949.031V939.031H1545.69V956H1543.03V953.125H1542.84C1542.05 954.844 1540.36 956.219 1537.81 956.219C1534.59 956.219 1532.3 954.125 1532.31 949.812V939.031H1535V949.625C1535 952.062 1536.52 953.641 1538.69 953.625C1540.61 953.641 1543.02 952.203 1543.03 949.031ZM1559.44 943.438C1559.06 942.031 1557.98 941.109 1556 941.094C1553.91 941.109 1552.42 942.234 1552.41 943.656C1552.42 944.781 1553.33 945.547 1555.31 946.031L1557.84 946.656C1560.88 947.375 1562.36 948.891 1562.38 951.25C1562.36 954.188 1559.97 956.359 1555.72 956.344C1551.91 956.359 1549.64 954.656 1549.19 951.562H1552C1552.31 953.219 1553.52 954.016 1555.66 954C1558.08 954.016 1559.59 953 1559.59 951.406C1559.59 950.203 1558.73 949.422 1556.81 948.969L1554.25 948.375C1551.3 947.688 1549.72 946.078 1549.72 943.812C1549.72 940.906 1552.27 938.812 1556 938.812C1559.52 938.812 1561.72 940.688 1562.06 943.438H1559.44ZM1574.25 956V933.375H1581.94C1587.23 933.375 1589.66 936.312 1589.66 940.344C1589.66 943.344 1588.31 945.688 1585.44 946.688L1590.53 956H1587.25L1582.52 947.203C1582.34 947.219 1582.16 947.219 1581.97 947.219H1577.06V956H1574.25ZM1577.06 944.656H1581.84C1585.45 944.656 1586.86 943.031 1586.88 940.344C1586.86 937.641 1585.45 935.875 1581.81 935.875H1577.06V944.656ZM1600.31 956.344C1595.41 956.359 1592.38 952.859 1592.38 947.656C1592.38 942.438 1595.45 938.812 1600.06 938.812C1603.62 938.812 1607.39 941 1607.38 947.281V948.406H1595.06C1595.2 952 1597.3 953.969 1600.31 953.969C1602.34 953.969 1603.62 953.078 1604.25 952.031H1607.12C1606.33 954.609 1603.81 956.359 1600.31 956.344ZM1595.08 946.125H1604.66C1604.64 943.297 1602.86 941.188 1600.06 941.188C1597.12 941.188 1595.27 943.5 1595.08 946.125ZM1617.81 956.344C1613 956.359 1610.06 952.688 1610.06 947.594C1610.06 942.438 1613.14 938.812 1617.75 938.812C1621.36 938.812 1624.08 940.953 1624.5 944.156H1621.81C1621.42 942.609 1620.08 941.188 1617.81 941.188C1614.78 941.188 1612.77 943.688 1612.75 947.5C1612.77 951.422 1614.73 953.938 1617.81 953.938C1619.81 953.938 1621.34 952.859 1621.81 951H1624.5C1624.08 954.031 1621.58 956.359 1617.81 956.344ZM1634.75 956.344C1630.12 956.359 1627 952.859 1627 947.594C1627 942.297 1630.12 938.812 1634.75 938.812C1639.36 938.812 1642.45 942.297 1642.44 947.594C1642.45 952.859 1639.36 956.359 1634.75 956.344ZM1629.69 947.594C1629.7 950.984 1631.3 953.969 1634.75 953.969C1638.17 953.969 1639.75 950.984 1639.75 947.594C1639.75 944.219 1638.17 941.188 1634.75 941.188C1631.3 941.188 1629.7 944.219 1629.69 947.594ZM1645.97 956V939.031H1648.56V941.625H1648.75C1649.36 939.906 1651.12 938.766 1653.12 938.75C1653.53 938.766 1654.22 938.781 1654.53 938.812V941.531C1654.33 941.484 1653.61 941.344 1652.91 941.344C1650.47 941.344 1648.66 943.031 1648.66 945.312V956H1645.97ZM1663 956.344C1658.77 956.359 1655.78 952.953 1655.78 947.562C1655.78 942.188 1658.77 938.812 1663.03 938.812C1666.33 938.812 1667.36 940.812 1667.94 941.719H1668.12V933.375H1670.84V956H1668.22V953.406H1667.94C1667.34 954.344 1666.23 956.359 1663 956.344ZM1658.5 947.5C1658.5 951.109 1660.16 953.938 1663.38 953.938C1666.48 953.938 1668.2 951.312 1668.22 947.5C1668.2 943.734 1666.53 941.219 1663.38 941.219C1660.11 941.219 1658.5 943.953 1658.5 947.5ZM1690.91 956H1683.88V933.375H1691.19C1697.8 933.375 1701.69 937.609 1701.69 944.656C1701.69 951.719 1697.8 956 1690.91 956ZM1686.69 953.5H1690.72C1696.27 953.5 1698.94 950.141 1698.94 944.656C1698.94 939.188 1696.27 935.875 1691 935.875H1686.69V953.5ZM1704.66 951.188C1704.66 947.297 1708.09 946.406 1711.03 946.188C1712.12 946.109 1714.86 945.953 1715.62 945.938V944.562C1715.62 942.406 1714.34 941.156 1711.78 941.156C1709.64 941.156 1708.34 942.141 1707.97 943.438H1705.16C1705.5 940.703 1708.16 938.812 1711.91 938.812C1714.12 938.812 1718.3 939.469 1718.28 944.812V956H1715.62V953.688H1715.5C1714.94 954.828 1713.39 956.391 1710.44 956.406C1707.22 956.391 1704.66 954.5 1704.66 951.188ZM1707.34 951.312C1707.36 953.109 1708.84 954.016 1710.91 954C1713.94 954.016 1715.62 951.984 1715.62 949.844V948.141C1714.83 948.188 1712.16 948.391 1711.34 948.438C1708.91 948.594 1707.36 949.453 1707.34 951.312ZM1730 939.031V941.281H1726.44V951.125C1726.42 953.297 1727.52 953.656 1728.66 953.656C1729.14 953.656 1729.86 953.609 1730.25 953.594V956.094C1729.83 956.156 1729.17 956.219 1728.38 956.219C1726.11 956.219 1723.73 954.812 1723.72 951.812V941.281H1721.16V939.031H1723.72V934.969H1726.44V939.031H1730ZM1732.66 951.188C1732.66 947.297 1736.09 946.406 1739.03 946.188C1740.12 946.109 1742.86 945.953 1743.62 945.938V944.562C1743.62 942.406 1742.34 941.156 1739.78 941.156C1737.64 941.156 1736.34 942.141 1735.97 943.438H1733.16C1733.5 940.703 1736.16 938.812 1739.91 938.812C1742.12 938.812 1746.3 939.469 1746.28 944.812V956H1743.62V953.688H1743.5C1742.94 954.828 1741.39 956.391 1738.44 956.406C1735.22 956.391 1732.66 954.5 1732.66 951.188ZM1735.34 951.312C1735.36 953.109 1736.84 954.016 1738.91 954C1741.94 954.016 1743.62 951.984 1743.62 949.844V948.141C1742.83 948.188 1740.16 948.391 1739.34 948.438C1736.91 948.594 1735.36 949.453 1735.34 951.312Z" fill="black" fill-opacity="0.7"/>
<path d="M1116.64 284.378C1116.29 285.131 1116.62 286.021 1117.38 286.365L1129.66 291.967C1130.41 292.31 1131.3 291.978 1131.65 291.224C1131.99 290.471 1131.66 289.581 1130.91 289.237L1119.99 284.258L1124.97 273.34C1125.31 272.586 1124.98 271.696 1124.22 271.352C1123.47 271.009 1122.58 271.341 1122.24 272.095L1116.64 284.378ZM1291.48 218.595L1117.48 283.595L1118.52 286.405L1292.52 221.405L1291.48 218.595Z" fill="black" fill-opacity="0.1"/>
<path d="M1349.69 162.844L1346.31 157.812H1350.62L1352.97 162.844H1349.69ZM1363.72 172.188V182H1359.09V159.375H1363.59V168H1363.78C1364.56 166.016 1366.27 164.812 1368.84 164.812C1372.39 164.812 1374.72 167.203 1374.72 171.188V182H1370.09V172C1370.09 169.891 1368.97 168.656 1367.03 168.656C1365.08 168.656 1363.72 169.953 1363.72 172.188ZM1384.16 162.844L1380.78 157.812H1385.09L1387.44 162.844H1384.16ZM1401.94 182V165.031H1404.62V182H1401.94ZM1401.41 160.438C1401.39 159.438 1402.25 158.641 1403.28 158.656C1404.31 158.641 1405.17 159.438 1405.19 160.438C1405.17 161.422 1404.31 162.219 1403.28 162.219C1402.25 162.219 1401.39 161.422 1401.41 160.438ZM1418.34 169.438C1417.97 168.031 1416.89 167.109 1414.91 167.094C1412.81 167.109 1411.33 168.234 1411.31 169.656C1411.33 170.781 1412.23 171.547 1414.22 172.031L1416.75 172.656C1419.78 173.375 1421.27 174.891 1421.28 177.25C1421.27 180.188 1418.88 182.359 1414.62 182.344C1410.81 182.359 1408.55 180.656 1408.09 177.562H1410.91C1411.22 179.219 1412.42 180.016 1414.56 180C1416.98 180.016 1418.5 179 1418.5 177.406C1418.5 176.203 1417.64 175.422 1415.72 174.969L1413.16 174.375C1410.2 173.688 1408.62 172.078 1408.62 169.812C1408.62 166.906 1411.17 164.812 1414.91 164.812C1418.42 164.812 1420.62 166.688 1420.97 169.438H1418.34ZM1432.81 182V165.031H1435.5V182H1432.81ZM1432.28 160.438C1432.27 159.438 1433.12 158.641 1434.16 158.656C1435.19 158.641 1436.05 159.438 1436.06 160.438C1436.05 161.422 1435.19 162.219 1434.16 162.219C1433.12 162.219 1432.27 161.422 1432.28 160.438ZM1442.47 171.812V182H1439.78V165.031H1442.38V167.688H1442.59C1443.39 165.953 1444.98 164.812 1447.56 164.812C1451 164.812 1453.3 166.906 1453.28 171.219V182H1450.59V171.406C1450.59 168.781 1449.16 167.219 1446.75 167.219C1444.28 167.219 1442.47 168.875 1442.47 171.812ZM1464.69 168.281L1467.38 159.375H1470.69L1469.12 168.281H1464.69ZM1482.75 165.031V168.5H1479.38V182H1474.75V168.5H1472.34V165.031H1474.75V163.75C1474.75 160.172 1476.91 158.312 1480.31 158.312C1481.36 158.312 1482.25 158.406 1483.06 158.594V162.094C1482.39 162.031 1481.91 162.016 1481.66 162C1480.17 162.016 1479.38 162.578 1479.38 164V165.031H1482.75ZM1485.47 182V165.031H1490.09V182H1485.47ZM1485.25 160.469C1485.25 159.156 1486.39 158.109 1487.78 158.094C1489.16 158.109 1490.3 159.156 1490.28 160.469C1490.3 161.75 1489.16 162.812 1487.78 162.812C1486.39 162.812 1485.25 161.75 1485.25 160.469ZM1498.31 159.375V182H1493.69V159.375H1498.31ZM1509.59 182.344C1504.39 182.328 1501.2 178.969 1501.22 173.594C1501.2 168.359 1504.44 164.812 1509.41 164.812C1513.86 164.812 1517.38 167.625 1517.38 173.406V174.719H1505.78C1505.78 177.281 1507.3 178.859 1509.69 178.875C1511.27 178.859 1512.39 178.172 1512.84 177.156H1517.25C1516.59 180.297 1513.78 182.328 1509.59 182.344ZM1505.78 171.812H1513C1512.98 169.75 1511.56 168.266 1509.5 168.281C1507.38 168.266 1505.88 169.859 1505.78 171.812ZM1529.97 170.062C1529.77 168.875 1528.73 168.109 1527.19 168.094C1525.69 168.109 1524.55 168.812 1524.56 169.844C1524.55 170.609 1525.14 171.203 1526.75 171.531L1529.78 172.156C1533.08 172.844 1534.67 174.312 1534.69 176.75C1534.67 180.094 1531.67 182.328 1527.16 182.344C1522.58 182.328 1519.89 180.281 1519.5 176.969H1524.16C1524.38 178.297 1525.45 178.984 1527.16 179C1528.84 178.984 1529.97 178.312 1529.97 177.219C1529.97 176.344 1529.25 175.797 1527.66 175.469L1524.84 174.906C1521.61 174.266 1519.95 172.609 1519.97 170.094C1519.95 166.844 1522.75 164.812 1527.12 164.812C1531.41 164.812 1534.06 166.844 1534.31 170.062H1529.97ZM1542.94 159.375L1540.25 168.281H1536.94L1538.5 159.375H1542.94ZM1546.91 179.688L1544.22 188.594H1540.91L1542.47 179.688H1546.91ZM1559.78 182V159.375H1562.47V167.719H1562.69C1563.27 166.812 1564.28 164.812 1567.59 164.812C1571.84 164.812 1574.83 168.188 1574.84 173.562C1574.83 178.953 1571.84 182.359 1567.62 182.344C1564.38 182.359 1563.27 180.344 1562.69 179.406H1562.38V182H1559.78ZM1562.41 173.5C1562.41 177.312 1564.12 179.938 1567.22 179.938C1570.45 179.938 1572.11 177.109 1572.12 173.5C1572.11 169.953 1570.5 167.219 1567.22 167.219C1564.09 167.219 1562.41 169.734 1562.41 173.5ZM1589.06 175.031V165.031H1591.72V182H1589.06V179.125H1588.88C1588.08 180.844 1586.39 182.219 1583.84 182.219C1580.62 182.219 1578.33 180.125 1578.34 175.812V165.031H1581.03V175.625C1581.03 178.062 1582.55 179.641 1584.72 179.625C1586.64 179.641 1589.05 178.203 1589.06 175.031ZM1603.44 165.031V167.281H1599.88V177.125C1599.86 179.297 1600.95 179.656 1602.09 179.656C1602.58 179.656 1603.3 179.609 1603.69 179.594V182.094C1603.27 182.156 1602.61 182.219 1601.81 182.219C1599.55 182.219 1597.17 180.812 1597.16 177.812V167.281H1594.59V165.031H1597.16V160.969H1599.88V165.031H1603.44ZM1621.88 182.344C1617.25 182.359 1614.12 178.859 1614.12 173.594C1614.12 168.297 1617.25 164.812 1621.88 164.812C1626.48 164.812 1629.58 168.297 1629.56 173.594C1629.58 178.859 1626.48 182.359 1621.88 182.344ZM1616.81 173.594C1616.83 176.984 1618.42 179.969 1621.88 179.969C1625.3 179.969 1626.88 176.984 1626.88 173.594C1626.88 170.219 1625.3 167.188 1621.88 167.188C1618.42 167.188 1616.83 170.219 1616.81 173.594ZM1643.81 175.031V165.031H1646.47V182H1643.81V179.125H1643.62C1642.83 180.844 1641.14 182.219 1638.59 182.219C1635.38 182.219 1633.08 180.125 1633.09 175.812V165.031H1635.78V175.625C1635.78 178.062 1637.3 179.641 1639.47 179.625C1641.39 179.641 1643.8 178.203 1643.81 175.031ZM1658.19 165.031V167.281H1654.62V177.125C1654.61 179.297 1655.7 179.656 1656.84 179.656C1657.33 179.656 1658.05 179.609 1658.44 179.594V182.094C1658.02 182.156 1657.36 182.219 1656.56 182.219C1654.3 182.219 1651.92 180.812 1651.91 177.812V167.281H1649.34V165.031H1651.91V160.969H1654.62V165.031H1658.19ZM1670.78 169.438C1670.41 168.031 1669.33 167.109 1667.34 167.094C1665.25 167.109 1663.77 168.234 1663.75 169.656C1663.77 170.781 1664.67 171.547 1666.66 172.031L1669.19 172.656C1672.22 173.375 1673.7 174.891 1673.72 177.25C1673.7 180.188 1671.31 182.359 1667.06 182.344C1663.25 182.359 1660.98 180.656 1660.53 177.562H1663.34C1663.66 179.219 1664.86 180.016 1667 180C1669.42 180.016 1670.94 179 1670.94 177.406C1670.94 176.203 1670.08 175.422 1668.16 174.969L1665.59 174.375C1662.64 173.688 1661.06 172.078 1661.06 169.812C1661.06 166.906 1663.61 164.812 1667.34 164.812C1670.86 164.812 1673.06 166.688 1673.41 169.438H1670.78ZM1677.22 182V165.031H1679.91V182H1677.22ZM1676.69 160.438C1676.67 159.438 1677.53 158.641 1678.56 158.656C1679.59 158.641 1680.45 159.438 1680.47 160.438C1680.45 161.422 1679.59 162.219 1678.56 162.219C1677.53 162.219 1676.67 161.422 1676.69 160.438ZM1690.59 182.344C1686.36 182.359 1683.38 178.953 1683.38 173.562C1683.38 168.188 1686.36 164.812 1690.62 164.812C1693.92 164.812 1694.95 166.812 1695.53 167.719H1695.72V159.375H1698.44V182H1695.81V179.406H1695.53C1694.94 180.344 1693.83 182.359 1690.59 182.344ZM1686.09 173.5C1686.09 177.109 1687.75 179.938 1690.97 179.938C1694.08 179.938 1695.8 177.312 1695.81 173.5C1695.8 169.734 1694.12 167.219 1690.97 167.219C1687.7 167.219 1686.09 169.953 1686.09 173.5ZM1710.22 182.344C1705.31 182.359 1702.28 178.859 1702.28 173.656C1702.28 168.438 1705.36 164.812 1709.97 164.812C1713.53 164.812 1717.3 167 1717.28 173.281V174.406H1704.97C1705.11 178 1707.2 179.969 1710.22 179.969C1712.25 179.969 1713.53 179.078 1714.16 178.031H1717.03C1716.23 180.609 1713.72 182.359 1710.22 182.344ZM1704.98 172.125H1714.56C1714.55 169.297 1712.77 167.188 1709.97 167.188C1707.03 167.188 1705.17 169.5 1704.98 172.125ZM1351.09 220.344C1346.47 220.359 1343.34 216.859 1343.34 211.594C1343.34 206.297 1346.47 202.812 1351.09 202.812C1355.7 202.812 1358.8 206.297 1358.78 211.594C1358.8 216.859 1355.7 220.359 1351.09 220.344ZM1346.03 211.594C1346.05 214.984 1347.64 217.969 1351.09 217.969C1354.52 217.969 1356.09 214.984 1356.09 211.594C1356.09 208.219 1354.52 205.188 1351.09 205.188C1347.64 205.188 1346.05 208.219 1346.03 211.594ZM1369.91 203.031V205.281H1366.16V220H1363.44V205.281H1360.72V203.031H1363.44V200.719C1363.45 197.969 1365.28 196.312 1368.28 196.312C1368.94 196.312 1369.72 196.391 1370.28 196.5V198.906C1369.7 198.812 1369.22 198.781 1368.88 198.781C1366.98 198.781 1366.14 199.562 1366.16 201.312V203.031H1369.91ZM1388.53 203.031V205.281H1384.97V215.125C1384.95 217.297 1386.05 217.656 1387.19 217.656C1387.67 217.656 1388.39 217.609 1388.78 217.594V220.094C1388.36 220.156 1387.7 220.219 1386.91 220.219C1384.64 220.219 1382.27 218.812 1382.25 215.812V205.281H1379.69V203.031H1382.25V198.969H1384.97V203.031H1388.53ZM1395.06 209.812V220H1392.38V197.375H1395.06V205.688H1395.28C1396.08 203.938 1397.59 202.812 1400.28 202.812C1403.75 202.812 1406.06 204.859 1406.06 209.219V220H1403.38V209.406C1403.38 206.734 1401.91 205.219 1399.47 205.219C1396.94 205.219 1395.06 206.875 1395.06 209.812ZM1417.5 220.344C1412.59 220.359 1409.56 216.859 1409.56 211.656C1409.56 206.438 1412.64 202.812 1417.25 202.812C1420.81 202.812 1424.58 205 1424.56 211.281V212.406H1412.25C1412.39 216 1414.48 217.969 1417.5 217.969C1419.53 217.969 1420.81 217.078 1421.44 216.031H1424.31C1423.52 218.609 1421 220.359 1417.5 220.344ZM1412.27 210.125H1421.84C1421.83 207.297 1420.05 205.188 1417.25 205.188C1414.31 205.188 1412.45 207.5 1412.27 210.125ZM1443.88 220.312C1439.38 220.312 1436.14 217.906 1436 214.312H1438.84C1439 216.469 1441.14 217.812 1443.84 217.812C1446.83 217.812 1448.98 216.203 1449 213.844C1448.98 211.375 1447.02 209.641 1443.5 209.625H1441.66V207.156H1443.5C1446.25 207.156 1448.17 205.609 1448.16 203.281C1448.17 201.016 1446.52 199.516 1443.94 199.5C1441.52 199.516 1439.31 200.844 1439.19 203.062H1436.47C1436.61 199.469 1439.95 197.062 1443.97 197.062C1448.28 197.062 1450.91 199.891 1450.88 203.125C1450.91 205.703 1449.41 207.578 1447.03 208.25V208.406C1449.98 208.859 1451.77 210.969 1451.75 213.844C1451.77 217.562 1448.39 220.312 1443.88 220.312ZM1473.31 207.438C1472.94 206.031 1471.86 205.109 1469.88 205.094C1467.78 205.109 1466.3 206.234 1466.28 207.656C1466.3 208.781 1467.2 209.547 1469.19 210.031L1471.72 210.656C1474.75 211.375 1476.23 212.891 1476.25 215.25C1476.23 218.188 1473.84 220.359 1469.59 220.344C1465.78 220.359 1463.52 218.656 1463.06 215.562H1465.88C1466.19 217.219 1467.39 218.016 1469.53 218C1471.95 218.016 1473.47 217 1473.47 215.406C1473.47 214.203 1472.61 213.422 1470.69 212.969L1468.12 212.375C1465.17 211.688 1463.59 210.078 1463.59 207.812C1463.59 204.906 1466.14 202.812 1469.88 202.812C1473.39 202.812 1475.59 204.688 1475.94 207.438H1473.31ZM1486.88 220.344C1481.97 220.359 1478.94 216.859 1478.94 211.656C1478.94 206.438 1482.02 202.812 1486.62 202.812C1490.19 202.812 1493.95 205 1493.94 211.281V212.406H1481.62C1481.77 216 1483.86 217.969 1486.88 217.969C1488.91 217.969 1490.19 217.078 1490.81 216.031H1493.69C1492.89 218.609 1490.38 220.359 1486.88 220.344ZM1481.64 210.125H1491.22C1491.2 207.297 1489.42 205.188 1486.62 205.188C1483.69 205.188 1481.83 207.5 1481.64 210.125ZM1504.84 203.031V205.281H1501.28V215.125C1501.27 217.297 1502.36 217.656 1503.5 217.656C1503.98 217.656 1504.7 217.609 1505.09 217.594V220.094C1504.67 220.156 1504.02 220.219 1503.22 220.219C1500.95 220.219 1498.58 218.812 1498.56 215.812V205.281H1496V203.031H1498.56V198.969H1501.28V203.031H1504.84ZM1517.44 207.438C1517.06 206.031 1515.98 205.109 1514 205.094C1511.91 205.109 1510.42 206.234 1510.41 207.656C1510.42 208.781 1511.33 209.547 1513.31 210.031L1515.84 210.656C1518.88 211.375 1520.36 212.891 1520.38 215.25C1520.36 218.188 1517.97 220.359 1513.72 220.344C1509.91 220.359 1507.64 218.656 1507.19 215.562H1510C1510.31 217.219 1511.52 218.016 1513.66 218C1516.08 218.016 1517.59 217 1517.59 215.406C1517.59 214.203 1516.73 213.422 1514.81 212.969L1512.25 212.375C1509.3 211.688 1507.72 210.078 1507.72 207.812C1507.72 204.906 1510.27 202.812 1514 202.812C1517.52 202.812 1519.72 204.688 1520.06 207.438H1517.44ZM1525.78 220.188C1524.69 220.172 1523.75 219.266 1523.78 218.156C1523.75 217.062 1524.69 216.156 1525.78 216.156C1526.89 216.156 1527.8 217.062 1527.78 218.156C1527.8 219.266 1526.89 220.172 1525.78 220.188Z" fill="black" fill-opacity="0.7"/>
<path d="M1122.31 531V497.062H1127.69V531H1122.31ZM1121.25 487.875C1121.22 485.875 1122.94 484.281 1125 484.312C1127.06 484.281 1128.78 485.875 1128.81 487.875C1128.78 489.844 1127.06 491.438 1125 491.438C1122.94 491.438 1121.22 489.844 1121.25 487.875Z" fill="black" fill-opacity="0.7"/>
<path d="M1185.94 506.939C1185.35 507.525 1185.35 508.475 1185.94 509.061L1195.49 518.607C1196.07 519.192 1197.02 519.192 1197.61 518.607C1198.19 518.021 1198.19 517.071 1197.61 516.485L1189.12 508L1197.61 499.515C1198.19 498.929 1198.19 497.979 1197.61 497.393C1197.02 496.808 1196.07 496.808 1195.49 497.393L1185.94 506.939ZM1287 506.5H1187V509.5H1287V506.5Z" fill="black" fill-opacity="0.1"/>
<path d="M1349.69 488.844L1346.31 483.812H1350.62L1352.97 488.844H1349.69ZM1359.09 508V491.031H1363.72V508H1359.09ZM1358.88 486.469C1358.88 485.156 1360.02 484.109 1361.41 484.094C1362.78 484.109 1363.92 485.156 1363.91 486.469C1363.92 487.75 1362.78 488.812 1361.41 488.812C1360.02 488.812 1358.88 487.75 1358.88 486.469ZM1373.19 488.844L1369.81 483.812H1374.12L1376.47 488.844H1373.19ZM1390.97 508V491.031H1393.66V508H1390.97ZM1390.44 486.438C1390.42 485.438 1391.28 484.641 1392.31 484.656C1393.34 484.641 1394.2 485.438 1394.22 486.438C1394.2 487.422 1393.34 488.219 1392.31 488.219C1391.28 488.219 1390.42 487.422 1390.44 486.438ZM1407.38 495.438C1407 494.031 1405.92 493.109 1403.94 493.094C1401.84 493.109 1400.36 494.234 1400.34 495.656C1400.36 496.781 1401.27 497.547 1403.25 498.031L1405.78 498.656C1408.81 499.375 1410.3 500.891 1410.31 503.25C1410.3 506.188 1407.91 508.359 1403.66 508.344C1399.84 508.359 1397.58 506.656 1397.12 503.562H1399.94C1400.25 505.219 1401.45 506.016 1403.59 506C1406.02 506.016 1407.53 505 1407.53 503.406C1407.53 502.203 1406.67 501.422 1404.75 500.969L1402.19 500.375C1399.23 499.688 1397.66 498.078 1397.66 495.812C1397.66 492.906 1400.2 490.812 1403.94 490.812C1407.45 490.812 1409.66 492.688 1410 495.438H1407.38ZM1421.84 508V491.031H1424.53V508H1421.84ZM1421.31 486.438C1421.3 485.438 1422.16 484.641 1423.19 484.656C1424.22 484.641 1425.08 485.438 1425.09 486.438C1425.08 487.422 1424.22 488.219 1423.19 488.219C1422.16 488.219 1421.3 487.422 1421.31 486.438ZM1431.5 497.812V508H1428.81V491.031H1431.41V493.688H1431.62C1432.42 491.953 1434.02 490.812 1436.59 490.812C1440.03 490.812 1442.33 492.906 1442.31 497.219V508H1439.62V497.406C1439.62 494.781 1438.19 493.219 1435.78 493.219C1433.31 493.219 1431.5 494.875 1431.5 497.812ZM1462.06 491.031V493.281H1458.5V503.125C1458.48 505.297 1459.58 505.656 1460.72 505.656C1461.2 505.656 1461.92 505.609 1462.31 505.594V508.094C1461.89 508.156 1461.23 508.219 1460.44 508.219C1458.17 508.219 1455.8 506.812 1455.78 503.812V493.281H1453.22V491.031H1455.78V486.969H1458.5V491.031H1462.06ZM1468.59 497.812V508H1465.91V485.375H1468.59V493.688H1468.81C1469.61 491.938 1471.12 490.812 1473.81 490.812C1477.28 490.812 1479.59 492.859 1479.59 497.219V508H1476.91V497.406C1476.91 494.734 1475.44 493.219 1473 493.219C1470.47 493.219 1468.59 494.875 1468.59 497.812ZM1491.03 508.344C1486.12 508.359 1483.09 504.859 1483.09 499.656C1483.09 494.438 1486.17 490.812 1490.78 490.812C1494.34 490.812 1498.11 493 1498.09 499.281V500.406H1485.78C1485.92 504 1488.02 505.969 1491.03 505.969C1493.06 505.969 1494.34 505.078 1494.97 504.031H1497.84C1497.05 506.609 1494.53 508.359 1491.03 508.344ZM1485.8 498.125H1495.38C1495.36 495.297 1493.58 493.188 1490.78 493.188C1487.84 493.188 1485.98 495.5 1485.8 498.125ZM1509.62 514.375V491.031H1512.22V493.719H1512.53C1513.11 492.812 1514.14 490.812 1517.44 490.812C1521.7 490.812 1524.66 494.188 1524.66 499.562C1524.66 504.953 1521.7 508.359 1517.47 508.344C1514.23 508.359 1513.11 506.344 1512.53 505.406H1512.31V514.375H1509.62ZM1512.25 499.5C1512.27 503.312 1513.97 505.938 1517.09 505.938C1520.31 505.938 1521.97 503.109 1521.97 499.5C1521.97 495.953 1520.36 493.219 1517.09 493.219C1513.92 493.219 1512.27 495.734 1512.25 499.5ZM1528.16 508V491.031H1530.75V493.625H1530.94C1531.55 491.906 1533.31 490.766 1535.31 490.75C1535.72 490.766 1536.41 490.781 1536.72 490.812V493.531C1536.52 493.484 1535.8 493.344 1535.09 493.344C1532.66 493.344 1530.84 495.031 1530.84 497.312V508H1528.16ZM1545.91 508.344C1541 508.359 1537.97 504.859 1537.97 499.656C1537.97 494.438 1541.05 490.812 1545.66 490.812C1549.22 490.812 1552.98 493 1552.97 499.281V500.406H1540.66C1540.8 504 1542.89 505.969 1545.91 505.969C1547.94 505.969 1549.22 505.078 1549.84 504.031H1552.72C1551.92 506.609 1549.41 508.359 1545.91 508.344ZM1540.67 498.125H1550.25C1550.23 495.297 1548.45 493.188 1545.66 493.188C1542.72 493.188 1540.86 495.5 1540.67 498.125ZM1569.91 491.031L1563.62 508H1560.84L1554.59 491.031H1557.53L1562.16 504.5H1562.34L1566.97 491.031H1569.91ZM1572.88 508V491.031H1575.56V508H1572.88ZM1572.34 486.438C1572.33 485.438 1573.19 484.641 1574.22 484.656C1575.25 484.641 1576.11 485.438 1576.12 486.438C1576.11 487.422 1575.25 488.219 1574.22 488.219C1573.19 488.219 1572.33 487.422 1572.34 486.438ZM1586.78 508.344C1582.16 508.359 1579.03 504.859 1579.03 499.594C1579.03 494.297 1582.16 490.812 1586.78 490.812C1591.39 490.812 1594.48 494.297 1594.47 499.594C1594.48 504.859 1591.39 508.359 1586.78 508.344ZM1581.72 499.594C1581.73 502.984 1583.33 505.969 1586.78 505.969C1590.2 505.969 1591.78 502.984 1591.78 499.594C1591.78 496.219 1590.2 493.188 1586.78 493.188C1583.33 493.188 1581.73 496.219 1581.72 499.594ZM1608.72 501.031V491.031H1611.38V508H1608.72V505.125H1608.53C1607.73 506.844 1606.05 508.219 1603.5 508.219C1600.28 508.219 1597.98 506.125 1598 501.812V491.031H1600.69V501.625C1600.69 504.062 1602.2 505.641 1604.38 505.625C1606.3 505.641 1608.7 504.203 1608.72 501.031ZM1625.12 495.438C1624.75 494.031 1623.67 493.109 1621.69 493.094C1619.59 493.109 1618.11 494.234 1618.09 495.656C1618.11 496.781 1619.02 497.547 1621 498.031L1623.53 498.656C1626.56 499.375 1628.05 500.891 1628.06 503.25C1628.05 506.188 1625.66 508.359 1621.41 508.344C1617.59 508.359 1615.33 506.656 1614.88 503.562H1617.69C1618 505.219 1619.2 506.016 1621.34 506C1623.77 506.016 1625.28 505 1625.28 503.406C1625.28 502.203 1624.42 501.422 1622.5 500.969L1619.94 500.375C1616.98 499.688 1615.41 498.078 1615.41 495.812C1615.41 492.906 1617.95 490.812 1621.69 490.812C1625.2 490.812 1627.41 492.688 1627.75 495.438H1625.12ZM1639.94 508V485.375H1647.62C1652.92 485.375 1655.34 488.312 1655.34 492.344C1655.34 495.344 1654 497.688 1651.12 498.688L1656.22 508H1652.94L1648.2 499.203C1648.03 499.219 1647.84 499.219 1647.66 499.219H1642.75V508H1639.94ZM1642.75 496.656H1647.53C1651.14 496.656 1652.55 495.031 1652.56 492.344C1652.55 489.641 1651.14 487.875 1647.5 487.875H1642.75V496.656ZM1666 508.344C1661.09 508.359 1658.06 504.859 1658.06 499.656C1658.06 494.438 1661.14 490.812 1665.75 490.812C1669.31 490.812 1673.08 493 1673.06 499.281V500.406H1660.75C1660.89 504 1662.98 505.969 1666 505.969C1668.03 505.969 1669.31 505.078 1669.94 504.031H1672.81C1672.02 506.609 1669.5 508.359 1666 508.344ZM1660.77 498.125H1670.34C1670.33 495.297 1668.55 493.188 1665.75 493.188C1662.81 493.188 1660.95 495.5 1660.77 498.125ZM1683.5 508.344C1678.69 508.359 1675.75 504.688 1675.75 499.594C1675.75 494.438 1678.83 490.812 1683.44 490.812C1687.05 490.812 1689.77 492.953 1690.19 496.156H1687.5C1687.11 494.609 1685.77 493.188 1683.5 493.188C1680.47 493.188 1678.45 495.688 1678.44 499.5C1678.45 503.422 1680.42 505.938 1683.5 505.938C1685.5 505.938 1687.03 504.859 1687.5 503H1690.19C1689.77 506.031 1687.27 508.359 1683.5 508.344ZM1700.44 508.344C1695.81 508.359 1692.69 504.859 1692.69 499.594C1692.69 494.297 1695.81 490.812 1700.44 490.812C1705.05 490.812 1708.14 494.297 1708.12 499.594C1708.14 504.859 1705.05 508.359 1700.44 508.344ZM1695.38 499.594C1695.39 502.984 1696.98 505.969 1700.44 505.969C1703.86 505.969 1705.44 502.984 1705.44 499.594C1705.44 496.219 1703.86 493.188 1700.44 493.188C1696.98 493.188 1695.39 496.219 1695.38 499.594ZM1711.66 508V491.031H1714.25V493.625H1714.44C1715.05 491.906 1716.81 490.766 1718.81 490.75C1719.22 490.766 1719.91 490.781 1720.22 490.812V493.531C1720.02 493.484 1719.3 493.344 1718.59 493.344C1716.16 493.344 1714.34 495.031 1714.34 497.312V508H1711.66ZM1728.69 508.344C1724.45 508.359 1721.47 504.953 1721.47 499.562C1721.47 494.188 1724.45 490.812 1728.72 490.812C1732.02 490.812 1733.05 492.812 1733.62 493.719H1733.81V485.375H1736.53V508H1733.91V505.406H1733.62C1733.03 506.344 1731.92 508.359 1728.69 508.344ZM1724.19 499.5C1724.19 503.109 1725.84 505.938 1729.06 505.938C1732.17 505.938 1733.89 503.312 1733.91 499.5C1733.89 495.734 1732.22 493.219 1729.06 493.219C1725.8 493.219 1724.19 495.953 1724.19 499.5ZM1351.53 546H1344.5V523.375H1351.81C1358.42 523.375 1362.31 527.609 1362.31 534.656C1362.31 541.719 1358.42 546 1351.53 546ZM1347.31 543.5H1351.34C1356.89 543.5 1359.56 540.141 1359.56 534.656C1359.56 529.188 1356.89 525.875 1351.62 525.875H1347.31V543.5ZM1365.28 541.188C1365.28 537.297 1368.72 536.406 1371.66 536.188C1372.75 536.109 1375.48 535.953 1376.25 535.938V534.562C1376.25 532.406 1374.97 531.156 1372.41 531.156C1370.27 531.156 1368.97 532.141 1368.59 533.438H1365.78C1366.12 530.703 1368.78 528.812 1372.53 528.812C1374.75 528.812 1378.92 529.469 1378.91 534.812V546H1376.25V543.688H1376.12C1375.56 544.828 1374.02 546.391 1371.06 546.406C1367.84 546.391 1365.28 544.5 1365.28 541.188ZM1367.97 541.312C1367.98 543.109 1369.47 544.016 1371.53 544C1374.56 544.016 1376.25 541.984 1376.25 539.844V538.141C1375.45 538.188 1372.78 538.391 1371.97 538.438C1369.53 538.594 1367.98 539.453 1367.97 541.312ZM1390.62 529.031V531.281H1387.06V541.125C1387.05 543.297 1388.14 543.656 1389.28 543.656C1389.77 543.656 1390.48 543.609 1390.88 543.594V546.094C1390.45 546.156 1389.8 546.219 1389 546.219C1386.73 546.219 1384.36 544.812 1384.34 541.812V531.281H1381.78V529.031H1384.34V524.969H1387.06V529.031H1390.62ZM1393.28 541.188C1393.28 537.297 1396.72 536.406 1399.66 536.188C1400.75 536.109 1403.48 535.953 1404.25 535.938V534.562C1404.25 532.406 1402.97 531.156 1400.41 531.156C1398.27 531.156 1396.97 532.141 1396.59 533.438H1393.78C1394.12 530.703 1396.78 528.812 1400.53 528.812C1402.75 528.812 1406.92 529.469 1406.91 534.812V546H1404.25V543.688H1404.12C1403.56 544.828 1402.02 546.391 1399.06 546.406C1395.84 546.391 1393.28 544.5 1393.28 541.188ZM1395.97 541.312C1395.98 543.109 1397.47 544.016 1399.53 544C1402.56 544.016 1404.25 541.984 1404.25 539.844V538.141C1403.45 538.188 1400.78 538.391 1399.97 538.438C1397.53 538.594 1395.98 539.453 1395.97 541.312ZM1414.75 543.906L1412.31 552.406H1410L1411.72 543.906H1414.75ZM1427.84 546V523.375H1430.53V531.719H1430.75C1431.33 530.812 1432.34 528.812 1435.66 528.812C1439.91 528.812 1442.89 532.188 1442.91 537.562C1442.89 542.953 1439.91 546.359 1435.69 546.344C1432.44 546.359 1431.33 544.344 1430.75 543.406H1430.44V546H1427.84ZM1430.47 537.5C1430.47 541.312 1432.19 543.938 1435.28 543.938C1438.52 543.938 1440.17 541.109 1440.19 537.5C1440.17 533.953 1438.56 531.219 1435.28 531.219C1432.16 531.219 1430.47 533.734 1430.47 537.5ZM1457.12 539.031V529.031H1459.78V546H1457.12V543.125H1456.94C1456.14 544.844 1454.45 546.219 1451.91 546.219C1448.69 546.219 1446.39 544.125 1446.41 539.812V529.031H1449.09V539.625C1449.09 542.062 1450.61 543.641 1452.78 543.625C1454.7 543.641 1457.11 542.203 1457.12 539.031ZM1471.5 529.031V531.281H1467.94V541.125C1467.92 543.297 1469.02 543.656 1470.16 543.656C1470.64 543.656 1471.36 543.609 1471.75 543.594V546.094C1471.33 546.156 1470.67 546.219 1469.88 546.219C1467.61 546.219 1465.23 544.812 1465.22 541.812V531.281H1462.66V529.031H1465.22V524.969H1467.94V529.031H1471.5ZM1489.94 546.344C1485.31 546.359 1482.19 542.859 1482.19 537.594C1482.19 532.297 1485.31 528.812 1489.94 528.812C1494.55 528.812 1497.64 532.297 1497.62 537.594C1497.64 542.859 1494.55 546.359 1489.94 546.344ZM1484.88 537.594C1484.89 540.984 1486.48 543.969 1489.94 543.969C1493.36 543.969 1494.94 540.984 1494.94 537.594C1494.94 534.219 1493.36 531.188 1489.94 531.188C1486.48 531.188 1484.89 534.219 1484.88 537.594ZM1511.88 539.031V529.031H1514.53V546H1511.88V543.125H1511.69C1510.89 544.844 1509.2 546.219 1506.66 546.219C1503.44 546.219 1501.14 544.125 1501.16 539.812V529.031H1503.84V539.625C1503.84 542.062 1505.36 543.641 1507.53 543.625C1509.45 543.641 1511.86 542.203 1511.88 539.031ZM1526.25 529.031V531.281H1522.69V541.125C1522.67 543.297 1523.77 543.656 1524.91 543.656C1525.39 543.656 1526.11 543.609 1526.5 543.594V546.094C1526.08 546.156 1525.42 546.219 1524.62 546.219C1522.36 546.219 1519.98 544.812 1519.97 541.812V531.281H1517.41V529.031H1519.97V524.969H1522.69V529.031H1526.25ZM1538.84 533.438C1538.47 532.031 1537.39 531.109 1535.41 531.094C1533.31 531.109 1531.83 532.234 1531.81 533.656C1531.83 534.781 1532.73 535.547 1534.72 536.031L1537.25 536.656C1540.28 537.375 1541.77 538.891 1541.78 541.25C1541.77 544.188 1539.38 546.359 1535.12 546.344C1531.31 546.359 1529.05 544.656 1528.59 541.562H1531.41C1531.72 543.219 1532.92 544.016 1535.06 544C1537.48 544.016 1539 543 1539 541.406C1539 540.203 1538.14 539.422 1536.22 538.969L1533.66 538.375C1530.7 537.688 1529.12 536.078 1529.12 533.812C1529.12 530.906 1531.67 528.812 1535.41 528.812C1538.92 528.812 1541.12 530.688 1541.47 533.438H1538.84ZM1545.28 546V529.031H1547.97V546H1545.28ZM1544.75 524.438C1544.73 523.438 1545.59 522.641 1546.62 522.656C1547.66 522.641 1548.52 523.438 1548.53 524.438C1548.52 525.422 1547.66 526.219 1546.62 526.219C1545.59 526.219 1544.73 525.422 1544.75 524.438ZM1558.66 546.344C1554.42 546.359 1551.44 542.953 1551.44 537.562C1551.44 532.188 1554.42 528.812 1558.69 528.812C1561.98 528.812 1563.02 530.812 1563.59 531.719H1563.78V523.375H1566.5V546H1563.88V543.406H1563.59C1563 544.344 1561.89 546.359 1558.66 546.344ZM1554.16 537.5C1554.16 541.109 1555.81 543.938 1559.03 543.938C1562.14 543.938 1563.86 541.312 1563.88 537.5C1563.86 533.734 1562.19 531.219 1559.03 531.219C1555.77 531.219 1554.16 533.953 1554.16 537.5ZM1578.28 546.344C1573.38 546.359 1570.34 542.859 1570.34 537.656C1570.34 532.438 1573.42 528.812 1578.03 528.812C1581.59 528.812 1585.36 531 1585.34 537.281V538.406H1573.03C1573.17 542 1575.27 543.969 1578.28 543.969C1580.31 543.969 1581.59 543.078 1582.22 542.031H1585.09C1584.3 544.609 1581.78 546.359 1578.28 546.344ZM1573.05 536.125H1582.62C1582.61 533.297 1580.83 531.188 1578.03 531.188C1575.09 531.188 1573.23 533.5 1573.05 536.125ZM1603.81 546.344C1599.19 546.359 1596.06 542.859 1596.06 537.594C1596.06 532.297 1599.19 528.812 1603.81 528.812C1608.42 528.812 1611.52 532.297 1611.5 537.594C1611.52 542.859 1608.42 546.359 1603.81 546.344ZM1598.75 537.594C1598.77 540.984 1600.36 543.969 1603.81 543.969C1607.23 543.969 1608.81 540.984 1608.81 537.594C1608.81 534.219 1607.23 531.188 1603.81 531.188C1600.36 531.188 1598.77 534.219 1598.75 537.594ZM1622.62 529.031V531.281H1618.88V546H1616.16V531.281H1613.44V529.031H1616.16V526.719C1616.17 523.969 1618 522.312 1621 522.312C1621.66 522.312 1622.44 522.391 1623 522.5V524.906C1622.42 524.812 1621.94 524.781 1621.59 524.781C1619.7 524.781 1618.86 525.562 1618.88 527.312V529.031H1622.62ZM1641.25 529.031V531.281H1637.69V541.125C1637.67 543.297 1638.77 543.656 1639.91 543.656C1640.39 543.656 1641.11 543.609 1641.5 543.594V546.094C1641.08 546.156 1640.42 546.219 1639.62 546.219C1637.36 546.219 1634.98 544.812 1634.97 541.812V531.281H1632.41V529.031H1634.97V524.969H1637.69V529.031H1641.25ZM1647.78 535.812V546H1645.09V523.375H1647.78V531.688H1648C1648.8 529.938 1650.31 528.812 1653 528.812C1656.47 528.812 1658.78 530.859 1658.78 535.219V546H1656.09V535.406C1656.09 532.734 1654.62 531.219 1652.19 531.219C1649.66 531.219 1647.78 532.875 1647.78 535.812ZM1670.22 546.344C1665.31 546.359 1662.28 542.859 1662.28 537.656C1662.28 532.438 1665.36 528.812 1669.97 528.812C1673.53 528.812 1677.3 531 1677.28 537.281V538.406H1664.97C1665.11 542 1667.2 543.969 1670.22 543.969C1672.25 543.969 1673.53 543.078 1674.16 542.031H1677.03C1676.23 544.609 1673.72 546.359 1670.22 546.344ZM1664.98 536.125H1674.56C1674.55 533.297 1672.77 531.188 1669.97 531.188C1667.03 531.188 1665.17 533.5 1664.98 536.125ZM1696.59 546.312C1692.09 546.312 1688.86 543.906 1688.72 540.312H1691.56C1691.72 542.469 1693.86 543.812 1696.56 543.812C1699.55 543.812 1701.7 542.203 1701.72 539.844C1701.7 537.375 1699.73 535.641 1696.22 535.625H1694.38V533.156H1696.22C1698.97 533.156 1700.89 531.609 1700.88 529.281C1700.89 527.016 1699.23 525.516 1696.66 525.5C1694.23 525.516 1692.03 526.844 1691.91 529.062H1689.19C1689.33 525.469 1692.67 523.062 1696.69 523.062C1701 523.062 1703.62 525.891 1703.59 529.125C1703.62 531.703 1702.12 533.578 1699.75 534.25V534.406C1702.7 534.859 1704.48 536.969 1704.47 539.844C1704.48 543.562 1701.11 546.312 1696.59 546.312ZM1726.03 533.438C1725.66 532.031 1724.58 531.109 1722.59 531.094C1720.5 531.109 1719.02 532.234 1719 533.656C1719.02 534.781 1719.92 535.547 1721.91 536.031L1724.44 536.656C1727.47 537.375 1728.95 538.891 1728.97 541.25C1728.95 544.188 1726.56 546.359 1722.31 546.344C1718.5 546.359 1716.23 544.656 1715.78 541.562H1718.59C1718.91 543.219 1720.11 544.016 1722.25 544C1724.67 544.016 1726.19 543 1726.19 541.406C1726.19 540.203 1725.33 539.422 1723.41 538.969L1720.84 538.375C1717.89 537.688 1716.31 536.078 1716.31 533.812C1716.31 530.906 1718.86 528.812 1722.59 528.812C1726.11 528.812 1728.31 530.688 1728.66 533.438H1726.03ZM1739.59 546.344C1734.69 546.359 1731.66 542.859 1731.66 537.656C1731.66 532.438 1734.73 528.812 1739.34 528.812C1742.91 528.812 1746.67 531 1746.66 537.281V538.406H1734.34C1734.48 542 1736.58 543.969 1739.59 543.969C1741.62 543.969 1742.91 543.078 1743.53 542.031H1746.41C1745.61 544.609 1743.09 546.359 1739.59 546.344ZM1734.36 536.125H1743.94C1743.92 533.297 1742.14 531.188 1739.34 531.188C1736.41 531.188 1734.55 533.5 1734.36 536.125ZM1757.56 529.031V531.281H1754V541.125C1753.98 543.297 1755.08 543.656 1756.22 543.656C1756.7 543.656 1757.42 543.609 1757.81 543.594V546.094C1757.39 546.156 1756.73 546.219 1755.94 546.219C1753.67 546.219 1751.3 544.812 1751.28 541.812V531.281H1748.72V529.031H1751.28V524.969H1754V529.031H1757.56ZM1770.16 533.438C1769.78 532.031 1768.7 531.109 1766.72 531.094C1764.62 531.109 1763.14 532.234 1763.12 533.656C1763.14 534.781 1764.05 535.547 1766.03 536.031L1768.56 536.656C1771.59 537.375 1773.08 538.891 1773.09 541.25C1773.08 544.188 1770.69 546.359 1766.44 546.344C1762.62 546.359 1760.36 544.656 1759.91 541.562H1762.72C1763.03 543.219 1764.23 544.016 1766.38 544C1768.8 544.016 1770.31 543 1770.31 541.406C1770.31 540.203 1769.45 539.422 1767.53 538.969L1764.97 538.375C1762.02 537.688 1760.44 536.078 1760.44 533.812C1760.44 530.906 1762.98 528.812 1766.72 528.812C1770.23 528.812 1772.44 530.688 1772.78 533.438H1770.16ZM1778.5 546.188C1777.41 546.172 1776.47 545.266 1776.5 544.156C1776.47 543.062 1777.41 542.156 1778.5 542.156C1779.61 542.156 1780.52 543.062 1780.5 544.156C1780.52 545.266 1779.61 546.172 1778.5 546.188Z" fill="black" fill-opacity="0.7"/>
</svg>
