<svg width="1920" height="1080" viewBox="0 0 1920 1080" fill="none" xmlns="http://www.w3.org/2000/svg">
<rect width="1920" height="1080" rx="100" fill="white"/>
<rect x="1382" y="462" width="391" height="107" rx="20" fill="#F2FFFD"/>
<path d="M1445.01 525.66C1441.48 525.643 1438.93 522.812 1438.93 518.242C1438.93 513.707 1441.53 510.877 1445.05 510.859C1447.58 510.877 1448.62 512.494 1449.05 513.285H1449.23V511.141H1451.9V521.406C1451.96 522.777 1452.52 523.463 1453.66 523.445C1455.84 523.463 1457.3 520.914 1457.32 517.258C1457.35 510.631 1452.55 506.307 1445.82 506.289C1438.86 506.324 1434.38 511.703 1434.36 518.242C1434.36 525.396 1438.26 530.301 1445.68 530.23C1448.14 530.195 1449.76 530.037 1451.9 529.457V531.848C1450.06 532.34 1448 532.656 1445.68 532.656C1437.08 532.656 1431.81 527.154 1431.83 518.242C1431.79 509.928 1437.63 503.863 1445.82 503.863C1454.22 503.863 1459.88 509.576 1459.85 517.152C1459.87 522.619 1457.05 525.801 1453.48 525.801C1451.27 525.801 1449.6 524.553 1449.46 522.918H1449.23C1448.83 523.709 1447.75 525.643 1445.01 525.66ZM1441.67 518.207C1441.65 520.949 1443.03 523.076 1445.47 523.094C1447.98 523.076 1449.25 521.125 1449.27 518.207C1449.25 515.359 1448 513.443 1445.47 513.426C1443.01 513.443 1441.65 515.518 1441.67 518.207ZM1467.12 517.539V529H1464.1V503.547H1467.12V512.898H1467.37C1468.27 510.93 1469.97 509.664 1473 509.664C1476.9 509.664 1479.5 511.967 1479.5 516.871V529H1476.48V517.082C1476.48 514.076 1474.82 512.371 1472.08 512.371C1469.23 512.371 1467.12 514.234 1467.12 517.539ZM1483.44 523.586C1483.44 519.209 1487.3 518.207 1490.61 517.961C1491.84 517.873 1494.92 517.697 1495.78 517.68V516.133C1495.78 513.707 1494.34 512.301 1491.45 512.301C1489.04 512.301 1487.59 513.408 1487.16 514.867H1484C1484.39 511.791 1487.38 509.664 1491.59 509.664C1494.09 509.664 1498.78 510.402 1498.77 516.414V529H1495.78V526.398H1495.64C1495 527.682 1493.26 529.439 1489.94 529.457C1486.32 529.439 1483.44 527.312 1483.44 523.586ZM1486.46 523.727C1486.48 525.748 1488.15 526.768 1490.47 526.75C1493.88 526.768 1495.78 524.482 1495.78 522.074V520.158C1494.88 520.211 1491.88 520.439 1490.96 520.492C1488.22 520.668 1486.48 521.635 1486.46 523.727ZM1511.63 529.387C1506.11 529.404 1502.7 525.467 1502.7 519.613C1502.7 513.742 1506.17 509.664 1511.35 509.664C1515.36 509.664 1519.6 512.125 1519.58 519.191V520.457H1505.73C1505.88 524.5 1508.24 526.715 1511.63 526.715C1513.92 526.715 1515.36 525.713 1516.06 524.535H1519.3C1518.4 527.436 1515.57 529.404 1511.63 529.387ZM1505.74 517.891H1516.52C1516.5 514.709 1514.5 512.336 1511.35 512.336C1508.05 512.336 1505.96 514.938 1505.74 517.891ZM1531.85 509.91V512.441H1527.84V523.516C1527.82 525.959 1529.05 526.363 1530.34 526.363C1530.88 526.363 1531.69 526.311 1532.13 526.293V529.105C1531.65 529.176 1530.92 529.246 1530.02 529.246C1527.47 529.246 1524.8 527.664 1524.78 524.289V512.441H1521.9V509.91H1524.78V505.34H1527.84V509.91H1531.85ZM1534.84 523.586C1534.84 519.209 1538.7 518.207 1542.01 517.961C1543.24 517.873 1546.31 517.697 1547.18 517.68V516.133C1547.18 513.707 1545.73 512.301 1542.85 512.301C1540.44 512.301 1538.98 513.408 1538.56 514.867H1535.4C1535.79 511.791 1538.77 509.664 1542.99 509.664C1545.49 509.664 1550.18 510.402 1550.16 516.414V529H1547.18V526.398H1547.04C1546.4 527.682 1544.66 529.439 1541.34 529.457C1537.72 529.439 1534.84 527.312 1534.84 523.586ZM1537.86 523.727C1537.88 525.748 1539.55 526.768 1541.87 526.75C1545.28 526.768 1547.18 524.482 1547.18 522.074V520.158C1546.28 520.211 1543.27 520.439 1542.36 520.492C1539.62 520.668 1537.88 521.635 1537.86 523.727ZM1563.03 529.387C1557.51 529.404 1554.1 525.467 1554.1 519.613C1554.1 513.742 1557.56 509.664 1562.75 509.664C1566.76 509.664 1570.99 512.125 1570.98 519.191V520.457H1557.12C1557.28 524.5 1559.64 526.715 1563.03 526.715C1565.32 526.715 1566.76 525.713 1567.46 524.535H1570.7C1569.8 527.436 1566.97 529.404 1563.03 529.387ZM1557.14 517.891H1567.92C1567.9 514.709 1565.9 512.336 1562.75 512.336C1559.45 512.336 1557.35 514.938 1557.14 517.891ZM1583.98 502.352L1575.76 532.832H1573.02L1581.21 502.352H1583.98ZM1594.74 529.387C1589.33 529.404 1586.02 525.273 1586.02 519.543C1586.02 513.742 1589.49 509.664 1594.67 509.664C1598.73 509.664 1601.79 512.072 1602.27 515.676H1599.24C1598.8 513.936 1597.29 512.336 1594.74 512.336C1591.33 512.336 1589.06 515.148 1589.05 519.438C1589.06 523.85 1591.28 526.68 1594.74 526.68C1596.99 526.68 1598.71 525.467 1599.24 523.375H1602.27C1601.79 526.785 1598.98 529.404 1594.74 529.387ZM1613.8 529.387C1608.59 529.404 1605.08 525.467 1605.08 519.543C1605.08 513.584 1608.59 509.664 1613.8 509.664C1618.98 509.664 1622.46 513.584 1622.45 519.543C1622.46 525.467 1618.98 529.404 1613.8 529.387ZM1608.1 519.543C1608.12 523.357 1609.91 526.715 1613.8 526.715C1617.65 526.715 1619.42 523.357 1619.42 519.543C1619.42 515.746 1617.65 512.336 1613.8 512.336C1609.91 512.336 1608.12 515.746 1608.1 519.543ZM1626.42 529V509.91H1629.34V512.898H1629.58C1630.37 510.859 1632.22 509.664 1634.71 509.664C1637.21 509.664 1638.92 510.859 1639.81 512.898H1640.02C1640.99 510.93 1643.01 509.664 1645.75 509.664C1649.15 509.664 1651.59 511.738 1651.59 516.238V529H1648.57V516.273C1648.55 513.461 1646.79 512.371 1644.7 512.371C1642.04 512.371 1640.53 514.164 1640.52 516.59V529H1637.46V515.957C1637.47 513.812 1635.93 512.371 1633.73 512.371C1631.45 512.371 1629.44 514.305 1629.44 517.082V529H1626.42ZM1656.44 529V509.91H1659.36V512.898H1659.61C1660.4 510.859 1662.24 509.664 1664.74 509.664C1667.23 509.664 1668.94 510.859 1669.84 512.898H1670.05C1671.01 510.93 1673.04 509.664 1675.78 509.664C1679.17 509.664 1681.61 511.738 1681.61 516.238V529H1678.59V516.273C1678.57 513.461 1676.81 512.371 1674.72 512.371C1672.07 512.371 1670.56 514.164 1670.54 516.59V529H1667.48V515.957C1667.5 513.812 1665.95 512.371 1663.75 512.371C1661.47 512.371 1659.46 514.305 1659.46 517.082V529H1656.44ZM1694.27 529.387C1689.07 529.404 1685.55 525.467 1685.55 519.543C1685.55 513.584 1689.07 509.664 1694.27 509.664C1699.46 509.664 1702.94 513.584 1702.92 519.543C1702.94 525.467 1699.46 529.404 1694.27 529.387ZM1688.57 519.543C1688.59 523.357 1690.38 526.715 1694.27 526.715C1698.12 526.715 1699.89 523.357 1699.89 519.543C1699.89 515.746 1698.12 512.336 1694.27 512.336C1690.38 512.336 1688.59 515.746 1688.57 519.543ZM1709.91 517.539V529H1706.89V509.91H1709.81V512.898H1710.05C1710.95 510.947 1712.74 509.664 1715.64 509.664C1719.51 509.664 1722.1 512.02 1722.08 516.871V529H1719.05V517.082C1719.05 514.129 1717.44 512.371 1714.73 512.371C1711.95 512.371 1709.91 514.234 1709.91 517.539Z" fill="#0D5449"/>
<rect x="1382.5" y="462.5" width="390" height="106" rx="19.5" stroke="#00705E" stroke-opacity="0.2"/>
<rect x="280" y="462" width="207" height="107" rx="20" fill="#F2FFFD"/>
<path d="M333.449 517.539V529H330.426V503.547H333.449V512.898H333.695C334.592 510.93 336.297 509.664 339.32 509.664C343.223 509.664 345.824 511.967 345.824 516.871V529H342.801V517.082C342.801 514.076 341.148 512.371 338.406 512.371C335.559 512.371 333.449 514.234 333.449 517.539ZM349.762 523.586C349.762 519.209 353.629 518.207 356.934 517.961C358.164 517.873 361.24 517.697 362.102 517.68V516.133C362.102 513.707 360.66 512.301 357.777 512.301C355.369 512.301 353.91 513.408 353.488 514.867H350.324C350.711 511.791 353.699 509.664 357.918 509.664C360.414 509.664 365.107 510.402 365.09 516.414V529H362.102V526.398H361.961C361.328 527.682 359.588 529.439 356.266 529.457C352.645 529.439 349.762 527.312 349.762 523.586ZM352.785 523.727C352.803 525.748 354.473 526.768 356.793 526.75C360.203 526.768 362.102 524.482 362.102 522.074V520.158C361.205 520.211 358.199 520.439 357.285 520.492C354.543 520.668 352.803 521.635 352.785 523.727ZM377.957 529.387C372.438 529.404 369.027 525.467 369.027 519.613C369.027 513.742 372.49 509.664 377.676 509.664C381.684 509.664 385.92 512.125 385.902 519.191V520.457H372.051C372.209 524.5 374.564 526.715 377.957 526.715C380.242 526.715 381.684 525.713 382.387 524.535H385.621C384.725 527.436 381.895 529.404 377.957 529.387ZM372.068 517.891H382.844C382.826 514.709 380.822 512.336 377.676 512.336C374.371 512.336 372.279 514.938 372.068 517.891ZM398.172 509.91V512.441H394.164V523.516C394.146 525.959 395.377 526.363 396.66 526.363C397.205 526.363 398.014 526.311 398.453 526.293V529.105C397.979 529.176 397.24 529.246 396.344 529.246C393.795 529.246 391.123 527.664 391.105 524.289V512.441H388.223V509.91H391.105V505.34H394.164V509.91H398.172ZM401.16 523.586C401.16 519.209 405.027 518.207 408.332 517.961C409.562 517.873 412.639 517.697 413.5 517.68V516.133C413.5 513.707 412.059 512.301 409.176 512.301C406.768 512.301 405.309 513.408 404.887 514.867H401.723C402.109 511.791 405.098 509.664 409.316 509.664C411.812 509.664 416.506 510.402 416.488 516.414V529H413.5V526.398H413.359C412.727 527.682 410.986 529.439 407.664 529.457C404.043 529.439 401.16 527.312 401.16 523.586ZM404.184 523.727C404.201 525.748 405.871 526.768 408.191 526.75C411.602 526.768 413.5 524.482 413.5 522.074V520.158C412.604 520.211 409.598 520.439 408.684 520.492C405.941 520.668 404.201 521.635 404.184 523.727ZM429.355 529.387C423.836 529.404 420.426 525.467 420.426 519.613C420.426 513.742 423.889 509.664 429.074 509.664C433.082 509.664 437.318 512.125 437.301 519.191V520.457H423.449C423.607 524.5 425.963 526.715 429.355 526.715C431.641 526.715 433.082 525.713 433.785 524.535H437.02C436.123 527.436 433.293 529.404 429.355 529.387ZM423.467 517.891H434.242C434.225 514.709 432.221 512.336 429.074 512.336C425.77 512.336 423.678 514.938 423.467 517.891Z" fill="#0D5449"/>
<rect x="280.5" y="462.5" width="206" height="106" rx="19.5" stroke="#00705E" stroke-opacity="0.2"/>
<rect x="795.5" y="108" width="277" height="107" rx="20" fill="#F2FFFD"/>
<path d="M858.512 171.66C854.979 171.643 852.43 168.812 852.43 164.242C852.43 159.707 855.031 156.877 858.547 156.859C861.078 156.877 862.115 158.494 862.555 159.285H862.73V157.141H865.402V167.406C865.455 168.777 866.018 169.463 867.16 169.445C869.34 169.463 870.799 166.914 870.816 163.258C870.852 156.631 866.053 152.307 859.32 152.289C852.359 152.324 847.877 157.703 847.859 164.242C847.859 171.396 851.762 176.301 859.18 176.23C861.641 176.195 863.258 176.037 865.402 175.457V177.848C863.557 178.34 861.5 178.656 859.18 178.656C850.584 178.656 845.311 173.154 845.328 164.242C845.293 155.928 851.129 149.863 859.32 149.863C867.723 149.863 873.383 155.576 873.348 163.152C873.365 168.619 870.553 171.801 866.984 171.801C864.77 171.801 863.1 170.553 862.959 168.918H862.73C862.326 169.709 861.254 171.643 858.512 171.66ZM855.172 164.207C855.154 166.949 856.525 169.076 858.969 169.094C861.482 169.076 862.748 167.125 862.766 164.207C862.748 161.359 861.5 159.443 858.969 159.426C856.508 159.443 855.154 161.518 855.172 164.207ZM880.625 163.539V175H877.602V149.547H880.625V158.898H880.871C881.768 156.93 883.473 155.664 886.496 155.664C890.398 155.664 893 157.967 893 162.871V175H889.977V163.082C889.977 160.076 888.324 158.371 885.582 158.371C882.734 158.371 880.625 160.234 880.625 163.539ZM896.938 169.586C896.938 165.209 900.805 164.207 904.109 163.961C905.34 163.873 908.416 163.697 909.277 163.68V162.133C909.277 159.707 907.836 158.301 904.953 158.301C902.545 158.301 901.086 159.408 900.664 160.867H897.5C897.887 157.791 900.875 155.664 905.094 155.664C907.59 155.664 912.283 156.402 912.266 162.414V175H909.277V172.398H909.137C908.504 173.682 906.764 175.439 903.441 175.457C899.82 175.439 896.938 173.312 896.938 169.586ZM899.961 169.727C899.979 171.748 901.648 172.768 903.969 172.75C907.379 172.768 909.277 170.482 909.277 168.074V166.158C908.381 166.211 905.375 166.439 904.461 166.492C901.719 166.668 899.979 167.635 899.961 169.727ZM925.133 175.387C919.613 175.404 916.203 171.467 916.203 165.613C916.203 159.742 919.666 155.664 924.852 155.664C928.859 155.664 933.096 158.125 933.078 165.191V166.457H919.227C919.385 170.5 921.74 172.715 925.133 172.715C927.418 172.715 928.859 171.713 929.562 170.535H932.797C931.9 173.436 929.07 175.404 925.133 175.387ZM919.244 163.891H930.02C930.002 160.709 927.998 158.336 924.852 158.336C921.547 158.336 919.455 160.938 919.244 163.891ZM945.348 155.91V158.441H941.34V169.516C941.322 171.959 942.553 172.363 943.836 172.363C944.381 172.363 945.189 172.311 945.629 172.293V175.105C945.154 175.176 944.416 175.246 943.52 175.246C940.971 175.246 938.299 173.664 938.281 170.289V158.441H935.398V155.91H938.281V151.34H941.34V155.91H945.348ZM948.336 169.586C948.336 165.209 952.203 164.207 955.508 163.961C956.738 163.873 959.814 163.697 960.676 163.68V162.133C960.676 159.707 959.234 158.301 956.352 158.301C953.943 158.301 952.484 159.408 952.062 160.867H948.898C949.285 157.791 952.273 155.664 956.492 155.664C958.988 155.664 963.682 156.402 963.664 162.414V175H960.676V172.398H960.535C959.902 173.682 958.162 175.439 954.84 175.457C951.219 175.439 948.336 173.312 948.336 169.586ZM951.359 169.727C951.377 171.748 953.047 172.768 955.367 172.75C958.777 172.768 960.676 170.482 960.676 168.074V166.158C959.779 166.211 956.773 166.439 955.859 166.492C953.117 166.668 951.377 167.635 951.359 169.727ZM976.531 175.387C971.012 175.404 967.602 171.467 967.602 165.613C967.602 159.742 971.064 155.664 976.25 155.664C980.258 155.664 984.494 158.125 984.477 165.191V166.457H970.625C970.783 170.5 973.139 172.715 976.531 172.715C978.816 172.715 980.258 171.713 980.961 170.535H984.195C983.299 173.436 980.469 175.404 976.531 175.387ZM970.643 163.891H981.418C981.4 160.709 979.396 158.336 976.25 158.336C972.945 158.336 970.854 160.938 970.643 163.891ZM997.484 148.352L989.258 178.832H986.516L994.707 148.352H997.484ZM1000.44 155.91H1003.46V176.371C1003.46 179.939 1001.62 182.154 997.906 182.172C997.713 182.154 997.52 182.154 997.273 182.172V179.359C997.484 179.377 997.66 179.377 997.871 179.359C999.629 179.377 1000.42 178.287 1000.44 176.371V155.91ZM999.805 150.742C999.787 149.617 1000.75 148.721 1001.91 148.738C1003.07 148.721 1004.04 149.617 1004.06 150.742C1004.04 151.85 1003.07 152.746 1001.91 152.746C1000.75 152.746 999.787 151.85 999.805 150.742ZM1018.89 160.867C1018.47 159.285 1017.26 158.248 1015.03 158.23C1012.67 158.248 1011 159.514 1010.98 161.113C1011 162.379 1012.02 163.24 1014.25 163.785L1017.1 164.488C1020.51 165.297 1022.18 167.002 1022.2 169.656C1022.18 172.961 1019.49 175.404 1014.71 175.387C1010.42 175.404 1007.87 173.488 1007.36 170.008H1010.53C1010.88 171.871 1012.23 172.768 1014.64 172.75C1017.37 172.768 1019.07 171.625 1019.07 169.832C1019.07 168.479 1018.1 167.6 1015.94 167.09L1013.06 166.422C1009.74 165.648 1007.96 163.838 1007.96 161.289C1007.96 158.02 1010.83 155.664 1015.03 155.664C1018.98 155.664 1021.46 157.773 1021.85 160.867H1018.89Z" fill="#0D5449"/>
<rect x="796" y="108.5" width="276" height="106" rx="19.5" stroke="#00705E" stroke-opacity="0.2"/>
<rect x="791" y="285" width="286" height="107" rx="20" fill="#F2FFFD"/>
<path d="M854.012 348.66C850.479 348.643 847.93 345.812 847.93 341.242C847.93 336.707 850.531 333.877 854.047 333.859C856.578 333.877 857.615 335.494 858.055 336.285H858.23V334.141H860.902V344.406C860.955 345.777 861.518 346.463 862.66 346.445C864.84 346.463 866.299 343.914 866.316 340.258C866.352 333.631 861.553 329.307 854.82 329.289C847.859 329.324 843.377 334.703 843.359 341.242C843.359 348.396 847.262 353.301 854.68 353.23C857.141 353.195 858.758 353.037 860.902 352.457V354.848C859.057 355.34 857 355.656 854.68 355.656C846.084 355.656 840.811 350.154 840.828 341.242C840.793 332.928 846.629 326.863 854.82 326.863C863.223 326.863 868.883 332.576 868.848 340.152C868.865 345.619 866.053 348.801 862.484 348.801C860.27 348.801 858.6 347.553 858.459 345.918H858.23C857.826 346.709 856.754 348.643 854.012 348.66ZM850.672 341.207C850.654 343.949 852.025 346.076 854.469 346.094C856.982 346.076 858.248 344.125 858.266 341.207C858.248 338.359 857 336.443 854.469 336.426C852.008 336.443 850.654 338.518 850.672 341.207ZM876.125 340.539V352H873.102V326.547H876.125V335.898H876.371C877.268 333.93 878.973 332.664 881.996 332.664C885.898 332.664 888.5 334.967 888.5 339.871V352H885.477V340.082C885.477 337.076 883.824 335.371 881.082 335.371C878.234 335.371 876.125 337.234 876.125 340.539ZM892.438 346.586C892.438 342.209 896.305 341.207 899.609 340.961C900.84 340.873 903.916 340.697 904.777 340.68V339.133C904.777 336.707 903.336 335.301 900.453 335.301C898.045 335.301 896.586 336.408 896.164 337.867H893C893.387 334.791 896.375 332.664 900.594 332.664C903.09 332.664 907.783 333.402 907.766 339.414V352H904.777V349.398H904.637C904.004 350.682 902.264 352.439 898.941 352.457C895.32 352.439 892.438 350.312 892.438 346.586ZM895.461 346.727C895.479 348.748 897.148 349.768 899.469 349.75C902.879 349.768 904.777 347.482 904.777 345.074V343.158C903.881 343.211 900.875 343.439 899.961 343.492C897.219 343.668 895.479 344.635 895.461 346.727ZM920.633 352.387C915.113 352.404 911.703 348.467 911.703 342.613C911.703 336.742 915.166 332.664 920.352 332.664C924.359 332.664 928.596 335.125 928.578 342.191V343.457H914.727C914.885 347.5 917.24 349.715 920.633 349.715C922.918 349.715 924.359 348.713 925.062 347.535H928.297C927.4 350.436 924.57 352.404 920.633 352.387ZM914.744 340.891H925.52C925.502 337.709 923.498 335.336 920.352 335.336C917.047 335.336 914.955 337.938 914.744 340.891ZM940.848 332.91V335.441H936.84V346.516C936.822 348.959 938.053 349.363 939.336 349.363C939.881 349.363 940.689 349.311 941.129 349.293V352.105C940.654 352.176 939.916 352.246 939.02 352.246C936.471 352.246 933.799 350.664 933.781 347.289V335.441H930.898V332.91H933.781V328.34H936.84V332.91H940.848ZM943.836 346.586C943.836 342.209 947.703 341.207 951.008 340.961C952.238 340.873 955.314 340.697 956.176 340.68V339.133C956.176 336.707 954.734 335.301 951.852 335.301C949.443 335.301 947.984 336.408 947.562 337.867H944.398C944.785 334.791 947.773 332.664 951.992 332.664C954.488 332.664 959.182 333.402 959.164 339.414V352H956.176V349.398H956.035C955.402 350.682 953.662 352.439 950.34 352.457C946.719 352.439 943.836 350.312 943.836 346.586ZM946.859 346.727C946.877 348.748 948.547 349.768 950.867 349.75C954.277 349.768 956.176 347.482 956.176 345.074V343.158C955.279 343.211 952.273 343.439 951.359 343.492C948.617 343.668 946.877 344.635 946.859 346.727ZM972.031 352.387C966.512 352.404 963.102 348.467 963.102 342.613C963.102 336.742 966.564 332.664 971.75 332.664C975.758 332.664 979.994 335.125 979.977 342.191V343.457H966.125C966.283 347.5 968.639 349.715 972.031 349.715C974.316 349.715 975.758 348.713 976.461 347.535H979.695C978.799 350.436 975.969 352.404 972.031 352.387ZM966.143 340.891H976.918C976.9 337.709 974.896 335.336 971.75 335.336C968.445 335.336 966.354 337.938 966.143 340.891ZM992.984 325.352L984.758 355.832H982.016L990.207 325.352H992.984ZM1003.74 352.387C998.328 352.404 995.023 348.273 995.023 342.543C995.023 336.742 998.486 332.664 1003.67 332.664C1007.73 332.664 1010.79 335.072 1011.27 338.676H1008.24C1007.8 336.936 1006.29 335.336 1003.74 335.336C1000.33 335.336 998.064 338.148 998.047 342.438C998.064 346.85 1000.28 349.68 1003.74 349.68C1005.99 349.68 1007.71 348.467 1008.24 346.375H1011.27C1010.79 349.785 1007.98 352.404 1003.74 352.387ZM1018.02 326.547V352H1014.99V326.547H1018.02ZM1022.83 352V332.91H1025.86V352H1022.83ZM1022.23 327.742C1022.22 326.617 1023.18 325.721 1024.34 325.738C1025.5 325.721 1026.47 326.617 1026.49 327.742C1026.47 328.85 1025.5 329.746 1024.34 329.746C1023.18 329.746 1022.22 328.85 1022.23 327.742Z" fill="#0D5449"/>
<rect x="791.5" y="285.5" width="285" height="106" rx="19.5" stroke="#00705E" stroke-opacity="0.2"/>
<rect x="783.5" y="462" width="301" height="107" rx="20" fill="#F2FFFD"/>
<path d="M846.512 525.66C842.979 525.643 840.43 522.812 840.43 518.242C840.43 513.707 843.031 510.877 846.547 510.859C849.078 510.877 850.115 512.494 850.555 513.285H850.73V511.141H853.402V521.406C853.455 522.777 854.018 523.463 855.16 523.445C857.34 523.463 858.799 520.914 858.816 517.258C858.852 510.631 854.053 506.307 847.32 506.289C840.359 506.324 835.877 511.703 835.859 518.242C835.859 525.396 839.762 530.301 847.18 530.23C849.641 530.195 851.258 530.037 853.402 529.457V531.848C851.557 532.34 849.5 532.656 847.18 532.656C838.584 532.656 833.311 527.154 833.328 518.242C833.293 509.928 839.129 503.863 847.32 503.863C855.723 503.863 861.383 509.576 861.348 517.152C861.365 522.619 858.553 525.801 854.984 525.801C852.77 525.801 851.1 524.553 850.959 522.918H850.73C850.326 523.709 849.254 525.643 846.512 525.66ZM843.172 518.207C843.154 520.949 844.525 523.076 846.969 523.094C849.482 523.076 850.748 521.125 850.766 518.207C850.748 515.359 849.5 513.443 846.969 513.426C844.508 513.443 843.154 515.518 843.172 518.207ZM877.66 517.539V529H874.637V503.547H877.66V512.898H877.906C878.803 510.93 880.508 509.664 883.531 509.664C887.434 509.664 890.035 511.967 890.035 516.871V529H887.012V517.082C887.012 514.076 885.359 512.371 882.617 512.371C879.77 512.371 877.66 514.234 877.66 517.539ZM893.973 523.586C893.973 519.209 897.84 518.207 901.145 517.961C902.375 517.873 905.451 517.697 906.312 517.68V516.133C906.312 513.707 904.871 512.301 901.988 512.301C899.58 512.301 898.121 513.408 897.699 514.867H894.535C894.922 511.791 897.91 509.664 902.129 509.664C904.625 509.664 909.318 510.402 909.301 516.414V529H906.312V526.398H906.172C905.539 527.682 903.799 529.439 900.477 529.457C896.855 529.439 893.973 527.312 893.973 523.586ZM896.996 523.727C897.014 525.748 898.684 526.768 901.004 526.75C904.414 526.768 906.312 524.482 906.312 522.074V520.158C905.416 520.211 902.41 520.439 901.496 520.492C898.754 520.668 897.014 521.635 896.996 523.727ZM922.168 529.387C916.648 529.404 913.238 525.467 913.238 519.613C913.238 513.742 916.701 509.664 921.887 509.664C925.895 509.664 930.131 512.125 930.113 519.191V520.457H916.262C916.42 524.5 918.775 526.715 922.168 526.715C924.453 526.715 925.895 525.713 926.598 524.535H929.832C928.936 527.436 926.105 529.404 922.168 529.387ZM916.279 517.891H927.055C927.037 514.709 925.033 512.336 921.887 512.336C918.582 512.336 916.49 514.938 916.279 517.891ZM942.383 509.91V512.441H938.375V523.516C938.357 525.959 939.588 526.363 940.871 526.363C941.416 526.363 942.225 526.311 942.664 526.293V529.105C942.189 529.176 941.451 529.246 940.555 529.246C938.006 529.246 935.334 527.664 935.316 524.289V512.441H932.434V509.91H935.316V505.34H938.375V509.91H942.383ZM945.371 523.586C945.371 519.209 949.238 518.207 952.543 517.961C953.773 517.873 956.85 517.697 957.711 517.68V516.133C957.711 513.707 956.27 512.301 953.387 512.301C950.979 512.301 949.52 513.408 949.098 514.867H945.934C946.32 511.791 949.309 509.664 953.527 509.664C956.023 509.664 960.717 510.402 960.699 516.414V529H957.711V526.398H957.57C956.938 527.682 955.197 529.439 951.875 529.457C948.254 529.439 945.371 527.312 945.371 523.586ZM948.395 523.727C948.412 525.748 950.082 526.768 952.402 526.75C955.812 526.768 957.711 524.482 957.711 522.074V520.158C956.814 520.211 953.809 520.439 952.895 520.492C950.152 520.668 948.412 521.635 948.395 523.727ZM973.566 529.387C968.047 529.404 964.637 525.467 964.637 519.613C964.637 513.742 968.1 509.664 973.285 509.664C977.293 509.664 981.529 512.125 981.512 519.191V520.457H967.66C967.818 524.5 970.174 526.715 973.566 526.715C975.852 526.715 977.293 525.713 977.996 524.535H981.23C980.334 527.436 977.504 529.404 973.566 529.387ZM967.678 517.891H978.453C978.436 514.709 976.432 512.336 973.285 512.336C969.98 512.336 967.889 514.938 967.678 517.891ZM994.52 502.352L986.293 532.832H983.551L991.742 502.352H994.52ZM1005.21 536.559C1000.58 536.559 997.455 534.537 997.121 531.004H1000.29C1000.69 532.955 1002.5 533.922 1005.21 533.922C1008.48 533.922 1010.48 532.498 1010.48 529.352V525.484H1010.23C1009.58 526.539 1008.37 528.701 1004.68 528.719C1000.04 528.701 996.559 525.203 996.559 519.191C996.559 513.32 999.916 509.664 1004.71 509.664C1008.42 509.664 1009.62 511.914 1010.3 512.934H1010.55V509.91H1013.5V529.527C1013.49 534.449 1009.87 536.559 1005.21 536.559ZM999.617 519.297C999.617 523.252 1001.48 526.012 1005.1 526.012C1008.6 526.012 1010.53 523.498 1010.55 519.297C1010.53 515.201 1008.65 512.371 1005.1 512.371C1001.43 512.371 999.617 515.447 999.617 519.297ZM1018.32 529V509.91H1021.34V529H1018.32ZM1017.72 504.742C1017.71 503.617 1018.67 502.721 1019.83 502.738C1020.99 502.721 1021.96 503.617 1021.98 504.742C1021.96 505.85 1020.99 506.746 1019.83 506.746C1018.67 506.746 1017.71 505.85 1017.72 504.742ZM1034.49 509.91V512.441H1030.48V523.516C1030.47 525.959 1031.7 526.363 1032.98 526.363C1033.53 526.363 1034.33 526.311 1034.77 526.293V529.105C1034.3 529.176 1033.56 529.246 1032.66 529.246C1030.12 529.246 1027.44 527.664 1027.43 524.289V512.441H1024.54V509.91H1027.43V505.34H1030.48V509.91H1034.49Z" fill="#0D5449"/>
<rect x="784" y="462.5" width="300" height="106" rx="19.5" stroke="#00705E" stroke-opacity="0.2"/>
<rect x="775.5" y="639" width="317" height="107" rx="20" fill="#F2FFFD"/>
<path d="M838.512 702.66C834.979 702.643 832.43 699.812 832.43 695.242C832.43 690.707 835.031 687.877 838.547 687.859C841.078 687.877 842.115 689.494 842.555 690.285H842.73V688.141H845.402V698.406C845.455 699.777 846.018 700.463 847.16 700.445C849.34 700.463 850.799 697.914 850.816 694.258C850.852 687.631 846.053 683.307 839.32 683.289C832.359 683.324 827.877 688.703 827.859 695.242C827.859 702.396 831.762 707.301 839.18 707.23C841.641 707.195 843.258 707.037 845.402 706.457V708.848C843.557 709.34 841.5 709.656 839.18 709.656C830.584 709.656 825.311 704.154 825.328 695.242C825.293 686.928 831.129 680.863 839.32 680.863C847.723 680.863 853.383 686.576 853.348 694.152C853.365 699.619 850.553 702.801 846.984 702.801C844.77 702.801 843.1 701.553 842.959 699.918H842.73C842.326 700.709 841.254 702.643 838.512 702.66ZM835.172 695.207C835.154 697.949 836.525 700.076 838.969 700.094C841.482 700.076 842.748 698.125 842.766 695.207C842.748 692.359 841.5 690.443 838.969 690.426C836.508 690.443 835.154 692.518 835.172 695.207ZM860.625 694.539V706H857.602V680.547H860.625V689.898H860.871C861.768 687.93 863.473 686.664 866.496 686.664C870.398 686.664 873 688.967 873 693.871V706H869.977V694.082C869.977 691.076 868.324 689.371 865.582 689.371C862.734 689.371 860.625 691.234 860.625 694.539ZM876.938 700.586C876.938 696.209 880.805 695.207 884.109 694.961C885.34 694.873 888.416 694.697 889.277 694.68V693.133C889.277 690.707 887.836 689.301 884.953 689.301C882.545 689.301 881.086 690.408 880.664 691.867H877.5C877.887 688.791 880.875 686.664 885.094 686.664C887.59 686.664 892.283 687.402 892.266 693.414V706H889.277V703.398H889.137C888.504 704.682 886.764 706.439 883.441 706.457C879.82 706.439 876.938 704.312 876.938 700.586ZM879.961 700.727C879.979 702.748 881.648 703.768 883.969 703.75C887.379 703.768 889.277 701.482 889.277 699.074V697.158C888.381 697.211 885.375 697.439 884.461 697.492C881.719 697.668 879.979 698.635 879.961 700.727ZM905.133 706.387C899.613 706.404 896.203 702.467 896.203 696.613C896.203 690.742 899.666 686.664 904.852 686.664C908.859 686.664 913.096 689.125 913.078 696.191V697.457H899.227C899.385 701.5 901.74 703.715 905.133 703.715C907.418 703.715 908.859 702.713 909.562 701.535H912.797C911.9 704.436 909.07 706.404 905.133 706.387ZM899.244 694.891H910.02C910.002 691.709 907.998 689.336 904.852 689.336C901.547 689.336 899.455 691.938 899.244 694.891ZM925.348 686.91V689.441H921.34V700.516C921.322 702.959 922.553 703.363 923.836 703.363C924.381 703.363 925.189 703.311 925.629 703.293V706.105C925.154 706.176 924.416 706.246 923.52 706.246C920.971 706.246 918.299 704.664 918.281 701.289V689.441H915.398V686.91H918.281V682.34H921.34V686.91H925.348ZM928.336 700.586C928.336 696.209 932.203 695.207 935.508 694.961C936.738 694.873 939.814 694.697 940.676 694.68V693.133C940.676 690.707 939.234 689.301 936.352 689.301C933.943 689.301 932.484 690.408 932.062 691.867H928.898C929.285 688.791 932.273 686.664 936.492 686.664C938.988 686.664 943.682 687.402 943.664 693.414V706H940.676V703.398H940.535C939.902 704.682 938.162 706.439 934.84 706.457C931.219 706.439 928.336 704.312 928.336 700.586ZM931.359 700.727C931.377 702.748 933.047 703.768 935.367 703.75C938.777 703.768 940.676 701.482 940.676 699.074V697.158C939.779 697.211 936.773 697.439 935.859 697.492C933.117 697.668 931.377 698.635 931.359 700.727ZM956.531 706.387C951.012 706.404 947.602 702.467 947.602 696.613C947.602 690.742 951.064 686.664 956.25 686.664C960.258 686.664 964.494 689.125 964.477 696.191V697.457H950.625C950.783 701.5 953.139 703.715 956.531 703.715C958.816 703.715 960.258 702.713 960.961 701.535H964.195C963.299 704.436 960.469 706.404 956.531 706.387ZM950.643 694.891H961.418C961.4 691.709 959.396 689.336 956.25 689.336C952.945 689.336 950.854 691.938 950.643 694.891ZM977.484 679.352L969.258 709.832H966.516L974.707 679.352H977.484ZM992.496 698.16V686.91H995.484V706H992.496V702.766H992.285C991.389 704.699 989.49 706.246 986.625 706.246C983.004 706.246 980.42 703.891 980.438 699.039V686.91H983.461V698.828C983.461 701.57 985.166 703.346 987.609 703.328C989.771 703.346 992.479 701.729 992.496 698.16ZM1008.67 686.91V689.441H1004.66V700.516C1004.64 702.959 1005.87 703.363 1007.16 703.363C1007.7 703.363 1008.51 703.311 1008.95 703.293V706.105C1008.47 706.176 1007.74 706.246 1006.84 706.246C1004.29 706.246 1001.62 704.664 1001.6 701.289V689.441H998.719V686.91H1001.6V682.34H1004.66V686.91H1008.67ZM1012.57 706V686.91H1015.59V706H1012.57ZM1011.97 681.742C1011.96 680.617 1012.92 679.721 1014.08 679.738C1015.24 679.721 1016.21 680.617 1016.23 681.742C1016.21 682.85 1015.24 683.746 1014.08 683.746C1012.92 683.746 1011.96 682.85 1011.97 681.742ZM1023.43 680.547V706H1020.41V680.547H1023.43ZM1038.87 691.867C1038.45 690.285 1037.23 689.248 1035 689.23C1032.64 689.248 1030.97 690.514 1030.96 692.113C1030.97 693.379 1031.99 694.24 1034.23 694.785L1037.07 695.488C1040.48 696.297 1042.15 698.002 1042.17 700.656C1042.15 703.961 1039.46 706.404 1034.68 706.387C1030.39 706.404 1027.85 704.488 1027.34 701.008H1030.5C1030.85 702.871 1032.21 703.768 1034.61 703.75C1037.34 703.768 1039.04 702.625 1039.04 700.832C1039.04 699.479 1038.08 698.6 1035.91 698.09L1033.03 697.422C1029.71 696.648 1027.93 694.838 1027.93 692.289C1027.93 689.02 1030.8 686.664 1035 686.664C1038.96 686.664 1041.43 688.773 1041.82 691.867H1038.87Z" fill="#0D5449"/>
<rect x="776" y="639.5" width="316" height="106" rx="19.5" stroke="#00705E" stroke-opacity="0.2"/>
<rect x="773" y="816" width="322" height="107" rx="20" fill="#F2FFFD"/>
<path d="M836.012 879.66C832.479 879.643 829.93 876.812 829.93 872.242C829.93 867.707 832.531 864.877 836.047 864.859C838.578 864.877 839.615 866.494 840.055 867.285H840.23V865.141H842.902V875.406C842.955 876.777 843.518 877.463 844.66 877.445C846.84 877.463 848.299 874.914 848.316 871.258C848.352 864.631 843.553 860.307 836.82 860.289C829.859 860.324 825.377 865.703 825.359 872.242C825.359 879.396 829.262 884.301 836.68 884.23C839.141 884.195 840.758 884.037 842.902 883.457V885.848C841.057 886.34 839 886.656 836.68 886.656C828.084 886.656 822.811 881.154 822.828 872.242C822.793 863.928 828.629 857.863 836.82 857.863C845.223 857.863 850.883 863.576 850.848 871.152C850.865 876.619 848.053 879.801 844.484 879.801C842.27 879.801 840.6 878.553 840.459 876.918H840.23C839.826 877.709 838.754 879.643 836.012 879.66ZM832.672 872.207C832.654 874.949 834.025 877.076 836.469 877.094C838.982 877.076 840.248 875.125 840.266 872.207C840.248 869.359 839 867.443 836.469 867.426C834.008 867.443 832.654 869.518 832.672 872.207ZM858.125 871.539V883H855.102V857.547H858.125V866.898H858.371C859.268 864.93 860.973 863.664 863.996 863.664C867.898 863.664 870.5 865.967 870.5 870.871V883H867.477V871.082C867.477 868.076 865.824 866.371 863.082 866.371C860.234 866.371 858.125 868.234 858.125 871.539ZM874.438 877.586C874.438 873.209 878.305 872.207 881.609 871.961C882.84 871.873 885.916 871.697 886.777 871.68V870.133C886.777 867.707 885.336 866.301 882.453 866.301C880.045 866.301 878.586 867.408 878.164 868.867H875C875.387 865.791 878.375 863.664 882.594 863.664C885.09 863.664 889.783 864.402 889.766 870.414V883H886.777V880.398H886.637C886.004 881.682 884.264 883.439 880.941 883.457C877.32 883.439 874.438 881.312 874.438 877.586ZM877.461 877.727C877.479 879.748 879.148 880.768 881.469 880.75C884.879 880.768 886.777 878.482 886.777 876.074V874.158C885.881 874.211 882.875 874.439 881.961 874.492C879.219 874.668 877.479 875.635 877.461 877.727ZM902.633 883.387C897.113 883.404 893.703 879.467 893.703 873.613C893.703 867.742 897.166 863.664 902.352 863.664C906.359 863.664 910.596 866.125 910.578 873.191V874.457H896.727C896.885 878.5 899.24 880.715 902.633 880.715C904.918 880.715 906.359 879.713 907.062 878.535H910.297C909.4 881.436 906.57 883.404 902.633 883.387ZM896.744 871.891H907.52C907.502 868.709 905.498 866.336 902.352 866.336C899.047 866.336 896.955 868.938 896.744 871.891ZM922.848 863.91V866.441H918.84V877.516C918.822 879.959 920.053 880.363 921.336 880.363C921.881 880.363 922.689 880.311 923.129 880.293V883.105C922.654 883.176 921.916 883.246 921.02 883.246C918.471 883.246 915.799 881.664 915.781 878.289V866.441H912.898V863.91H915.781V859.34H918.84V863.91H922.848ZM925.836 877.586C925.836 873.209 929.703 872.207 933.008 871.961C934.238 871.873 937.314 871.697 938.176 871.68V870.133C938.176 867.707 936.734 866.301 933.852 866.301C931.443 866.301 929.984 867.408 929.562 868.867H926.398C926.785 865.791 929.773 863.664 933.992 863.664C936.488 863.664 941.182 864.402 941.164 870.414V883H938.176V880.398H938.035C937.402 881.682 935.662 883.439 932.34 883.457C928.719 883.439 925.836 881.312 925.836 877.586ZM928.859 877.727C928.877 879.748 930.547 880.768 932.867 880.75C936.277 880.768 938.176 878.482 938.176 876.074V874.158C937.279 874.211 934.273 874.439 933.359 874.492C930.617 874.668 928.877 875.635 928.859 877.727ZM954.031 883.387C948.512 883.404 945.102 879.467 945.102 873.613C945.102 867.742 948.564 863.664 953.75 863.664C957.758 863.664 961.994 866.125 961.977 873.191V874.457H948.125C948.283 878.5 950.639 880.715 954.031 880.715C956.316 880.715 957.758 879.713 958.461 878.535H961.695C960.799 881.436 957.969 883.404 954.031 883.387ZM948.143 871.891H958.918C958.9 868.709 956.896 866.336 953.75 866.336C950.445 866.336 948.354 868.938 948.143 871.891ZM974.984 856.352L966.758 886.832H964.016L972.207 856.352H974.984ZM985.742 883.387C980.328 883.404 977.023 879.273 977.023 873.543C977.023 867.742 980.486 863.664 985.672 863.664C989.732 863.664 992.791 866.072 993.266 869.676H990.242C989.803 867.936 988.291 866.336 985.742 866.336C982.332 866.336 980.064 869.148 980.047 873.438C980.064 877.85 982.279 880.68 985.742 880.68C987.992 880.68 989.715 879.467 990.242 877.375H993.266C992.791 880.785 989.979 883.404 985.742 883.387ZM1004.8 883.387C999.594 883.404 996.078 879.467 996.078 873.543C996.078 867.584 999.594 863.664 1004.8 863.664C1009.98 863.664 1013.46 867.584 1013.45 873.543C1013.46 879.467 1009.98 883.404 1004.8 883.387ZM999.102 873.543C999.119 877.357 1000.91 880.715 1004.8 880.715C1008.65 880.715 1010.42 877.357 1010.42 873.543C1010.42 869.746 1008.65 866.336 1004.8 866.336C1000.91 866.336 999.119 869.746 999.102 873.543ZM1017.42 883V863.91H1020.34V866.828H1020.55C1021.23 864.895 1023.22 863.611 1025.47 863.594C1025.93 863.611 1026.7 863.629 1027.05 863.664V866.723C1026.82 866.67 1026.01 866.512 1025.22 866.512C1022.48 866.512 1020.44 868.41 1020.44 870.977V883H1017.42ZM1037.39 883.387C1031.87 883.404 1028.46 879.467 1028.46 873.613C1028.46 867.742 1031.92 863.664 1037.11 863.664C1041.11 863.664 1045.35 866.125 1045.33 873.191V874.457H1031.48C1031.64 878.5 1033.99 880.715 1037.39 880.715C1039.67 880.715 1041.11 879.713 1041.82 878.535H1045.05C1044.15 881.436 1041.32 883.404 1037.39 883.387ZM1031.5 871.891H1042.27C1042.26 868.709 1040.25 866.336 1037.11 866.336C1033.8 866.336 1031.71 868.938 1031.5 871.891Z" fill="#0D5449"/>
<rect x="773.5" y="816.5" width="321" height="106" rx="19.5" stroke="#00705E" stroke-opacity="0.2"/>
<g opacity="0.2">
<path d="M1072.5 158.5C1070.83 158.5 1069.5 159.833 1069.5 161.5C1069.5 163.167 1070.83 164.5 1072.5 164.5C1074.15 164.5 1075.48 163.188 1075.5 161.54C1075.5 161.527 1075.5 161.513 1075.5 161.5C1075.5 159.833 1074.17 158.5 1072.5 158.5Z" fill="black"/>
<path d="M1072.5 160C1071.67 160 1071 160.672 1071 161.5C1071 162.328 1071.67 163 1072.5 163V160ZM1382.77 516.789C1383.48 516.366 1383.71 515.445 1383.29 514.733L1376.39 503.13C1375.97 502.418 1375.05 502.184 1374.33 502.607C1373.62 503.031 1373.39 503.951 1373.81 504.663L1379.94 514.977L1369.63 521.111C1368.92 521.534 1368.68 522.455 1369.11 523.167C1369.53 523.879 1370.45 524.113 1371.16 523.689L1382.77 516.789ZM1071 161.5C1071 160.662 1071.66 160 1072.5 160V157C1070 157 1068 159.005 1068 161.5H1071ZM1072.5 160C1073.34 160 1074 160.662 1074 161.5H1077C1077 159.005 1075 157 1072.5 157V160ZM1074 161.5C1074 161.507 1074 161.514 1074 161.521L1077 161.559C1077 161.539 1077 161.52 1077 161.5H1074ZM1074 161.521C1073.99 162.348 1073.33 163 1072.5 163V166C1074.98 166 1076.97 164.027 1077 161.559L1074 161.521ZM1072.5 163C1071.66 163 1071 162.338 1071 161.5H1068C1068 163.995 1070 166 1072.5 166V163ZM1072.5 163C1073.49 163 1074.48 163.013 1075.46 163.039L1075.54 160.04C1074.53 160.013 1073.52 160 1072.5 160V163ZM1075.46 163.039C1112.8 164.034 1140.94 183.868 1164.61 213.983C1188.32 244.141 1207.41 284.428 1226.64 326.011C1245.84 367.52 1265.18 410.301 1289.36 445.132C1313.55 479.979 1342.7 507.059 1381.63 516.954L1382.37 514.046C1344.43 504.402 1315.8 477.973 1291.82 443.421C1267.83 408.852 1248.6 366.343 1229.37 324.752C1210.16 283.234 1190.94 242.612 1166.97 212.129C1142.97 181.603 1114.08 161.067 1075.54 160.04L1075.46 163.039Z" fill="black"/>
</g>
<g opacity="0.2">
<path d="M1077 335.5C1075.33 335.5 1074 336.833 1074 338.5C1074 340.167 1075.33 341.5 1077 341.5C1078.66 341.5 1079.99 340.178 1080 338.52C1080 338.514 1080 338.507 1080 338.5C1080 336.833 1078.67 335.5 1077 335.5Z" fill="black"/>
<path d="M1077 337C1076.17 337 1075.5 337.672 1075.5 338.5C1075.5 339.328 1076.17 340 1077 340V337ZM1382.92 516.688C1383.57 516.182 1383.69 515.24 1383.19 514.584L1374.94 503.895C1374.43 503.239 1373.49 503.118 1372.84 503.624C1372.18 504.13 1372.06 505.072 1372.57 505.728L1379.9 515.229L1370.4 522.559C1369.74 523.065 1369.62 524.007 1370.12 524.663C1370.63 525.319 1371.57 525.44 1372.23 524.934L1382.92 516.688ZM1075.5 338.5C1075.5 337.662 1076.16 337 1077 337V334C1074.5 334 1072.5 336.005 1072.5 338.5H1075.5ZM1077 337C1077.84 337 1078.5 337.662 1078.5 338.5H1081.5C1081.5 336.005 1079.5 334 1077 334V337ZM1078.5 338.5C1078.5 338.504 1078.5 338.507 1078.5 338.511L1081.5 338.53C1081.5 338.52 1081.5 338.51 1081.5 338.5H1078.5ZM1078.5 338.511C1078.49 339.344 1077.83 340 1077 340V343C1079.48 343 1081.48 341.012 1081.5 338.53L1078.5 338.511ZM1077 340C1076.16 340 1075.5 339.338 1075.5 338.5H1072.5C1072.5 340.995 1074.5 343 1077 343V340ZM1077 340C1078 340 1078.99 340.007 1079.98 340.02L1080.02 337.021C1079.02 337.007 1078.01 337 1077 337V340ZM1079.98 340.02C1154.05 341.036 1191.29 379.94 1229.15 421.463C1267 462.986 1305.46 507.141 1381.81 516.988L1382.19 514.012C1307.05 504.322 1269.26 461.012 1231.36 419.442C1193.47 377.873 1155.46 338.055 1080.02 337.021L1079.98 340.02Z" fill="black"/>
</g>
<g opacity="0.2">
<path d="M1084.5 512.5C1082.83 512.5 1081.5 513.833 1081.5 515.5C1081.5 517.167 1082.83 518.5 1084.5 518.5C1086.17 518.5 1087.5 517.167 1087.5 515.5C1087.5 513.833 1086.17 512.5 1084.5 512.5Z" fill="black"/>
<path d="M1084.5 514C1083.67 514 1083 514.672 1083 515.5C1083 516.328 1083.67 517 1084.5 517V514ZM1383.06 516.561C1383.65 515.975 1383.65 515.025 1383.06 514.439L1373.51 504.893C1372.93 504.308 1371.98 504.308 1371.39 504.893C1370.81 505.479 1370.81 506.429 1371.39 507.015L1379.88 515.5L1371.39 523.985C1370.81 524.571 1370.81 525.521 1371.39 526.107C1371.98 526.692 1372.93 526.692 1373.51 526.107L1383.06 516.561ZM1083 515.5C1083 514.662 1083.66 514 1084.5 514V511C1082 511 1080 513.005 1080 515.5H1083ZM1084.5 514C1085.34 514 1086 514.662 1086 515.5H1089C1089 513.005 1087 511 1084.5 511V514ZM1086 515.5C1086 516.338 1085.34 517 1084.5 517V520C1087 520 1089 517.995 1089 515.5H1086ZM1084.5 517C1083.66 517 1083 516.338 1083 515.5H1080C1080 517.995 1082 520 1084.5 520V517ZM1084.5 517H1087.5V514H1084.5V517ZM1087.5 517H1382V514H1087.5V517Z" fill="black"/>
</g>
<g opacity="0.2">
<path d="M1092.5 689.5C1090.83 689.5 1089.5 690.833 1089.5 692.5C1089.5 694.167 1090.83 695.5 1092.5 695.5C1094.17 695.5 1095.5 694.167 1095.5 692.5C1095.5 692.492 1095.5 692.483 1095.5 692.475C1095.49 690.82 1094.16 689.5 1092.5 689.5Z" fill="black"/>
<path d="M1092.5 691C1091.67 691 1091 691.672 1091 692.5C1091 693.328 1091.67 694 1092.5 694V691ZM1383.07 516.553C1383.65 515.963 1383.64 515.013 1383.05 514.432L1373.44 504.954C1372.85 504.373 1371.9 504.38 1371.32 504.97C1370.74 505.56 1370.74 506.509 1371.33 507.091L1379.88 515.515L1371.45 524.061C1370.87 524.651 1370.88 525.601 1371.47 526.182C1372.06 526.764 1373.01 526.757 1373.59 526.167L1383.07 516.553ZM1091 692.5C1091 691.662 1091.66 691 1092.5 691V688C1090 688 1088 690.005 1088 692.5H1091ZM1092.5 691C1093.33 691 1093.99 691.655 1094 692.487L1097 692.462C1096.98 689.984 1094.98 688 1092.5 688V691ZM1094 692.487C1094 692.491 1094 692.496 1094 692.5H1097C1097 692.487 1097 692.475 1097 692.462L1094 692.487ZM1094 692.5C1094 693.338 1093.34 694 1092.5 694V697C1095 697 1097 694.995 1097 692.5H1094ZM1092.5 694C1091.66 694 1091 693.338 1091 692.5H1088C1088 694.995 1090 697 1092.5 697V694ZM1092.5 694C1093.52 694 1094.52 693.991 1095.53 693.974L1095.47 690.975C1094.49 690.992 1093.5 691 1092.5 691V694ZM1095.53 693.974C1167.18 692.754 1203.27 648.183 1239.16 604.419C1275.13 560.573 1310.91 517.509 1382.01 517L1381.99 514C1309.35 514.52 1272.76 558.736 1236.85 602.517C1200.87 646.379 1165.58 689.781 1095.47 690.975L1095.53 693.974Z" fill="black"/>
</g>
<g opacity="0.2">
<path d="M1095 866.5C1093.33 866.5 1092 867.833 1092 869.5C1092 871.167 1093.33 872.5 1095 872.5C1096.67 872.5 1098 871.167 1098 869.5C1098 869.483 1098 869.465 1098 869.448C1097.97 867.806 1096.65 866.5 1095 866.5Z" fill="black"/>
<path d="M1095 868C1094.17 868 1093.5 868.672 1093.5 869.5C1093.5 870.328 1094.17 871 1095 871V868ZM1383.07 516.553C1383.65 515.963 1383.64 515.013 1383.05 514.432L1373.44 504.955C1372.85 504.374 1371.9 504.381 1371.32 504.971C1370.73 505.561 1370.74 506.511 1371.33 507.092L1379.88 515.515L1371.46 524.062C1370.87 524.652 1370.88 525.602 1371.47 526.184C1372.06 526.765 1373.01 526.758 1373.59 526.168L1383.07 516.553ZM1093.5 869.5C1093.5 868.662 1094.16 868 1095 868V865C1092.5 865 1090.5 867.005 1090.5 869.5H1093.5ZM1095 868C1095.83 868 1096.49 868.648 1096.5 869.473L1099.5 869.423C1099.46 866.963 1097.47 865 1095 865V868ZM1096.5 869.473C1096.5 869.482 1096.5 869.491 1096.5 869.5H1099.5C1099.5 869.474 1099.5 869.449 1099.5 869.423L1096.5 869.473ZM1096.5 869.5C1096.5 870.338 1095.84 871 1095 871V874C1097.5 874 1099.5 871.995 1099.5 869.5H1096.5ZM1095 871C1094.16 871 1093.5 870.338 1093.5 869.5H1090.5C1090.5 871.995 1092.5 874 1095 874V871ZM1095 871C1096.02 871 1097.04 870.982 1098.05 870.947L1097.95 867.949C1096.97 867.983 1095.99 868 1095 868V871ZM1098.05 870.947C1133.9 869.701 1160.68 846.547 1182.86 813.058C1205.04 779.576 1222.85 735.425 1240.64 691.596C1258.47 647.682 1276.29 604.091 1298.51 571.399C1320.72 538.721 1347.11 517.254 1382.01 517L1381.99 514C1345.64 514.265 1318.47 536.69 1296.03 569.712C1273.59 602.72 1255.66 646.635 1237.87 690.468C1220.03 734.385 1202.34 778.222 1180.36 811.401C1158.39 844.573 1132.36 866.753 1097.95 867.949L1098.05 870.947Z" fill="black"/>
</g>
<g opacity="0.2">
<path d="M487 512.5C485.333 512.5 484 513.833 484 515.5C484 517.167 485.333 518.5 487 518.5C488.667 518.5 490 517.167 490 515.5C490 515.485 490 515.47 490 515.455C489.976 513.809 488.652 512.5 487 512.5Z" fill="black"/>
<path d="M487 514C486.172 514 485.5 514.672 485.5 515.5C485.5 516.328 486.172 517 487 517V514ZM796.567 162.554C797.149 161.964 797.143 161.015 796.554 160.433L786.948 150.947C786.359 150.365 785.409 150.371 784.827 150.96C784.245 151.55 784.251 152.5 784.84 153.082L793.379 161.513L784.947 170.052C784.365 170.641 784.371 171.591 784.96 172.173C785.55 172.755 786.5 172.749 787.082 172.16L796.567 162.554ZM485.5 515.5C485.5 514.662 486.162 514 487 514V511C484.505 511 482.5 513.005 482.5 515.5H485.5ZM487 514C487.831 514 488.488 514.65 488.5 515.477L491.5 515.434C491.464 512.969 489.472 511 487 511V514ZM488.5 515.477C488.5 515.484 488.5 515.492 488.5 515.5H491.5C491.5 515.478 491.5 515.456 491.5 515.433L488.5 515.477ZM488.5 515.5C488.5 516.338 487.838 517 487 517V520C489.495 520 491.5 517.995 491.5 515.5H488.5ZM487 517C486.162 517 485.5 516.338 485.5 515.5H482.5C482.5 517.995 484.505 520 487 520V517ZM487 517C488.021 517 489.036 516.985 490.045 516.954L489.955 513.956C488.976 513.985 487.992 514 487 514V517ZM490.045 516.954C528.531 515.797 557.331 492.737 581.217 459.238C605.086 425.763 624.243 381.59 643.38 337.735C662.554 293.794 681.707 250.172 705.598 217.458C729.466 184.775 757.872 163.237 795.509 163L795.491 160C756.507 160.246 727.321 182.626 703.175 215.689C679.051 248.722 659.768 292.676 640.63 336.535C621.454 380.479 602.423 424.33 578.774 457.496C555.143 490.639 527.097 512.839 489.955 513.956L490.045 516.954Z" fill="black"/>
</g>
<g opacity="0.2">
<path d="M487 512.5C485.333 512.5 484 513.833 484 515.5C484 517.167 485.333 518.5 487 518.5C488.667 518.5 490 517.167 490 515.5C490 515.492 490 515.485 490 515.477C489.988 513.821 488.659 512.5 487 512.5Z" fill="black"/>
<path d="M487 514C486.172 514 485.5 514.672 485.5 515.5C485.5 516.328 486.172 517 487 517V514ZM792.068 339.554C792.649 338.964 792.643 338.014 792.054 337.432L782.446 327.949C781.856 327.367 780.907 327.373 780.325 327.962C779.743 328.552 779.749 329.502 780.339 330.084L788.879 338.514L780.449 347.054C779.867 347.644 779.873 348.593 780.462 349.175C781.052 349.757 782.002 349.751 782.584 349.161L792.068 339.554ZM485.5 515.5C485.5 514.662 486.162 514 487 514V511C484.505 511 482.5 513.005 482.5 515.5H485.5ZM487 514C487.834 514 488.494 514.656 488.5 515.488L491.5 515.466C491.482 512.986 489.483 511 487 511V514ZM488.5 515.488C488.5 515.492 488.5 515.496 488.5 515.5H491.5C491.5 515.489 491.5 515.477 491.5 515.466L488.5 515.488ZM488.5 515.5C488.5 516.338 487.838 517 487 517V520C489.495 520 491.5 517.995 491.5 515.5H488.5ZM487 517C486.162 517 485.5 516.338 485.5 515.5H482.5C482.5 517.995 484.505 520 487 520V517ZM487 517C488.014 517 489.022 516.992 490.023 516.977L489.977 513.977C488.991 513.992 487.999 514 487 514V517ZM490.023 516.977C565.268 515.815 603.169 471.274 640.892 427.472C678.656 383.621 716.255 340.485 791.01 340L790.99 337C714.752 337.495 676.354 381.697 638.618 425.515C600.841 469.381 563.738 512.838 489.977 513.977L490.023 516.977Z" fill="black"/>
</g>
<g opacity="0.2">
<path d="M487 512.5C485.333 512.5 484 513.833 484 515.5C484 517.167 485.333 518.5 487 518.5C488.667 518.5 490 517.167 490 515.5C490 513.833 488.667 512.5 487 512.5Z" fill="black"/>
<path d="M487 514C486.172 514 485.5 514.672 485.5 515.5C485.5 516.328 486.172 517 487 517V514ZM784.561 516.561C785.146 515.975 785.146 515.025 784.561 514.439L775.015 504.893C774.429 504.308 773.479 504.308 772.893 504.893C772.308 505.479 772.308 506.429 772.893 507.015L781.379 515.5L772.893 523.985C772.308 524.571 772.308 525.521 772.893 526.107C773.479 526.692 774.429 526.692 775.015 526.107L784.561 516.561ZM485.5 515.5C485.5 514.662 486.162 514 487 514V511C484.505 511 482.5 513.005 482.5 515.5H485.5ZM487 514C487.838 514 488.5 514.662 488.5 515.5H491.5C491.5 513.005 489.495 511 487 511V514ZM488.5 515.5C488.5 516.338 487.838 517 487 517V520C489.495 520 491.5 517.995 491.5 515.5H488.5ZM487 517C486.162 517 485.5 516.338 485.5 515.5H482.5C482.5 517.995 484.505 520 487 520V517ZM487 517H490V514H487V517ZM490 517H783.5V514H490V517Z" fill="black"/>
</g>
<g opacity="0.2">
<path d="M487 512.5C485.333 512.5 484 513.833 484 515.5C484 517.167 485.333 518.5 487 518.5C488.659 518.5 489.988 517.179 490 515.523C490 515.515 490 515.508 490 515.5C490 513.833 488.667 512.5 487 512.5Z" fill="black"/>
<path d="M487 514C486.172 514 485.5 514.672 485.5 515.5C485.5 516.328 486.172 517 487 517V514ZM776.408 693.694C777.067 693.193 777.196 692.252 776.694 691.592L768.525 680.844C768.024 680.185 767.083 680.057 766.423 680.558C765.764 681.059 765.636 682 766.137 682.66L773.398 692.213L763.844 699.475C763.185 699.976 763.057 700.917 763.558 701.577C764.059 702.236 765 702.364 765.66 701.863L776.408 693.694ZM485.5 515.5C485.5 514.662 486.162 514 487 514V511C484.505 511 482.5 513.005 482.5 515.5H485.5ZM487 514C487.838 514 488.5 514.662 488.5 515.5H491.5C491.5 513.005 489.495 511 487 511V514ZM488.5 515.5C488.5 515.504 488.5 515.508 488.5 515.512L491.5 515.534C491.5 515.523 491.5 515.511 491.5 515.5H488.5ZM488.5 515.512C488.494 516.344 487.834 517 487 517V520C489.484 520 491.482 518.014 491.5 515.534L488.5 515.512ZM487 517C486.162 517 485.5 516.338 485.5 515.5H482.5C482.5 517.995 484.505 520 487 520V517ZM487 517C487.999 517 488.992 517.008 489.977 517.023L490.023 514.023C489.022 514.008 488.015 514 487 514V517ZM489.977 517.023C559.887 518.095 595.063 556.956 630.869 598.48C666.65 639.976 703.047 684.136 775.297 693.986L775.703 691.014C704.71 681.335 668.985 638.09 633.141 596.521C597.322 554.981 561.37 515.118 490.023 514.023L489.977 517.023Z" fill="black"/>
</g>
<g opacity="0.2">
<path d="M487 512.5C485.333 512.5 484 513.833 484 515.5C484 517.167 485.333 518.5 487 518.5C488.651 518.5 489.975 517.191 490 515.547C490 515.531 490 515.516 490 515.5C490 513.833 488.667 512.5 487 512.5Z" fill="black"/>
<path d="M487 514C486.172 514 485.5 514.672 485.5 515.5C485.5 516.328 486.172 517 487 517V514ZM773.741 870.804C774.462 870.395 774.713 869.479 774.304 868.759L767.632 857.023C767.222 856.303 766.306 856.051 765.586 856.46C764.866 856.87 764.614 857.785 765.024 858.506L770.955 868.937L760.523 874.868C759.803 875.278 759.551 876.194 759.96 876.914C760.37 877.634 761.285 877.886 762.006 877.476L773.741 870.804ZM485.5 515.5C485.5 514.662 486.162 514 487 514V511C484.505 511 482.5 513.005 482.5 515.5H485.5ZM487 514C487.838 514 488.5 514.662 488.5 515.5H491.5C491.5 513.005 489.495 511 487 511V514ZM488.5 515.5C488.5 515.508 488.5 515.516 488.5 515.524L491.499 515.569C491.5 515.546 491.5 515.523 491.5 515.5H488.5ZM488.5 515.524C488.487 516.35 487.831 517 487 517V520C489.472 520 491.463 518.033 491.499 515.569L488.5 515.524ZM487 517C486.162 517 485.5 516.338 485.5 515.5H482.5C482.5 517.995 484.505 520 487 520V517ZM487 517C487.991 517 488.976 517.015 489.953 517.046L490.046 514.047C489.038 514.016 488.022 514 487 514V517ZM489.953 517.046C524.303 518.118 550.24 537.94 572.102 568.084C593.986 598.26 611.611 638.542 629.376 680.106C647.109 721.595 664.972 764.342 687.304 799.143C709.64 833.95 736.587 861.04 772.602 870.946L773.398 868.054C738.417 858.432 711.991 832.06 689.829 797.522C667.662 762.979 649.902 720.497 632.135 678.927C614.399 637.431 596.648 596.821 574.531 566.323C552.39 535.794 525.7 515.16 490.046 514.047L489.953 517.046Z" fill="black"/>
</g>
</svg>
