<svg width="1920" height="1080" viewBox="0 0 1920 1080" fill="none" xmlns="http://www.w3.org/2000/svg">
<rect width="1920" height="1080" rx="100" fill="white"/>
<rect x="1382" y="462" width="391" height="107" rx="20" fill="#F2FFFD"/>
<path d="M1445.01 525.66C1441.48 525.643 1438.93 522.812 1438.93 518.242C1438.93 513.707 1441.53 510.877 1445.05 510.859C1447.58 510.877 1448.62 512.494 1449.05 513.285H1449.23V511.141H1451.9V521.406C1451.96 522.777 1452.52 523.463 1453.66 523.445C1455.84 523.463 1457.3 520.914 1457.32 517.258C1457.35 510.631 1452.55 506.307 1445.82 506.289C1438.86 506.324 1434.38 511.703 1434.36 518.242C1434.36 525.396 1438.26 530.301 1445.68 530.23C1448.14 530.195 1449.76 530.037 1451.9 529.457V531.848C1450.06 532.34 1448 532.656 1445.68 532.656C1437.08 532.656 1431.81 527.154 1431.83 518.242C1431.79 509.928 1437.63 503.863 1445.82 503.863C1454.22 503.863 1459.88 509.576 1459.85 517.152C1459.87 522.619 1457.05 525.801 1453.48 525.801C1451.27 525.801 1449.6 524.553 1449.46 522.918H1449.23C1448.83 523.709 1447.75 525.643 1445.01 525.66ZM1441.67 518.207C1441.65 520.949 1443.03 523.076 1445.47 523.094C1447.98 523.076 1449.25 521.125 1449.27 518.207C1449.25 515.359 1448 513.443 1445.47 513.426C1443.01 513.443 1441.65 515.518 1441.67 518.207ZM1467.12 517.539V529H1464.1V503.547H1467.12V512.898H1467.37C1468.27 510.93 1469.97 509.664 1473 509.664C1476.9 509.664 1479.5 511.967 1479.5 516.871V529H1476.48V517.082C1476.48 514.076 1474.82 512.371 1472.08 512.371C1469.23 512.371 1467.12 514.234 1467.12 517.539ZM1483.44 523.586C1483.44 519.209 1487.3 518.207 1490.61 517.961C1491.84 517.873 1494.92 517.697 1495.78 517.68V516.133C1495.78 513.707 1494.34 512.301 1491.45 512.301C1489.04 512.301 1487.59 513.408 1487.16 514.867H1484C1484.39 511.791 1487.38 509.664 1491.59 509.664C1494.09 509.664 1498.78 510.402 1498.77 516.414V529H1495.78V526.398H1495.64C1495 527.682 1493.26 529.439 1489.94 529.457C1486.32 529.439 1483.44 527.312 1483.44 523.586ZM1486.46 523.727C1486.48 525.748 1488.15 526.768 1490.47 526.75C1493.88 526.768 1495.78 524.482 1495.78 522.074V520.158C1494.88 520.211 1491.88 520.439 1490.96 520.492C1488.22 520.668 1486.48 521.635 1486.46 523.727ZM1511.63 529.387C1506.11 529.404 1502.7 525.467 1502.7 519.613C1502.7 513.742 1506.17 509.664 1511.35 509.664C1515.36 509.664 1519.6 512.125 1519.58 519.191V520.457H1505.73C1505.88 524.5 1508.24 526.715 1511.63 526.715C1513.92 526.715 1515.36 525.713 1516.06 524.535H1519.3C1518.4 527.436 1515.57 529.404 1511.63 529.387ZM1505.74 517.891H1516.52C1516.5 514.709 1514.5 512.336 1511.35 512.336C1508.05 512.336 1505.96 514.938 1505.74 517.891ZM1531.85 509.91V512.441H1527.84V523.516C1527.82 525.959 1529.05 526.363 1530.34 526.363C1530.88 526.363 1531.69 526.311 1532.13 526.293V529.105C1531.65 529.176 1530.92 529.246 1530.02 529.246C1527.47 529.246 1524.8 527.664 1524.78 524.289V512.441H1521.9V509.91H1524.78V505.34H1527.84V509.91H1531.85ZM1534.84 523.586C1534.84 519.209 1538.7 518.207 1542.01 517.961C1543.24 517.873 1546.31 517.697 1547.18 517.68V516.133C1547.18 513.707 1545.73 512.301 1542.85 512.301C1540.44 512.301 1538.98 513.408 1538.56 514.867H1535.4C1535.79 511.791 1538.77 509.664 1542.99 509.664C1545.49 509.664 1550.18 510.402 1550.16 516.414V529H1547.18V526.398H1547.04C1546.4 527.682 1544.66 529.439 1541.34 529.457C1537.72 529.439 1534.84 527.312 1534.84 523.586ZM1537.86 523.727C1537.88 525.748 1539.55 526.768 1541.87 526.75C1545.28 526.768 1547.18 524.482 1547.18 522.074V520.158C1546.28 520.211 1543.27 520.439 1542.36 520.492C1539.62 520.668 1537.88 521.635 1537.86 523.727ZM1563.03 529.387C1557.51 529.404 1554.1 525.467 1554.1 519.613C1554.1 513.742 1557.56 509.664 1562.75 509.664C1566.76 509.664 1570.99 512.125 1570.98 519.191V520.457H1557.12C1557.28 524.5 1559.64 526.715 1563.03 526.715C1565.32 526.715 1566.76 525.713 1567.46 524.535H1570.7C1569.8 527.436 1566.97 529.404 1563.03 529.387ZM1557.14 517.891H1567.92C1567.9 514.709 1565.9 512.336 1562.75 512.336C1559.45 512.336 1557.35 514.938 1557.14 517.891ZM1583.98 502.352L1575.76 532.832H1573.02L1581.21 502.352H1583.98ZM1594.74 529.387C1589.33 529.404 1586.02 525.273 1586.02 519.543C1586.02 513.742 1589.49 509.664 1594.67 509.664C1598.73 509.664 1601.79 512.072 1602.27 515.676H1599.24C1598.8 513.936 1597.29 512.336 1594.74 512.336C1591.33 512.336 1589.06 515.148 1589.05 519.438C1589.06 523.85 1591.28 526.68 1594.74 526.68C1596.99 526.68 1598.71 525.467 1599.24 523.375H1602.27C1601.79 526.785 1598.98 529.404 1594.74 529.387ZM1613.8 529.387C1608.59 529.404 1605.08 525.467 1605.08 519.543C1605.08 513.584 1608.59 509.664 1613.8 509.664C1618.98 509.664 1622.46 513.584 1622.45 519.543C1622.46 525.467 1618.98 529.404 1613.8 529.387ZM1608.1 519.543C1608.12 523.357 1609.91 526.715 1613.8 526.715C1617.65 526.715 1619.42 523.357 1619.42 519.543C1619.42 515.746 1617.65 512.336 1613.8 512.336C1609.91 512.336 1608.12 515.746 1608.1 519.543ZM1626.42 529V509.91H1629.34V512.898H1629.58C1630.37 510.859 1632.22 509.664 1634.71 509.664C1637.21 509.664 1638.92 510.859 1639.81 512.898H1640.02C1640.99 510.93 1643.01 509.664 1645.75 509.664C1649.15 509.664 1651.59 511.738 1651.59 516.238V529H1648.57V516.273C1648.55 513.461 1646.79 512.371 1644.7 512.371C1642.04 512.371 1640.53 514.164 1640.52 516.59V529H1637.46V515.957C1637.47 513.812 1635.93 512.371 1633.73 512.371C1631.45 512.371 1629.44 514.305 1629.44 517.082V529H1626.42ZM1656.44 529V509.91H1659.36V512.898H1659.61C1660.4 510.859 1662.24 509.664 1664.74 509.664C1667.23 509.664 1668.94 510.859 1669.84 512.898H1670.05C1671.01 510.93 1673.04 509.664 1675.78 509.664C1679.17 509.664 1681.61 511.738 1681.61 516.238V529H1678.59V516.273C1678.57 513.461 1676.81 512.371 1674.72 512.371C1672.07 512.371 1670.56 514.164 1670.54 516.59V529H1667.48V515.957C1667.5 513.812 1665.95 512.371 1663.75 512.371C1661.47 512.371 1659.46 514.305 1659.46 517.082V529H1656.44ZM1694.27 529.387C1689.07 529.404 1685.55 525.467 1685.55 519.543C1685.55 513.584 1689.07 509.664 1694.27 509.664C1699.46 509.664 1702.94 513.584 1702.92 519.543C1702.94 525.467 1699.46 529.404 1694.27 529.387ZM1688.57 519.543C1688.59 523.357 1690.38 526.715 1694.27 526.715C1698.12 526.715 1699.89 523.357 1699.89 519.543C1699.89 515.746 1698.12 512.336 1694.27 512.336C1690.38 512.336 1688.59 515.746 1688.57 519.543ZM1709.91 517.539V529H1706.89V509.91H1709.81V512.898H1710.05C1710.95 510.947 1712.74 509.664 1715.64 509.664C1719.51 509.664 1722.1 512.02 1722.08 516.871V529H1719.05V517.082C1719.05 514.129 1717.44 512.371 1714.73 512.371C1711.95 512.371 1709.91 514.234 1709.91 517.539Z" fill="#0D5449"/>
<rect x="1382.5" y="462.5" width="390" height="106" rx="19.5" stroke="#00705E" stroke-opacity="0.2"/>
<rect x="280" y="462" width="207" height="107" rx="20" fill="#F2FFFD"/>
<path d="M333.449 517.539V529H330.426V503.547H333.449V512.898H333.695C334.592 510.93 336.297 509.664 339.32 509.664C343.223 509.664 345.824 511.967 345.824 516.871V529H342.801V517.082C342.801 514.076 341.148 512.371 338.406 512.371C335.559 512.371 333.449 514.234 333.449 517.539ZM349.762 523.586C349.762 519.209 353.629 518.207 356.934 517.961C358.164 517.873 361.24 517.697 362.102 517.68V516.133C362.102 513.707 360.66 512.301 357.777 512.301C355.369 512.301 353.91 513.408 353.488 514.867H350.324C350.711 511.791 353.699 509.664 357.918 509.664C360.414 509.664 365.107 510.402 365.09 516.414V529H362.102V526.398H361.961C361.328 527.682 359.588 529.439 356.266 529.457C352.645 529.439 349.762 527.312 349.762 523.586ZM352.785 523.727C352.803 525.748 354.473 526.768 356.793 526.75C360.203 526.768 362.102 524.482 362.102 522.074V520.158C361.205 520.211 358.199 520.439 357.285 520.492C354.543 520.668 352.803 521.635 352.785 523.727ZM377.957 529.387C372.438 529.404 369.027 525.467 369.027 519.613C369.027 513.742 372.49 509.664 377.676 509.664C381.684 509.664 385.92 512.125 385.902 519.191V520.457H372.051C372.209 524.5 374.564 526.715 377.957 526.715C380.242 526.715 381.684 525.713 382.387 524.535H385.621C384.725 527.436 381.895 529.404 377.957 529.387ZM372.068 517.891H382.844C382.826 514.709 380.822 512.336 377.676 512.336C374.371 512.336 372.279 514.938 372.068 517.891ZM398.172 509.91V512.441H394.164V523.516C394.146 525.959 395.377 526.363 396.66 526.363C397.205 526.363 398.014 526.311 398.453 526.293V529.105C397.979 529.176 397.24 529.246 396.344 529.246C393.795 529.246 391.123 527.664 391.105 524.289V512.441H388.223V509.91H391.105V505.34H394.164V509.91H398.172ZM401.16 523.586C401.16 519.209 405.027 518.207 408.332 517.961C409.562 517.873 412.639 517.697 413.5 517.68V516.133C413.5 513.707 412.059 512.301 409.176 512.301C406.768 512.301 405.309 513.408 404.887 514.867H401.723C402.109 511.791 405.098 509.664 409.316 509.664C411.812 509.664 416.506 510.402 416.488 516.414V529H413.5V526.398H413.359C412.727 527.682 410.986 529.439 407.664 529.457C404.043 529.439 401.16 527.312 401.16 523.586ZM404.184 523.727C404.201 525.748 405.871 526.768 408.191 526.75C411.602 526.768 413.5 524.482 413.5 522.074V520.158C412.604 520.211 409.598 520.439 408.684 520.492C405.941 520.668 404.201 521.635 404.184 523.727ZM429.355 529.387C423.836 529.404 420.426 525.467 420.426 519.613C420.426 513.742 423.889 509.664 429.074 509.664C433.082 509.664 437.318 512.125 437.301 519.191V520.457H423.449C423.607 524.5 425.963 526.715 429.355 526.715C431.641 526.715 433.082 525.713 433.785 524.535H437.02C436.123 527.436 433.293 529.404 429.355 529.387ZM423.467 517.891H434.242C434.225 514.709 432.221 512.336 429.074 512.336C425.77 512.336 423.678 514.938 423.467 517.891Z" fill="#0D5449"/>
<rect x="280.5" y="462.5" width="206" height="106" rx="19.5" stroke="#00705E" stroke-opacity="0.2"/>
<rect x="791" y="108" width="286" height="107" rx="20" fill="#F2FFFD"/>
<path d="M854.012 171.66C850.479 171.643 847.93 168.812 847.93 164.242C847.93 159.707 850.531 156.877 854.047 156.859C856.578 156.877 857.615 158.494 858.055 159.285H858.23V157.141H860.902V167.406C860.955 168.777 861.518 169.463 862.66 169.445C864.84 169.463 866.299 166.914 866.316 163.258C866.352 156.631 861.553 152.307 854.82 152.289C847.859 152.324 843.377 157.703 843.359 164.242C843.359 171.396 847.262 176.301 854.68 176.23C857.141 176.195 858.758 176.037 860.902 175.457V177.848C859.057 178.34 857 178.656 854.68 178.656C846.084 178.656 840.811 173.154 840.828 164.242C840.793 155.928 846.629 149.863 854.82 149.863C863.223 149.863 868.883 155.576 868.848 163.152C868.865 168.619 866.053 171.801 862.484 171.801C860.27 171.801 858.6 170.553 858.459 168.918H858.23C857.826 169.709 856.754 171.643 854.012 171.66ZM850.672 164.207C850.654 166.949 852.025 169.076 854.469 169.094C856.982 169.076 858.248 167.125 858.266 164.207C858.248 161.359 857 159.443 854.469 159.426C852.008 159.443 850.654 161.518 850.672 164.207ZM876.125 163.539V175H873.102V149.547H876.125V158.898H876.371C877.268 156.93 878.973 155.664 881.996 155.664C885.898 155.664 888.5 157.967 888.5 162.871V175H885.477V163.082C885.477 160.076 883.824 158.371 881.082 158.371C878.234 158.371 876.125 160.234 876.125 163.539ZM892.438 169.586C892.438 165.209 896.305 164.207 899.609 163.961C900.84 163.873 903.916 163.697 904.777 163.68V162.133C904.777 159.707 903.336 158.301 900.453 158.301C898.045 158.301 896.586 159.408 896.164 160.867H893C893.387 157.791 896.375 155.664 900.594 155.664C903.09 155.664 907.783 156.402 907.766 162.414V175H904.777V172.398H904.637C904.004 173.682 902.264 175.439 898.941 175.457C895.32 175.439 892.438 173.312 892.438 169.586ZM895.461 169.727C895.479 171.748 897.148 172.768 899.469 172.75C902.879 172.768 904.777 170.482 904.777 168.074V166.158C903.881 166.211 900.875 166.439 899.961 166.492C897.219 166.668 895.479 167.635 895.461 169.727ZM920.633 175.387C915.113 175.404 911.703 171.467 911.703 165.613C911.703 159.742 915.166 155.664 920.352 155.664C924.359 155.664 928.596 158.125 928.578 165.191V166.457H914.727C914.885 170.5 917.24 172.715 920.633 172.715C922.918 172.715 924.359 171.713 925.062 170.535H928.297C927.4 173.436 924.57 175.404 920.633 175.387ZM914.744 163.891H925.52C925.502 160.709 923.498 158.336 920.352 158.336C917.047 158.336 914.955 160.938 914.744 163.891ZM940.848 155.91V158.441H936.84V169.516C936.822 171.959 938.053 172.363 939.336 172.363C939.881 172.363 940.689 172.311 941.129 172.293V175.105C940.654 175.176 939.916 175.246 939.02 175.246C936.471 175.246 933.799 173.664 933.781 170.289V158.441H930.898V155.91H933.781V151.34H936.84V155.91H940.848ZM943.836 169.586C943.836 165.209 947.703 164.207 951.008 163.961C952.238 163.873 955.314 163.697 956.176 163.68V162.133C956.176 159.707 954.734 158.301 951.852 158.301C949.443 158.301 947.984 159.408 947.562 160.867H944.398C944.785 157.791 947.773 155.664 951.992 155.664C954.488 155.664 959.182 156.402 959.164 162.414V175H956.176V172.398H956.035C955.402 173.682 953.662 175.439 950.34 175.457C946.719 175.439 943.836 173.312 943.836 169.586ZM946.859 169.727C946.877 171.748 948.547 172.768 950.867 172.75C954.277 172.768 956.176 170.482 956.176 168.074V166.158C955.279 166.211 952.273 166.439 951.359 166.492C948.617 166.668 946.877 167.635 946.859 169.727ZM972.031 175.387C966.512 175.404 963.102 171.467 963.102 165.613C963.102 159.742 966.564 155.664 971.75 155.664C975.758 155.664 979.994 158.125 979.977 165.191V166.457H966.125C966.283 170.5 968.639 172.715 972.031 172.715C974.316 172.715 975.758 171.713 976.461 170.535H979.695C978.799 173.436 975.969 175.404 972.031 175.387ZM966.143 163.891H976.918C976.9 160.709 974.896 158.336 971.75 158.336C968.445 158.336 966.354 160.938 966.143 163.891ZM992.984 148.352L984.758 178.832H982.016L990.207 148.352H992.984ZM1003.74 175.387C998.328 175.404 995.023 171.273 995.023 165.543C995.023 159.742 998.486 155.664 1003.67 155.664C1007.73 155.664 1010.79 158.072 1011.27 161.676H1008.24C1007.8 159.936 1006.29 158.336 1003.74 158.336C1000.33 158.336 998.064 161.148 998.047 165.438C998.064 169.85 1000.28 172.68 1003.74 172.68C1005.99 172.68 1007.71 171.467 1008.24 169.375H1011.27C1010.79 172.785 1007.98 175.404 1003.74 175.387ZM1018.02 149.547V175H1014.99V149.547H1018.02ZM1022.83 175V155.91H1025.86V175H1022.83ZM1022.23 150.742C1022.22 149.617 1023.18 148.721 1024.34 148.738C1025.5 148.721 1026.47 149.617 1026.49 150.742C1026.47 151.85 1025.5 152.746 1024.34 152.746C1023.18 152.746 1022.22 151.85 1022.23 150.742Z" fill="#0D5449"/>
<rect x="791.5" y="108.5" width="285" height="106" rx="19.5" stroke="#00705E" stroke-opacity="0.2"/>
<rect x="783.5" y="285" width="301" height="107" rx="20" fill="#F2FFFD"/>
<path d="M846.512 348.66C842.979 348.643 840.43 345.812 840.43 341.242C840.43 336.707 843.031 333.877 846.547 333.859C849.078 333.877 850.115 335.494 850.555 336.285H850.73V334.141H853.402V344.406C853.455 345.777 854.018 346.463 855.16 346.445C857.34 346.463 858.799 343.914 858.816 340.258C858.852 333.631 854.053 329.307 847.32 329.289C840.359 329.324 835.877 334.703 835.859 341.242C835.859 348.396 839.762 353.301 847.18 353.23C849.641 353.195 851.258 353.037 853.402 352.457V354.848C851.557 355.34 849.5 355.656 847.18 355.656C838.584 355.656 833.311 350.154 833.328 341.242C833.293 332.928 839.129 326.863 847.32 326.863C855.723 326.863 861.383 332.576 861.348 340.152C861.365 345.619 858.553 348.801 854.984 348.801C852.77 348.801 851.1 347.553 850.959 345.918H850.73C850.326 346.709 849.254 348.643 846.512 348.66ZM843.172 341.207C843.154 343.949 844.525 346.076 846.969 346.094C849.482 346.076 850.748 344.125 850.766 341.207C850.748 338.359 849.5 336.443 846.969 336.426C844.508 336.443 843.154 338.518 843.172 341.207ZM877.66 340.539V352H874.637V326.547H877.66V335.898H877.906C878.803 333.93 880.508 332.664 883.531 332.664C887.434 332.664 890.035 334.967 890.035 339.871V352H887.012V340.082C887.012 337.076 885.359 335.371 882.617 335.371C879.77 335.371 877.66 337.234 877.66 340.539ZM893.973 346.586C893.973 342.209 897.84 341.207 901.145 340.961C902.375 340.873 905.451 340.697 906.312 340.68V339.133C906.312 336.707 904.871 335.301 901.988 335.301C899.58 335.301 898.121 336.408 897.699 337.867H894.535C894.922 334.791 897.91 332.664 902.129 332.664C904.625 332.664 909.318 333.402 909.301 339.414V352H906.312V349.398H906.172C905.539 350.682 903.799 352.439 900.477 352.457C896.855 352.439 893.973 350.312 893.973 346.586ZM896.996 346.727C897.014 348.748 898.684 349.768 901.004 349.75C904.414 349.768 906.312 347.482 906.312 345.074V343.158C905.416 343.211 902.41 343.439 901.496 343.492C898.754 343.668 897.014 344.635 896.996 346.727ZM922.168 352.387C916.648 352.404 913.238 348.467 913.238 342.613C913.238 336.742 916.701 332.664 921.887 332.664C925.895 332.664 930.131 335.125 930.113 342.191V343.457H916.262C916.42 347.5 918.775 349.715 922.168 349.715C924.453 349.715 925.895 348.713 926.598 347.535H929.832C928.936 350.436 926.105 352.404 922.168 352.387ZM916.279 340.891H927.055C927.037 337.709 925.033 335.336 921.887 335.336C918.582 335.336 916.49 337.938 916.279 340.891ZM942.383 332.91V335.441H938.375V346.516C938.357 348.959 939.588 349.363 940.871 349.363C941.416 349.363 942.225 349.311 942.664 349.293V352.105C942.189 352.176 941.451 352.246 940.555 352.246C938.006 352.246 935.334 350.664 935.316 347.289V335.441H932.434V332.91H935.316V328.34H938.375V332.91H942.383ZM945.371 346.586C945.371 342.209 949.238 341.207 952.543 340.961C953.773 340.873 956.85 340.697 957.711 340.68V339.133C957.711 336.707 956.27 335.301 953.387 335.301C950.979 335.301 949.52 336.408 949.098 337.867H945.934C946.32 334.791 949.309 332.664 953.527 332.664C956.023 332.664 960.717 333.402 960.699 339.414V352H957.711V349.398H957.57C956.938 350.682 955.197 352.439 951.875 352.457C948.254 352.439 945.371 350.312 945.371 346.586ZM948.395 346.727C948.412 348.748 950.082 349.768 952.402 349.75C955.812 349.768 957.711 347.482 957.711 345.074V343.158C956.814 343.211 953.809 343.439 952.895 343.492C950.152 343.668 948.412 344.635 948.395 346.727ZM973.566 352.387C968.047 352.404 964.637 348.467 964.637 342.613C964.637 336.742 968.1 332.664 973.285 332.664C977.293 332.664 981.529 335.125 981.512 342.191V343.457H967.66C967.818 347.5 970.174 349.715 973.566 349.715C975.852 349.715 977.293 348.713 977.996 347.535H981.23C980.334 350.436 977.504 352.404 973.566 352.387ZM967.678 340.891H978.453C978.436 337.709 976.432 335.336 973.285 335.336C969.98 335.336 967.889 337.938 967.678 340.891ZM994.52 325.352L986.293 355.832H983.551L991.742 325.352H994.52ZM1005.21 359.559C1000.58 359.559 997.455 357.537 997.121 354.004H1000.29C1000.69 355.955 1002.5 356.922 1005.21 356.922C1008.48 356.922 1010.48 355.498 1010.48 352.352V348.484H1010.23C1009.58 349.539 1008.37 351.701 1004.68 351.719C1000.04 351.701 996.559 348.203 996.559 342.191C996.559 336.32 999.916 332.664 1004.71 332.664C1008.42 332.664 1009.62 334.914 1010.3 335.934H1010.55V332.91H1013.5V352.527C1013.49 357.449 1009.87 359.559 1005.21 359.559ZM999.617 342.297C999.617 346.252 1001.48 349.012 1005.1 349.012C1008.6 349.012 1010.53 346.498 1010.55 342.297C1010.53 338.201 1008.65 335.371 1005.1 335.371C1001.43 335.371 999.617 338.447 999.617 342.297ZM1018.32 352V332.91H1021.34V352H1018.32ZM1017.72 327.742C1017.71 326.617 1018.67 325.721 1019.83 325.738C1020.99 325.721 1021.96 326.617 1021.98 327.742C1021.96 328.85 1020.99 329.746 1019.83 329.746C1018.67 329.746 1017.71 328.85 1017.72 327.742ZM1034.49 332.91V335.441H1030.48V346.516C1030.47 348.959 1031.7 349.363 1032.98 349.363C1033.53 349.363 1034.33 349.311 1034.77 349.293V352.105C1034.3 352.176 1033.56 352.246 1032.66 352.246C1030.12 352.246 1027.44 350.664 1027.43 347.289V335.441H1024.54V332.91H1027.43V328.34H1030.48V332.91H1034.49Z" fill="#0D5449"/>
<rect x="784" y="285.5" width="300" height="106" rx="19.5" stroke="#00705E" stroke-opacity="0.2"/>
<rect x="775.5" y="462" width="317" height="107" rx="20" fill="#F2FFFD"/>
<path d="M838.512 525.66C834.979 525.643 832.43 522.812 832.43 518.242C832.43 513.707 835.031 510.877 838.547 510.859C841.078 510.877 842.115 512.494 842.555 513.285H842.73V511.141H845.402V521.406C845.455 522.777 846.018 523.463 847.16 523.445C849.34 523.463 850.799 520.914 850.816 517.258C850.852 510.631 846.053 506.307 839.32 506.289C832.359 506.324 827.877 511.703 827.859 518.242C827.859 525.396 831.762 530.301 839.18 530.23C841.641 530.195 843.258 530.037 845.402 529.457V531.848C843.557 532.34 841.5 532.656 839.18 532.656C830.584 532.656 825.311 527.154 825.328 518.242C825.293 509.928 831.129 503.863 839.32 503.863C847.723 503.863 853.383 509.576 853.348 517.152C853.365 522.619 850.553 525.801 846.984 525.801C844.77 525.801 843.1 524.553 842.959 522.918H842.73C842.326 523.709 841.254 525.643 838.512 525.66ZM835.172 518.207C835.154 520.949 836.525 523.076 838.969 523.094C841.482 523.076 842.748 521.125 842.766 518.207C842.748 515.359 841.5 513.443 838.969 513.426C836.508 513.443 835.154 515.518 835.172 518.207ZM860.625 517.539V529H857.602V503.547H860.625V512.898H860.871C861.768 510.93 863.473 509.664 866.496 509.664C870.398 509.664 873 511.967 873 516.871V529H869.977V517.082C869.977 514.076 868.324 512.371 865.582 512.371C862.734 512.371 860.625 514.234 860.625 517.539ZM876.938 523.586C876.938 519.209 880.805 518.207 884.109 517.961C885.34 517.873 888.416 517.697 889.277 517.68V516.133C889.277 513.707 887.836 512.301 884.953 512.301C882.545 512.301 881.086 513.408 880.664 514.867H877.5C877.887 511.791 880.875 509.664 885.094 509.664C887.59 509.664 892.283 510.402 892.266 516.414V529H889.277V526.398H889.137C888.504 527.682 886.764 529.439 883.441 529.457C879.82 529.439 876.938 527.312 876.938 523.586ZM879.961 523.727C879.979 525.748 881.648 526.768 883.969 526.75C887.379 526.768 889.277 524.482 889.277 522.074V520.158C888.381 520.211 885.375 520.439 884.461 520.492C881.719 520.668 879.979 521.635 879.961 523.727ZM905.133 529.387C899.613 529.404 896.203 525.467 896.203 519.613C896.203 513.742 899.666 509.664 904.852 509.664C908.859 509.664 913.096 512.125 913.078 519.191V520.457H899.227C899.385 524.5 901.74 526.715 905.133 526.715C907.418 526.715 908.859 525.713 909.562 524.535H912.797C911.9 527.436 909.07 529.404 905.133 529.387ZM899.244 517.891H910.02C910.002 514.709 907.998 512.336 904.852 512.336C901.547 512.336 899.455 514.938 899.244 517.891ZM925.348 509.91V512.441H921.34V523.516C921.322 525.959 922.553 526.363 923.836 526.363C924.381 526.363 925.189 526.311 925.629 526.293V529.105C925.154 529.176 924.416 529.246 923.52 529.246C920.971 529.246 918.299 527.664 918.281 524.289V512.441H915.398V509.91H918.281V505.34H921.34V509.91H925.348ZM928.336 523.586C928.336 519.209 932.203 518.207 935.508 517.961C936.738 517.873 939.814 517.697 940.676 517.68V516.133C940.676 513.707 939.234 512.301 936.352 512.301C933.943 512.301 932.484 513.408 932.062 514.867H928.898C929.285 511.791 932.273 509.664 936.492 509.664C938.988 509.664 943.682 510.402 943.664 516.414V529H940.676V526.398H940.535C939.902 527.682 938.162 529.439 934.84 529.457C931.219 529.439 928.336 527.312 928.336 523.586ZM931.359 523.727C931.377 525.748 933.047 526.768 935.367 526.75C938.777 526.768 940.676 524.482 940.676 522.074V520.158C939.779 520.211 936.773 520.439 935.859 520.492C933.117 520.668 931.377 521.635 931.359 523.727ZM956.531 529.387C951.012 529.404 947.602 525.467 947.602 519.613C947.602 513.742 951.064 509.664 956.25 509.664C960.258 509.664 964.494 512.125 964.477 519.191V520.457H950.625C950.783 524.5 953.139 526.715 956.531 526.715C958.816 526.715 960.258 525.713 960.961 524.535H964.195C963.299 527.436 960.469 529.404 956.531 529.387ZM950.643 517.891H961.418C961.4 514.709 959.396 512.336 956.25 512.336C952.945 512.336 950.854 514.938 950.643 517.891ZM977.484 502.352L969.258 532.832H966.516L974.707 502.352H977.484ZM992.496 521.16V509.91H995.484V529H992.496V525.766H992.285C991.389 527.699 989.49 529.246 986.625 529.246C983.004 529.246 980.42 526.891 980.438 522.039V509.91H983.461V521.828C983.461 524.57 985.166 526.346 987.609 526.328C989.771 526.346 992.479 524.729 992.496 521.16ZM1008.67 509.91V512.441H1004.66V523.516C1004.64 525.959 1005.87 526.363 1007.16 526.363C1007.7 526.363 1008.51 526.311 1008.95 526.293V529.105C1008.47 529.176 1007.74 529.246 1006.84 529.246C1004.29 529.246 1001.62 527.664 1001.6 524.289V512.441H998.719V509.91H1001.6V505.34H1004.66V509.91H1008.67ZM1012.57 529V509.91H1015.59V529H1012.57ZM1011.97 504.742C1011.96 503.617 1012.92 502.721 1014.08 502.738C1015.24 502.721 1016.21 503.617 1016.23 504.742C1016.21 505.85 1015.24 506.746 1014.08 506.746C1012.92 506.746 1011.96 505.85 1011.97 504.742ZM1023.43 503.547V529H1020.41V503.547H1023.43ZM1038.87 514.867C1038.45 513.285 1037.23 512.248 1035 512.23C1032.64 512.248 1030.97 513.514 1030.96 515.113C1030.97 516.379 1031.99 517.24 1034.23 517.785L1037.07 518.488C1040.48 519.297 1042.15 521.002 1042.17 523.656C1042.15 526.961 1039.46 529.404 1034.68 529.387C1030.39 529.404 1027.85 527.488 1027.34 524.008H1030.5C1030.85 525.871 1032.21 526.768 1034.61 526.75C1037.34 526.768 1039.04 525.625 1039.04 523.832C1039.04 522.479 1038.08 521.6 1035.91 521.09L1033.03 520.422C1029.71 519.648 1027.93 517.838 1027.93 515.289C1027.93 512.02 1030.8 509.664 1035 509.664C1038.96 509.664 1041.43 511.773 1041.82 514.867H1038.87Z" fill="#0D5449"/>
<rect x="776" y="462.5" width="316" height="106" rx="19.5" stroke="#00705E" stroke-opacity="0.2"/>
<rect x="773" y="639" width="322" height="107" rx="20" fill="#F2FFFD"/>
<path d="M836.012 702.66C832.479 702.643 829.93 699.812 829.93 695.242C829.93 690.707 832.531 687.877 836.047 687.859C838.578 687.877 839.615 689.494 840.055 690.285H840.23V688.141H842.902V698.406C842.955 699.777 843.518 700.463 844.66 700.445C846.84 700.463 848.299 697.914 848.316 694.258C848.352 687.631 843.553 683.307 836.82 683.289C829.859 683.324 825.377 688.703 825.359 695.242C825.359 702.396 829.262 707.301 836.68 707.23C839.141 707.195 840.758 707.037 842.902 706.457V708.848C841.057 709.34 839 709.656 836.68 709.656C828.084 709.656 822.811 704.154 822.828 695.242C822.793 686.928 828.629 680.863 836.82 680.863C845.223 680.863 850.883 686.576 850.848 694.152C850.865 699.619 848.053 702.801 844.484 702.801C842.27 702.801 840.6 701.553 840.459 699.918H840.23C839.826 700.709 838.754 702.643 836.012 702.66ZM832.672 695.207C832.654 697.949 834.025 700.076 836.469 700.094C838.982 700.076 840.248 698.125 840.266 695.207C840.248 692.359 839 690.443 836.469 690.426C834.008 690.443 832.654 692.518 832.672 695.207ZM858.125 694.539V706H855.102V680.547H858.125V689.898H858.371C859.268 687.93 860.973 686.664 863.996 686.664C867.898 686.664 870.5 688.967 870.5 693.871V706H867.477V694.082C867.477 691.076 865.824 689.371 863.082 689.371C860.234 689.371 858.125 691.234 858.125 694.539ZM874.438 700.586C874.438 696.209 878.305 695.207 881.609 694.961C882.84 694.873 885.916 694.697 886.777 694.68V693.133C886.777 690.707 885.336 689.301 882.453 689.301C880.045 689.301 878.586 690.408 878.164 691.867H875C875.387 688.791 878.375 686.664 882.594 686.664C885.09 686.664 889.783 687.402 889.766 693.414V706H886.777V703.398H886.637C886.004 704.682 884.264 706.439 880.941 706.457C877.32 706.439 874.438 704.312 874.438 700.586ZM877.461 700.727C877.479 702.748 879.148 703.768 881.469 703.75C884.879 703.768 886.777 701.482 886.777 699.074V697.158C885.881 697.211 882.875 697.439 881.961 697.492C879.219 697.668 877.479 698.635 877.461 700.727ZM902.633 706.387C897.113 706.404 893.703 702.467 893.703 696.613C893.703 690.742 897.166 686.664 902.352 686.664C906.359 686.664 910.596 689.125 910.578 696.191V697.457H896.727C896.885 701.5 899.24 703.715 902.633 703.715C904.918 703.715 906.359 702.713 907.062 701.535H910.297C909.4 704.436 906.57 706.404 902.633 706.387ZM896.744 694.891H907.52C907.502 691.709 905.498 689.336 902.352 689.336C899.047 689.336 896.955 691.938 896.744 694.891ZM922.848 686.91V689.441H918.84V700.516C918.822 702.959 920.053 703.363 921.336 703.363C921.881 703.363 922.689 703.311 923.129 703.293V706.105C922.654 706.176 921.916 706.246 921.02 706.246C918.471 706.246 915.799 704.664 915.781 701.289V689.441H912.898V686.91H915.781V682.34H918.84V686.91H922.848ZM925.836 700.586C925.836 696.209 929.703 695.207 933.008 694.961C934.238 694.873 937.314 694.697 938.176 694.68V693.133C938.176 690.707 936.734 689.301 933.852 689.301C931.443 689.301 929.984 690.408 929.562 691.867H926.398C926.785 688.791 929.773 686.664 933.992 686.664C936.488 686.664 941.182 687.402 941.164 693.414V706H938.176V703.398H938.035C937.402 704.682 935.662 706.439 932.34 706.457C928.719 706.439 925.836 704.312 925.836 700.586ZM928.859 700.727C928.877 702.748 930.547 703.768 932.867 703.75C936.277 703.768 938.176 701.482 938.176 699.074V697.158C937.279 697.211 934.273 697.439 933.359 697.492C930.617 697.668 928.877 698.635 928.859 700.727ZM954.031 706.387C948.512 706.404 945.102 702.467 945.102 696.613C945.102 690.742 948.564 686.664 953.75 686.664C957.758 686.664 961.994 689.125 961.977 696.191V697.457H948.125C948.283 701.5 950.639 703.715 954.031 703.715C956.316 703.715 957.758 702.713 958.461 701.535H961.695C960.799 704.436 957.969 706.404 954.031 706.387ZM948.143 694.891H958.918C958.9 691.709 956.896 689.336 953.75 689.336C950.445 689.336 948.354 691.938 948.143 694.891ZM974.984 679.352L966.758 709.832H964.016L972.207 679.352H974.984ZM985.742 706.387C980.328 706.404 977.023 702.273 977.023 696.543C977.023 690.742 980.486 686.664 985.672 686.664C989.732 686.664 992.791 689.072 993.266 692.676H990.242C989.803 690.936 988.291 689.336 985.742 689.336C982.332 689.336 980.064 692.148 980.047 696.438C980.064 700.85 982.279 703.68 985.742 703.68C987.992 703.68 989.715 702.467 990.242 700.375H993.266C992.791 703.785 989.979 706.404 985.742 706.387ZM1004.8 706.387C999.594 706.404 996.078 702.467 996.078 696.543C996.078 690.584 999.594 686.664 1004.8 686.664C1009.98 686.664 1013.46 690.584 1013.45 696.543C1013.46 702.467 1009.98 706.404 1004.8 706.387ZM999.102 696.543C999.119 700.357 1000.91 703.715 1004.8 703.715C1008.65 703.715 1010.42 700.357 1010.42 696.543C1010.42 692.746 1008.65 689.336 1004.8 689.336C1000.91 689.336 999.119 692.746 999.102 696.543ZM1017.42 706V686.91H1020.34V689.828H1020.55C1021.23 687.895 1023.22 686.611 1025.47 686.594C1025.93 686.611 1026.7 686.629 1027.05 686.664V689.723C1026.82 689.67 1026.01 689.512 1025.22 689.512C1022.48 689.512 1020.44 691.41 1020.44 693.977V706H1017.42ZM1037.39 706.387C1031.87 706.404 1028.46 702.467 1028.46 696.613C1028.46 690.742 1031.92 686.664 1037.11 686.664C1041.11 686.664 1045.35 689.125 1045.33 696.191V697.457H1031.48C1031.64 701.5 1033.99 703.715 1037.39 703.715C1039.67 703.715 1041.11 702.713 1041.82 701.535H1045.05C1044.15 704.436 1041.32 706.404 1037.39 706.387ZM1031.5 694.891H1042.27C1042.26 691.709 1040.25 689.336 1037.11 689.336C1033.8 689.336 1031.71 691.938 1031.5 694.891Z" fill="#0D5449"/>
<rect x="773.5" y="639.5" width="321" height="106" rx="19.5" stroke="#00705E" stroke-opacity="0.2"/>
<rect x="731" y="816" width="406" height="107" rx="20" fill="#F2FFFD"/>
<path d="M794.012 879.66C790.479 879.643 787.93 876.812 787.93 872.242C787.93 867.707 790.531 864.877 794.047 864.859C796.578 864.877 797.615 866.494 798.055 867.285H798.23V865.141H800.902V875.406C800.955 876.777 801.518 877.463 802.66 877.445C804.84 877.463 806.299 874.914 806.316 871.258C806.352 864.631 801.553 860.307 794.82 860.289C787.859 860.324 783.377 865.703 783.359 872.242C783.359 879.396 787.262 884.301 794.68 884.23C797.141 884.195 798.758 884.037 800.902 883.457V885.848C799.057 886.34 797 886.656 794.68 886.656C786.084 886.656 780.811 881.154 780.828 872.242C780.793 863.928 786.629 857.863 794.82 857.863C803.223 857.863 808.883 863.576 808.848 871.152C808.865 876.619 806.053 879.801 802.484 879.801C800.27 879.801 798.6 878.553 798.459 876.918H798.23C797.826 877.709 796.754 879.643 794.012 879.66ZM790.672 872.207C790.654 874.949 792.025 877.076 794.469 877.094C796.982 877.076 798.248 875.125 798.266 872.207C798.248 869.359 797 867.443 794.469 867.426C792.008 867.443 790.654 869.518 790.672 872.207ZM816.125 871.539V883H813.102V857.547H816.125V866.898H816.371C817.268 864.93 818.973 863.664 821.996 863.664C825.898 863.664 828.5 865.967 828.5 870.871V883H825.477V871.082C825.477 868.076 823.824 866.371 821.082 866.371C818.234 866.371 816.125 868.234 816.125 871.539ZM832.438 877.586C832.438 873.209 836.305 872.207 839.609 871.961C840.84 871.873 843.916 871.697 844.777 871.68V870.133C844.777 867.707 843.336 866.301 840.453 866.301C838.045 866.301 836.586 867.408 836.164 868.867H833C833.387 865.791 836.375 863.664 840.594 863.664C843.09 863.664 847.783 864.402 847.766 870.414V883H844.777V880.398H844.637C844.004 881.682 842.264 883.439 838.941 883.457C835.32 883.439 832.438 881.312 832.438 877.586ZM835.461 877.727C835.479 879.748 837.148 880.768 839.469 880.75C842.879 880.768 844.777 878.482 844.777 876.074V874.158C843.881 874.211 840.875 874.439 839.961 874.492C837.219 874.668 835.479 875.635 835.461 877.727ZM860.633 883.387C855.113 883.404 851.703 879.467 851.703 873.613C851.703 867.742 855.166 863.664 860.352 863.664C864.359 863.664 868.596 866.125 868.578 873.191V874.457H854.727C854.885 878.5 857.24 880.715 860.633 880.715C862.918 880.715 864.359 879.713 865.062 878.535H868.297C867.4 881.436 864.57 883.404 860.633 883.387ZM854.744 871.891H865.52C865.502 868.709 863.498 866.336 860.352 866.336C857.047 866.336 854.955 868.938 854.744 871.891ZM880.848 863.91V866.441H876.84V877.516C876.822 879.959 878.053 880.363 879.336 880.363C879.881 880.363 880.689 880.311 881.129 880.293V883.105C880.654 883.176 879.916 883.246 879.02 883.246C876.471 883.246 873.799 881.664 873.781 878.289V866.441H870.898V863.91H873.781V859.34H876.84V863.91H880.848ZM883.836 877.586C883.836 873.209 887.703 872.207 891.008 871.961C892.238 871.873 895.314 871.697 896.176 871.68V870.133C896.176 867.707 894.734 866.301 891.852 866.301C889.443 866.301 887.984 867.408 887.562 868.867H884.398C884.785 865.791 887.773 863.664 891.992 863.664C894.488 863.664 899.182 864.402 899.164 870.414V883H896.176V880.398H896.035C895.402 881.682 893.662 883.439 890.34 883.457C886.719 883.439 883.836 881.312 883.836 877.586ZM886.859 877.727C886.877 879.748 888.547 880.768 890.867 880.75C894.277 880.768 896.176 878.482 896.176 876.074V874.158C895.279 874.211 892.273 874.439 891.359 874.492C888.617 874.668 886.877 875.635 886.859 877.727ZM912.031 883.387C906.512 883.404 903.102 879.467 903.102 873.613C903.102 867.742 906.564 863.664 911.75 863.664C915.758 863.664 919.994 866.125 919.977 873.191V874.457H906.125C906.283 878.5 908.639 880.715 912.031 880.715C914.316 880.715 915.758 879.713 916.461 878.535H919.695C918.799 881.436 915.969 883.404 912.031 883.387ZM906.143 871.891H916.918C916.9 868.709 914.896 866.336 911.75 866.336C908.445 866.336 906.354 868.938 906.143 871.891ZM932.984 856.352L924.758 886.832H922.016L930.207 856.352H932.984ZM935.938 863.91H938.961V884.371C938.961 887.939 937.115 890.154 933.406 890.172C933.213 890.154 933.02 890.154 932.773 890.172V887.359C932.984 887.377 933.16 887.377 933.371 887.359C935.129 887.377 935.92 886.287 935.938 884.371V863.91ZM935.305 858.742C935.287 857.617 936.254 856.721 937.414 856.738C938.574 856.721 939.541 857.617 939.559 858.742C939.541 859.85 938.574 860.746 937.414 860.746C936.254 860.746 935.287 859.85 935.305 858.742ZM942.863 877.586C942.863 873.209 946.73 872.207 950.035 871.961C951.266 871.873 954.342 871.697 955.203 871.68V870.133C955.203 867.707 953.762 866.301 950.879 866.301C948.471 866.301 947.012 867.408 946.59 868.867H943.426C943.812 865.791 946.801 863.664 951.02 863.664C953.516 863.664 958.209 864.402 958.191 870.414V883H955.203V880.398H955.062C954.43 881.682 952.689 883.439 949.367 883.457C945.746 883.439 942.863 881.312 942.863 877.586ZM945.887 877.727C945.904 879.748 947.574 880.768 949.895 880.75C953.305 880.768 955.203 878.482 955.203 876.074V874.158C954.307 874.211 951.301 874.439 950.387 874.492C947.645 874.668 945.904 875.635 945.887 877.727ZM978.055 863.91L970.988 883H967.859L960.828 863.91H964.133L969.336 879.062H969.547L974.75 863.91H978.055ZM979.883 877.586C979.883 873.209 983.75 872.207 987.055 871.961C988.285 871.873 991.361 871.697 992.223 871.68V870.133C992.223 867.707 990.781 866.301 987.898 866.301C985.49 866.301 984.031 867.408 983.609 868.867H980.445C980.832 865.791 983.82 863.664 988.039 863.664C990.535 863.664 995.229 864.402 995.211 870.414V883H992.223V880.398H992.082C991.449 881.682 989.709 883.439 986.387 883.457C982.766 883.439 979.883 881.312 979.883 877.586ZM982.906 877.727C982.924 879.748 984.594 880.768 986.914 880.75C990.324 880.768 992.223 878.482 992.223 876.074V874.158C991.326 874.211 988.32 874.439 987.406 874.492C984.664 874.668 982.924 875.635 982.906 877.727ZM1010.68 868.867C1010.26 867.285 1009.04 866.248 1006.81 866.23C1004.46 866.248 1002.79 867.514 1002.77 869.113C1002.79 870.379 1003.81 871.24 1006.04 871.785L1008.89 872.488C1012.3 873.297 1013.97 875.002 1013.98 877.656C1013.97 880.961 1011.28 883.404 1006.5 883.387C1002.21 883.404 999.658 881.488 999.148 878.008H1002.31C1002.66 879.871 1004.02 880.768 1006.43 880.75C1009.15 880.768 1010.86 879.625 1010.86 877.832C1010.86 876.479 1009.89 875.6 1007.73 875.09L1004.84 874.422C1001.52 873.648 999.746 871.838 999.746 869.289C999.746 866.02 1002.61 863.664 1006.81 863.664C1010.77 863.664 1013.25 865.773 1013.63 868.867H1010.68ZM1025.73 883.387C1020.31 883.404 1017.01 879.273 1017.01 873.543C1017.01 867.742 1020.47 863.664 1025.66 863.664C1029.72 863.664 1032.78 866.072 1033.25 869.676H1030.23C1029.79 867.936 1028.28 866.336 1025.73 866.336C1022.32 866.336 1020.05 869.148 1020.03 873.438C1020.05 877.85 1022.26 880.68 1025.73 880.68C1027.98 880.68 1029.7 879.467 1030.23 877.375H1033.25C1032.78 880.785 1029.96 883.404 1025.73 883.387ZM1036.98 883V863.91H1039.89V866.828H1040.11C1040.79 864.895 1042.78 863.611 1045.03 863.594C1045.48 863.611 1046.26 863.629 1046.61 863.664V866.723C1046.38 866.67 1045.57 866.512 1044.78 866.512C1042.04 866.512 1040 868.41 1040 870.977V883H1036.98ZM1049.56 883V863.91H1052.59V883H1049.56ZM1048.96 858.742C1048.95 857.617 1049.91 856.721 1051.07 856.738C1052.23 856.721 1053.2 857.617 1053.22 858.742C1053.2 859.85 1052.23 860.746 1051.07 860.746C1049.91 860.746 1048.95 859.85 1048.96 858.742ZM1057.4 890.172V863.91H1060.32V866.934H1060.67C1061.32 865.914 1062.48 863.664 1066.19 863.664C1070.99 863.664 1074.31 867.461 1074.31 873.508C1074.31 879.572 1070.99 883.404 1066.23 883.387C1062.59 883.404 1061.32 881.137 1060.67 880.082H1060.43V890.172H1057.4ZM1060.36 873.438C1060.37 877.727 1062.29 880.68 1065.8 880.68C1069.43 880.68 1071.29 877.498 1071.29 873.438C1071.29 869.447 1069.48 866.371 1065.8 866.371C1062.24 866.371 1060.37 869.201 1060.36 873.438ZM1086.58 863.91V866.441H1082.57V877.516C1082.56 879.959 1083.79 880.363 1085.07 880.363C1085.62 880.363 1086.42 880.311 1086.86 880.293V883.105C1086.39 883.176 1085.65 883.246 1084.75 883.246C1082.21 883.246 1079.53 881.664 1079.52 878.289V866.441H1076.63V863.91H1079.52V859.34H1082.57V863.91H1086.58Z" fill="#0D5449"/>
<rect x="731.5" y="816.5" width="405" height="106" rx="19.5" stroke="#00705E" stroke-opacity="0.2"/>
<g opacity="0.2">
<path d="M487 512.5C485.333 512.5 484 513.833 484 515.5C484 517.167 485.333 518.5 487 518.5C488.645 518.5 489.966 517.201 489.999 515.564C490 515.543 490 515.521 490 515.5C490 513.833 488.667 512.5 487 512.5Z" fill="black"/>
<path d="M487 514C486.172 514 485.5 514.672 485.5 515.5C485.5 516.328 486.172 517 487 517V514ZM731.684 870.835C732.421 870.457 732.713 869.553 732.335 868.816L726.179 856.801C725.801 856.064 724.897 855.773 724.16 856.15C723.422 856.528 723.131 857.432 723.509 858.169L728.981 868.849L718.301 874.321C717.564 874.699 717.273 875.603 717.65 876.34C718.028 877.078 718.932 877.369 719.669 876.991L731.684 870.835ZM485.5 515.5C485.5 514.662 486.162 514 487 514V511C484.505 511 482.5 513.005 482.5 515.5H485.5ZM487 514C487.838 514 488.5 514.662 488.5 515.5H491.5C491.5 513.005 489.495 511 487 511V514ZM488.5 515.5C488.5 515.511 488.5 515.522 488.5 515.533L491.499 515.595C491.5 515.563 491.5 515.532 491.5 515.5H488.5ZM488.5 515.533C488.483 516.355 487.828 517 487 517V520C489.463 520 491.449 518.047 491.499 515.595L488.5 515.533ZM487 517C486.162 517 485.5 516.338 485.5 515.5H482.5C482.5 517.995 484.505 520 487 520V517ZM487 517C487.987 517 488.965 517.021 489.935 517.063L490.064 514.066C489.051 514.022 488.029 514 487 514V517ZM489.935 517.063C518.935 518.31 540.941 538.099 559.571 568.327C578.196 598.546 593.209 638.818 608.347 680.337C623.458 721.782 638.686 764.449 657.72 799.181C676.743 833.891 699.733 860.995 730.54 870.928L731.46 868.072C701.771 858.501 679.264 832.25 660.351 797.74C641.45 763.252 626.304 720.832 611.165 679.309C596.053 637.859 580.94 597.281 562.125 566.753C543.315 536.233 520.569 515.377 490.064 514.066L489.935 517.063Z" fill="black"/>
</g>
<g opacity="0.2">
<path d="M487 512.5C485.333 512.5 484 513.833 484 515.5C484 517.167 485.333 518.5 487 518.5C488.659 518.5 489.988 517.179 490 515.523C490 515.516 490 515.508 490 515.5C490 513.833 488.667 512.5 487 512.5Z" fill="black"/>
<path d="M487 514C486.172 514 485.5 514.672 485.5 515.5C485.5 516.328 486.172 517 487 517V514ZM773.906 693.695C774.566 693.195 774.696 692.254 774.195 691.594L766.039 680.836C765.538 680.176 764.598 680.047 763.937 680.547C763.277 681.048 763.148 681.989 763.648 682.649L770.898 692.211L761.336 699.461C760.676 699.962 760.547 700.902 761.047 701.563C761.548 702.223 762.489 702.352 763.149 701.852L773.906 693.695ZM485.5 515.5C485.5 514.662 486.162 514 487 514V511C484.505 511 482.5 513.005 482.5 515.5H485.5ZM487 514C487.838 514 488.5 514.662 488.5 515.5H491.5C491.5 513.005 489.495 511 487 511V514ZM488.5 515.5C488.5 515.504 488.5 515.508 488.5 515.512L491.5 515.535C491.5 515.523 491.5 515.511 491.5 515.5H488.5ZM488.5 515.512C488.494 516.344 487.834 517 487 517V520C489.483 520 491.481 518.014 491.5 515.535L488.5 515.512ZM487 517C486.162 517 485.5 516.338 485.5 515.5H482.5C482.5 517.995 484.505 520 487 520V517ZM487 517C487.999 517 488.991 517.008 489.976 517.023L490.023 514.023C489.023 514.008 488.015 514 487 514V517ZM489.976 517.023C559.257 518.105 594.12 556.958 629.615 598.483C665.082 639.974 701.166 684.135 772.796 693.986L773.204 691.014C702.841 681.337 667.428 638.102 631.895 596.534C596.391 554.999 560.75 515.128 490.023 514.023L489.976 517.023Z" fill="black"/>
</g>
<g opacity="0.2">
<path d="M487 512.5C485.333 512.5 484 513.833 484 515.5C484 517.167 485.333 518.5 487 518.5C488.667 518.5 490 517.167 490 515.5C490 513.833 488.667 512.5 487 512.5Z" fill="black"/>
<path d="M487 514C486.172 514 485.5 514.672 485.5 515.5C485.5 516.328 486.172 517 487 517V514ZM776.561 516.561C777.146 515.975 777.146 515.025 776.561 514.439L767.015 504.893C766.429 504.308 765.479 504.308 764.893 504.893C764.308 505.479 764.308 506.429 764.893 507.015L773.379 515.5L764.893 523.985C764.308 524.571 764.308 525.521 764.893 526.107C765.479 526.692 766.429 526.692 767.015 526.107L776.561 516.561ZM485.5 515.5C485.5 514.662 486.162 514 487 514V511C484.505 511 482.5 513.005 482.5 515.5H485.5ZM487 514C487.838 514 488.5 514.662 488.5 515.5H491.5C491.5 513.005 489.495 511 487 511V514ZM488.5 515.5C488.5 516.338 487.838 517 487 517V520C489.495 520 491.5 517.995 491.5 515.5H488.5ZM487 517C486.162 517 485.5 516.338 485.5 515.5H482.5C482.5 517.995 484.505 520 487 520V517ZM487 517H490V514H487V517ZM490 517H775.5V514H490V517Z" fill="black"/>
</g>
<g opacity="0.2">
<path d="M487 512.5C485.333 512.5 484 513.833 484 515.5C484 517.167 485.333 518.5 487 518.5C488.667 518.5 490 517.167 490 515.5C490 515.492 490 515.484 490 515.476C489.987 513.82 488.659 512.5 487 512.5Z" fill="black"/>
<path d="M487 514C486.172 514 485.5 514.672 485.5 515.5C485.5 516.328 486.172 517 487 517V514ZM784.568 339.553C785.15 338.964 785.143 338.014 784.553 337.432L774.943 327.952C774.353 327.37 773.403 327.376 772.821 327.966C772.239 328.556 772.246 329.506 772.836 330.087L781.379 338.514L772.952 347.057C772.37 347.647 772.376 348.597 772.966 349.179C773.556 349.761 774.506 349.754 775.087 349.164L784.568 339.553ZM485.5 515.5C485.5 514.662 486.162 514 487 514V511C484.505 511 482.5 513.005 482.5 515.5H485.5ZM487 514C487.834 514 488.493 514.656 488.5 515.487L491.5 515.464C491.481 512.985 489.483 511 487 511V514ZM488.5 515.487C488.5 515.492 488.5 515.496 488.5 515.5H491.5C491.5 515.488 491.5 515.476 491.5 515.464L488.5 515.487ZM488.5 515.5C488.5 516.338 487.838 517 487 517V520C489.495 520 491.5 517.995 491.5 515.5H488.5ZM487 517C486.162 517 485.5 516.338 485.5 515.5H482.5C482.5 517.995 484.505 520 487 520V517ZM487 517C488.015 517 489.023 516.992 490.024 516.976L489.976 513.976C488.991 513.992 487.999 514 487 514V517ZM490.024 516.976C563.41 515.784 600.375 471.228 637.154 427.445C673.987 383.597 710.646 340.497 783.51 340L783.49 337C709.111 337.508 671.648 381.717 634.857 425.516C598.01 469.38 561.847 512.809 489.976 513.976L490.024 516.976Z" fill="black"/>
</g>
<g opacity="0.2">
<path d="M487 512.5C485.333 512.5 484 513.833 484 515.5C484 517.167 485.333 518.5 487 518.5C488.667 518.5 490 517.167 490 515.5C490 515.485 490 515.469 490 515.454C489.975 513.809 488.651 512.5 487 512.5Z" fill="black"/>
<path d="M487 514C486.172 514 485.5 514.672 485.5 515.5C485.5 516.328 486.172 517 487 517V514ZM792.068 162.554C792.649 161.964 792.643 161.014 792.054 160.432L782.446 150.949C781.856 150.367 780.907 150.373 780.325 150.962C779.743 151.552 779.749 152.502 780.339 153.084L788.879 161.514L780.449 170.054C779.867 170.644 779.873 171.593 780.462 172.175C781.052 172.757 782.002 172.751 782.584 172.161L792.068 162.554ZM485.5 515.5C485.5 514.662 486.162 514 487 514V511C484.505 511 482.5 513.005 482.5 515.5H485.5ZM487 514C487.831 514 488.488 514.65 488.5 515.476L491.499 515.432C491.463 512.968 489.472 511 487 511V514ZM488.5 515.476C488.5 515.484 488.5 515.492 488.5 515.5H491.5C491.5 515.477 491.5 515.454 491.499 515.432L488.5 515.476ZM488.5 515.5C488.5 516.338 487.838 517 487 517V520C489.495 520 491.5 517.995 491.5 515.5H488.5ZM487 517C486.162 517 485.5 516.338 485.5 515.5H482.5C482.5 517.995 484.505 520 487 520V517ZM487 517C488.022 517 489.037 516.984 490.046 516.953L489.953 513.954C488.976 513.985 487.991 514 487 514V517ZM490.046 516.953C527.979 515.779 556.358 492.7 579.887 459.202C603.402 425.726 622.277 381.557 641.133 337.707C660.026 293.771 678.899 250.156 702.44 217.446C725.961 184.765 753.944 163.241 791.01 163L790.99 160C752.559 160.25 723.795 182.638 700.005 215.694C676.235 248.722 657.234 292.668 638.377 336.522C619.483 380.461 600.732 424.309 577.432 457.478C554.148 490.626 526.523 512.822 489.953 513.954L490.046 516.953Z" fill="black"/>
</g>
<g opacity="0.2">
<path d="M1077 158.5C1075.33 158.5 1074 159.833 1074 161.5C1074 163.167 1075.33 164.5 1077 164.5C1078.65 164.5 1079.98 163.188 1080 161.541C1080 161.527 1080 161.514 1080 161.5C1080 159.833 1078.67 158.5 1077 158.5Z" fill="black"/>
<path d="M1077 160C1076.17 160 1075.5 160.672 1075.5 161.5C1075.5 162.328 1076.17 163 1077 163V160ZM1382.76 516.792C1383.48 516.371 1383.71 515.451 1383.29 514.738L1376.43 503.11C1376.01 502.397 1375.09 502.16 1374.38 502.581C1373.66 503.001 1373.43 503.921 1373.85 504.635L1379.95 514.97L1369.61 521.067C1368.9 521.488 1368.66 522.408 1369.08 523.121C1369.5 523.835 1370.42 524.072 1371.13 523.651L1382.76 516.792ZM1075.5 161.5C1075.5 160.662 1076.16 160 1077 160V157C1074.5 157 1072.5 159.005 1072.5 161.5H1075.5ZM1077 160C1077.84 160 1078.5 160.662 1078.5 161.5H1081.5C1081.5 159.005 1079.5 157 1077 157V160ZM1078.5 161.5C1078.5 161.507 1078.5 161.514 1078.5 161.521L1081.5 161.561C1081.5 161.54 1081.5 161.52 1081.5 161.5H1078.5ZM1078.5 161.521C1078.49 162.349 1077.83 163 1077 163V166C1079.47 166 1081.47 164.028 1081.5 161.561L1078.5 161.521ZM1077 163C1076.16 163 1075.5 162.338 1075.5 161.5H1072.5C1072.5 163.995 1074.5 166 1077 166V163ZM1077 163C1077.99 163 1078.98 163.014 1079.96 163.04L1080.04 160.042C1079.03 160.014 1078.02 160 1077 160V163ZM1079.96 163.04C1116.72 164.049 1144.44 183.881 1167.77 214.001C1191.13 244.162 1209.94 284.448 1228.89 326.028C1247.81 367.533 1266.86 410.308 1290.69 445.133C1314.52 479.974 1343.25 507.056 1381.63 516.952L1382.37 514.048C1345 504.407 1316.8 477.988 1293.16 443.439C1269.52 408.875 1250.58 366.371 1231.62 324.783C1212.7 283.27 1193.75 242.649 1170.14 212.164C1146.5 181.637 1118.03 161.083 1080.04 160.042L1079.96 163.04Z" fill="black"/>
</g>
<g opacity="0.2">
<path d="M1084.5 335.5C1082.83 335.5 1081.5 336.833 1081.5 338.5C1081.5 340.167 1082.83 341.5 1084.5 341.5C1086.16 341.5 1087.49 340.178 1087.5 338.522C1087.5 338.514 1087.5 338.507 1087.5 338.5C1087.5 336.833 1086.17 335.5 1084.5 335.5Z" fill="black"/>
<path d="M1084.5 337C1083.67 337 1083 337.672 1083 338.5C1083 339.328 1083.67 340 1084.5 340V337ZM1382.91 516.691C1383.57 516.187 1383.69 515.245 1383.19 514.588L1374.98 503.873C1374.47 503.215 1373.53 503.091 1372.88 503.595C1372.22 504.099 1372.09 505.04 1372.6 505.698L1379.9 515.222L1370.37 522.522C1369.72 523.026 1369.59 523.967 1370.09 524.625C1370.6 525.282 1371.54 525.407 1372.2 524.903L1382.91 516.691ZM1083 338.5C1083 337.662 1083.66 337 1084.5 337V334C1082 334 1080 336.005 1080 338.5H1083ZM1084.5 337C1085.34 337 1086 337.662 1086 338.5H1089C1089 336.005 1087 334 1084.5 334V337ZM1086 338.5C1086 338.504 1086 338.507 1086 338.511L1089 338.532C1089 338.521 1089 338.511 1089 338.5H1086ZM1086 338.511C1085.99 339.344 1085.33 340 1084.5 340V343C1086.98 343 1088.98 341.012 1089 338.532L1086 338.511ZM1084.5 340C1083.66 340 1083 339.338 1083 338.5H1080C1080 340.995 1082 343 1084.5 343V340ZM1084.5 340C1085.5 340 1086.49 340.007 1087.48 340.021L1087.52 337.022C1086.52 337.007 1085.51 337 1084.5 337V340ZM1087.48 340.021C1159.66 341.062 1195.96 379.947 1232.88 421.471C1269.8 462.982 1307.32 507.139 1381.8 516.987L1382.2 514.013C1308.94 504.328 1272.09 461.046 1235.13 419.477C1198.17 377.921 1161.1 338.083 1087.52 337.022L1087.48 340.021Z" fill="black"/>
</g>
<g opacity="0.2">
<path d="M1092.5 512.5C1090.83 512.5 1089.5 513.833 1089.5 515.5C1089.5 517.167 1090.83 518.5 1092.5 518.5C1094.17 518.5 1095.5 517.167 1095.5 515.5C1095.5 513.833 1094.17 512.5 1092.5 512.5Z" fill="black"/>
<path d="M1092.5 514C1091.67 514 1091 514.672 1091 515.5C1091 516.328 1091.67 517 1092.5 517V514ZM1383.06 516.561C1383.65 515.975 1383.65 515.025 1383.06 514.439L1373.51 504.893C1372.93 504.308 1371.98 504.308 1371.39 504.893C1370.81 505.479 1370.81 506.429 1371.39 507.015L1379.88 515.5L1371.39 523.985C1370.81 524.571 1370.81 525.521 1371.39 526.107C1371.98 526.692 1372.93 526.692 1373.51 526.107L1383.06 516.561ZM1091 515.5C1091 514.662 1091.66 514 1092.5 514V511C1090 511 1088 513.005 1088 515.5H1091ZM1092.5 514C1093.34 514 1094 514.662 1094 515.5H1097C1097 513.005 1095 511 1092.5 511V514ZM1094 515.5C1094 516.338 1093.34 517 1092.5 517V520C1095 520 1097 517.995 1097 515.5H1094ZM1092.5 517C1091.66 517 1091 516.338 1091 515.5H1088C1088 517.995 1090 520 1092.5 520V517ZM1092.5 517H1095.5V514H1092.5V517ZM1095.5 517H1382V514H1095.5V517Z" fill="black"/>
</g>
<g opacity="0.2">
<path d="M1095 689.5C1093.33 689.5 1092 690.833 1092 692.5C1092 694.167 1093.33 695.5 1095 695.5C1096.67 695.5 1098 694.167 1098 692.5C1098 692.491 1098 692.483 1098 692.474C1097.99 690.82 1096.66 689.5 1095 689.5Z" fill="black"/>
<path d="M1095 691C1094.17 691 1093.5 691.672 1093.5 692.5C1093.5 693.328 1094.17 694 1095 694V691ZM1383.07 516.553C1383.65 515.963 1383.64 515.013 1383.05 514.432L1373.44 504.955C1372.85 504.374 1371.9 504.381 1371.32 504.971C1370.73 505.561 1370.74 506.511 1371.33 507.092L1379.88 515.515L1371.46 524.062C1370.87 524.652 1370.88 525.602 1371.47 526.184C1372.06 526.765 1373.01 526.758 1373.59 526.168L1383.07 516.553ZM1093.5 692.5C1093.5 691.662 1094.16 691 1095 691V688C1092.5 688 1090.5 690.005 1090.5 692.5H1093.5ZM1095 691C1095.83 691 1096.49 691.655 1096.5 692.487L1099.5 692.462C1099.48 689.984 1097.48 688 1095 688V691ZM1096.5 692.487C1096.5 692.491 1096.5 692.496 1096.5 692.5H1099.5C1099.5 692.487 1099.5 692.474 1099.5 692.462L1096.5 692.487ZM1096.5 692.5C1096.5 693.338 1095.84 694 1095 694V697C1097.5 697 1099.5 694.995 1099.5 692.5H1096.5ZM1095 694C1094.16 694 1093.5 693.338 1093.5 692.5H1090.5C1090.5 694.995 1092.5 697 1095 697V694ZM1095 694C1096.02 694 1097.02 693.991 1098.03 693.974L1097.97 690.974C1096.99 690.991 1096 691 1095 691V694ZM1098.03 693.974C1169.06 692.743 1204.84 648.166 1240.42 604.41C1276.07 560.564 1311.54 517.513 1382.01 517L1381.99 514C1309.97 514.525 1273.69 558.743 1238.09 602.517C1202.42 646.379 1167.45 689.77 1097.97 690.974L1098.03 693.974Z" fill="black"/>
</g>
<g opacity="0.2">
<path d="M1137 866.5C1135.33 866.5 1134 867.833 1134 869.5C1134 871.167 1135.33 872.5 1137 872.5C1138.67 872.5 1140 871.167 1140 869.5C1140 869.476 1140 869.452 1140 869.429C1139.96 867.796 1138.64 866.5 1137 866.5Z" fill="black"/>
<path d="M1137 868C1136.17 868 1135.5 868.672 1135.5 869.5C1135.5 870.328 1136.17 871 1137 871V868ZM1383.07 516.55C1383.65 515.958 1383.64 515.009 1383.05 514.429L1373.41 504.979C1372.82 504.399 1371.87 504.408 1371.29 505C1370.71 505.592 1370.72 506.541 1371.31 507.121L1379.88 515.521L1371.48 524.091C1370.9 524.682 1370.91 525.632 1371.5 526.212C1372.09 526.792 1373.04 526.782 1373.62 526.191L1383.07 516.55ZM1135.5 869.5C1135.5 868.662 1136.16 868 1137 868V865C1134.5 865 1132.5 867.005 1132.5 869.5H1135.5ZM1137 868C1137.83 868 1138.48 868.643 1138.5 869.463L1141.5 869.394C1141.44 866.948 1139.46 865 1137 865V868ZM1138.5 869.463C1138.5 869.475 1138.5 869.488 1138.5 869.5H1141.5C1141.5 869.465 1141.5 869.43 1141.5 869.394L1138.5 869.463ZM1138.5 869.5C1138.5 870.338 1137.84 871 1137 871V874C1139.5 874 1141.5 871.995 1141.5 869.5H1138.5ZM1137 871C1136.16 871 1135.5 870.338 1135.5 869.5H1132.5C1132.5 871.995 1134.5 874 1137 874V871ZM1137 871C1138.03 871 1139.06 870.976 1140.07 870.927L1139.93 867.93C1138.96 867.977 1137.98 868 1137 868V871ZM1140.07 870.927C1170.77 869.46 1193.6 846.075 1212.45 812.626C1231.33 779.129 1246.5 735.035 1261.67 691.27C1276.87 647.422 1292.08 603.905 1311.04 571.264C1330.02 538.586 1352.47 517.295 1382.01 517L1381.99 514C1350.78 514.312 1327.55 536.852 1308.44 569.757C1289.31 602.7 1274.01 646.519 1258.84 690.287C1243.64 734.139 1228.56 777.942 1209.84 811.153C1191.09 844.411 1168.98 866.542 1139.93 867.93L1140.07 870.927Z" fill="black"/>
</g>
</svg>
