<svg width="1920" height="1080" viewBox="0 0 1920 1080" fill="none" xmlns="http://www.w3.org/2000/svg">
<rect width="1920" height="1080" rx="100" fill="white"/>
<rect x="365" y="224" width="383" height="107" rx="20" fill="#F3F2FF"/>
<path d="M423.758 271.91V274.441H419.75V285.516C419.732 287.959 420.963 288.363 422.246 288.363C422.791 288.363 423.6 288.311 424.039 288.293V291.105C423.564 291.176 422.826 291.246 421.93 291.246C419.381 291.246 416.709 289.664 416.691 286.289V274.441H413.809V271.91H416.691V267.34H419.75V271.91H423.758ZM435.465 291.387C429.945 291.404 426.535 287.467 426.535 281.613C426.535 275.742 429.998 271.664 435.184 271.664C439.191 271.664 443.428 274.125 443.41 281.191V282.457H429.559C429.717 286.5 432.072 288.715 435.465 288.715C437.75 288.715 439.191 287.713 439.895 286.535H443.129C442.232 289.436 439.402 291.404 435.465 291.387ZM429.576 279.891H440.352C440.334 276.709 438.33 274.336 435.184 274.336C431.879 274.336 429.787 276.938 429.576 279.891ZM457.965 276.867C457.543 275.285 456.33 274.248 454.098 274.23C451.742 274.248 450.072 275.514 450.055 277.113C450.072 278.379 451.092 279.24 453.324 279.785L456.172 280.488C459.582 281.297 461.252 283.002 461.27 285.656C461.252 288.961 458.562 291.404 453.781 291.387C449.492 291.404 446.943 289.488 446.434 286.008H449.598C449.949 287.871 451.303 288.768 453.711 288.75C456.436 288.768 458.141 287.625 458.141 285.832C458.141 284.479 457.174 283.6 455.012 283.09L452.129 282.422C448.807 281.648 447.031 279.838 447.031 277.289C447.031 274.02 449.896 271.664 454.098 271.664C458.053 271.664 460.531 273.773 460.918 276.867H457.965ZM473.539 271.91V274.441H469.531V285.516C469.514 287.959 470.744 288.363 472.027 288.363C472.572 288.363 473.381 288.311 473.82 288.293V291.105C473.346 291.176 472.607 291.246 471.711 291.246C469.162 291.246 466.49 289.664 466.473 286.289V274.441H463.59V271.91H466.473V267.34H469.531V271.91H473.539ZM486.512 264.352L478.285 294.832H475.543L483.734 264.352H486.512ZM496.672 291.387C491.908 291.404 488.551 287.572 488.551 281.508C488.551 275.461 491.908 271.664 496.707 271.664C500.416 271.664 501.576 273.914 502.227 274.934H502.438V265.547H505.496V291H502.543V288.082H502.227C501.559 289.137 500.311 291.404 496.672 291.387ZM491.609 281.438C491.609 285.498 493.473 288.68 497.094 288.68C500.592 288.68 502.525 285.727 502.543 281.438C502.525 277.201 500.645 274.371 497.094 274.371C493.42 274.371 491.609 277.447 491.609 281.438ZM511.121 291V265.547H514.145V274.934H514.391C515.041 273.914 516.184 271.664 519.91 271.664C524.691 271.664 528.049 275.461 528.066 281.508C528.049 287.572 524.691 291.404 519.945 291.387C516.289 291.404 515.041 289.137 514.391 288.082H514.039V291H511.121ZM514.074 281.438C514.074 285.727 516.008 288.68 519.488 288.68C523.127 288.68 524.99 285.498 525.008 281.438C524.99 277.447 523.18 274.371 519.488 274.371C515.973 274.371 514.074 277.201 514.074 281.438ZM541.074 264.352L532.848 294.832H530.105L538.297 264.352H541.074ZM552.57 271.91V274.441H548.352V291H545.293V274.441H542.234V271.91H545.293V269.309C545.311 266.215 547.367 264.352 550.742 264.352C551.48 264.352 552.359 264.439 552.992 264.562V267.27C552.342 267.164 551.797 267.129 551.41 267.129C549.283 267.129 548.334 268.008 548.352 269.977V271.91H552.57ZM563.152 291.387C557.949 291.404 554.434 287.467 554.434 281.543C554.434 275.584 557.949 271.664 563.152 271.664C568.338 271.664 571.818 275.584 571.801 281.543C571.818 287.467 568.338 291.404 563.152 291.387ZM557.457 281.543C557.475 285.357 559.268 288.715 563.152 288.715C567.002 288.715 568.777 285.357 568.777 281.543C568.777 277.746 567.002 274.336 563.152 274.336C559.268 274.336 557.475 277.746 557.457 281.543ZM583.578 291.387C578.375 291.404 574.859 287.467 574.859 281.543C574.859 275.584 578.375 271.664 583.578 271.664C588.764 271.664 592.244 275.584 592.227 281.543C592.244 287.467 588.764 291.404 583.578 291.387ZM577.883 281.543C577.9 285.357 579.693 288.715 583.578 288.715C587.428 288.715 589.203 285.357 589.203 281.543C589.203 277.746 587.428 274.336 583.578 274.336C579.693 274.336 577.9 277.746 577.883 281.543ZM598.344 291.211C597.113 291.193 596.059 290.174 596.094 288.926C596.059 287.695 597.113 286.676 598.344 286.676C599.592 286.676 600.611 287.695 600.594 288.926C600.611 290.174 599.592 291.193 598.344 291.211ZM613.672 271.91V274.441H609.664V285.516C609.646 287.959 610.877 288.363 612.16 288.363C612.705 288.363 613.514 288.311 613.953 288.293V291.105C613.479 291.176 612.74 291.246 611.844 291.246C609.295 291.246 606.623 289.664 606.605 286.289V274.441H603.723V271.91H606.605V267.34H609.664V271.91H613.672ZM625.379 291.387C619.859 291.404 616.449 287.467 616.449 281.613C616.449 275.742 619.912 271.664 625.098 271.664C629.105 271.664 633.342 274.125 633.324 281.191V282.457H619.473C619.631 286.5 621.986 288.715 625.379 288.715C627.664 288.715 629.105 287.713 629.809 286.535H633.043C632.146 289.436 629.316 291.404 625.379 291.387ZM619.49 279.891H630.266C630.248 276.709 628.244 274.336 625.098 274.336C621.793 274.336 619.701 276.938 619.49 279.891ZM647.879 276.867C647.457 275.285 646.244 274.248 644.012 274.23C641.656 274.248 639.986 275.514 639.969 277.113C639.986 278.379 641.006 279.24 643.238 279.785L646.086 280.488C649.496 281.297 651.166 283.002 651.184 285.656C651.166 288.961 648.477 291.404 643.695 291.387C639.406 291.404 636.857 289.488 636.348 286.008H639.512C639.863 287.871 641.217 288.768 643.625 288.75C646.35 288.768 648.055 287.625 648.055 285.832C648.055 284.479 647.088 283.6 644.926 283.09L642.043 282.422C638.721 281.648 636.945 279.838 636.945 277.289C636.945 274.02 639.811 271.664 644.012 271.664C647.967 271.664 650.445 273.773 650.832 276.867H647.879ZM663.453 271.91V274.441H659.445V285.516C659.428 287.959 660.658 288.363 661.941 288.363C662.486 288.363 663.295 288.311 663.734 288.293V291.105C663.26 291.176 662.521 291.246 661.625 291.246C659.076 291.246 656.404 289.664 656.387 286.289V274.441H653.504V271.91H656.387V267.34H659.445V271.91H663.453ZM669.5 291.211C668.27 291.193 667.215 290.174 667.25 288.926C667.215 287.695 668.27 286.676 669.5 286.676C670.748 286.676 671.768 287.695 671.75 288.926C671.768 290.174 670.748 291.193 669.5 291.211ZM676.496 271.91H679.52V292.371C679.52 295.939 677.674 298.154 673.965 298.172C673.771 298.154 673.578 298.154 673.332 298.172V295.359C673.543 295.377 673.719 295.377 673.93 295.359C675.688 295.377 676.479 294.287 676.496 292.371V271.91ZM675.863 266.742C675.846 265.617 676.812 264.721 677.973 264.738C679.133 264.721 680.1 265.617 680.117 266.742C680.1 267.85 679.133 268.746 677.973 268.746C676.812 268.746 675.846 267.85 675.863 266.742ZM694.953 276.867C694.531 275.285 693.318 274.248 691.086 274.23C688.73 274.248 687.061 275.514 687.043 277.113C687.061 278.379 688.08 279.24 690.312 279.785L693.16 280.488C696.57 281.297 698.24 283.002 698.258 285.656C698.24 288.961 695.551 291.404 690.77 291.387C686.48 291.404 683.932 289.488 683.422 286.008H686.586C686.938 287.871 688.291 288.768 690.699 288.75C693.424 288.768 695.129 287.625 695.129 285.832C695.129 284.479 694.162 283.6 692 283.09L689.117 282.422C685.795 281.648 684.02 279.838 684.02 277.289C684.02 274.02 686.885 271.664 691.086 271.664C695.041 271.664 697.52 273.773 697.906 276.867H694.953Z" fill="#310070"/>
<rect x="365.5" y="224.5" width="382" height="106" rx="19.5" stroke="#310070" stroke-opacity="0.2"/>
<rect x="1107" y="224" width="510" height="107" rx="20" fill="#F2FFFD"/>
<path d="M1165.76 271.91V274.441H1161.75V285.516C1161.73 287.959 1162.96 288.363 1164.25 288.363C1164.79 288.363 1165.6 288.311 1166.04 288.293V291.105C1165.56 291.176 1164.83 291.246 1163.93 291.246C1161.38 291.246 1158.71 289.664 1158.69 286.289V274.441H1155.81V271.91H1158.69V267.34H1161.75V271.91H1165.76ZM1177.46 291.387C1171.95 291.404 1168.54 287.467 1168.54 281.613C1168.54 275.742 1172 271.664 1177.18 271.664C1181.19 271.664 1185.43 274.125 1185.41 281.191V282.457H1171.56C1171.72 286.5 1174.07 288.715 1177.46 288.715C1179.75 288.715 1181.19 287.713 1181.89 286.535H1185.13C1184.23 289.436 1181.4 291.404 1177.46 291.387ZM1171.58 279.891H1182.35C1182.33 276.709 1180.33 274.336 1177.18 274.336C1173.88 274.336 1171.79 276.938 1171.58 279.891ZM1199.96 276.867C1199.54 275.285 1198.33 274.248 1196.1 274.23C1193.74 274.248 1192.07 275.514 1192.05 277.113C1192.07 278.379 1193.09 279.24 1195.32 279.785L1198.17 280.488C1201.58 281.297 1203.25 283.002 1203.27 285.656C1203.25 288.961 1200.56 291.404 1195.78 291.387C1191.49 291.404 1188.94 289.488 1188.43 286.008H1191.6C1191.95 287.871 1193.3 288.768 1195.71 288.75C1198.44 288.768 1200.14 287.625 1200.14 285.832C1200.14 284.479 1199.17 283.6 1197.01 283.09L1194.13 282.422C1190.81 281.648 1189.03 279.838 1189.03 277.289C1189.03 274.02 1191.9 271.664 1196.1 271.664C1200.05 271.664 1202.53 273.773 1202.92 276.867H1199.96ZM1215.54 271.91V274.441H1211.53V285.516C1211.51 287.959 1212.74 288.363 1214.03 288.363C1214.57 288.363 1215.38 288.311 1215.82 288.293V291.105C1215.35 291.176 1214.61 291.246 1213.71 291.246C1211.16 291.246 1208.49 289.664 1208.47 286.289V274.441H1205.59V271.91H1208.47V267.34H1211.53V271.91H1215.54ZM1228.51 264.352L1220.29 294.832H1217.54L1225.73 264.352H1228.51ZM1238.67 291.387C1233.91 291.404 1230.55 287.572 1230.55 281.508C1230.55 275.461 1233.91 271.664 1238.71 271.664C1242.42 271.664 1243.58 273.914 1244.23 274.934H1244.44V265.547H1247.5V291H1244.54V288.082H1244.23C1243.56 289.137 1242.31 291.404 1238.67 291.387ZM1233.61 281.438C1233.61 285.498 1235.47 288.68 1239.09 288.68C1242.59 288.68 1244.53 285.727 1244.54 281.438C1244.53 277.201 1242.64 274.371 1239.09 274.371C1235.42 274.371 1233.61 277.447 1233.61 281.438ZM1260.54 291.387C1255.34 291.404 1251.82 287.467 1251.82 281.543C1251.82 275.584 1255.34 271.664 1260.54 271.664C1265.72 271.664 1269.21 275.584 1269.19 281.543C1269.21 287.467 1265.72 291.404 1260.54 291.387ZM1254.84 281.543C1254.86 285.357 1256.65 288.715 1260.54 288.715C1264.39 288.715 1266.16 285.357 1266.16 281.543C1266.16 277.746 1264.39 274.336 1260.54 274.336C1256.65 274.336 1254.86 277.746 1254.84 281.543ZM1280.96 291.387C1275.55 291.404 1272.25 287.273 1272.25 281.543C1272.25 275.742 1275.71 271.664 1280.89 271.664C1284.96 271.664 1288.01 274.072 1288.49 277.676H1285.46C1285.03 275.936 1283.51 274.336 1280.96 274.336C1277.55 274.336 1275.29 277.148 1275.27 281.438C1275.29 285.85 1277.5 288.68 1280.96 288.68C1283.21 288.68 1284.94 287.467 1285.46 285.375H1288.49C1288.01 288.785 1285.2 291.404 1280.96 291.387ZM1292.21 291V265.547H1295.24V280.348H1295.59L1303.85 271.91H1307.58L1299.53 280.084L1308.18 291H1304.34L1297.26 282L1295.24 283.881V291H1292.21ZM1318.02 291.387C1312.5 291.404 1309.09 287.467 1309.09 281.613C1309.09 275.742 1312.55 271.664 1317.74 271.664C1321.75 271.664 1325.98 274.125 1325.96 281.191V282.457H1312.11C1312.27 286.5 1314.63 288.715 1318.02 288.715C1320.3 288.715 1321.75 287.713 1322.45 286.535H1325.68C1324.79 289.436 1321.96 291.404 1318.02 291.387ZM1312.13 279.891H1322.91C1322.89 276.709 1320.88 274.336 1317.74 274.336C1314.43 274.336 1312.34 276.938 1312.13 279.891ZM1329.9 291V271.91H1332.82V274.828H1333.03C1333.72 272.895 1335.7 271.611 1337.95 271.594C1338.41 271.611 1339.18 271.629 1339.54 271.664V274.723C1339.31 274.67 1338.5 274.512 1337.71 274.512C1334.96 274.512 1332.93 276.41 1332.93 278.977V291H1329.9ZM1352.05 278.73V281.508H1340.91V278.73H1352.05ZM1364.5 291.387C1359.08 291.404 1355.78 287.273 1355.78 281.543C1355.78 275.742 1359.24 271.664 1364.43 271.664C1368.49 271.664 1371.54 274.072 1372.02 277.676H1369C1368.56 275.936 1367.04 274.336 1364.5 274.336C1361.09 274.336 1358.82 277.148 1358.8 281.438C1358.82 285.85 1361.03 288.68 1364.5 288.68C1366.75 288.68 1368.47 287.467 1369 285.375H1372.02C1371.54 288.785 1368.73 291.404 1364.5 291.387ZM1383.55 291.387C1378.35 291.404 1374.83 287.467 1374.83 281.543C1374.83 275.584 1378.35 271.664 1383.55 271.664C1388.74 271.664 1392.22 275.584 1392.2 281.543C1392.22 287.467 1388.74 291.404 1383.55 291.387ZM1377.86 281.543C1377.87 285.357 1379.67 288.715 1383.55 288.715C1387.4 288.715 1389.18 285.357 1389.18 281.543C1389.18 277.746 1387.4 274.336 1383.55 274.336C1379.67 274.336 1377.87 277.746 1377.86 281.543ZM1396.17 291V271.91H1399.09V274.898H1399.34C1400.13 272.859 1401.97 271.664 1404.47 271.664C1406.96 271.664 1408.67 272.859 1409.57 274.898H1409.78C1410.74 272.93 1412.77 271.664 1415.51 271.664C1418.9 271.664 1421.34 273.738 1421.34 278.238V291H1418.32V278.273C1418.3 275.461 1416.54 274.371 1414.45 274.371C1411.8 274.371 1410.29 276.164 1410.27 278.59V291H1407.21V277.957C1407.23 275.812 1405.68 274.371 1403.48 274.371C1401.2 274.371 1399.2 276.305 1399.2 279.082V291H1396.17ZM1426.2 298.172V271.91H1429.11V274.934H1429.46C1430.12 273.914 1431.28 271.664 1434.98 271.664C1439.78 271.664 1443.11 275.461 1443.11 281.508C1443.11 287.572 1439.78 291.404 1435.02 291.387C1431.38 291.404 1430.12 289.137 1429.46 288.082H1429.22V298.172H1426.2ZM1429.15 281.438C1429.17 285.727 1431.08 288.68 1434.6 288.68C1438.22 288.68 1440.08 285.498 1440.08 281.438C1440.08 277.447 1438.27 274.371 1434.6 274.371C1431.03 274.371 1429.17 277.201 1429.15 281.438ZM1454.85 291.387C1449.64 291.404 1446.13 287.467 1446.13 281.543C1446.13 275.584 1449.64 271.664 1454.85 271.664C1460.03 271.664 1463.51 275.584 1463.5 281.543C1463.51 287.467 1460.03 291.404 1454.85 291.387ZM1449.15 281.543C1449.17 285.357 1450.96 288.715 1454.85 288.715C1458.7 288.715 1460.47 285.357 1460.47 281.543C1460.47 277.746 1458.7 274.336 1454.85 274.336C1450.96 274.336 1449.17 277.746 1449.15 281.543ZM1478.09 276.867C1477.66 275.285 1476.45 274.248 1474.22 274.23C1471.86 274.248 1470.19 275.514 1470.18 277.113C1470.19 278.379 1471.21 279.24 1473.45 279.785L1476.29 280.488C1479.7 281.297 1481.37 283.002 1481.39 285.656C1481.37 288.961 1478.68 291.404 1473.9 291.387C1469.61 291.404 1467.06 289.488 1466.55 286.008H1469.72C1470.07 287.871 1471.42 288.768 1473.83 288.75C1476.56 288.768 1478.26 287.625 1478.26 285.832C1478.26 284.479 1477.29 283.6 1475.13 283.09L1472.25 282.422C1468.93 281.648 1467.15 279.838 1467.15 277.289C1467.15 274.02 1470.02 271.664 1474.22 271.664C1478.17 271.664 1480.65 273.773 1481.04 276.867H1478.09ZM1493.34 291.387C1487.82 291.404 1484.41 287.467 1484.41 281.613C1484.41 275.742 1487.88 271.664 1493.06 271.664C1497.07 271.664 1501.31 274.125 1501.29 281.191V282.457H1487.44C1487.6 286.5 1489.95 288.715 1493.34 288.715C1495.63 288.715 1497.07 287.713 1497.77 286.535H1501.01C1500.11 289.436 1497.28 291.404 1493.34 291.387ZM1487.46 279.891H1498.23C1498.21 276.709 1496.21 274.336 1493.06 274.336C1489.76 274.336 1487.67 276.938 1487.46 279.891ZM1507.37 291.211C1506.14 291.193 1505.09 290.174 1505.12 288.926C1505.09 287.695 1506.14 286.676 1507.37 286.676C1508.62 286.676 1509.64 287.695 1509.62 288.926C1509.64 290.174 1508.62 291.193 1507.37 291.211ZM1516.3 298.172C1515.65 298.154 1515 298.137 1514.61 298.102V295.395C1514.93 295.43 1515.62 295.447 1516.09 295.465C1517.32 295.447 1518.36 295.377 1519.36 292.582L1519.92 291.141L1512.86 271.91H1516.16L1521.36 287.062H1521.57L1526.78 271.91H1530.08L1522 293.742C1520.87 296.748 1519.01 298.154 1516.3 298.172ZM1533.42 291V271.91H1536.34V274.898H1536.59C1537.38 272.859 1539.22 271.664 1541.72 271.664C1544.21 271.664 1545.92 272.859 1546.82 274.898H1547.03C1547.99 272.93 1550.02 271.664 1552.76 271.664C1556.15 271.664 1558.59 273.738 1558.59 278.238V291H1555.57V278.273C1555.55 275.461 1553.79 274.371 1551.7 274.371C1549.05 274.371 1547.54 276.164 1547.52 278.59V291H1544.46V277.957C1544.48 275.812 1542.93 274.371 1540.73 274.371C1538.45 274.371 1536.45 276.305 1536.45 279.082V291H1533.42ZM1566.47 265.547V291H1563.45V265.547H1566.47Z" fill="#0D5449"/>
<rect x="1107.5" y="224.5" width="509" height="106" rx="19.5" stroke="#00705E" stroke-opacity="0.2"/>
<rect x="1197" y="418" width="331" height="107" rx="20" fill="#F2FFFD"/>
<path d="M1255.76 465.91V468.441H1251.75V479.516C1251.73 481.959 1252.96 482.363 1254.25 482.363C1254.79 482.363 1255.6 482.311 1256.04 482.293V485.105C1255.56 485.176 1254.83 485.246 1253.93 485.246C1251.38 485.246 1248.71 483.664 1248.69 480.289V468.441H1245.81V465.91H1248.69V461.34H1251.75V465.91H1255.76ZM1267.46 485.387C1261.95 485.404 1258.54 481.467 1258.54 475.613C1258.54 469.742 1262 465.664 1267.18 465.664C1271.19 465.664 1275.43 468.125 1275.41 475.191V476.457H1261.56C1261.72 480.5 1264.07 482.715 1267.46 482.715C1269.75 482.715 1271.19 481.713 1271.89 480.535H1275.13C1274.23 483.436 1271.4 485.404 1267.46 485.387ZM1261.58 473.891H1272.35C1272.33 470.709 1270.33 468.336 1267.18 468.336C1263.88 468.336 1261.79 470.938 1261.58 473.891ZM1289.96 470.867C1289.54 469.285 1288.33 468.248 1286.1 468.23C1283.74 468.248 1282.07 469.514 1282.05 471.113C1282.07 472.379 1283.09 473.24 1285.32 473.785L1288.17 474.488C1291.58 475.297 1293.25 477.002 1293.27 479.656C1293.25 482.961 1290.56 485.404 1285.78 485.387C1281.49 485.404 1278.94 483.488 1278.43 480.008H1281.6C1281.95 481.871 1283.3 482.768 1285.71 482.75C1288.44 482.768 1290.14 481.625 1290.14 479.832C1290.14 478.479 1289.17 477.6 1287.01 477.09L1284.13 476.422C1280.81 475.648 1279.03 473.838 1279.03 471.289C1279.03 468.02 1281.9 465.664 1286.1 465.664C1290.05 465.664 1292.53 467.773 1292.92 470.867H1289.96ZM1305.54 465.91V468.441H1301.53V479.516C1301.51 481.959 1302.74 482.363 1304.03 482.363C1304.57 482.363 1305.38 482.311 1305.82 482.293V485.105C1305.35 485.176 1304.61 485.246 1303.71 485.246C1301.16 485.246 1298.49 483.664 1298.47 480.289V468.441H1295.59V465.91H1298.47V461.34H1301.53V465.91H1305.54ZM1318.51 458.352L1310.29 488.832H1307.54L1315.73 458.352H1318.51ZM1328.67 485.387C1323.91 485.404 1320.55 481.572 1320.55 475.508C1320.55 469.461 1323.91 465.664 1328.71 465.664C1332.42 465.664 1333.58 467.914 1334.23 468.934H1334.44V459.547H1337.5V485H1334.54V482.082H1334.23C1333.56 483.137 1332.31 485.404 1328.67 485.387ZM1323.61 475.438C1323.61 479.498 1325.47 482.68 1329.09 482.68C1332.59 482.68 1334.53 479.727 1334.54 475.438C1334.53 471.201 1332.64 468.371 1329.09 468.371C1325.42 468.371 1323.61 471.447 1323.61 475.438ZM1343.12 485V459.547H1346.14V468.934H1346.39C1347.04 467.914 1348.18 465.664 1351.91 465.664C1356.69 465.664 1360.05 469.461 1360.07 475.508C1360.05 481.572 1356.69 485.404 1351.95 485.387C1348.29 485.404 1347.04 483.137 1346.39 482.082H1346.04V485H1343.12ZM1346.07 475.438C1346.07 479.727 1348.01 482.68 1351.49 482.68C1355.13 482.68 1356.99 479.498 1357.01 475.438C1356.99 471.447 1355.18 468.371 1351.49 468.371C1347.97 468.371 1346.07 471.201 1346.07 475.438ZM1373.07 458.352L1364.85 488.832H1362.11L1370.3 458.352H1373.07ZM1383.23 485.387C1378.47 485.404 1375.11 481.572 1375.11 475.508C1375.11 469.461 1378.47 465.664 1383.27 465.664C1386.98 465.664 1388.14 467.914 1388.79 468.934H1389V459.547H1392.06V485H1389.11V482.082H1388.79C1388.12 483.137 1386.87 485.404 1383.23 485.387ZM1378.17 475.438C1378.17 479.498 1380.04 482.68 1383.66 482.68C1387.15 482.68 1389.09 479.727 1389.11 475.438C1389.09 471.201 1387.21 468.371 1383.66 468.371C1379.98 468.371 1378.17 471.447 1378.17 475.438ZM1404.5 485.387C1399.74 485.404 1396.38 481.572 1396.38 475.508C1396.38 469.461 1399.74 465.664 1404.54 465.664C1408.25 465.664 1409.41 467.914 1410.06 468.934H1410.27V459.547H1413.33V485H1410.38V482.082H1410.06C1409.39 483.137 1408.14 485.404 1404.5 485.387ZM1399.44 475.438C1399.44 479.498 1401.3 482.68 1404.93 482.68C1408.42 482.68 1410.36 479.727 1410.38 475.438C1410.36 471.201 1408.48 468.371 1404.93 468.371C1401.25 468.371 1399.44 471.447 1399.44 475.438ZM1421.59 459.547V485H1418.57V459.547H1421.59ZM1428.55 485.211C1427.32 485.193 1426.27 484.174 1426.3 482.926C1426.27 481.695 1427.32 480.676 1428.55 480.676C1429.8 480.676 1430.82 481.695 1430.8 482.926C1430.82 484.174 1429.8 485.193 1428.55 485.211ZM1446.16 470.867C1445.74 469.285 1444.53 468.248 1442.3 468.23C1439.94 468.248 1438.27 469.514 1438.25 471.113C1438.27 472.379 1439.29 473.24 1441.52 473.785L1444.37 474.488C1447.78 475.297 1449.45 477.002 1449.47 479.656C1449.45 482.961 1446.76 485.404 1441.98 485.387C1437.69 485.404 1435.14 483.488 1434.63 480.008H1437.8C1438.15 481.871 1439.5 482.768 1441.91 482.75C1444.63 482.768 1446.34 481.625 1446.34 479.832C1446.34 478.479 1445.37 477.6 1443.21 477.09L1440.33 476.422C1437.01 475.648 1435.23 473.838 1435.23 471.289C1435.23 468.02 1438.1 465.664 1442.3 465.664C1446.25 465.664 1448.73 467.773 1449.12 470.867H1446.16ZM1466.38 492.172V482.082H1466.17C1465.5 483.137 1464.25 485.404 1460.61 485.387C1455.85 485.404 1452.49 481.572 1452.49 475.508C1452.49 469.461 1455.85 465.664 1460.65 465.664C1464.36 465.664 1465.52 467.914 1466.17 468.934H1466.48V465.91H1469.44V492.172H1466.38ZM1455.55 475.438C1455.55 479.498 1457.41 482.68 1461.04 482.68C1464.53 482.68 1466.47 479.727 1466.48 475.438C1466.47 471.201 1464.59 468.371 1461.04 468.371C1457.36 468.371 1455.55 471.447 1455.55 475.438ZM1477.28 459.547V485H1474.25V459.547H1477.28Z" fill="#0D5449"/>
<rect x="1197.5" y="418.5" width="330" height="106" rx="19.5" stroke="#00705E" stroke-opacity="0.2"/>
<rect x="1176" y="712" width="372" height="107" rx="20" fill="#F2FFFD"/>
<path d="M1234.76 759.91V762.441H1230.75V773.516C1230.73 775.959 1231.96 776.363 1233.25 776.363C1233.79 776.363 1234.6 776.311 1235.04 776.293V779.105C1234.56 779.176 1233.83 779.246 1232.93 779.246C1230.38 779.246 1227.71 777.664 1227.69 774.289V762.441H1224.81V759.91H1227.69V755.34H1230.75V759.91H1234.76ZM1246.46 779.387C1240.95 779.404 1237.54 775.467 1237.54 769.613C1237.54 763.742 1241 759.664 1246.18 759.664C1250.19 759.664 1254.43 762.125 1254.41 769.191V770.457H1240.56C1240.72 774.5 1243.07 776.715 1246.46 776.715C1248.75 776.715 1250.19 775.713 1250.89 774.535H1254.13C1253.23 777.436 1250.4 779.404 1246.46 779.387ZM1240.58 767.891H1251.35C1251.33 764.709 1249.33 762.336 1246.18 762.336C1242.88 762.336 1240.79 764.938 1240.58 767.891ZM1268.96 764.867C1268.54 763.285 1267.33 762.248 1265.1 762.23C1262.74 762.248 1261.07 763.514 1261.05 765.113C1261.07 766.379 1262.09 767.24 1264.32 767.785L1267.17 768.488C1270.58 769.297 1272.25 771.002 1272.27 773.656C1272.25 776.961 1269.56 779.404 1264.78 779.387C1260.49 779.404 1257.94 777.488 1257.43 774.008H1260.6C1260.95 775.871 1262.3 776.768 1264.71 776.75C1267.44 776.768 1269.14 775.625 1269.14 773.832C1269.14 772.479 1268.17 771.6 1266.01 771.09L1263.13 770.422C1259.81 769.648 1258.03 767.838 1258.03 765.289C1258.03 762.02 1260.9 759.664 1265.1 759.664C1269.05 759.664 1271.53 761.773 1271.92 764.867H1268.96ZM1284.54 759.91V762.441H1280.53V773.516C1280.51 775.959 1281.74 776.363 1283.03 776.363C1283.57 776.363 1284.38 776.311 1284.82 776.293V779.105C1284.35 779.176 1283.61 779.246 1282.71 779.246C1280.16 779.246 1277.49 777.664 1277.47 774.289V762.441H1274.59V759.91H1277.47V755.34H1280.53V759.91H1284.54ZM1297.51 752.352L1289.29 782.832H1286.54L1294.73 752.352H1297.51ZM1307.67 779.387C1302.91 779.404 1299.55 775.572 1299.55 769.508C1299.55 763.461 1302.91 759.664 1307.71 759.664C1311.42 759.664 1312.58 761.914 1313.23 762.934H1313.44V753.547H1316.5V779H1313.54V776.082H1313.23C1312.56 777.137 1311.31 779.404 1307.67 779.387ZM1302.61 769.438C1302.61 773.498 1304.47 776.68 1308.09 776.68C1311.59 776.68 1313.53 773.727 1313.54 769.438C1313.53 765.201 1311.64 762.371 1308.09 762.371C1304.42 762.371 1302.61 765.447 1302.61 769.438ZM1322.12 779V753.547H1325.14V762.934H1325.39C1326.04 761.914 1327.18 759.664 1330.91 759.664C1335.69 759.664 1339.05 763.461 1339.07 769.508C1339.05 775.572 1335.69 779.404 1330.95 779.387C1327.29 779.404 1326.04 777.137 1325.39 776.082H1325.04V779H1322.12ZM1325.07 769.438C1325.07 773.727 1327.01 776.68 1330.49 776.68C1334.13 776.68 1335.99 773.498 1336.01 769.438C1335.99 765.447 1334.18 762.371 1330.49 762.371C1326.97 762.371 1325.07 765.201 1325.07 769.438ZM1352.07 752.352L1343.85 782.832H1341.11L1349.3 752.352H1352.07ZM1355.03 779V759.91H1358.05V779H1355.03ZM1354.43 754.742C1354.41 753.617 1355.38 752.721 1356.54 752.738C1357.7 752.721 1358.67 753.617 1358.68 754.742C1358.67 755.85 1357.7 756.746 1356.54 756.746C1355.38 756.746 1354.41 755.85 1354.43 754.742ZM1365.89 767.539V779H1362.87V759.91H1365.79V762.898H1366.03C1366.93 760.947 1368.72 759.664 1371.62 759.664C1375.49 759.664 1378.07 762.02 1378.05 766.871V779H1375.03V767.082C1375.03 764.129 1373.41 762.371 1370.71 762.371C1367.93 762.371 1365.89 764.234 1365.89 767.539ZM1393.52 764.867C1393.1 763.285 1391.89 762.248 1389.66 762.23C1387.3 762.248 1385.63 763.514 1385.61 765.113C1385.63 766.379 1386.65 767.24 1388.88 767.785L1391.73 768.488C1395.14 769.297 1396.81 771.002 1396.83 773.656C1396.81 776.961 1394.12 779.404 1389.34 779.387C1385.05 779.404 1382.5 777.488 1381.99 774.008H1385.16C1385.51 775.871 1386.86 776.768 1389.27 776.75C1391.99 776.768 1393.7 775.625 1393.7 773.832C1393.7 772.479 1392.73 771.6 1390.57 771.09L1387.69 770.422C1384.37 769.648 1382.59 767.838 1382.59 765.289C1382.59 762.02 1385.46 759.664 1389.66 759.664C1393.61 759.664 1396.09 761.773 1396.48 764.867H1393.52ZM1408.78 779.387C1403.26 779.404 1399.85 775.467 1399.85 769.613C1399.85 763.742 1403.31 759.664 1408.5 759.664C1412.51 759.664 1416.74 762.125 1416.73 769.191V770.457H1402.88C1403.03 774.5 1405.39 776.715 1408.78 776.715C1411.07 776.715 1412.51 775.713 1413.21 774.535H1416.45C1415.55 777.436 1412.72 779.404 1408.78 779.387ZM1402.89 767.891H1413.67C1413.65 764.709 1411.65 762.336 1408.5 762.336C1405.2 762.336 1403.1 764.938 1402.89 767.891ZM1420.66 779V759.91H1423.58V762.828H1423.79C1424.48 760.895 1426.46 759.611 1428.71 759.594C1429.17 759.611 1429.95 759.629 1430.3 759.664V762.723C1430.07 762.67 1429.26 762.512 1428.47 762.512C1425.73 762.512 1423.69 764.41 1423.69 766.977V779H1420.66ZM1442.78 759.91V762.441H1438.77V773.516C1438.75 775.959 1439.98 776.363 1441.27 776.363C1441.81 776.363 1442.62 776.311 1443.06 776.293V779.105C1442.58 779.176 1441.85 779.246 1440.95 779.246C1438.4 779.246 1435.73 777.664 1435.71 774.289V762.441H1432.83V759.91H1435.71V755.34H1438.77V759.91H1442.78ZM1448.82 779.211C1447.59 779.193 1446.54 778.174 1446.57 776.926C1446.54 775.695 1447.59 774.676 1448.82 774.676C1450.07 774.676 1451.09 775.695 1451.07 776.926C1451.09 778.174 1450.07 779.193 1448.82 779.211ZM1466.44 764.867C1466.02 763.285 1464.8 762.248 1462.57 762.23C1460.21 762.248 1458.54 763.514 1458.53 765.113C1458.54 766.379 1459.56 767.24 1461.8 767.785L1464.64 768.488C1468.05 769.297 1469.72 771.002 1469.74 773.656C1469.72 776.961 1467.04 779.404 1462.25 779.387C1457.96 779.404 1455.42 777.488 1454.91 774.008H1458.07C1458.42 775.871 1459.78 776.768 1462.18 776.75C1464.91 776.768 1466.61 775.625 1466.61 773.832C1466.61 772.479 1465.65 771.6 1463.48 771.09L1460.6 770.422C1457.28 769.648 1455.5 767.838 1455.5 765.289C1455.5 762.02 1458.37 759.664 1462.57 759.664C1466.53 759.664 1469 761.773 1469.39 764.867H1466.44ZM1486.65 786.172V776.082H1486.44C1485.77 777.137 1484.53 779.404 1480.89 779.387C1476.12 779.404 1472.77 775.572 1472.77 769.508C1472.77 763.461 1476.12 759.664 1480.92 759.664C1484.63 759.664 1485.79 761.914 1486.44 762.934H1486.76V759.91H1489.71V786.172H1486.65ZM1475.82 769.438C1475.82 773.498 1477.69 776.68 1481.31 776.68C1484.81 776.68 1486.74 773.727 1486.76 769.438C1486.74 765.201 1484.86 762.371 1481.31 762.371C1477.63 762.371 1475.82 765.447 1475.82 769.438ZM1497.55 753.547V779H1494.53V753.547H1497.55Z" fill="#0D5449"/>
<rect x="1176.5" y="712.5" width="371" height="106" rx="19.5" stroke="#00705E" stroke-opacity="0.2"/>
<rect x="365" y="418" width="382" height="107" rx="20" fill="#F3F2FF"/>
<path d="M423.758 465.91V468.441H419.75V479.516C419.732 481.959 420.963 482.363 422.246 482.363C422.791 482.363 423.6 482.311 424.039 482.293V485.105C423.564 485.176 422.826 485.246 421.93 485.246C419.381 485.246 416.709 483.664 416.691 480.289V468.441H413.809V465.91H416.691V461.34H419.75V465.91H423.758ZM435.465 485.387C429.945 485.404 426.535 481.467 426.535 475.613C426.535 469.742 429.998 465.664 435.184 465.664C439.191 465.664 443.428 468.125 443.41 475.191V476.457H429.559C429.717 480.5 432.072 482.715 435.465 482.715C437.75 482.715 439.191 481.713 439.895 480.535H443.129C442.232 483.436 439.402 485.404 435.465 485.387ZM429.576 473.891H440.352C440.334 470.709 438.33 468.336 435.184 468.336C431.879 468.336 429.787 470.938 429.576 473.891ZM457.965 470.867C457.543 469.285 456.33 468.248 454.098 468.23C451.742 468.248 450.072 469.514 450.055 471.113C450.072 472.379 451.092 473.24 453.324 473.785L456.172 474.488C459.582 475.297 461.252 477.002 461.27 479.656C461.252 482.961 458.562 485.404 453.781 485.387C449.492 485.404 446.943 483.488 446.434 480.008H449.598C449.949 481.871 451.303 482.768 453.711 482.75C456.436 482.768 458.141 481.625 458.141 479.832C458.141 478.479 457.174 477.6 455.012 477.09L452.129 476.422C448.807 475.648 447.031 473.838 447.031 471.289C447.031 468.02 449.896 465.664 454.098 465.664C458.053 465.664 460.531 467.773 460.918 470.867H457.965ZM473.539 465.91V468.441H469.531V479.516C469.514 481.959 470.744 482.363 472.027 482.363C472.572 482.363 473.381 482.311 473.82 482.293V485.105C473.346 485.176 472.607 485.246 471.711 485.246C469.162 485.246 466.49 483.664 466.473 480.289V468.441H463.59V465.91H466.473V461.34H469.531V465.91H473.539ZM486.512 458.352L478.285 488.832H475.543L483.734 458.352H486.512ZM496.672 485.387C491.908 485.404 488.551 481.572 488.551 475.508C488.551 469.461 491.908 465.664 496.707 465.664C500.416 465.664 501.576 467.914 502.227 468.934H502.438V459.547H505.496V485H502.543V482.082H502.227C501.559 483.137 500.311 485.404 496.672 485.387ZM491.609 475.438C491.609 479.498 493.473 482.68 497.094 482.68C500.592 482.68 502.525 479.727 502.543 475.438C502.525 471.201 500.645 468.371 497.094 468.371C493.42 468.371 491.609 471.447 491.609 475.438ZM511.121 485V459.547H514.145V468.934H514.391C515.041 467.914 516.184 465.664 519.91 465.664C524.691 465.664 528.049 469.461 528.066 475.508C528.049 481.572 524.691 485.404 519.945 485.387C516.289 485.404 515.041 483.137 514.391 482.082H514.039V485H511.121ZM514.074 475.438C514.074 479.727 516.008 482.68 519.488 482.68C523.127 482.68 524.99 479.498 525.008 475.438C524.99 471.447 523.18 468.371 519.488 468.371C515.973 468.371 514.074 471.201 514.074 475.438ZM541.074 458.352L532.848 488.832H530.105L538.297 458.352H541.074ZM544.414 485V459.547H547.438V468.934H547.684C548.334 467.914 549.477 465.664 553.203 465.664C557.984 465.664 561.342 469.461 561.359 475.508C561.342 481.572 557.984 485.404 553.238 485.387C549.582 485.404 548.334 483.137 547.684 482.082H547.332V485H544.414ZM547.367 475.438C547.367 479.727 549.301 482.68 552.781 482.68C556.42 482.68 558.283 479.498 558.301 475.438C558.283 471.447 556.473 468.371 552.781 468.371C549.266 468.371 547.367 471.201 547.367 475.438ZM564.383 479.586C564.383 475.209 568.25 474.207 571.555 473.961C572.785 473.873 575.861 473.697 576.723 473.68V472.133C576.723 469.707 575.281 468.301 572.398 468.301C569.99 468.301 568.531 469.408 568.109 470.867H564.945C565.332 467.791 568.32 465.664 572.539 465.664C575.035 465.664 579.729 466.402 579.711 472.414V485H576.723V482.398H576.582C575.949 483.682 574.209 485.439 570.887 485.457C567.266 485.439 564.383 483.312 564.383 479.586ZM567.406 479.727C567.424 481.748 569.094 482.768 571.414 482.75C574.824 482.768 576.723 480.482 576.723 478.074V476.158C575.826 476.211 572.82 476.439 571.906 476.492C569.164 476.668 567.424 477.635 567.406 479.727ZM584.562 485V465.91H587.48V468.828H587.691C588.377 466.895 590.363 465.611 592.613 465.594C593.07 465.611 593.844 465.629 594.195 465.664V468.723C593.967 468.67 593.158 468.512 592.367 468.512C589.625 468.512 587.586 470.41 587.586 472.977V485H584.562ZM597.113 485.211C595.883 485.193 594.828 484.174 594.863 482.926C594.828 481.695 595.883 480.676 597.113 480.676C598.361 480.676 599.381 481.695 599.363 482.926C599.381 484.174 598.361 485.193 597.113 485.211ZM612.441 465.91V468.441H608.434V479.516C608.416 481.959 609.646 482.363 610.93 482.363C611.475 482.363 612.283 482.311 612.723 482.293V485.105C612.248 485.176 611.51 485.246 610.613 485.246C608.064 485.246 605.393 483.664 605.375 480.289V468.441H602.492V465.91H605.375V461.34H608.434V465.91H612.441ZM624.148 485.387C618.629 485.404 615.219 481.467 615.219 475.613C615.219 469.742 618.682 465.664 623.867 465.664C627.875 465.664 632.111 468.125 632.094 475.191V476.457H618.242C618.4 480.5 620.756 482.715 624.148 482.715C626.434 482.715 627.875 481.713 628.578 480.535H631.812C630.916 483.436 628.086 485.404 624.148 485.387ZM618.26 473.891H629.035C629.018 470.709 627.014 468.336 623.867 468.336C620.562 468.336 618.471 470.938 618.26 473.891ZM646.648 470.867C646.227 469.285 645.014 468.248 642.781 468.23C640.426 468.248 638.756 469.514 638.738 471.113C638.756 472.379 639.775 473.24 642.008 473.785L644.855 474.488C648.266 475.297 649.936 477.002 649.953 479.656C649.936 482.961 647.246 485.404 642.465 485.387C638.176 485.404 635.627 483.488 635.117 480.008H638.281C638.633 481.871 639.986 482.768 642.395 482.75C645.119 482.768 646.824 481.625 646.824 479.832C646.824 478.479 645.857 477.6 643.695 477.09L640.812 476.422C637.49 475.648 635.715 473.838 635.715 471.289C635.715 468.02 638.58 465.664 642.781 465.664C646.736 465.664 649.215 467.773 649.602 470.867H646.648ZM662.223 465.91V468.441H658.215V479.516C658.197 481.959 659.428 482.363 660.711 482.363C661.256 482.363 662.064 482.311 662.504 482.293V485.105C662.029 485.176 661.291 485.246 660.395 485.246C657.846 485.246 655.174 483.664 655.156 480.289V468.441H652.273V465.91H655.156V461.34H658.215V465.91H662.223ZM668.27 485.211C667.039 485.193 665.984 484.174 666.02 482.926C665.984 481.695 667.039 480.676 668.27 480.676C669.518 480.676 670.537 481.695 670.52 482.926C670.537 484.174 669.518 485.193 668.27 485.211ZM675.266 465.91H678.289V486.371C678.289 489.939 676.443 492.154 672.734 492.172C672.541 492.154 672.348 492.154 672.102 492.172V489.359C672.312 489.377 672.488 489.377 672.699 489.359C674.457 489.377 675.248 488.287 675.266 486.371V465.91ZM674.633 460.742C674.615 459.617 675.582 458.721 676.742 458.738C677.902 458.721 678.869 459.617 678.887 460.742C678.869 461.85 677.902 462.746 676.742 462.746C675.582 462.746 674.615 461.85 674.633 460.742ZM693.723 470.867C693.301 469.285 692.088 468.248 689.855 468.23C687.5 468.248 685.83 469.514 685.812 471.113C685.83 472.379 686.85 473.24 689.082 473.785L691.93 474.488C695.34 475.297 697.01 477.002 697.027 479.656C697.01 482.961 694.32 485.404 689.539 485.387C685.25 485.404 682.701 483.488 682.191 480.008H685.355C685.707 481.871 687.061 482.768 689.469 482.75C692.193 482.768 693.898 481.625 693.898 479.832C693.898 478.479 692.932 477.6 690.77 477.09L687.887 476.422C684.564 475.648 682.789 473.838 682.789 471.289C682.789 468.02 685.654 465.664 689.855 465.664C693.811 465.664 696.289 467.773 696.676 470.867H693.723Z" fill="#310070"/>
<rect x="365.5" y="418.5" width="381" height="106" rx="19.5" stroke="#310070" stroke-opacity="0.2"/>
<rect x="361" y="712" width="390" height="107" rx="20" fill="#F3F2FF"/>
<path d="M419.758 759.91V762.441H415.75V773.516C415.732 775.959 416.963 776.363 418.246 776.363C418.791 776.363 419.6 776.311 420.039 776.293V779.105C419.564 779.176 418.826 779.246 417.93 779.246C415.381 779.246 412.709 777.664 412.691 774.289V762.441H409.809V759.91H412.691V755.34H415.75V759.91H419.758ZM431.465 779.387C425.945 779.404 422.535 775.467 422.535 769.613C422.535 763.742 425.998 759.664 431.184 759.664C435.191 759.664 439.428 762.125 439.41 769.191V770.457H425.559C425.717 774.5 428.072 776.715 431.465 776.715C433.75 776.715 435.191 775.713 435.895 774.535H439.129C438.232 777.436 435.402 779.404 431.465 779.387ZM425.576 767.891H436.352C436.334 764.709 434.33 762.336 431.184 762.336C427.879 762.336 425.787 764.938 425.576 767.891ZM453.965 764.867C453.543 763.285 452.33 762.248 450.098 762.23C447.742 762.248 446.072 763.514 446.055 765.113C446.072 766.379 447.092 767.24 449.324 767.785L452.172 768.488C455.582 769.297 457.252 771.002 457.27 773.656C457.252 776.961 454.562 779.404 449.781 779.387C445.492 779.404 442.943 777.488 442.434 774.008H445.598C445.949 775.871 447.303 776.768 449.711 776.75C452.436 776.768 454.141 775.625 454.141 773.832C454.141 772.479 453.174 771.6 451.012 771.09L448.129 770.422C444.807 769.648 443.031 767.838 443.031 765.289C443.031 762.02 445.896 759.664 450.098 759.664C454.053 759.664 456.531 761.773 456.918 764.867H453.965ZM469.539 759.91V762.441H465.531V773.516C465.514 775.959 466.744 776.363 468.027 776.363C468.572 776.363 469.381 776.311 469.82 776.293V779.105C469.346 779.176 468.607 779.246 467.711 779.246C465.162 779.246 462.49 777.664 462.473 774.289V762.441H459.59V759.91H462.473V755.34H465.531V759.91H469.539ZM482.512 752.352L474.285 782.832H471.543L479.734 752.352H482.512ZM492.672 779.387C487.908 779.404 484.551 775.572 484.551 769.508C484.551 763.461 487.908 759.664 492.707 759.664C496.416 759.664 497.576 761.914 498.227 762.934H498.438V753.547H501.496V779H498.543V776.082H498.227C497.559 777.137 496.311 779.404 492.672 779.387ZM487.609 769.438C487.609 773.498 489.473 776.68 493.094 776.68C496.592 776.68 498.525 773.727 498.543 769.438C498.525 765.201 496.645 762.371 493.094 762.371C489.42 762.371 487.609 765.447 487.609 769.438ZM507.121 779V753.547H510.145V762.934H510.391C511.041 761.914 512.184 759.664 515.91 759.664C520.691 759.664 524.049 763.461 524.066 769.508C524.049 775.572 520.691 779.404 515.945 779.387C512.289 779.404 511.041 777.137 510.391 776.082H510.039V779H507.121ZM510.074 769.438C510.074 773.727 512.008 776.68 515.488 776.68C519.127 776.68 520.99 773.498 521.008 769.438C520.99 765.447 519.18 762.371 515.488 762.371C511.973 762.371 510.074 765.201 510.074 769.438ZM537.074 752.352L528.848 782.832H526.105L534.297 752.352H537.074ZM553 786.172V776.082H552.789C552.121 777.137 550.873 779.404 547.234 779.387C542.471 779.404 539.113 775.572 539.113 769.508C539.113 763.461 542.471 759.664 547.27 759.664C550.979 759.664 552.139 761.914 552.789 762.934H553.105V759.91H556.059V786.172H553ZM542.172 769.438C542.172 773.498 544.035 776.68 547.656 776.68C551.154 776.68 553.088 773.727 553.105 769.438C553.088 765.201 551.207 762.371 547.656 762.371C543.982 762.371 542.172 765.447 542.172 769.438ZM572.934 771.16V759.91H575.922V779H572.934V775.766H572.723C571.826 777.699 569.928 779.246 567.062 779.246C563.441 779.246 560.857 776.891 560.875 772.039V759.91H563.898V771.828C563.898 774.57 565.604 776.346 568.047 776.328C570.209 776.346 572.916 774.729 572.934 771.16ZM583.059 759.91L587.559 767.68L592.094 759.91H595.574L589.422 769.438L595.574 779H592.129L587.559 771.617L583.059 779H579.578L585.59 769.438L579.578 759.91H583.059ZM601.375 779.211C600.145 779.193 599.09 778.174 599.125 776.926C599.09 775.695 600.145 774.676 601.375 774.676C602.623 774.676 603.643 775.695 603.625 776.926C603.643 778.174 602.623 779.193 601.375 779.211ZM616.703 759.91V762.441H612.695V773.516C612.678 775.959 613.908 776.363 615.191 776.363C615.736 776.363 616.545 776.311 616.984 776.293V779.105C616.51 779.176 615.771 779.246 614.875 779.246C612.326 779.246 609.654 777.664 609.637 774.289V762.441H606.754V759.91H609.637V755.34H612.695V759.91H616.703ZM628.41 779.387C622.891 779.404 619.48 775.467 619.48 769.613C619.48 763.742 622.943 759.664 628.129 759.664C632.137 759.664 636.373 762.125 636.355 769.191V770.457H622.504C622.662 774.5 625.018 776.715 628.41 776.715C630.695 776.715 632.137 775.713 632.84 774.535H636.074C635.178 777.436 632.348 779.404 628.41 779.387ZM622.521 767.891H633.297C633.279 764.709 631.275 762.336 628.129 762.336C624.824 762.336 622.732 764.938 622.521 767.891ZM650.91 764.867C650.488 763.285 649.275 762.248 647.043 762.23C644.688 762.248 643.018 763.514 643 765.113C643.018 766.379 644.037 767.24 646.27 767.785L649.117 768.488C652.527 769.297 654.197 771.002 654.215 773.656C654.197 776.961 651.508 779.404 646.727 779.387C642.438 779.404 639.889 777.488 639.379 774.008H642.543C642.895 775.871 644.248 776.768 646.656 776.75C649.381 776.768 651.086 775.625 651.086 773.832C651.086 772.479 650.119 771.6 647.957 771.09L645.074 770.422C641.752 769.648 639.977 767.838 639.977 765.289C639.977 762.02 642.842 759.664 647.043 759.664C650.998 759.664 653.477 761.773 653.863 764.867H650.91ZM666.484 759.91V762.441H662.477V773.516C662.459 775.959 663.689 776.363 664.973 776.363C665.518 776.363 666.326 776.311 666.766 776.293V779.105C666.291 779.176 665.553 779.246 664.656 779.246C662.107 779.246 659.436 777.664 659.418 774.289V762.441H656.535V759.91H659.418V755.34H662.477V759.91H666.484ZM672.531 779.211C671.301 779.193 670.246 778.174 670.281 776.926C670.246 775.695 671.301 774.676 672.531 774.676C673.779 774.676 674.799 775.695 674.781 776.926C674.799 778.174 673.779 779.193 672.531 779.211ZM679.527 759.91H682.551V780.371C682.551 783.939 680.705 786.154 676.996 786.172C676.803 786.154 676.609 786.154 676.363 786.172V783.359C676.574 783.377 676.75 783.377 676.961 783.359C678.719 783.377 679.51 782.287 679.527 780.371V759.91ZM678.895 754.742C678.877 753.617 679.844 752.721 681.004 752.738C682.164 752.721 683.131 753.617 683.148 754.742C683.131 755.85 682.164 756.746 681.004 756.746C679.844 756.746 678.877 755.85 678.895 754.742ZM697.984 764.867C697.562 763.285 696.35 762.248 694.117 762.23C691.762 762.248 690.092 763.514 690.074 765.113C690.092 766.379 691.111 767.24 693.344 767.785L696.191 768.488C699.602 769.297 701.271 771.002 701.289 773.656C701.271 776.961 698.582 779.404 693.801 779.387C689.512 779.404 686.963 777.488 686.453 774.008H689.617C689.969 775.871 691.322 776.768 693.73 776.75C696.455 776.768 698.16 775.625 698.16 773.832C698.16 772.479 697.193 771.6 695.031 771.09L692.148 770.422C688.826 769.648 687.051 767.838 687.051 765.289C687.051 762.02 689.916 759.664 694.117 759.664C698.072 759.664 700.551 761.773 700.938 764.867H697.984Z" fill="#310070"/>
<rect x="361.5" y="712.5" width="389" height="106" rx="19.5" stroke="#310070" stroke-opacity="0.2"/>
<path d="M564 577C564 581.418 560.418 585 556 585C551.582 585 548 581.418 548 577C548 572.582 551.582 569 556 569C560.418 569 564 572.582 564 577Z" fill="url(#paint0_linear_14_28)"/>
<path d="M564 617C564 621.418 560.418 625 556 625C551.582 625 548 621.418 548 617C548 612.582 551.582 609 556 609C560.418 609 564 612.582 564 617Z" fill="url(#paint1_linear_14_28)"/>
<path d="M564 657C564 661.418 560.418 665 556 665C551.582 665 548 661.418 548 657C548 652.582 551.582 649 556 649C560.418 649 564 652.582 564 657Z" fill="url(#paint2_linear_14_28)"/>
<path d="M1370 573C1370 577.418 1366.42 581 1362 581C1357.58 581 1354 577.418 1354 573C1354 568.582 1357.58 565 1362 565C1366.42 565 1370 568.582 1370 573Z" fill="url(#paint3_linear_14_28)"/>
<path d="M1370 613C1370 617.418 1366.42 621 1362 621C1357.58 621 1354 617.418 1354 613C1354 608.582 1357.58 605 1362 605C1366.42 605 1370 608.582 1370 613Z" fill="url(#paint4_linear_14_28)"/>
<path d="M1370 653C1370 657.418 1366.42 661 1362 661C1357.58 661 1354 657.418 1354 653C1354 648.582 1357.58 645 1362 645C1366.42 645 1370 648.582 1370 653Z" fill="url(#paint5_linear_14_28)"/>
<g opacity="0.2">
<path d="M752 274.5C750.333 274.5 749 275.833 749 277.5C749 279.167 750.333 280.5 752 280.5C753.667 280.5 755 279.167 755 277.5C755 275.833 753.667 274.5 752 274.5Z" fill="black"/>
<path d="M752 276C751.172 276 750.5 276.672 750.5 277.5C750.5 278.328 751.172 279 752 279V276ZM1108.06 278.561C1108.65 277.975 1108.65 277.025 1108.06 276.439L1098.51 266.893C1097.93 266.308 1096.98 266.308 1096.39 266.893C1095.81 267.479 1095.81 268.429 1096.39 269.015L1104.88 277.5L1096.39 285.985C1095.81 286.571 1095.81 287.521 1096.39 288.107C1096.98 288.692 1097.93 288.692 1098.51 288.107L1108.06 278.561ZM750.5 277.5C750.5 276.662 751.162 276 752 276V273C749.505 273 747.5 275.005 747.5 277.5H750.5ZM752 276C752.838 276 753.5 276.662 753.5 277.5H756.5C756.5 275.005 754.495 273 752 273V276ZM753.5 277.5C753.5 278.338 752.838 279 752 279V282C754.495 282 756.5 279.995 756.5 277.5H753.5ZM752 279C751.162 279 750.5 278.338 750.5 277.5H747.5C747.5 279.995 749.505 282 752 282V279ZM752 279H755V276H752V279ZM755 279H1107V276H755V279Z" fill="black"/>
</g>
<g opacity="0.2">
<path d="M752 274.5C750.333 274.5 749 275.833 749 277.5C749 279.167 750.333 280.5 752 280.5C753.663 280.5 754.994 279.172 755 277.511C755 277.507 755 277.504 755 277.5C755 275.833 753.667 274.5 752 274.5Z" fill="black"/>
<path d="M752 276C751.172 276 750.5 276.672 750.5 277.5C750.5 278.328 751.172 279 752 279V276ZM1196.95 472.658C1197.59 472.132 1197.68 471.186 1197.16 470.547L1188.58 460.123C1188.05 459.483 1187.11 459.392 1186.47 459.918C1185.83 460.444 1185.74 461.39 1186.26 462.029L1193.89 471.295L1184.62 478.921C1183.98 479.447 1183.89 480.392 1184.42 481.032C1184.94 481.672 1185.89 481.763 1186.53 481.237L1196.95 472.658ZM750.5 277.5C750.5 276.662 751.162 276 752 276V273C749.505 273 747.5 275.005 747.5 277.5H750.5ZM752 276C752.838 276 753.5 276.662 753.5 277.5H756.5C756.5 275.005 754.495 273 752 273V276ZM753.5 277.5C753.5 277.502 753.5 277.504 753.5 277.505L756.5 277.516C756.5 277.51 756.5 277.505 756.5 277.5H753.5ZM753.5 277.505C753.497 278.341 752.837 279 752 279V282C754.49 282 756.492 280.004 756.5 277.516L753.5 277.505ZM752 279C751.162 279 750.5 278.338 750.5 277.5H747.5C747.5 279.995 749.505 282 752 282V279ZM752 279C753.001 279 753.997 279.004 754.989 279.011L755.011 276.011C754.012 276.004 753.008 276 752 276V279ZM754.989 279.011C809.529 279.396 850.434 290.326 884.569 306.807C918.732 323.302 946.17 345.382 973.798 368.195C1029.07 413.834 1084.87 462.217 1195.86 472.993L1196.14 470.007C1086.13 459.325 1030.94 411.486 975.708 365.882C948.087 343.074 920.399 320.776 885.874 304.106C851.32 287.422 809.973 276.399 755.011 276.011L754.989 279.011Z" fill="black"/>
</g>
<g opacity="0.2">
<path d="M752 274.5C750.333 274.5 749 275.833 749 277.5C749 279.167 750.333 280.5 752 280.5C753.657 280.5 754.984 279.183 755 277.53C755 277.52 755 277.51 755 277.5C755 275.833 753.667 274.5 752 274.5Z" fill="black"/>
<path d="M752 276C751.172 276 750.5 276.672 750.5 277.5C750.5 278.328 751.172 279 752 279V276ZM1176.82 766.758C1177.51 766.306 1177.71 765.377 1177.26 764.683L1169.9 753.363C1169.45 752.668 1168.52 752.471 1167.83 752.922C1167.13 753.374 1166.94 754.303 1167.39 754.997L1173.92 765.06L1163.86 771.598C1163.17 772.049 1162.97 772.978 1163.42 773.673C1163.87 774.368 1164.8 774.565 1165.5 774.114L1176.82 766.758ZM750.5 277.5C750.5 276.662 751.162 276 752 276V273C749.505 273 747.5 275.005 747.5 277.5H750.5ZM752 276C752.838 276 753.5 276.662 753.5 277.5H756.5C756.5 275.005 754.495 273 752 273V276ZM753.5 277.5C753.5 277.505 753.5 277.51 753.5 277.515L756.5 277.544C756.5 277.529 756.5 277.515 756.5 277.5H753.5ZM753.5 277.515C753.492 278.346 752.833 279 752 279V282C754.48 282 756.476 280.019 756.5 277.544L753.5 277.515ZM752 279C751.162 279 750.5 278.338 750.5 277.5H747.5C747.5 279.995 749.505 282 752 282V279ZM752 279C752.995 279 753.985 279.01 754.97 279.029L755.03 276.03C754.024 276.01 753.015 276 752 276V279ZM754.97 279.029C806.601 280.057 845.472 307.909 878.097 350.149C910.753 392.43 936.997 448.929 963.388 506.901C989.744 564.797 1016.24 624.144 1049.36 671.801C1082.5 719.476 1122.41 755.658 1175.69 766.967L1176.31 764.033C1124.09 752.948 1084.75 717.458 1051.83 670.089C1018.89 622.703 992.513 563.637 966.119 505.658C939.76 447.756 913.378 390.921 880.471 348.315C847.532 305.668 807.901 277.082 755.03 276.03L754.97 279.029Z" fill="black"/>
</g>
<g opacity="0.2">
<path d="M752 468.5C750.333 468.5 749 469.833 749 471.5C749 473.167 750.333 474.5 752 474.5C753.667 474.5 755 473.167 755 471.5C755 471.494 755 471.488 755 471.481C754.99 469.823 753.66 468.5 752 468.5Z" fill="black"/>
<path d="M752 470C751.172 470 750.5 470.672 750.5 471.5C750.5 472.328 751.172 473 752 473V470ZM1108.07 278.556C1108.65 277.967 1108.64 277.017 1108.06 276.434L1098.46 266.934C1097.88 266.351 1096.93 266.355 1096.34 266.944C1095.76 267.533 1095.76 268.482 1096.35 269.065L1104.88 277.51L1096.43 286.036C1095.85 286.624 1095.86 287.574 1096.44 288.157C1097.03 288.74 1097.98 288.735 1098.57 288.147L1108.07 278.556ZM750.5 471.5C750.5 470.662 751.162 470 752 470V467C749.505 467 747.5 469.005 747.5 471.5H750.5ZM752 470C752.835 470 753.495 470.657 753.5 471.49L756.5 471.473C756.485 468.99 754.486 467 752 467V470ZM753.5 471.49C753.5 471.494 753.5 471.497 753.5 471.5H756.5C756.5 471.491 756.5 471.482 756.5 471.473L753.5 471.49ZM753.5 471.5C753.5 472.338 752.838 473 752 473V476C754.495 476 756.5 473.995 756.5 471.5H753.5ZM752 473C751.162 473 750.5 472.338 750.5 471.5H747.5C747.5 473.995 749.505 476 752 476V473ZM752 473C753.012 473 754.018 472.994 755.019 472.981L754.981 469.982C753.993 469.994 752.999 470 752 470V473ZM755.019 472.981C842.977 471.891 887.246 423.116 931.36 375.008C975.484 326.889 1019.46 279.417 1107.01 279L1106.99 276C1018.04 276.424 973.274 324.86 929.149 372.981C885.012 421.113 841.529 468.908 754.981 469.982L755.019 472.981Z" fill="black"/>
</g>
<g opacity="0.2">
<path d="M752 468.5C750.333 468.5 749 469.833 749 471.5C749 473.167 750.333 474.5 752 474.5C753.667 474.5 755 473.167 755 471.5C755 469.833 753.667 468.5 752 468.5Z" fill="black"/>
<path d="M752 470C751.172 470 750.5 470.672 750.5 471.5C750.5 472.328 751.172 473 752 473V470ZM1197.06 472.561C1197.65 471.975 1197.65 471.025 1197.06 470.439L1187.51 460.893C1186.93 460.308 1185.98 460.308 1185.39 460.893C1184.81 461.479 1184.81 462.429 1185.39 463.015L1193.88 471.5L1185.39 479.985C1184.81 480.571 1184.81 481.521 1185.39 482.107C1185.98 482.692 1186.93 482.692 1187.51 482.107L1197.06 472.561ZM750.5 471.5C750.5 470.662 751.162 470 752 470V467C749.505 467 747.5 469.005 747.5 471.5H750.5ZM752 470C752.838 470 753.5 470.662 753.5 471.5H756.5C756.5 469.005 754.495 467 752 467V470ZM753.5 471.5C753.5 472.338 752.838 473 752 473V476C754.495 476 756.5 473.995 756.5 471.5H753.5ZM752 473C751.162 473 750.5 472.338 750.5 471.5H747.5C747.5 473.995 749.505 476 752 476V473ZM752 473H755V470H752V473ZM755 473H1196V470H755V473Z" fill="black"/>
</g>
<g opacity="0.2">
<path d="M752 468.5C750.333 468.5 749 469.833 749 471.5C749 473.167 750.333 474.5 752 474.5C753.661 474.5 754.991 473.176 755 471.518C755 471.512 755 471.506 755 471.5C755 469.833 753.667 468.5 752 468.5Z" fill="black"/>
<path d="M752 470C751.172 470 750.5 470.672 750.5 471.5C750.5 472.328 751.172 473 752 473V470ZM1176.89 766.71C1177.55 766.22 1177.7 765.281 1177.21 764.613L1169.23 753.725C1168.74 753.057 1167.8 752.912 1167.13 753.402C1166.46 753.892 1166.32 754.83 1166.81 755.498L1173.9 765.177L1164.22 772.271C1163.56 772.761 1163.41 773.699 1163.9 774.368C1164.39 775.036 1165.33 775.18 1166 774.691L1176.89 766.71ZM750.5 471.5C750.5 470.662 751.162 470 752 470V467C749.505 467 747.5 469.005 747.5 471.5H750.5ZM752 470C752.838 470 753.5 470.662 753.5 471.5H756.5C756.5 469.005 754.495 467 752 467V470ZM753.5 471.5C753.5 471.503 753.5 471.506 753.5 471.509L756.5 471.526C756.5 471.517 756.5 471.509 756.5 471.5H753.5ZM753.5 471.509C753.495 472.343 752.835 473 752 473V476C754.486 476 756.486 474.009 756.5 471.526L753.5 471.509ZM752 473C751.162 473 750.5 472.338 750.5 471.5H747.5C747.5 473.995 749.505 476 752 476V473ZM752 473C752.999 473 753.993 473.006 754.982 473.017L755.018 470.018C754.016 470.006 753.011 470 752 470V473ZM754.982 473.017C858.687 474.235 910.789 538.993 963.561 608.147C1016.25 677.198 1069.59 750.621 1175.77 766.983L1176.23 764.017C1071.41 747.867 1018.75 675.526 965.946 606.327C913.219 537.232 860.318 471.254 755.018 470.018L754.982 473.017Z" fill="black"/>
</g>
<g opacity="0.2">
<path d="M752 762.5C750.333 762.5 749 763.833 749 765.5C749 767.167 750.333 768.5 752 768.5C753.667 768.5 755 767.167 755 765.5C755 765.484 755 765.469 755 765.453C754.975 763.809 753.651 762.5 752 762.5Z" fill="black"/>
<path d="M752 764C751.172 764 750.5 764.672 750.5 765.5C750.5 766.328 751.172 767 752 767V764ZM1108.07 278.556C1108.65 277.967 1108.64 277.017 1108.06 276.434L1098.46 266.934C1097.88 266.351 1096.93 266.355 1096.34 266.944C1095.76 267.533 1095.76 268.482 1096.35 269.065L1104.88 277.51L1096.43 286.036C1095.85 286.624 1095.86 287.574 1096.44 288.157C1097.03 288.74 1097.98 288.735 1098.57 288.147L1108.07 278.556ZM750.5 765.5C750.5 764.662 751.162 764 752 764V761C749.505 761 747.5 763.005 747.5 765.5H750.5ZM752 764C752.831 764 753.487 764.65 753.5 765.476L756.499 765.431C756.463 762.967 754.472 761 752 761V764ZM753.5 765.476C753.5 765.484 753.5 765.492 753.5 765.5H756.5C756.5 765.477 756.5 765.454 756.499 765.431L753.5 765.476ZM753.5 765.5C753.5 766.338 752.838 767 752 767V770C754.495 770 756.5 767.995 756.5 765.5H753.5ZM752 767C751.162 767 750.5 766.338 750.5 765.5H747.5C747.5 767.995 749.505 770 752 770V767ZM752 767C753.021 767 754.037 766.984 755.047 766.953L754.953 763.954C753.974 763.985 752.99 764 752 764V767ZM755.047 766.953C799.468 765.563 832.624 733.852 860.088 687.795C887.568 641.711 909.617 580.815 931.664 520.258C953.741 459.617 975.816 399.316 1003.36 354.11C1030.92 308.887 1063.69 279.206 1107.01 279L1106.99 276C1062.07 276.214 1028.52 307.056 1000.8 352.549C973.067 398.061 950.892 458.673 928.845 519.232C906.766 579.876 884.815 640.47 857.512 686.258C830.193 732.072 797.784 762.615 754.953 763.954L755.047 766.953Z" fill="black"/>
</g>
<g opacity="0.2">
<path d="M752 762.5C750.333 762.5 749 763.833 749 765.5C749 767.167 750.333 768.5 752 768.5C753.667 768.5 755 767.167 755 765.5C755 765.494 755 765.488 755 765.482C754.99 763.824 753.661 762.5 752 762.5Z" fill="black"/>
<path d="M752 764C751.172 764 750.5 764.672 750.5 765.5C750.5 766.328 751.172 767 752 767V764ZM1197.06 472.557C1197.65 471.97 1197.64 471.02 1197.06 470.436L1187.48 460.919C1186.89 460.335 1185.95 460.338 1185.36 460.926C1184.78 461.513 1184.78 462.463 1185.37 463.047L1193.88 471.506L1185.42 480.018C1184.84 480.605 1184.84 481.555 1185.43 482.139C1186.01 482.723 1186.96 482.72 1187.55 482.132L1197.06 472.557ZM750.5 765.5C750.5 764.662 751.162 764 752 764V761C749.505 761 747.5 763.005 747.5 765.5H750.5ZM752 764C752.835 764 753.495 764.657 753.5 765.491L756.5 765.473C756.486 762.99 754.486 761 752 761V764ZM753.5 765.491C753.5 765.494 753.5 765.497 753.5 765.5H756.5C756.5 765.491 756.5 765.482 756.5 765.473L753.5 765.491ZM753.5 765.5C753.5 766.338 752.838 767 752 767V770C754.495 770 756.5 767.995 756.5 765.5H753.5ZM752 767C751.162 767 750.5 766.338 750.5 765.5H747.5C747.5 767.995 749.505 770 752 770V767ZM752 767C753.01 767 754.016 766.994 755.018 766.982L754.982 763.982C753.992 763.994 752.999 764 752 764V767ZM755.018 766.982C865.348 765.657 920.76 691.665 975.95 618.661C1031.25 545.511 1086.34 473.334 1196 473L1196 470C1084.67 470.339 1028.76 543.837 973.557 616.852C918.247 690.014 863.656 762.677 754.982 763.982L755.018 766.982Z" fill="black"/>
</g>
<g opacity="0.2">
<path d="M752 762.5C750.333 762.5 749 763.833 749 765.5C749 767.167 750.333 768.5 752 768.5C753.667 768.5 755 767.167 755 765.5C755 763.833 753.667 762.5 752 762.5Z" fill="black"/>
<path d="M752 764C751.172 764 750.5 764.672 750.5 765.5C750.5 766.328 751.172 767 752 767V764ZM1177.06 766.561C1177.65 765.975 1177.65 765.025 1177.06 764.439L1167.51 754.893C1166.93 754.308 1165.98 754.308 1165.39 754.893C1164.81 755.479 1164.81 756.429 1165.39 757.015L1173.88 765.5L1165.39 773.985C1164.81 774.571 1164.81 775.521 1165.39 776.107C1165.98 776.692 1166.93 776.692 1167.51 776.107L1177.06 766.561ZM750.5 765.5C750.5 764.662 751.162 764 752 764V761C749.505 761 747.5 763.005 747.5 765.5H750.5ZM752 764C752.838 764 753.5 764.662 753.5 765.5H756.5C756.5 763.005 754.495 761 752 761V764ZM753.5 765.5C753.5 766.338 752.838 767 752 767V770C754.495 770 756.5 767.995 756.5 765.5H753.5ZM752 767C751.162 767 750.5 766.338 750.5 765.5H747.5C747.5 767.995 749.505 770 752 770V767ZM752 767H755V764H752V767ZM755 767H1176V764H755V767Z" fill="black"/>
</g>
<defs>
<linearGradient id="paint0_linear_14_28" x1="556" y1="569" x2="556" y2="665" gradientUnits="userSpaceOnUse">
<stop stop-opacity="0.12"/>
<stop offset="0.5" stop-opacity="0.16"/>
<stop offset="1" stop-opacity="0.12"/>
</linearGradient>
<linearGradient id="paint1_linear_14_28" x1="556" y1="569" x2="556" y2="665" gradientUnits="userSpaceOnUse">
<stop stop-opacity="0.12"/>
<stop offset="0.5" stop-opacity="0.16"/>
<stop offset="1" stop-opacity="0.12"/>
</linearGradient>
<linearGradient id="paint2_linear_14_28" x1="556" y1="569" x2="556" y2="665" gradientUnits="userSpaceOnUse">
<stop stop-opacity="0.12"/>
<stop offset="0.5" stop-opacity="0.16"/>
<stop offset="1" stop-opacity="0.12"/>
</linearGradient>
<linearGradient id="paint3_linear_14_28" x1="1362" y1="565" x2="1362" y2="661" gradientUnits="userSpaceOnUse">
<stop stop-opacity="0.12"/>
<stop offset="0.5" stop-opacity="0.16"/>
<stop offset="1" stop-opacity="0.12"/>
</linearGradient>
<linearGradient id="paint4_linear_14_28" x1="1362" y1="565" x2="1362" y2="661" gradientUnits="userSpaceOnUse">
<stop stop-opacity="0.12"/>
<stop offset="0.5" stop-opacity="0.16"/>
<stop offset="1" stop-opacity="0.12"/>
</linearGradient>
<linearGradient id="paint5_linear_14_28" x1="1362" y1="565" x2="1362" y2="661" gradientUnits="userSpaceOnUse">
<stop stop-opacity="0.12"/>
<stop offset="0.5" stop-opacity="0.16"/>
<stop offset="1" stop-opacity="0.12"/>
</linearGradient>
</defs>
</svg>
