<svg width="1920" height="1080" viewBox="0 0 1920 1080" fill="none" xmlns="http://www.w3.org/2000/svg">
<rect width="1920" height="1080" rx="100" fill="white"/>
<rect x="923" y="712" width="149" height="107" rx="20" fill="#F2FFFD"/>
<path d="M981.969 759.91V762.441H977.75V779H974.691V762.441H971.633V759.91H974.691V757.309C974.709 754.215 976.766 752.352 980.141 752.352C980.879 752.352 981.758 752.439 982.391 752.562V755.27C981.74 755.164 981.195 755.129 980.809 755.129C978.682 755.129 977.732 756.008 977.75 757.977V759.91H981.969ZM992.551 779.387C987.348 779.404 983.832 775.467 983.832 769.543C983.832 763.584 987.348 759.664 992.551 759.664C997.736 759.664 1001.22 763.584 1001.2 769.543C1001.22 775.467 997.736 779.404 992.551 779.387ZM986.855 769.543C986.873 773.357 988.666 776.715 992.551 776.715C996.4 776.715 998.176 773.357 998.176 769.543C998.176 765.746 996.4 762.336 992.551 762.336C988.666 762.336 986.873 765.746 986.855 769.543ZM1012.98 779.387C1007.77 779.404 1004.26 775.467 1004.26 769.543C1004.26 763.584 1007.77 759.664 1012.98 759.664C1018.16 759.664 1021.64 763.584 1021.62 769.543C1021.64 775.467 1018.16 779.404 1012.98 779.387ZM1007.28 769.543C1007.3 773.357 1009.09 776.715 1012.98 776.715C1016.83 776.715 1018.6 773.357 1018.6 769.543C1018.6 765.746 1016.83 762.336 1012.98 762.336C1009.09 762.336 1007.3 765.746 1007.28 769.543Z" fill="#0D5449"/>
<rect x="923.5" y="712.5" width="148" height="106" rx="19.5" stroke="#00705E" stroke-opacity="0.2"/>
<rect x="1304" y="597" width="150" height="107" rx="20" fill="#F2FFFD"/>
<path d="M1354.81 664V638.547H1357.84V647.934H1358.08C1358.73 646.914 1359.88 644.664 1363.6 644.664C1368.38 644.664 1371.74 648.461 1371.76 654.508C1371.74 660.572 1368.38 664.404 1363.64 664.387C1359.98 664.404 1358.73 662.137 1358.08 661.082H1357.73V664H1354.81ZM1357.77 654.438C1357.77 658.727 1359.7 661.68 1363.18 661.68C1366.82 661.68 1368.68 658.498 1368.7 654.438C1368.68 650.447 1366.87 647.371 1363.18 647.371C1359.66 647.371 1357.77 650.201 1357.77 654.438ZM1374.78 658.586C1374.78 654.209 1378.65 653.207 1381.95 652.961C1383.18 652.873 1386.26 652.697 1387.12 652.68V651.133C1387.12 648.707 1385.68 647.301 1382.8 647.301C1380.39 647.301 1378.93 648.408 1378.51 649.867H1375.34C1375.73 646.791 1378.72 644.664 1382.94 644.664C1385.43 644.664 1390.13 645.402 1390.11 651.414V664H1387.12V661.398H1386.98C1386.35 662.682 1384.61 664.439 1381.29 664.457C1377.66 664.439 1374.78 662.312 1374.78 658.586ZM1377.8 658.727C1377.82 660.748 1379.49 661.768 1381.81 661.75C1385.22 661.768 1387.12 659.482 1387.12 657.074V655.158C1386.22 655.211 1383.22 655.439 1382.3 655.492C1379.56 655.668 1377.82 656.635 1377.8 658.727ZM1394.96 664V644.91H1397.88V647.828H1398.09C1398.78 645.895 1400.76 644.611 1403.01 644.594C1403.47 644.611 1404.24 644.629 1404.59 644.664V647.723C1404.37 647.67 1403.56 647.512 1402.77 647.512C1400.02 647.512 1397.98 649.41 1397.98 651.977V664H1394.96Z" fill="#0D5449"/>
<rect x="1304.5" y="597.5" width="149" height="106" rx="19.5" stroke="#00705E" stroke-opacity="0.2"/>
<rect x="465" y="486" width="290" height="107" rx="20" fill="#F3F2FF"/>
<path d="M515.426 553V533.91H518.449V553H515.426ZM514.828 528.742C514.811 527.617 515.777 526.721 516.938 526.738C518.098 526.721 519.064 527.617 519.082 528.742C519.064 529.85 518.098 530.746 516.938 530.746C515.777 530.746 514.811 529.85 514.828 528.742ZM526.289 541.539V553H523.266V533.91H526.184V536.898H526.43C527.326 534.947 529.119 533.664 532.02 533.664C535.887 533.664 538.471 536.02 538.453 540.871V553H535.43V541.082C535.43 538.129 533.812 536.371 531.105 536.371C528.328 536.371 526.289 538.234 526.289 541.539ZM550.512 553.387C545.748 553.404 542.391 549.572 542.391 543.508C542.391 537.461 545.748 533.664 550.547 533.664C554.256 533.664 555.416 535.914 556.066 536.934H556.277V527.547H559.336V553H556.383V550.082H556.066C555.398 551.137 554.15 553.404 550.512 553.387ZM545.449 543.438C545.449 547.498 547.312 550.68 550.934 550.68C554.432 550.68 556.365 547.727 556.383 543.438C556.365 539.201 554.484 536.371 550.934 536.371C547.26 536.371 545.449 539.447 545.449 543.438ZM572.59 553.387C567.07 553.404 563.66 549.467 563.66 543.613C563.66 537.742 567.123 533.664 572.309 533.664C576.316 533.664 580.553 536.125 580.535 543.191V544.457H566.684C566.842 548.5 569.197 550.715 572.59 550.715C574.875 550.715 576.316 549.713 577.02 548.535H580.254C579.357 551.436 576.527 553.404 572.59 553.387ZM566.701 541.891H577.477C577.459 538.709 575.455 536.336 572.309 536.336C569.004 536.336 566.912 538.938 566.701 541.891ZM586.266 533.91L590.766 541.68L595.301 533.91H598.781L592.629 543.438L598.781 553H595.336L590.766 545.617L586.266 553H582.785L588.797 543.438L582.785 533.91H586.266ZM604.582 553.211C603.352 553.193 602.297 552.174 602.332 550.926C602.297 549.695 603.352 548.676 604.582 548.676C605.83 548.676 606.85 549.695 606.832 550.926C606.85 552.174 605.83 553.193 604.582 553.211ZM619.91 533.91V536.441H615.902V547.516C615.885 549.959 617.115 550.363 618.398 550.363C618.943 550.363 619.752 550.311 620.191 550.293V553.105C619.717 553.176 618.979 553.246 618.082 553.246C615.533 553.246 612.861 551.664 612.844 548.289V536.441H609.961V533.91H612.844V529.34H615.902V533.91H619.91ZM631.617 553.387C626.098 553.404 622.688 549.467 622.688 543.613C622.688 537.742 626.15 533.664 631.336 533.664C635.344 533.664 639.58 536.125 639.562 543.191V544.457H625.711C625.869 548.5 628.225 550.715 631.617 550.715C633.902 550.715 635.344 549.713 636.047 548.535H639.281C638.385 551.436 635.555 553.404 631.617 553.387ZM625.729 541.891H636.504C636.486 538.709 634.482 536.336 631.336 536.336C628.031 536.336 625.939 538.938 625.729 541.891ZM654.117 538.867C653.695 537.285 652.482 536.248 650.25 536.23C647.895 536.248 646.225 537.514 646.207 539.113C646.225 540.379 647.244 541.24 649.477 541.785L652.324 542.488C655.734 543.297 657.404 545.002 657.422 547.656C657.404 550.961 654.715 553.404 649.934 553.387C645.645 553.404 643.096 551.488 642.586 548.008H645.75C646.102 549.871 647.455 550.768 649.863 550.75C652.588 550.768 654.293 549.625 654.293 547.832C654.293 546.479 653.326 545.6 651.164 545.09L648.281 544.422C644.959 543.648 643.184 541.838 643.184 539.289C643.184 536.02 646.049 533.664 650.25 533.664C654.205 533.664 656.684 535.773 657.07 538.867H654.117ZM669.691 533.91V536.441H665.684V547.516C665.666 549.959 666.896 550.363 668.18 550.363C668.725 550.363 669.533 550.311 669.973 550.293V553.105C669.498 553.176 668.76 553.246 667.863 553.246C665.314 553.246 662.643 551.664 662.625 548.289V536.441H659.742V533.91H662.625V529.34H665.684V533.91H669.691ZM675.738 553.211C674.508 553.193 673.453 552.174 673.488 550.926C673.453 549.695 674.508 548.676 675.738 548.676C676.986 548.676 678.006 549.695 677.988 550.926C678.006 552.174 676.986 553.193 675.738 553.211ZM682.734 533.91H685.758V554.371C685.758 557.939 683.912 560.154 680.203 560.172C680.01 560.154 679.816 560.154 679.57 560.172V557.359C679.781 557.377 679.957 557.377 680.168 557.359C681.926 557.377 682.717 556.287 682.734 554.371V533.91ZM682.102 528.742C682.084 527.617 683.051 526.721 684.211 526.738C685.371 526.721 686.338 527.617 686.355 528.742C686.338 529.85 685.371 530.746 684.211 530.746C683.051 530.746 682.084 529.85 682.102 528.742ZM701.191 538.867C700.77 537.285 699.557 536.248 697.324 536.23C694.969 536.248 693.299 537.514 693.281 539.113C693.299 540.379 694.318 541.24 696.551 541.785L699.398 542.488C702.809 543.297 704.479 545.002 704.496 547.656C704.479 550.961 701.789 553.404 697.008 553.387C692.719 553.404 690.17 551.488 689.66 548.008H692.824C693.176 549.871 694.529 550.768 696.938 550.75C699.662 550.768 701.367 549.625 701.367 547.832C701.367 546.479 700.4 545.6 698.238 545.09L695.355 544.422C692.033 543.648 690.258 541.838 690.258 539.289C690.258 536.02 693.123 533.664 697.324 533.664C701.279 533.664 703.758 535.773 704.145 538.867H701.191Z" fill="#310070"/>
<rect x="465.5" y="486.5" width="289" height="106" rx="19.5" stroke="#310070" stroke-opacity="0.2"/>
<rect x="476" y="260" width="268" height="107" rx="20" fill="#F3F2FF"/>
<path d="M538.484 319.16V307.91H541.473V327H538.484V323.766H538.273C537.377 325.699 535.479 327.246 532.613 327.246C528.992 327.246 526.408 324.891 526.426 320.039V307.91H529.449V319.828C529.449 322.57 531.154 324.346 533.598 324.328C535.76 324.346 538.467 322.729 538.484 319.16ZM554.656 307.91V310.441H550.648V321.516C550.631 323.959 551.861 324.363 553.145 324.363C553.689 324.363 554.498 324.311 554.938 324.293V327.105C554.463 327.176 553.725 327.246 552.828 327.246C550.279 327.246 547.607 325.664 547.59 322.289V310.441H544.707V307.91H547.59V303.34H550.648V307.91H554.656ZM558.559 327V307.91H561.582V327H558.559ZM557.961 302.742C557.943 301.617 558.91 300.721 560.07 300.738C561.23 300.721 562.197 301.617 562.215 302.742C562.197 303.85 561.23 304.746 560.07 304.746C558.91 304.746 557.943 303.85 557.961 302.742ZM569.422 301.547V327H566.398V301.547H569.422ZM584.855 312.867C584.434 311.285 583.221 310.248 580.988 310.23C578.633 310.248 576.963 311.514 576.945 313.113C576.963 314.379 577.982 315.24 580.215 315.785L583.062 316.488C586.473 317.297 588.143 319.002 588.16 321.656C588.143 324.961 585.453 327.404 580.672 327.387C576.383 327.404 573.834 325.488 573.324 322.008H576.488C576.84 323.871 578.193 324.768 580.602 324.75C583.326 324.768 585.031 323.625 585.031 321.832C585.031 320.479 584.064 319.6 581.902 319.09L579.02 318.422C575.697 317.648 573.922 315.838 573.922 313.289C573.922 310.02 576.787 307.664 580.988 307.664C584.943 307.664 587.422 309.773 587.809 312.867H584.855ZM594.242 327.211C593.012 327.193 591.957 326.174 591.992 324.926C591.957 323.695 593.012 322.676 594.242 322.676C595.49 322.676 596.51 323.695 596.492 324.926C596.51 326.174 595.49 327.193 594.242 327.211ZM609.57 307.91V310.441H605.562V321.516C605.545 323.959 606.775 324.363 608.059 324.363C608.604 324.363 609.412 324.311 609.852 324.293V327.105C609.377 327.176 608.639 327.246 607.742 327.246C605.193 327.246 602.521 325.664 602.504 322.289V310.441H599.621V307.91H602.504V303.34H605.562V307.91H609.57ZM621.277 327.387C615.758 327.404 612.348 323.467 612.348 317.613C612.348 311.742 615.811 307.664 620.996 307.664C625.004 307.664 629.24 310.125 629.223 317.191V318.457H615.371C615.529 322.5 617.885 324.715 621.277 324.715C623.562 324.715 625.004 323.713 625.707 322.535H628.941C628.045 325.436 625.215 327.404 621.277 327.387ZM615.389 315.891H626.164C626.146 312.709 624.143 310.336 620.996 310.336C617.691 310.336 615.6 312.938 615.389 315.891ZM643.777 312.867C643.355 311.285 642.143 310.248 639.91 310.23C637.555 310.248 635.885 311.514 635.867 313.113C635.885 314.379 636.904 315.24 639.137 315.785L641.984 316.488C645.395 317.297 647.064 319.002 647.082 321.656C647.064 324.961 644.375 327.404 639.594 327.387C635.305 327.404 632.756 325.488 632.246 322.008H635.41C635.762 323.871 637.115 324.768 639.523 324.75C642.248 324.768 643.953 323.625 643.953 321.832C643.953 320.479 642.986 319.6 640.824 319.09L637.941 318.422C634.619 317.648 632.844 315.838 632.844 313.289C632.844 310.02 635.709 307.664 639.91 307.664C643.865 307.664 646.344 309.773 646.73 312.867H643.777ZM659.352 307.91V310.441H655.344V321.516C655.326 323.959 656.557 324.363 657.84 324.363C658.385 324.363 659.193 324.311 659.633 324.293V327.105C659.158 327.176 658.42 327.246 657.523 327.246C654.975 327.246 652.303 325.664 652.285 322.289V310.441H649.402V307.91H652.285V303.34H655.344V307.91H659.352ZM665.398 327.211C664.168 327.193 663.113 326.174 663.148 324.926C663.113 323.695 664.168 322.676 665.398 322.676C666.646 322.676 667.666 323.695 667.648 324.926C667.666 326.174 666.646 327.193 665.398 327.211ZM672.395 307.91H675.418V328.371C675.418 331.939 673.572 334.154 669.863 334.172C669.67 334.154 669.477 334.154 669.23 334.172V331.359C669.441 331.377 669.617 331.377 669.828 331.359C671.586 331.377 672.377 330.287 672.395 328.371V307.91ZM671.762 302.742C671.744 301.617 672.711 300.721 673.871 300.738C675.031 300.721 675.998 301.617 676.016 302.742C675.998 303.85 675.031 304.746 673.871 304.746C672.711 304.746 671.744 303.85 671.762 302.742ZM690.852 312.867C690.43 311.285 689.217 310.248 686.984 310.23C684.629 310.248 682.959 311.514 682.941 313.113C682.959 314.379 683.979 315.24 686.211 315.785L689.059 316.488C692.469 317.297 694.139 319.002 694.156 321.656C694.139 324.961 691.449 327.404 686.668 327.387C682.379 327.404 679.83 325.488 679.32 322.008H682.484C682.836 323.871 684.189 324.768 686.598 324.75C689.322 324.768 691.027 323.625 691.027 321.832C691.027 320.479 690.061 319.6 687.898 319.09L685.016 318.422C681.693 317.648 679.918 315.838 679.918 313.289C679.918 310.02 682.783 307.664 686.984 307.664C690.939 307.664 693.418 309.773 693.805 312.867H690.852Z" fill="#310070"/>
<rect x="476.5" y="260.5" width="267" height="106" rx="19.5" stroke="#310070" stroke-opacity="0.2"/>
<rect x="889" y="486" width="218" height="107" rx="20" fill="#F2FFFD"/>
<path d="M939.426 553V533.91H942.449V553H939.426ZM938.828 528.742C938.811 527.617 939.777 526.721 940.938 526.738C942.098 526.721 943.064 527.617 943.082 528.742C943.064 529.85 942.098 530.746 940.938 530.746C939.777 530.746 938.811 529.85 938.828 528.742ZM950.289 541.539V553H947.266V533.91H950.184V536.898H950.43C951.326 534.947 953.119 533.664 956.02 533.664C959.887 533.664 962.471 536.02 962.453 540.871V553H959.43V541.082C959.43 538.129 957.812 536.371 955.105 536.371C952.328 536.371 950.289 538.234 950.289 541.539ZM974.512 553.387C969.748 553.404 966.391 549.572 966.391 543.508C966.391 537.461 969.748 533.664 974.547 533.664C978.256 533.664 979.416 535.914 980.066 536.934H980.277V527.547H983.336V553H980.383V550.082H980.066C979.398 551.137 978.15 553.404 974.512 553.387ZM969.449 543.438C969.449 547.498 971.312 550.68 974.934 550.68C978.432 550.68 980.365 547.727 980.383 543.438C980.365 539.201 978.484 536.371 974.934 536.371C971.26 536.371 969.449 539.447 969.449 543.438ZM996.59 553.387C991.07 553.404 987.66 549.467 987.66 543.613C987.66 537.742 991.123 533.664 996.309 533.664C1000.32 533.664 1004.55 536.125 1004.54 543.191V544.457H990.684C990.842 548.5 993.197 550.715 996.59 550.715C998.875 550.715 1000.32 549.713 1001.02 548.535H1004.25C1003.36 551.436 1000.53 553.404 996.59 553.387ZM990.701 541.891H1001.48C1001.46 538.709 999.455 536.336 996.309 536.336C993.004 536.336 990.912 538.938 990.701 541.891ZM1010.27 533.91L1014.77 541.68L1019.3 533.91H1022.78L1016.63 543.438L1022.78 553H1019.34L1014.77 545.617L1010.27 553H1006.79L1012.8 543.438L1006.79 533.91H1010.27ZM1028.58 553.211C1027.35 553.193 1026.3 552.174 1026.33 550.926C1026.3 549.695 1027.35 548.676 1028.58 548.676C1029.83 548.676 1030.85 549.695 1030.83 550.926C1030.85 552.174 1029.83 553.193 1028.58 553.211ZM1035.58 533.91H1038.6V554.371C1038.6 557.939 1036.76 560.154 1033.05 560.172C1032.85 560.154 1032.66 560.154 1032.41 560.172V557.359C1032.62 557.377 1032.8 557.377 1033.01 557.359C1034.77 557.377 1035.56 556.287 1035.58 554.371V533.91ZM1034.95 528.742C1034.93 527.617 1035.89 526.721 1037.05 526.738C1038.21 526.721 1039.18 527.617 1039.2 528.742C1039.18 529.85 1038.21 530.746 1037.05 530.746C1035.89 530.746 1034.93 529.85 1034.95 528.742ZM1054.04 538.867C1053.61 537.285 1052.4 536.248 1050.17 536.23C1047.81 536.248 1046.14 537.514 1046.12 539.113C1046.14 540.379 1047.16 541.24 1049.39 541.785L1052.24 542.488C1055.65 543.297 1057.32 545.002 1057.34 547.656C1057.32 550.961 1054.63 553.404 1049.85 553.387C1045.56 553.404 1043.01 551.488 1042.5 548.008H1045.67C1046.02 549.871 1047.37 550.768 1049.78 550.75C1052.51 550.768 1054.21 549.625 1054.21 547.832C1054.21 546.479 1053.24 545.6 1051.08 545.09L1048.2 544.422C1044.88 543.648 1043.1 541.838 1043.1 539.289C1043.1 536.02 1045.97 533.664 1050.17 533.664C1054.12 533.664 1056.6 535.773 1056.99 538.867H1054.04Z" fill="#0D5449"/>
<rect x="889.5" y="486.5" width="217" height="106" rx="19.5" stroke="#00705E" stroke-opacity="0.2"/>
<rect x="899.5" y="260" width="197" height="107" rx="20" fill="#F2FFFD"/>
<path d="M961.984 319.16V307.91H964.973V327H961.984V323.766H961.773C960.877 325.699 958.979 327.246 956.113 327.246C952.492 327.246 949.908 324.891 949.926 320.039V307.91H952.949V319.828C952.949 322.57 954.654 324.346 957.098 324.328C959.26 324.346 961.967 322.729 961.984 319.16ZM978.156 307.91V310.441H974.148V321.516C974.131 323.959 975.361 324.363 976.645 324.363C977.189 324.363 977.998 324.311 978.438 324.293V327.105C977.963 327.176 977.225 327.246 976.328 327.246C973.779 327.246 971.107 325.664 971.09 322.289V310.441H968.207V307.91H971.09V303.34H974.148V307.91H978.156ZM982.059 327V307.91H985.082V327H982.059ZM981.461 302.742C981.443 301.617 982.41 300.721 983.57 300.738C984.73 300.721 985.697 301.617 985.715 302.742C985.697 303.85 984.73 304.746 983.57 304.746C982.41 304.746 981.443 303.85 981.461 302.742ZM992.922 301.547V327H989.898V301.547H992.922ZM1008.36 312.867C1007.93 311.285 1006.72 310.248 1004.49 310.23C1002.13 310.248 1000.46 311.514 1000.45 313.113C1000.46 314.379 1001.48 315.24 1003.71 315.785L1006.56 316.488C1009.97 317.297 1011.64 319.002 1011.66 321.656C1011.64 324.961 1008.95 327.404 1004.17 327.387C999.883 327.404 997.334 325.488 996.824 322.008H999.988C1000.34 323.871 1001.69 324.768 1004.1 324.75C1006.83 324.768 1008.53 323.625 1008.53 321.832C1008.53 320.479 1007.56 319.6 1005.4 319.09L1002.52 318.422C999.197 317.648 997.422 315.838 997.422 313.289C997.422 310.02 1000.29 307.664 1004.49 307.664C1008.44 307.664 1010.92 309.773 1011.31 312.867H1008.36ZM1017.74 327.211C1016.51 327.193 1015.46 326.174 1015.49 324.926C1015.46 323.695 1016.51 322.676 1017.74 322.676C1018.99 322.676 1020.01 323.695 1019.99 324.926C1020.01 326.174 1018.99 327.193 1017.74 327.211ZM1024.74 307.91H1027.76V328.371C1027.76 331.939 1025.92 334.154 1022.21 334.172C1022.01 334.154 1021.82 334.154 1021.57 334.172V331.359C1021.79 331.377 1021.96 331.377 1022.17 331.359C1023.93 331.377 1024.72 330.287 1024.74 328.371V307.91ZM1024.11 302.742C1024.09 301.617 1025.05 300.721 1026.21 300.738C1027.38 300.721 1028.34 301.617 1028.36 302.742C1028.34 303.85 1027.38 304.746 1026.21 304.746C1025.05 304.746 1024.09 303.85 1024.11 302.742ZM1043.2 312.867C1042.77 311.285 1041.56 310.248 1039.33 310.23C1036.97 310.248 1035.3 311.514 1035.29 313.113C1035.3 314.379 1036.32 315.24 1038.55 315.785L1041.4 316.488C1044.81 317.297 1046.48 319.002 1046.5 321.656C1046.48 324.961 1043.79 327.404 1039.01 327.387C1034.72 327.404 1032.17 325.488 1031.66 322.008H1034.83C1035.18 323.871 1036.53 324.768 1038.94 324.75C1041.67 324.768 1043.37 323.625 1043.37 321.832C1043.37 320.479 1042.4 319.6 1040.24 319.09L1037.36 318.422C1034.04 317.648 1032.26 315.838 1032.26 313.289C1032.26 310.02 1035.13 307.664 1039.33 307.664C1043.28 307.664 1045.76 309.773 1046.15 312.867H1043.2Z" fill="#0D5449"/>
<rect x="900" y="260.5" width="196" height="106" rx="19.5" stroke="#00705E" stroke-opacity="0.2"/>
<g opacity="0.2">
<path d="M1072 784C1070.33 784 1069 785.333 1069 787C1069 788.667 1070.33 790 1072 790C1073.67 790 1075 788.667 1075 787C1075 786.991 1075 786.983 1075 786.974C1074.99 785.32 1073.66 784 1072 784Z" fill="black"/>
<path d="M1072 785.5C1071.17 785.5 1070.5 786.172 1070.5 787C1070.5 787.828 1071.17 788.5 1072 788.5V785.5ZM1305.07 673.049C1305.65 672.456 1305.64 671.507 1305.05 670.928L1295.4 661.489C1294.8 660.909 1293.86 660.92 1293.28 661.512C1292.7 662.105 1292.71 663.054 1293.3 663.633L1301.88 672.024L1293.49 680.603C1292.91 681.195 1292.92 682.145 1293.51 682.724C1294.1 683.303 1295.05 683.293 1295.63 682.701L1305.07 673.049ZM1070.5 787C1070.5 786.162 1071.16 785.5 1072 785.5V782.5C1069.5 782.5 1067.5 784.505 1067.5 787H1070.5ZM1072 785.5C1072.83 785.5 1073.49 786.155 1073.5 786.987L1076.5 786.962C1076.48 784.484 1074.48 782.5 1072 782.5V785.5ZM1073.5 786.987C1073.5 786.991 1073.5 786.996 1073.5 787H1076.5C1076.5 786.987 1076.5 786.975 1076.5 786.962L1073.5 786.987ZM1073.5 787C1073.5 787.838 1072.84 788.5 1072 788.5V791.5C1074.5 791.5 1076.5 789.495 1076.5 787H1073.5ZM1072 788.5C1071.16 788.5 1070.5 787.838 1070.5 787H1067.5C1067.5 789.495 1069.5 791.5 1072 791.5V788.5ZM1072 788.5C1073.02 788.5 1074.03 788.491 1075.03 788.474L1074.97 785.475C1073.99 785.491 1073 785.5 1072 785.5V788.5ZM1075.03 788.474C1132.17 787.491 1161.05 758.656 1189.81 730.307C1218.54 701.991 1247.16 674.134 1304.02 673.5L1303.98 670.5C1245.85 671.148 1216.48 699.807 1187.7 728.171C1158.96 756.503 1130.84 784.514 1074.97 785.475L1075.03 788.474Z" fill="black"/>
</g>
<g opacity="0.2">
<path d="M1301 650.966C1301 650.977 1301 650.989 1301 651C1301 652.667 1302.33 654 1304 654C1305.67 654 1307 652.667 1307 651C1307 649.333 1305.67 648 1304 648C1302.34 648 1301.02 649.315 1301 650.966Z" fill="black"/>
<path d="M1304 652.5C1304.83 652.5 1305.5 651.828 1305.5 651C1305.5 650.172 1304.83 649.5 1304 649.5V652.5ZM1105.96 538.923C1105.36 539.5 1105.35 540.449 1105.92 541.044L1115.32 550.737C1115.9 551.331 1116.85 551.346 1117.44 550.769C1118.04 550.193 1118.05 549.243 1117.47 548.648L1109.12 540.033L1117.74 531.68C1118.33 531.103 1118.35 530.153 1117.77 529.559C1117.19 528.964 1116.24 528.949 1115.65 529.526L1105.96 538.923ZM1302.5 651C1302.5 650.994 1302.5 650.988 1302.5 650.982L1299.5 650.95C1299.5 650.966 1299.5 650.983 1299.5 651H1302.5ZM1302.5 650.982C1302.51 650.153 1303.17 649.5 1304 649.5V646.5C1301.52 646.5 1299.53 648.477 1299.5 650.949L1302.5 650.982ZM1304 649.5C1304.84 649.5 1305.5 650.162 1305.5 651H1308.5C1308.5 648.505 1306.5 646.5 1304 646.5V649.5ZM1305.5 651C1305.5 651.838 1304.84 652.5 1304 652.5V655.5C1306.5 655.5 1308.5 653.495 1308.5 651H1305.5ZM1304 652.5C1303.16 652.5 1302.5 651.838 1302.5 651H1299.5C1299.5 653.495 1301.5 655.5 1304 655.5V652.5ZM1304 649.5C1303 649.5 1302.01 649.489 1301.03 649.466L1300.97 652.465C1301.97 652.488 1302.98 652.5 1304 652.5V649.5ZM1301.03 649.466C1253.99 648.383 1230.26 621.525 1205.86 594.224C1181.49 566.949 1156.48 539.265 1107.02 538.5L1106.98 541.5C1155.01 542.242 1179.25 568.941 1203.62 596.223C1227.98 623.477 1252.5 651.349 1300.97 652.465L1301.03 649.466Z" fill="black"/>
</g>
<g opacity="0.2">
<path d="M998 590C996.333 590 995 591.333 995 593C995 594.667 996.333 596 998 596C998 596 998 596 998 596C999.667 596 1001 594.667 1001 593C1001 591.333 999.667 590 998 590Z" fill="black"/>
<path d="M999.5 593C999.5 592.172 998.828 591.5 998 591.5C997.172 591.5 996.5 592.172 996.5 593H999.5ZM996.438 713.06C997.024 713.646 997.973 713.647 998.56 713.062L1008.11 703.525C1008.7 702.939 1008.7 701.99 1008.12 701.403C1007.53 700.817 1006.58 700.816 1006 701.401L997.502 709.879L989.025 701.385C988.439 700.799 987.49 700.798 986.903 701.383C986.317 701.969 986.316 702.918 986.901 703.505L996.438 713.06ZM996.5 593C996.5 592.162 997.162 591.5 998 591.5V588.5C995.505 588.5 993.5 590.505 993.5 593H996.5ZM998 591.5C998.838 591.5 999.5 592.162 999.5 593H1002.5C1002.5 590.505 1000.5 588.5 998 588.5V591.5ZM999.5 593C999.5 593.838 998.838 594.5 998 594.5V597.5C1000.5 597.5 1002.5 595.495 1002.5 593H999.5ZM998 594.5C998 594.5 998 594.5 998 594.5C998 594.5 998 594.5 998 594.5C998 594.5 998 594.5 998 594.5C998 594.5 998 594.5 998 594.5C998 594.5 998 594.5 998 594.5C998 594.5 998 594.5 998 594.5C998 594.5 998 594.5 998 594.5C998 594.5 998 594.5 998 594.5C998 594.5 998 594.5 998 594.5C998 594.5 998 594.5 998 594.5C998 594.5 998 594.5 998 594.5C998 594.5 998 594.5 998 594.5C998 594.5 998 594.5 998 594.5C998 594.5 998 594.5 998 594.5C998 594.5 998 594.5 998 594.5C998 594.5 998 594.5 998 594.5C998 594.5 998 594.5 998 594.5C998 594.5 998 594.5 998 594.5C998 594.5 998 594.5 998 594.5C998 594.5 998 594.5 998 594.5C998 594.5 998 594.5 998 594.5C998 594.5 998 594.5 998 594.5C998 594.5 998 594.5 998 594.5C998 594.5 998 594.5 998 594.5C998 594.5 998 594.5 998 594.5C998 594.5 998 594.5 998 594.5C998 594.5 998 594.5 998 594.5C998 594.5 998 594.5 998 594.5C998 594.5 998 594.5 998 594.5C998 594.5 998 594.5 998 594.5C998 594.5 998 594.5 998 594.5C998 594.5 998 594.5 998 594.5C998 594.5 998 594.5 998 594.5C998 594.5 998 594.5 998 594.5C998 594.5 998 594.5 998 594.5C998 594.5 998 594.5 998 594.5C998 594.5 998 594.5 998 594.5C998 594.5 998 594.5 998 594.5C998 594.5 998 594.5 998 594.5C998 594.5 998 594.5 998 594.5C998 594.5 998 594.5 998 594.5C998 594.5 998 594.5 998 594.5C998 594.5 998 594.5 998 594.5C998 594.5 998 594.5 998 594.5C998 594.5 998 594.5 998 594.5C998 594.5 998 594.5 998 594.5C998 594.5 998 594.5 998 594.5C998 594.5 998 594.5 998 594.5C998 594.5 998 594.5 998 594.5C998 594.5 998 594.5 998 594.5C998 594.5 998 594.5 998 594.5C998 594.5 998 594.5 998 594.5C998 594.5 998 594.5 998 594.5C998 594.5 998 594.5 998 594.5C998 594.5 998 594.5 998 594.5C998 594.5 998 594.5 998 594.5C998 594.5 998 594.5 998 594.5C998 594.5 998 594.5 998 594.5C998 594.5 998 594.5 998 594.5C998 594.5 998 594.5 998 594.5C998 594.5 998 594.5 998 594.5C998 594.5 998 594.5 998 594.5C998 594.5 998 594.5 998 594.5C998 594.5 998 594.5 998 594.5C998 594.5 998 594.5 998 594.5C998 594.5 998 594.5 998 594.5C998 594.5 998 594.5 998 594.5C998 594.5 998 594.5 998 594.5C998 594.5 998 594.5 998 594.5C998 594.5 998 594.5 998 594.5C998 594.5 998 594.5 998 594.5C998 594.5 998 594.5 998 594.5C998 594.5 998 594.5 998 594.5C998 594.5 998 594.5 998 594.5C998 594.5 998 594.5 998 594.5C998 594.5 998 594.5 998 594.5C998 594.5 998 594.5 998 594.5C998 594.5 998 594.5 998 594.5C998 594.5 998 594.5 998 594.5C998 594.5 998 594.5 998 594.5C998 594.5 998 594.5 998 594.5C998 594.5 998 594.5 998 594.5C998 594.5 998 594.5 998 594.5C998 594.5 998 594.5 998 594.5C998 594.5 998 594.5 998 594.5C998 594.5 998 594.5 998 594.5C998 594.5 998 594.5 998 594.5C998 594.5 998 594.5 998 594.5C998 594.5 998 594.5 998 594.5C998 594.5 998 594.5 998 594.5C998 594.5 998 594.5 998 594.5C998 594.5 998 594.5 998 594.5C998 594.5 998 594.5 998 594.5C998 594.5 998 594.5 998 594.5C998 594.5 998 594.5 998 594.5C998 594.5 998 594.5 998 594.5C998 594.5 998 594.5 998 594.5C998 594.5 998 594.5 998 594.5C998 594.5 998 594.5 998 594.5C998 594.5 998 594.5 998 594.5C998 594.5 998 594.5 998 594.5C998 594.5 998 594.5 998 594.5C998 594.5 998 594.5 998 594.5C998 594.5 998 594.5 998 594.5C998 594.5 998 594.5 998 594.5C998 594.5 998 594.5 998 594.5C998 594.5 998 594.5 998 594.5C998 594.5 998 594.5 998 594.5C998 594.5 998 594.5 998 594.5C998 594.5 998 594.5 998 594.5C998 594.5 998 594.5 998 594.5C998 594.5 998 594.5 998 594.5C998 594.5 998 594.5 998 594.5C998 594.5 998 594.5 998 594.5C998 594.5 998 594.5 998 594.5C998 594.5 998 594.5 998 594.5C998 594.5 998 594.5 998 594.5C998 594.5 998 594.5 998 594.5C998 594.5 998 594.5 998 594.5C998 594.5 998 594.5 998 594.5C998 594.5 998 594.5 998 594.5C998 594.5 998 594.5 998 594.5C998 594.5 998 594.5 998 594.5C998 594.5 998 594.5 998 594.5C998 594.5 998 594.5 998 594.5C998 594.5 998 594.5 998 594.5C998 594.5 998 594.5 998 594.5C998 594.5 998 594.5 998 594.5C998 594.5 998 594.5 998 594.5C998 594.5 998 594.5 998 594.5C998 594.5 998 594.5 998 594.5C998 594.5 998 594.5 998 594.5C998 594.5 998 594.5 998 594.5C998 594.5 998 594.5 998 594.5C998 594.5 998 594.5 998 594.5C998 594.5 998 594.5 998 594.5C998 594.5 998 594.5 998 594.5C998 594.5 998 594.5 998 594.5C998 594.5 998 594.5 998 594.5C998 594.5 998 594.5 998 594.5C998 594.5 998 594.5 998 594.5C998 594.5 998 594.5 998 594.5C998 594.5 998 594.5 998 594.5C998 594.5 998 594.5 998 594.5C998 594.5 998 594.5 998 594.5C998 594.5 998 594.5 998 594.5C998 594.5 998 594.5 998 594.5C998 594.5 998 594.5 998 594.5C998 594.5 998 594.5 998 594.5C998 594.5 998 594.5 998 594.5C998 594.5 998 594.5 998 594.5C998 594.5 998 594.5 998 594.5C998 594.5 998 594.5 998 594.5C998 594.5 998 594.5 998 594.5C998 594.5 998 594.5 998 594.5C998 594.5 998 594.5 998 594.5C998 594.5 998 594.5 998 594.5C998 594.5 998 594.5 998 594.5C998 594.5 998 594.5 998 594.5C998 594.5 998 594.5 998 594.5C998 594.5 998 594.5 998 594.5C998 594.5 998 594.5 998 594.5C998 594.5 998 594.5 998 594.5C998 594.5 998 594.5 998 594.5C998 594.5 998 594.5 998 594.5C998 594.5 998 594.5 998 594.5C998 594.5 998 594.5 998 594.5C998 594.5 998 594.5 998 594.5C998 594.5 998 594.5 998 594.5C998 594.5 998 594.5 998 594.5C998 594.5 998 594.5 998 594.5C998 594.5 998 594.5 998 594.5C998 594.5 998 594.5 998 594.5C998 594.5 998 594.5 998 594.5C998 594.5 998 594.5 998 594.5C998 594.5 998 594.5 998 594.5C998 594.5 998 594.5 998 594.5C998 594.5 998 594.5 998 594.5C998 594.5 998 594.5 998 594.5C998 594.5 998 594.5 998 594.5C998 594.5 998 594.5 998 594.5C998 594.5 998 594.5 998 594.5C998 594.5 998 594.5 998 594.5C998 594.5 998 594.5 998 594.5C998 594.5 998 594.5 998 594.5C998 594.5 998 594.5 998 594.5C998 594.5 998 594.5 998 594.5C998 594.5 998 594.5 998 594.5C998 594.5 998 594.5 998 594.5C998 594.5 998 594.5 998 594.5C998 594.5 998 594.5 998 594.5C998 594.5 998 594.5 998 594.5C998 594.5 998 594.5 998 594.5C998 594.5 998 594.5 998 594.5C998 594.5 998 594.5 998 594.5C998 594.5 998 594.5 998 594.5C998 594.5 998 594.5 998 594.5C998 594.5 998 594.5 998 594.5C998 594.5 998 594.5 998 594.5C998 594.5 998 594.5 998 594.5C998 594.5 998 594.5 998 594.5C998 594.5 998 594.5 998 594.5C998 594.5 998 594.5 998 594.5C998 594.5 998 594.5 998 594.5C998 594.5 998 594.5 998 594.5C998 594.5 998 594.5 998 594.5C998 594.5 998 594.5 998 594.5C998 594.5 998 594.5 998 594.5C998 594.5 998 594.5 998 594.5C998 594.5 998 594.5 998 594.5C998 594.5 998 594.5 998 594.5C998 594.5 998 594.5 998 594.5C998 594.5 998 594.5 998 594.5C998 594.5 998 594.5 998 594.5C998 594.5 998 594.5 998 594.5C998 594.5 998 594.5 998 594.5C998 594.5 998 594.5 998 594.5C998 594.5 998 594.5 998 594.5C998 594.5 998 594.5 998 594.5C998 594.5 998 594.5 998 594.5C998 594.5 998 594.5 998 594.5C998 594.5 998 594.5 998 594.5C998 594.5 998 594.5 998 594.5C998 594.5 998 594.5 998 594.5C998 594.5 998 594.5 998 594.5C998 594.5 998 594.5 998 594.5C998 594.5 998 594.5 998 594.5C998 594.5 998 594.5 998 594.5C998 594.5 998 594.5 998 594.5C998 594.5 998 594.5 998 594.5C998 594.5 998 594.5 998 594.5C998 594.5 998 594.5 998 594.5C998 594.5 998 594.5 998 594.5C998 594.5 998 594.5 998 594.5C998 594.5 998 594.5 998 594.5C998 594.5 998 594.5 998 594.5C998 594.5 998 594.5 998 594.5C998 594.5 998 594.5 998 594.5C998 594.5 998 594.5 998 594.5C998 594.5 998 594.5 998 594.5C998 594.5 998 594.5 998 594.5C998 594.5 998 594.5 998 594.5C998 594.5 998 594.5 998 594.5C998 594.5 998 594.5 998 594.5C998 594.5 998 594.5 998 594.5C998 594.5 998 594.5 998 594.5C998 594.5 998 594.5 998 594.5C998 594.5 998 594.5 998 594.5C998 594.5 998 594.5 998 594.5C998 594.5 998 594.5 998 594.5C998 594.5 998 594.5 998 594.5C998 594.5 998 594.5 998 594.5C998 594.5 998 594.5 998 594.5C998 594.5 998 594.5 998 594.5C998 594.5 998 594.5 998 594.5C998 594.5 998 594.5 998 594.5C998 594.5 998 594.5 998 594.5C998 594.5 998 594.5 998 594.5C998 594.5 998 594.5 998 594.5C998 594.5 998 594.5 998 594.5C998 594.5 998 594.5 998 594.5C998 594.5 998 594.5 998 594.5C998 594.5 998 594.5 998 594.5C998 594.5 998 594.5 998 594.5C998 594.5 998 594.5 998 594.5C998 594.5 998 594.5 998 594.5C998 594.5 998 594.5 998 594.5C998 594.5 998 594.5 998 594.5C998 594.5 998 594.5 998 594.5C998 594.5 998 594.5 998 594.5C998 594.5 998 594.5 998 594.5C998 594.5 998 594.5 998 594.5C998 594.5 998 594.5 998 594.5C998 594.5 998 594.5 998 594.5C998 594.5 998 594.5 998 594.5C998 594.5 998 594.5 998 594.5C998 594.5 998 594.5 998 594.5C998 594.5 998 594.5 998 594.5C998 594.5 998 594.5 998 594.5C998 594.5 998 594.5 998 594.5C998 594.5 998 594.5 998 594.5C998 594.5 998 594.5 998 594.5C998 594.5 998 594.5 998 594.5C998 594.5 998 594.5 998 594.5C998 594.5 998 594.5 998 594.5C998 594.5 998 594.5 998 594.5C998 594.5 998 594.5 998 594.5C998 594.5 998 594.5 998 594.5C998 594.5 998 594.5 998 594.5C998 594.5 998 594.5 998 594.5C998 594.5 998 594.5 998 594.5C998 594.5 998 594.5 998 594.5C998 594.5 998 594.5 998 594.5C998 594.5 998 594.5 998 594.5C998 594.5 998 594.5 998 594.5C998 594.5 998 594.5 998 594.5C998 594.5 998 594.5 998 594.5C998 594.5 998 594.5 998 594.5C998 594.5 998 594.5 998 594.5C998 594.5 998 594.5 998 594.5C998 594.5 998 594.5 998 594.5C998 594.5 998 594.5 998 594.5C998 594.5 998 594.5 998 594.5C998 594.5 998 594.5 998 594.5C998 594.5 998 594.5 998 594.5C998 594.5 998 594.5 998 594.5C998 594.5 998 594.5 998 594.5C998 594.5 998 594.5 998 594.5C998 594.5 998 594.5 998 594.5C998 594.5 998 594.5 998 594.5C998 594.5 998 594.5 998 594.5C998 594.5 998 594.5 998 594.5C998 594.5 998 594.5 998 594.5C998 594.5 998 594.5 998 594.5C998 594.5 998 594.5 998 594.5C998 594.5 998 594.5 998 594.5C998 594.5 998 594.5 998 594.5C998 594.5 998 594.5 998 594.5C998 594.5 998 594.5 998 594.5C998 594.5 998 594.5 998 594.5C998 594.5 998 594.5 998 594.5C998 594.5 998 594.5 998 594.5C998 594.5 998 594.5 998 594.5C998 594.5 998 594.5 998 594.5C998 594.5 998 594.5 998 594.5C998 594.5 998 594.5 998 594.5C998 594.5 998 594.5 998 594.5C998 594.5 998 594.5 998 594.5C998 594.5 998 594.5 998 594.5C998 594.5 998 594.5 998 594.5C998 594.5 998 594.5 998 594.5C998 594.5 998 594.5 998 594.5C998 594.5 998 594.5 998 594.5C998 594.5 998 594.5 998 594.5C998 594.5 998 594.5 998 594.5C998 594.5 998 594.5 998 594.5C998 594.5 998 594.5 998 594.5C998 594.5 998 594.5 998 594.5C998 594.5 998 594.5 998 594.5C998 594.5 998 594.5 998 594.5C998 594.5 998 594.5 998 594.5C998 594.5 998 594.5 998 594.5C998 594.5 998 594.5 998 594.5C998 594.5 998 594.5 998 594.5C998 594.5 998 594.5 998 594.5C998 594.5 998 594.5 998 594.5C998 594.5 998 594.5 998 594.5C998 594.5 998 594.5 998 594.5C998 594.5 998 594.5 998 594.5C998 594.5 998 594.5 998 594.5C998 594.5 998 594.5 998 594.5C998 594.5 998 594.5 998 594.5C998 594.5 998 594.5 998 594.5C998 594.5 998 594.5 998 594.5C998 594.5 998 594.5 998 594.5C998 594.5 998 594.5 998 594.5C998 594.5 998 594.5 998 594.5C998 594.5 998 594.5 998 594.5C998 594.5 998 594.5 998 594.5C998 594.5 998 594.5 998 594.5C998 594.5 998 594.5 998 594.5C998 594.5 998 594.5 998 594.5C998 594.5 998 594.5 998 594.5C998 594.5 998 594.5 998 594.5C998 594.5 998 594.5 998 594.5C998 594.5 998 594.5 998 594.5C998 594.5 998 594.5 998 594.5C998 594.5 998 594.5 998 594.5C998 594.5 998 594.5 998 594.5C998 594.5 998 594.5 998 594.5C998 594.5 998 594.5 998 594.5C998 594.5 998 594.5 998 594.5C998 594.5 998 594.5 998 594.5C998 594.5 998 594.5 998 594.5C998 594.5 998 594.5 998 594.5C998 594.5 998 594.5 998 594.5C998 594.5 998 594.5 998 594.5C998 594.5 998 594.5 998 594.5C998 594.5 998 594.5 998 594.5C998 594.5 998 594.5 998 594.5C998 594.5 998 594.5 998 594.5C998 594.5 998 594.5 998 594.5C998 594.5 998 594.5 998 594.5C998 594.5 998 594.5 998 594.5C998 594.5 998 594.5 998 594.5C998 594.5 998 594.5 998 594.5C998 594.5 998 594.5 998 594.5C998 594.5 998 594.5 998 594.5C998 594.5 998 594.5 998 594.5C998 594.5 998 594.5 998 594.5C998 594.5 998 594.5 998 594.5C998 594.5 998 594.5 998 594.5C998 594.5 998 594.5 998 594.5C998 594.5 998 594.5 998 594.5C998 594.5 998 594.5 998 594.5C998 594.5 998 594.5 998 594.5C998 594.5 998 594.5 998 594.5C998 594.5 998 594.5 998 594.5C998 594.5 998 594.5 998 594.5C998 594.5 998 594.5 998 594.5C998 594.5 998 594.5 998 594.5C998 594.5 998 594.5 998 594.5C998 594.5 998 594.5 998 594.5C998 594.5 998 594.5 998 594.5C998 594.5 998 594.5 998 594.5C998 594.5 998 594.5 998 594.5C998 594.5 998 594.5 998 594.5C998 594.5 998 594.5 998 594.5C998 594.5 998 594.5 998 594.5C998 594.5 998 594.5 998 594.5C998 594.5 998 594.5 998 594.5C998 594.5 998 594.5 998 594.5C998 594.5 998 594.5 998 594.5C998 594.5 998 594.5 998 594.5C998 594.5 998 594.5 998 594.5C998 594.5 998 594.5 998 594.5C998 594.5 998 594.5 998 594.5C998 594.5 998 594.5 998 594.5C998 594.5 998 594.5 998 594.5C998 594.5 998 594.5 998 594.5C998 594.5 998 594.5 998 594.5C998 594.5 998 594.5 998 594.5C998 594.5 998 594.5 998 594.5C998 594.5 998 594.5 998 594.5C998 594.5 998 594.5 998 594.5C998 594.5 998 594.5 998 594.5C998 594.5 998 594.5 998 594.5C998 594.5 998 594.5 998 594.5C998 594.5 998 594.5 998 594.5C998 594.5 998 594.5 998 594.5C998 594.5 998 594.5 998 594.5C998 594.5 998 594.5 998 594.5C998 594.5 998 594.5 998 594.5C998 594.5 998 594.5 998 594.5C998 594.5 998 594.5 998 594.5C998 594.5 998 594.5 998 594.5C998 594.5 998 594.5 998 594.5C998 594.5 998 594.5 998 594.5C998 594.5 998 594.5 998 594.5C998 594.5 998 594.5 998 594.5C998 594.5 998 594.5 998 594.5C998 594.5 998 594.5 998 594.5C998 594.5 998 594.5 998 594.5C998 594.5 998 594.5 998 594.5C998 594.5 998 594.5 998 594.5C998 594.5 998 594.5 998 594.5C998 594.5 998 594.5 998 594.5C998 594.5 998 594.5 998 594.5C998 594.5 998 594.5 998 594.5C998 594.5 998 594.5 998 594.5C998 594.5 998 594.5 998 594.5C998 594.5 998 594.5 998 594.5C998 594.5 998 594.5 998 594.5C998 594.5 998 594.5 998 594.5C998 594.5 998 594.5 998 594.5C998 594.5 998 594.5 998 594.5C998 594.5 998 594.5 998 594.5C998 594.5 998 594.5 998 594.5C998 594.5 998 594.5 998 594.5C998 594.5 998 594.5 998 594.5C998 594.5 998 594.5 998 594.5C998 594.5 998 594.5 998 594.5C998 594.5 998 594.5 998 594.5C998 594.5 998 594.5 998 594.5C998 594.5 998 594.5 998 594.5C998 594.5 998 594.5 998 594.5C998 594.5 998 594.5 998 594.5C998 594.5 998 594.5 998 594.5C998 594.5 998 594.5 998 594.5C998 594.5 998 594.5 998 594.5C998 594.5 998 594.5 998 594.5C998 594.5 998 594.5 998 594.5C998 594.5 998 594.5 998 594.5C998 594.5 998 594.5 998 594.5C998 594.5 998 594.5 998 594.5C998 594.5 998 594.5 998 594.5C998 594.5 998 594.5 998 594.5C998 594.5 998 594.5 998 594.5C998 594.5 998 594.5 998 594.5C998 594.5 998 594.5 998 594.5C998 594.5 998 594.5 998 594.5C998 594.5 998 594.5 998 594.5C998 594.5 998 594.5 998 594.5C998 594.5 998 594.5 998 594.5C998 594.5 998 594.5 998 594.5C998 594.5 998 594.5 998 594.5C998 594.5 998 594.5 998 594.5C998 594.5 998 594.5 998 594.5C998 594.5 998 594.5 998 594.5C998 594.5 998 594.5 998 594.5C998 594.5 998 594.5 998 594.5C998 594.5 998 594.5 998 594.5C998 594.5 998 594.5 998 594.5C998 594.5 998 594.5 998 594.5C998 594.5 998 594.5 998 594.5C998 594.5 998 594.5 998 594.5C998 594.5 998 594.5 998 594.5C998 594.5 998 594.5 998 594.5C998 594.5 998 594.5 998 594.5C998 594.5 998 594.5 998 594.5C998 594.5 998 594.5 998 594.5C998 594.5 998 594.5 998 594.5C998 594.5 998 594.5 998 594.5C998 594.5 998 594.5 998 594.5C998 594.5 998 594.5 998 594.5C998 594.5 998 594.5 998 594.5C998 594.5 998 594.5 998 594.5C998 594.5 998 594.5 998 594.5C998 594.5 998 594.5 998 594.5C998 594.5 998 594.5 998 594.5C998 594.5 998 594.5 998 594.5C998 594.5 998 594.5 998 594.5V597.5C998 597.5 998 597.5 998 597.5C998 597.5 998 597.5 998 597.5C998 597.5 998 597.5 998 597.5C998 597.5 998 597.5 998 597.5C998 597.5 998 597.5 998 597.5C998 597.5 998 597.5 998 597.5C998 597.5 998 597.5 998 597.5C998 597.5 998 597.5 998 597.5C998 597.5 998 597.5 998 597.5C998 597.5 998 597.5 998 597.5C998 597.5 998 597.5 998 597.5C998 597.5 998 597.5 998 597.5C998 597.5 998 597.5 998 597.5C998 597.5 998 597.5 998 597.5C998 597.5 998 597.5 998 597.5C998 597.5 998 597.5 998 597.5C998 597.5 998 597.5 998 597.5C998 597.5 998 597.5 998 597.5C998 597.5 998 597.5 998 597.5C998 597.5 998 597.5 998 597.5C998 597.5 998 597.5 998 597.5C998 597.5 998 597.5 998 597.5C998 597.5 998 597.5 998 597.5C998 597.5 998 597.5 998 597.5C998 597.5 998 597.5 998 597.5C998 597.5 998 597.5 998 597.5C998 597.5 998 597.5 998 597.5C998 597.5 998 597.5 998 597.5C998 597.5 998 597.5 998 597.5C998 597.5 998 597.5 998 597.5C998 597.5 998 597.5 998 597.5C998 597.5 998 597.5 998 597.5C998 597.5 998 597.5 998 597.5C998 597.5 998 597.5 998 597.5C998 597.5 998 597.5 998 597.5C998 597.5 998 597.5 998 597.5C998 597.5 998 597.5 998 597.5C998 597.5 998 597.5 998 597.5C998 597.5 998 597.5 998 597.5C998 597.5 998 597.5 998 597.5C998 597.5 998 597.5 998 597.5C998 597.5 998 597.5 998 597.5C998 597.5 998 597.5 998 597.5C998 597.5 998 597.5 998 597.5C998 597.5 998 597.5 998 597.5C998 597.5 998 597.5 998 597.5C998 597.5 998 597.5 998 597.5C998 597.5 998 597.5 998 597.5C998 597.5 998 597.5 998 597.5C998 597.5 998 597.5 998 597.5C998 597.5 998 597.5 998 597.5C998 597.5 998 597.5 998 597.5C998 597.5 998 597.5 998 597.5C998 597.5 998 597.5 998 597.5C998 597.5 998 597.5 998 597.5C998 597.5 998 597.5 998 597.5C998 597.5 998 597.5 998 597.5C998 597.5 998 597.5 998 597.5C998 597.5 998 597.5 998 597.5C998 597.5 998 597.5 998 597.5C998 597.5 998 597.5 998 597.5C998 597.5 998 597.5 998 597.5C998 597.5 998 597.5 998 597.5C998 597.5 998 597.5 998 597.5C998 597.5 998 597.5 998 597.5C998 597.5 998 597.5 998 597.5C998 597.5 998 597.5 998 597.5C998 597.5 998 597.5 998 597.5C998 597.5 998 597.5 998 597.5C998 597.5 998 597.5 998 597.5C998 597.5 998 597.5 998 597.5C998 597.5 998 597.5 998 597.5C998 597.5 998 597.5 998 597.5C998 597.5 998 597.5 998 597.5C998 597.5 998 597.5 998 597.5C998 597.5 998 597.5 998 597.5C998 597.5 998 597.5 998 597.5C998 597.5 998 597.5 998 597.5C998 597.5 998 597.5 998 597.5C998 597.5 998 597.5 998 597.5C998 597.5 998 597.5 998 597.5C998 597.5 998 597.5 998 597.5C998 597.5 998 597.5 998 597.5C998 597.5 998 597.5 998 597.5C998 597.5 998 597.5 998 597.5C998 597.5 998 597.5 998 597.5C998 597.5 998 597.5 998 597.5C998 597.5 998 597.5 998 597.5C998 597.5 998 597.5 998 597.5C998 597.5 998 597.5 998 597.5C998 597.5 998 597.5 998 597.5C998 597.5 998 597.5 998 597.5C998 597.5 998 597.5 998 597.5C998 597.5 998 597.5 998 597.5C998 597.5 998 597.5 998 597.5C998 597.5 998 597.5 998 597.5C998 597.5 998 597.5 998 597.5C998 597.5 998 597.5 998 597.5C998 597.5 998 597.5 998 597.5C998 597.5 998 597.5 998 597.5C998 597.5 998 597.5 998 597.5C998 597.5 998 597.5 998 597.5C998 597.5 998 597.5 998 597.5C998 597.5 998 597.5 998 597.5C998 597.5 998 597.5 998 597.5C998 597.5 998 597.5 998 597.5C998 597.5 998 597.5 998 597.5C998 597.5 998 597.5 998 597.5C998 597.5 998 597.5 998 597.5C998 597.5 998 597.5 998 597.5C998 597.5 998 597.5 998 597.5C998 597.5 998 597.5 998 597.5C998 597.5 998 597.5 998 597.5C998 597.5 998 597.5 998 597.5C998 597.5 998 597.5 998 597.5C998 597.5 998 597.5 998 597.5C998 597.5 998 597.5 998 597.5C998 597.5 998 597.5 998 597.5C998 597.5 998 597.5 998 597.5C998 597.5 998 597.5 998 597.5C998 597.5 998 597.5 998 597.5C998 597.5 998 597.5 998 597.5C998 597.5 998 597.5 998 597.5C998 597.5 998 597.5 998 597.5C998 597.5 998 597.5 998 597.5C998 597.5 998 597.5 998 597.5C998 597.5 998 597.5 998 597.5C998 597.5 998 597.5 998 597.5C998 597.5 998 597.5 998 597.5C998 597.5 998 597.5 998 597.5C998 597.5 998 597.5 998 597.5C998 597.5 998 597.5 998 597.5C998 597.5 998 597.5 998 597.5C998 597.5 998 597.5 998 597.5C998 597.5 998 597.5 998 597.5C998 597.5 998 597.5 998 597.5C998 597.5 998 597.5 998 597.5C998 597.5 998 597.5 998 597.5C998 597.5 998 597.5 998 597.5C998 597.5 998 597.5 998 597.5C998 597.5 998 597.5 998 597.5C998 597.5 998 597.5 998 597.5C998 597.5 998 597.5 998 597.5C998 597.5 998 597.5 998 597.5C998 597.5 998 597.5 998 597.5C998 597.5 998 597.5 998 597.5C998 597.5 998 597.5 998 597.5C998 597.5 998 597.5 998 597.5C998 597.5 998 597.5 998 597.5C998 597.5 998 597.5 998 597.5C998 597.5 998 597.5 998 597.5C998 597.5 998 597.5 998 597.5C998 597.5 998 597.5 998 597.5C998 597.5 998 597.5 998 597.5C998 597.5 998 597.5 998 597.5C998 597.5 998 597.5 998 597.5C998 597.5 998 597.5 998 597.5C998 597.5 998 597.5 998 597.5C998 597.5 998 597.5 998 597.5C998 597.5 998 597.5 998 597.5C998 597.5 998 597.5 998 597.5C998 597.5 998 597.5 998 597.5C998 597.5 998 597.5 998 597.5C998 597.5 998 597.5 998 597.5C998 597.5 998 597.5 998 597.5C998 597.5 998 597.5 998 597.5C998 597.5 998 597.5 998 597.5C998 597.5 998 597.5 998 597.5C998 597.5 998 597.5 998 597.5C998 597.5 998 597.5 998 597.5C998 597.5 998 597.5 998 597.5C998 597.5 998 597.5 998 597.5C998 597.5 998 597.5 998 597.5C998 597.5 998 597.5 998 597.5C998 597.5 998 597.5 998 597.5C998 597.5 998 597.5 998 597.5C998 597.5 998 597.5 998 597.5C998 597.5 998 597.5 998 597.5C998 597.5 998 597.5 998 597.5C998 597.5 998 597.5 998 597.5C998 597.5 998 597.5 998 597.5C998 597.5 998 597.5 998 597.5C998 597.5 998 597.5 998 597.5C998 597.5 998 597.5 998 597.5C998 597.5 998 597.5 998 597.5C998 597.5 998 597.5 998 597.5C998 597.5 998 597.5 998 597.5C998 597.5 998 597.5 998 597.5C998 597.5 998 597.5 998 597.5C998 597.5 998 597.5 998 597.5C998 597.5 998 597.5 998 597.5C998 597.5 998 597.5 998 597.5C998 597.5 998 597.5 998 597.5C998 597.5 998 597.5 998 597.5C998 597.5 998 597.5 998 597.5C998 597.5 998 597.5 998 597.5C998 597.5 998 597.5 998 597.5C998 597.5 998 597.5 998 597.5C998 597.5 998 597.5 998 597.5C998 597.5 998 597.5 998 597.5C998 597.5 998 597.5 998 597.5C998 597.5 998 597.5 998 597.5C998 597.5 998 597.5 998 597.5C998 597.5 998 597.5 998 597.5C998 597.5 998 597.5 998 597.5C998 597.5 998 597.5 998 597.5C998 597.5 998 597.5 998 597.5C998 597.5 998 597.5 998 597.5C998 597.5 998 597.5 998 597.5C998 597.5 998 597.5 998 597.5C998 597.5 998 597.5 998 597.5C998 597.5 998 597.5 998 597.5C998 597.5 998 597.5 998 597.5C998 597.5 998 597.5 998 597.5C998 597.5 998 597.5 998 597.5C998 597.5 998 597.5 998 597.5C998 597.5 998 597.5 998 597.5C998 597.5 998 597.5 998 597.5C998 597.5 998 597.5 998 597.5C998 597.5 998 597.5 998 597.5C998 597.5 998 597.5 998 597.5C998 597.5 998 597.5 998 597.5C998 597.5 998 597.5 998 597.5C998 597.5 998 597.5 998 597.5C998 597.5 998 597.5 998 597.5C998 597.5 998 597.5 998 597.5C998 597.5 998 597.5 998 597.5C998 597.5 998 597.5 998 597.5C998 597.5 998 597.5 998 597.5C998 597.5 998 597.5 998 597.5C998 597.5 998 597.5 998 597.5C998 597.5 998 597.5 998 597.5C998 597.5 998 597.5 998 597.5C998 597.5 998 597.5 998 597.5C998 597.5 998 597.5 998 597.5C998 597.5 998 597.5 998 597.5C998 597.5 998 597.5 998 597.5C998 597.5 998 597.5 998 597.5C998 597.5 998 597.5 998 597.5C998 597.5 998 597.5 998 597.5C998 597.5 998 597.5 998 597.5C998 597.5 998 597.5 998 597.5C998 597.5 998 597.5 998 597.5C998 597.5 998 597.5 998 597.5C998 597.5 998 597.5 998 597.5C998 597.5 998 597.5 998 597.5C998 597.5 998 597.5 998 597.5C998 597.5 998 597.5 998 597.5C998 597.5 998 597.5 998 597.5C998 597.5 998 597.5 998 597.5C998 597.5 998 597.5 998 597.5C998 597.5 998 597.5 998 597.5C998 597.5 998 597.5 998 597.5C998 597.5 998 597.5 998 597.5C998 597.5 998 597.5 998 597.5C998 597.5 998 597.5 998 597.5C998 597.5 998 597.5 998 597.5C998 597.5 998 597.5 998 597.5C998 597.5 998 597.5 998 597.5C998 597.5 998 597.5 998 597.5C998 597.5 998 597.5 998 597.5C998 597.5 998 597.5 998 597.5C998 597.5 998 597.5 998 597.5C998 597.5 998 597.5 998 597.5C998 597.5 998 597.5 998 597.5C998 597.5 998 597.5 998 597.5C998 597.5 998 597.5 998 597.5C998 597.5 998 597.5 998 597.5C998 597.5 998 597.5 998 597.5C998 597.5 998 597.5 998 597.5C998 597.5 998 597.5 998 597.5C998 597.5 998 597.5 998 597.5C998 597.5 998 597.5 998 597.5C998 597.5 998 597.5 998 597.5C998 597.5 998 597.5 998 597.5C998 597.5 998 597.5 998 597.5C998 597.5 998 597.5 998 597.5C998 597.5 998 597.5 998 597.5C998 597.5 998 597.5 998 597.5C998 597.5 998 597.5 998 597.5C998 597.5 998 597.5 998 597.5C998 597.5 998 597.5 998 597.5C998 597.5 998 597.5 998 597.5C998 597.5 998 597.5 998 597.5C998 597.5 998 597.5 998 597.5C998 597.5 998 597.5 998 597.5C998 597.5 998 597.5 998 597.5C998 597.5 998 597.5 998 597.5C998 597.5 998 597.5 998 597.5C998 597.5 998 597.5 998 597.5C998 597.5 998 597.5 998 597.5C998 597.5 998 597.5 998 597.5C998 597.5 998 597.5 998 597.5C998 597.5 998 597.5 998 597.5C998 597.5 998 597.5 998 597.5C998 597.5 998 597.5 998 597.5C998 597.5 998 597.5 998 597.5C998 597.5 998 597.5 998 597.5C998 597.5 998 597.5 998 597.5C998 597.5 998 597.5 998 597.5C998 597.5 998 597.5 998 597.5C998 597.5 998 597.5 998 597.5C998 597.5 998 597.5 998 597.5C998 597.5 998 597.5 998 597.5C998 597.5 998 597.5 998 597.5C998 597.5 998 597.5 998 597.5C998 597.5 998 597.5 998 597.5C998 597.5 998 597.5 998 597.5C998 597.5 998 597.5 998 597.5C998 597.5 998 597.5 998 597.5C998 597.5 998 597.5 998 597.5C998 597.5 998 597.5 998 597.5C998 597.5 998 597.5 998 597.5C998 597.5 998 597.5 998 597.5C998 597.5 998 597.5 998 597.5C998 597.5 998 597.5 998 597.5C998 597.5 998 597.5 998 597.5C998 597.5 998 597.5 998 597.5C998 597.5 998 597.5 998 597.5C998 597.5 998 597.5 998 597.5C998 597.5 998 597.5 998 597.5C998 597.5 998 597.5 998 597.5C998 597.5 998 597.5 998 597.5C998 597.5 998 597.5 998 597.5C998 597.5 998 597.5 998 597.5C998 597.5 998 597.5 998 597.5C998 597.5 998 597.5 998 597.5C998 597.5 998 597.5 998 597.5C998 597.5 998 597.5 998 597.5C998 597.5 998 597.5 998 597.5C998 597.5 998 597.5 998 597.5C998 597.5 998 597.5 998 597.5C998 597.5 998 597.5 998 597.5C998 597.5 998 597.5 998 597.5C998 597.5 998 597.5 998 597.5C998 597.5 998 597.5 998 597.5C998 597.5 998 597.5 998 597.5C998 597.5 998 597.5 998 597.5C998 597.5 998 597.5 998 597.5C998 597.5 998 597.5 998 597.5C998 597.5 998 597.5 998 597.5C998 597.5 998 597.5 998 597.5C998 597.5 998 597.5 998 597.5C998 597.5 998 597.5 998 597.5C998 597.5 998 597.5 998 597.5C998 597.5 998 597.5 998 597.5C998 597.5 998 597.5 998 597.5C998 597.5 998 597.5 998 597.5C998 597.5 998 597.5 998 597.5C998 597.5 998 597.5 998 597.5C998 597.5 998 597.5 998 597.5C998 597.5 998 597.5 998 597.5C998 597.5 998 597.5 998 597.5C998 597.5 998 597.5 998 597.5C998 597.5 998 597.5 998 597.5C998 597.5 998 597.5 998 597.5C998 597.5 998 597.5 998 597.5C998 597.5 998 597.5 998 597.5C998 597.5 998 597.5 998 597.5C998 597.5 998 597.5 998 597.5C998 597.5 998 597.5 998 597.5C998 597.5 998 597.5 998 597.5C998 597.5 998 597.5 998 597.5C998 597.5 998 597.5 998 597.5C998 597.5 998 597.5 998 597.5C998 597.5 998 597.5 998 597.5C998 597.5 998 597.5 998 597.5C998 597.5 998 597.5 998 597.5C998 597.5 998 597.5 998 597.5C998 597.5 998 597.5 998 597.5C998 597.5 998 597.5 998 597.5C998 597.5 998 597.5 998 597.5C998 597.5 998 597.5 998 597.5C998 597.5 998 597.5 998 597.5C998 597.5 998 597.5 998 597.5C998 597.5 998 597.5 998 597.5C998 597.5 998 597.5 998 597.5C998 597.5 998 597.5 998 597.5C998 597.5 998 597.5 998 597.5C998 597.5 998 597.5 998 597.5C998 597.5 998 597.5 998 597.5C998 597.5 998 597.5 998 597.5C998 597.5 998 597.5 998 597.5C998 597.5 998 597.5 998 597.5C998 597.5 998 597.5 998 597.5C998 597.5 998 597.5 998 597.5C998 597.5 998 597.5 998 597.5C998 597.5 998 597.5 998 597.5C998 597.5 998 597.5 998 597.5C998 597.5 998 597.5 998 597.5C998 597.5 998 597.5 998 597.5C998 597.5 998 597.5 998 597.5C998 597.5 998 597.5 998 597.5C998 597.5 998 597.5 998 597.5C998 597.5 998 597.5 998 597.5C998 597.5 998 597.5 998 597.5C998 597.5 998 597.5 998 597.5C998 597.5 998 597.5 998 597.5C998 597.5 998 597.5 998 597.5C998 597.5 998 597.5 998 597.5C998 597.5 998 597.5 998 597.5C998 597.5 998 597.5 998 597.5C998 597.5 998 597.5 998 597.5C998 597.5 998 597.5 998 597.5C998 597.5 998 597.5 998 597.5C998 597.5 998 597.5 998 597.5C998 597.5 998 597.5 998 597.5C998 597.5 998 597.5 998 597.5C998 597.5 998 597.5 998 597.5C998 597.5 998 597.5 998 597.5C998 597.5 998 597.5 998 597.5C998 597.5 998 597.5 998 597.5C998 597.5 998 597.5 998 597.5C998 597.5 998 597.5 998 597.5C998 597.5 998 597.5 998 597.5C998 597.5 998 597.5 998 597.5C998 597.5 998 597.5 998 597.5C998 597.5 998 597.5 998 597.5C998 597.5 998 597.5 998 597.5C998 597.5 998 597.5 998 597.5C998 597.5 998 597.5 998 597.5C998 597.5 998 597.5 998 597.5C998 597.5 998 597.5 998 597.5C998 597.5 998 597.5 998 597.5C998 597.5 998 597.5 998 597.5C998 597.5 998 597.5 998 597.5C998 597.5 998 597.5 998 597.5C998 597.5 998 597.5 998 597.5C998 597.5 998 597.5 998 597.5C998 597.5 998 597.5 998 597.5C998 597.5 998 597.5 998 597.5C998 597.5 998 597.5 998 597.5C998 597.5 998 597.5 998 597.5C998 597.5 998 597.5 998 597.5C998 597.5 998 597.5 998 597.5C998 597.5 998 597.5 998 597.5C998 597.5 998 597.5 998 597.5C998 597.5 998 597.5 998 597.5C998 597.5 998 597.5 998 597.5C998 597.5 998 597.5 998 597.5C998 597.5 998 597.5 998 597.5C998 597.5 998 597.5 998 597.5C998 597.5 998 597.5 998 597.5C998 597.5 998 597.5 998 597.5C998 597.5 998 597.5 998 597.5C998 597.5 998 597.5 998 597.5C998 597.5 998 597.5 998 597.5C998 597.5 998 597.5 998 597.5C998 597.5 998 597.5 998 597.5C998 597.5 998 597.5 998 597.5C998 597.5 998 597.5 998 597.5C998 597.5 998 597.5 998 597.5C998 597.5 998 597.5 998 597.5C998 597.5 998 597.5 998 597.5C998 597.5 998 597.5 998 597.5C998 597.5 998 597.5 998 597.5C998 597.5 998 597.5 998 597.5C998 597.5 998 597.5 998 597.5C998 597.5 998 597.5 998 597.5C998 597.5 998 597.5 998 597.5C998 597.5 998 597.5 998 597.5C998 597.5 998 597.5 998 597.5C998 597.5 998 597.5 998 597.5C998 597.5 998 597.5 998 597.5C998 597.5 998 597.5 998 597.5C998 597.5 998 597.5 998 597.5C998 597.5 998 597.5 998 597.5C998 597.5 998 597.5 998 597.5C998 597.5 998 597.5 998 597.5C998 597.5 998 597.5 998 597.5C998 597.5 998 597.5 998 597.5C998 597.5 998 597.5 998 597.5C998 597.5 998 597.5 998 597.5C998 597.5 998 597.5 998 597.5C998 597.5 998 597.5 998 597.5C998 597.5 998 597.5 998 597.5C998 597.5 998 597.5 998 597.5C998 597.5 998 597.5 998 597.5C998 597.5 998 597.5 998 597.5C998 597.5 998 597.5 998 597.5C998 597.5 998 597.5 998 597.5C998 597.5 998 597.5 998 597.5C998 597.5 998 597.5 998 597.5C998 597.5 998 597.5 998 597.5C998 597.5 998 597.5 998 597.5C998 597.5 998 597.5 998 597.5C998 597.5 998 597.5 998 597.5C998 597.5 998 597.5 998 597.5C998 597.5 998 597.5 998 597.5C998 597.5 998 597.5 998 597.5C998 597.5 998 597.5 998 597.5C998 597.5 998 597.5 998 597.5C998 597.5 998 597.5 998 597.5C998 597.5 998 597.5 998 597.5C998 597.5 998 597.5 998 597.5C998 597.5 998 597.5 998 597.5C998 597.5 998 597.5 998 597.5C998 597.5 998 597.5 998 597.5C998 597.5 998 597.5 998 597.5C998 597.5 998 597.5 998 597.5C998 597.5 998 597.5 998 597.5C998 597.5 998 597.5 998 597.5C998 597.5 998 597.5 998 597.5C998 597.5 998 597.5 998 597.5C998 597.5 998 597.5 998 597.5C998 597.5 998 597.5 998 597.5C998 597.5 998 597.5 998 597.5C998 597.5 998 597.5 998 597.5C998 597.5 998 597.5 998 597.5C998 597.5 998 597.5 998 597.5C998 597.5 998 597.5 998 597.5C998 597.5 998 597.5 998 597.5V594.5ZM998 594.5C997.162 594.5 996.5 593.838 996.5 593H993.5C993.5 595.495 995.505 597.5 997.999 597.5L998 594.5ZM996.5 593C996.5 594.017 996.5 595.017 996.5 596L999.5 596C999.5 595.017 999.5 594.017 999.5 593H996.5ZM996.5 596C996.492 624.253 996.381 638.628 996.265 653.251C996.149 667.878 996.027 682.752 996 711.999L999 712.001C999.027 682.765 999.148 667.898 999.265 653.275C999.381 638.648 999.492 624.264 999.5 596L996.5 596Z" fill="black"/>
</g>
<g opacity="0.2">
<path d="M998 483C996.333 483 995 484.333 995 486C995 487.667 996.333 489 998 489C999.667 489 1001 487.667 1001 486C1001 484.333 999.667 483 998 483Z" fill="black"/>
<path d="M996.5 486C996.5 486.828 997.172 487.5 998 487.5C998.828 487.5 999.5 486.828 999.5 486H996.5ZM999.061 365.939C998.475 365.354 997.525 365.354 996.939 365.939L987.393 375.485C986.808 376.071 986.808 377.021 987.393 377.607C987.979 378.192 988.929 378.192 989.515 377.607L998 369.121L1006.49 377.607C1007.07 378.192 1008.02 378.192 1008.61 377.607C1009.19 377.021 1009.19 376.071 1008.61 375.485L999.061 365.939ZM996.5 486C996.5 485.162 997.162 484.5 998 484.5V481.5C995.505 481.5 993.5 483.505 993.5 486H996.5ZM998 484.5C998.838 484.5 999.5 485.162 999.5 486H1002.5C1002.5 483.505 1000.5 481.5 998 481.5V484.5ZM999.5 486C999.5 486.838 998.838 487.5 998 487.5V490.5C1000.5 490.5 1002.5 488.495 1002.5 486H999.5ZM998 487.5C997.162 487.5 996.5 486.838 996.5 486H993.5C993.5 488.495 995.505 490.5 998 490.5V487.5ZM999.5 486V483H996.5V486H999.5ZM999.5 483V367H996.5V483H999.5Z" fill="black"/>
</g>
<g opacity="0.2">
<path d="M755 536.5C753.333 536.5 752 537.833 752 539.5C752 541.167 753.333 542.5 755 542.5C756.667 542.5 758 541.167 758 539.5C758 537.833 756.667 536.5 755 536.5Z" fill="black"/>
<path d="M755 538C754.172 538 753.5 538.672 753.5 539.5C753.5 540.328 754.172 541 755 541V538ZM890.061 540.561C890.646 539.975 890.646 539.025 890.061 538.439L880.515 528.893C879.929 528.308 878.979 528.308 878.393 528.893C877.808 529.479 877.808 530.429 878.393 531.015L886.879 539.5L878.393 547.985C877.808 548.571 877.808 549.521 878.393 550.107C878.979 550.692 879.929 550.692 880.515 550.107L890.061 540.561ZM753.5 539.5C753.5 538.662 754.162 538 755 538V535C752.505 535 750.5 537.005 750.5 539.5H753.5ZM755 538C755.838 538 756.5 538.662 756.5 539.5H759.5C759.5 537.005 757.495 535 755 535V538ZM756.5 539.5C756.5 540.338 755.838 541 755 541V544C757.495 544 759.5 541.995 759.5 539.5H756.5ZM755 541C754.162 541 753.5 540.338 753.5 539.5H750.5C750.5 541.995 752.505 544 755 544V541ZM755 541H758V538H755V541ZM758 541H889V538H758V541Z" fill="black"/>
</g>
<g opacity="0.2">
<path d="M744 310.5C742.333 310.5 741 311.833 741 313.5C741 315.167 742.333 316.5 744 316.5C745.667 316.5 747 315.167 747 313.5C747 311.833 745.667 310.5 744 310.5Z" fill="black"/>
<path d="M744 312C743.172 312 742.5 312.672 742.5 313.5C742.5 314.328 743.172 315 744 315V312ZM900.561 314.561C901.146 313.975 901.146 313.025 900.561 312.439L891.015 302.893C890.429 302.308 889.479 302.308 888.893 302.893C888.308 303.479 888.308 304.429 888.893 305.015L897.379 313.5L888.893 321.985C888.308 322.571 888.308 323.521 888.893 324.107C889.479 324.692 890.429 324.692 891.015 324.107L900.561 314.561ZM742.5 313.5C742.5 312.662 743.162 312 744 312V309C741.505 309 739.5 311.005 739.5 313.5H742.5ZM744 312C744.838 312 745.5 312.662 745.5 313.5H748.5C748.5 311.005 746.495 309 744 309V312ZM745.5 313.5C745.5 314.338 744.838 315 744 315V318C746.495 318 748.5 315.995 748.5 313.5H745.5ZM744 315C743.162 315 742.5 314.338 742.5 313.5H739.5C739.5 315.995 741.505 318 744 318V315ZM744 315H747V312H744V315ZM747 315H899.5V312H747V315Z" fill="black"/>
</g>
</svg>
