<svg width="1920" height="1080" viewBox="0 0 1920 1080" fill="none" xmlns="http://www.w3.org/2000/svg">
<rect width="1920" height="1080" rx="100" fill="white"/>
<rect x="1046.5" y="198.5" width="354" height="106" rx="19.5" fill="#F2F7FC"/>
<path d="M1114.18 247.562C1113.44 244.047 1110.44 242.148 1107.08 242.148C1102.47 242.148 1098.9 245.699 1098.89 252.273C1098.9 258.83 1102.47 262.381 1107.08 262.398C1110.44 262.381 1113.42 260.5 1114.18 257.02H1117.34C1116.43 262.223 1112.25 265.352 1107.08 265.352C1100.54 265.352 1095.81 260.324 1095.83 252.273C1095.81 244.223 1100.54 239.195 1107.08 239.195C1112.23 239.195 1116.39 242.271 1117.34 247.562H1114.18ZM1129.19 265.387C1123.99 265.404 1120.47 261.467 1120.47 255.543C1120.47 249.584 1123.99 245.664 1129.19 245.664C1134.38 245.664 1137.86 249.584 1137.84 255.543C1137.86 261.467 1134.38 265.404 1129.19 265.387ZM1123.5 255.543C1123.51 259.357 1125.31 262.715 1129.19 262.715C1133.04 262.715 1134.82 259.357 1134.82 255.543C1134.82 251.746 1133.04 248.336 1129.19 248.336C1125.31 248.336 1123.51 251.746 1123.5 255.543ZM1141.81 265V245.91H1144.73V248.898H1144.98C1145.77 246.859 1147.61 245.664 1150.11 245.664C1152.61 245.664 1154.31 246.859 1155.21 248.898H1155.42C1156.38 246.93 1158.41 245.664 1161.15 245.664C1164.54 245.664 1166.98 247.738 1166.98 252.238V265H1163.96V252.273C1163.94 249.461 1162.19 248.371 1160.09 248.371C1157.44 248.371 1155.93 250.164 1155.91 252.59V265H1152.85V251.957C1152.87 249.812 1151.32 248.371 1149.12 248.371C1146.84 248.371 1144.84 250.305 1144.84 253.082V265H1141.81ZM1171.84 265V245.91H1174.75V248.898H1175C1175.79 246.859 1177.64 245.664 1180.13 245.664C1182.63 245.664 1184.33 246.859 1185.23 248.898H1185.44C1186.41 246.93 1188.43 245.664 1191.17 245.664C1194.56 245.664 1197.01 247.738 1197.01 252.238V265H1193.98V252.273C1193.97 249.461 1192.21 248.371 1190.12 248.371C1187.46 248.371 1185.95 250.164 1185.93 252.59V265H1182.88V251.957C1182.89 249.812 1181.35 248.371 1179.15 248.371C1176.86 248.371 1174.86 250.305 1174.86 253.082V265H1171.84ZM1200.95 259.586C1200.95 255.209 1204.81 254.207 1208.12 253.961C1209.35 253.873 1212.42 253.697 1213.29 253.68V252.133C1213.29 249.707 1211.84 248.301 1208.96 248.301C1206.55 248.301 1205.09 249.408 1204.67 250.867H1201.51C1201.89 247.791 1204.88 245.664 1209.1 245.664C1211.6 245.664 1216.29 246.402 1216.27 252.414V265H1213.29V262.398H1213.14C1212.51 263.682 1210.77 265.439 1207.45 265.457C1203.83 265.439 1200.95 263.312 1200.95 259.586ZM1203.97 259.727C1203.99 261.748 1205.66 262.768 1207.98 262.75C1211.39 262.768 1213.29 260.482 1213.29 258.074V256.158C1212.39 256.211 1209.38 256.439 1208.47 256.492C1205.73 256.668 1203.99 257.635 1203.97 259.727ZM1224.15 253.539V265H1221.12V245.91H1224.04V248.898H1224.29C1225.19 246.947 1226.98 245.664 1229.88 245.664C1233.75 245.664 1236.33 248.02 1236.31 252.871V265H1233.29V253.082C1233.29 250.129 1231.67 248.371 1228.96 248.371C1226.19 248.371 1224.15 250.234 1224.15 253.539ZM1248.37 265.387C1243.61 265.404 1240.25 261.572 1240.25 255.508C1240.25 249.461 1243.61 245.664 1248.41 245.664C1252.12 245.664 1253.28 247.914 1253.93 248.934H1254.14V239.547H1257.2V265H1254.24V262.082H1253.93C1253.26 263.137 1252.01 265.404 1248.37 265.387ZM1243.31 255.438C1243.31 259.498 1245.17 262.68 1248.79 262.68C1252.29 262.68 1254.22 259.727 1254.24 255.438C1254.22 251.201 1252.34 248.371 1248.79 248.371C1245.12 248.371 1243.31 251.447 1243.31 255.438ZM1265 239.547V248.336H1262.22V239.547H1265ZM1280.29 250.867C1279.87 249.285 1278.66 248.248 1276.43 248.23C1274.07 248.248 1272.4 249.514 1272.38 251.113C1272.4 252.379 1273.42 253.24 1275.65 253.785L1278.5 254.488C1281.91 255.297 1283.58 257.002 1283.6 259.656C1283.58 262.961 1280.89 265.404 1276.11 265.387C1271.82 265.404 1269.27 263.488 1268.76 260.008H1271.93C1272.28 261.871 1273.63 262.768 1276.04 262.75C1278.76 262.768 1280.47 261.625 1280.47 259.832C1280.47 258.479 1279.5 257.6 1277.34 257.09L1274.46 256.422C1271.13 255.648 1269.36 253.838 1269.36 251.289C1269.36 248.02 1272.22 245.664 1276.43 245.664C1280.38 245.664 1282.86 247.773 1283.25 250.867H1280.29ZM1296.96 265V239.547H1312.39V242.359H1300.12V250.867H1311.58V253.645H1300.12V262.188H1312.57V265H1296.96ZM1320.02 253.539V265H1317V245.91H1319.91V248.898H1320.16C1321.06 246.947 1322.85 245.664 1325.75 245.664C1329.62 245.664 1332.2 248.02 1332.18 252.871V265H1329.16V253.082C1329.16 250.129 1327.54 248.371 1324.84 248.371C1322.06 248.371 1320.02 250.234 1320.02 253.539ZM1352.05 245.91L1344.98 265H1341.85L1334.82 245.91H1338.12L1343.33 261.062H1343.54L1348.74 245.91H1352.05Z" fill="#0079FF"/>
<rect x="1046.5" y="198.5" width="354" height="106" rx="19.5" stroke="#E6EFF9"/>
<rect x="515.5" y="198.5" width="357" height="106" rx="19.5" fill="#F2F7FC"/>
<path d="M583.18 247.562C582.441 244.047 579.436 242.148 576.078 242.148C571.473 242.148 567.904 245.699 567.887 252.273C567.904 258.83 571.473 262.381 576.078 262.398C579.436 262.381 582.424 260.5 583.18 257.02H586.344C585.43 262.223 581.246 265.352 576.078 265.352C569.539 265.352 564.811 260.324 564.828 252.273C564.811 244.223 569.539 239.195 576.078 239.195C581.229 239.195 585.395 242.271 586.344 247.562H583.18ZM598.191 265.387C592.988 265.404 589.473 261.467 589.473 255.543C589.473 249.584 592.988 245.664 598.191 245.664C603.377 245.664 606.857 249.584 606.84 255.543C606.857 261.467 603.377 265.404 598.191 265.387ZM592.496 255.543C592.514 259.357 594.307 262.715 598.191 262.715C602.041 262.715 603.816 259.357 603.816 255.543C603.816 251.746 602.041 248.336 598.191 248.336C594.307 248.336 592.514 251.746 592.496 255.543ZM610.812 265V245.91H613.73V248.898H613.977C614.768 246.859 616.613 245.664 619.109 245.664C621.605 245.664 623.311 246.859 624.207 248.898H624.418C625.385 246.93 627.406 245.664 630.148 245.664C633.541 245.664 635.984 247.738 635.984 252.238V265H632.961V252.273C632.943 249.461 631.186 248.371 629.094 248.371C626.439 248.371 624.928 250.164 624.91 252.59V265H621.852V251.957C621.869 249.812 620.322 248.371 618.125 248.371C615.84 248.371 613.836 250.305 613.836 253.082V265H610.812ZM640.836 265V245.91H643.754V248.898H644C644.791 246.859 646.637 245.664 649.133 245.664C651.629 245.664 653.334 246.859 654.23 248.898H654.441C655.408 246.93 657.43 245.664 660.172 245.664C663.564 245.664 666.008 247.738 666.008 252.238V265H662.984V252.273C662.967 249.461 661.209 248.371 659.117 248.371C656.463 248.371 654.951 250.164 654.934 252.59V265H651.875V251.957C651.893 249.812 650.346 248.371 648.148 248.371C645.863 248.371 643.859 250.305 643.859 253.082V265H640.836ZM669.945 259.586C669.945 255.209 673.812 254.207 677.117 253.961C678.348 253.873 681.424 253.697 682.285 253.68V252.133C682.285 249.707 680.844 248.301 677.961 248.301C675.553 248.301 674.094 249.408 673.672 250.867H670.508C670.895 247.791 673.883 245.664 678.102 245.664C680.598 245.664 685.291 246.402 685.273 252.414V265H682.285V262.398H682.145C681.512 263.682 679.771 265.439 676.449 265.457C672.828 265.439 669.945 263.312 669.945 259.586ZM672.969 259.727C672.986 261.748 674.656 262.768 676.977 262.75C680.387 262.768 682.285 260.482 682.285 258.074V256.158C681.389 256.211 678.383 256.439 677.469 256.492C674.727 256.668 672.986 257.635 672.969 259.727ZM693.148 253.539V265H690.125V245.91H693.043V248.898H693.289C694.186 246.947 695.979 245.664 698.879 245.664C702.746 245.664 705.33 248.02 705.312 252.871V265H702.289V253.082C702.289 250.129 700.672 248.371 697.965 248.371C695.188 248.371 693.148 250.234 693.148 253.539ZM717.371 265.387C712.607 265.404 709.25 261.572 709.25 255.508C709.25 249.461 712.607 245.664 717.406 245.664C721.115 245.664 722.275 247.914 722.926 248.934H723.137V239.547H726.195V265H723.242V262.082H722.926C722.258 263.137 721.01 265.404 717.371 265.387ZM712.309 255.438C712.309 259.498 714.172 262.68 717.793 262.68C721.291 262.68 723.225 259.727 723.242 255.438C723.225 251.201 721.344 248.371 717.793 248.371C714.119 248.371 712.309 251.447 712.309 255.438ZM734 239.547V248.336H731.223V239.547H734ZM749.293 250.867C748.871 249.285 747.658 248.248 745.426 248.23C743.07 248.248 741.4 249.514 741.383 251.113C741.4 252.379 742.42 253.24 744.652 253.785L747.5 254.488C750.91 255.297 752.58 257.002 752.598 259.656C752.58 262.961 749.891 265.404 745.109 265.387C740.82 265.404 738.271 263.488 737.762 260.008H740.926C741.277 261.871 742.631 262.768 745.039 262.75C747.764 262.768 749.469 261.625 749.469 259.832C749.469 258.479 748.502 257.6 746.34 257.09L743.457 256.422C740.135 255.648 738.359 253.838 738.359 251.289C738.359 248.02 741.225 245.664 745.426 245.664C749.381 245.664 751.859 247.773 752.246 250.867H749.293ZM765.957 265V239.547H774.605C780.564 239.547 783.289 242.852 783.289 247.387C783.289 250.762 781.777 253.398 778.543 254.523L784.273 265H780.582L775.256 255.104C775.062 255.121 774.852 255.121 774.641 255.121H769.121V265H765.957ZM769.121 252.238H774.5C778.561 252.238 780.143 250.41 780.16 247.387C780.143 244.346 778.561 242.359 774.465 242.359H769.121V252.238ZM799.531 257.16V245.91H802.52V265H799.531V261.766H799.32C798.424 263.699 796.525 265.246 793.66 265.246C790.039 265.246 787.455 262.891 787.473 258.039V245.91H790.496V257.828C790.496 260.57 792.201 262.346 794.645 262.328C796.807 262.346 799.514 260.729 799.531 257.16ZM810.395 253.539V265H807.371V245.91H810.289V248.898H810.535C811.432 246.947 813.225 245.664 816.125 245.664C819.992 245.664 822.576 248.02 822.559 252.871V265H819.535V253.082C819.535 250.129 817.918 248.371 815.211 248.371C812.434 248.371 810.395 250.234 810.395 253.539Z" fill="#0079FF"/>
<rect x="515.5" y="198.5" width="357" height="106" rx="19.5" stroke="#E6EFF9"/>
<rect x="1106.5" y="486.5" width="238" height="106" rx="19.5" fill="#F2F7FC"/>
<path d="M1156.81 553V527.547H1165.46C1171.42 527.547 1174.14 530.852 1174.14 535.387C1174.14 538.762 1172.63 541.398 1169.4 542.523L1175.13 553H1171.44L1166.11 543.104C1165.92 543.121 1165.71 543.121 1165.5 543.121H1159.98V553H1156.81ZM1159.98 540.238H1165.36C1169.42 540.238 1171 538.41 1171.02 535.387C1171 532.346 1169.42 530.359 1165.32 530.359H1159.98V540.238ZM1185.92 553.387C1180.72 553.404 1177.2 549.467 1177.2 543.543C1177.2 537.584 1180.72 533.664 1185.92 533.664C1191.11 533.664 1194.59 537.584 1194.57 543.543C1194.59 549.467 1191.11 553.404 1185.92 553.387ZM1180.23 543.543C1180.24 547.357 1182.04 550.715 1185.92 550.715C1189.77 550.715 1191.55 547.357 1191.55 543.543C1191.55 539.746 1189.77 536.336 1185.92 536.336C1182.04 536.336 1180.24 539.746 1180.23 543.543ZM1206.35 553.387C1201.14 553.404 1197.63 549.467 1197.63 543.543C1197.63 537.584 1201.14 533.664 1206.35 533.664C1211.53 533.664 1215.01 537.584 1215 543.543C1215.01 549.467 1211.53 553.404 1206.35 553.387ZM1200.65 543.543C1200.67 547.357 1202.46 550.715 1206.35 550.715C1210.2 550.715 1211.97 547.357 1211.97 543.543C1211.97 539.746 1210.2 536.336 1206.35 536.336C1202.46 536.336 1200.67 539.746 1200.65 543.543ZM1227.3 533.91V536.441H1223.29V547.516C1223.28 549.959 1224.51 550.363 1225.79 550.363C1226.33 550.363 1227.14 550.311 1227.58 550.293V553.105C1227.11 553.176 1226.37 553.246 1225.47 553.246C1222.92 553.246 1220.25 551.664 1220.23 548.289V536.441H1217.35V533.91H1220.23V529.34H1223.29V533.91H1227.3ZM1240.62 553V527.547H1256.06V530.359H1243.79V538.867H1255.25V541.645H1243.79V550.188H1256.23V553H1240.62ZM1263.69 541.539V553H1260.66V533.91H1263.58V536.898H1263.83C1264.72 534.947 1266.52 533.664 1269.42 533.664C1273.29 533.664 1275.87 536.02 1275.85 540.871V553H1272.83V541.082C1272.83 538.129 1271.21 536.371 1268.5 536.371C1265.73 536.371 1263.69 538.234 1263.69 541.539ZM1295.71 533.91L1288.65 553H1285.52L1278.49 533.91H1281.79L1287 549.062H1287.21L1292.41 533.91H1295.71Z" fill="#0079FF"/>
<rect x="1106.5" y="486.5" width="238" height="106" rx="19.5" stroke="#E6EFF9"/>
<rect x="573.5" y="486.5" width="241" height="106" rx="19.5" fill="#F2F7FC"/>
<path d="M623.812 553V527.547H632.461C638.42 527.547 641.145 530.852 641.145 535.387C641.145 538.762 639.633 541.398 636.398 542.523L642.129 553H638.438L633.111 543.104C632.918 543.121 632.707 543.121 632.496 543.121H626.977V553H623.812ZM626.977 540.238H632.355C636.416 540.238 637.998 538.41 638.016 535.387C637.998 532.346 636.416 530.359 632.32 530.359H626.977V540.238ZM652.922 553.387C647.719 553.404 644.203 549.467 644.203 543.543C644.203 537.584 647.719 533.664 652.922 533.664C658.107 533.664 661.588 537.584 661.57 543.543C661.588 549.467 658.107 553.404 652.922 553.387ZM647.227 543.543C647.244 547.357 649.037 550.715 652.922 550.715C656.771 550.715 658.547 547.357 658.547 543.543C658.547 539.746 656.771 536.336 652.922 536.336C649.037 536.336 647.244 539.746 647.227 543.543ZM673.348 553.387C668.145 553.404 664.629 549.467 664.629 543.543C664.629 537.584 668.145 533.664 673.348 533.664C678.533 533.664 682.014 537.584 681.996 543.543C682.014 549.467 678.533 553.404 673.348 553.387ZM667.652 543.543C667.67 547.357 669.463 550.715 673.348 550.715C677.197 550.715 678.973 547.357 678.973 543.543C678.973 539.746 677.197 536.336 673.348 536.336C669.463 536.336 667.67 539.746 667.652 543.543ZM694.301 533.91V536.441H690.293V547.516C690.275 549.959 691.506 550.363 692.789 550.363C693.334 550.363 694.143 550.311 694.582 550.293V553.105C694.107 553.176 693.369 553.246 692.473 553.246C689.924 553.246 687.252 551.664 687.234 548.289V536.441H684.352V533.91H687.234V529.34H690.293V533.91H694.301ZM707.625 553V527.547H716.273C722.232 527.547 724.957 530.852 724.957 535.387C724.957 538.762 723.445 541.398 720.211 542.523L725.941 553H722.25L716.924 543.104C716.73 543.121 716.52 543.121 716.309 543.121H710.789V553H707.625ZM710.789 540.238H716.168C720.229 540.238 721.811 538.41 721.828 535.387C721.811 532.346 720.229 530.359 716.133 530.359H710.789V540.238ZM741.199 545.16V533.91H744.188V553H741.199V549.766H740.988C740.092 551.699 738.193 553.246 735.328 553.246C731.707 553.246 729.123 550.891 729.141 546.039V533.91H732.164V545.828C732.164 548.57 733.869 550.346 736.312 550.328C738.475 550.346 741.182 548.729 741.199 545.16ZM752.062 541.539V553H749.039V533.91H751.957V536.898H752.203C753.1 534.947 754.893 533.664 757.793 533.664C761.66 533.664 764.244 536.02 764.227 540.871V553H761.203V541.082C761.203 538.129 759.586 536.371 756.879 536.371C754.102 536.371 752.062 538.234 752.062 541.539Z" fill="#0079FF"/>
<rect x="573.5" y="486.5" width="241" height="106" rx="19.5" stroke="#E6EFF9"/>
<rect x="814.5" y="825.5" width="294" height="106" rx="19.5" fill="#F2F7FC"/>
<path d="M864.812 892V866.547H880.141V869.359H867.977V877.867H878.98V880.645H867.977V892H864.812ZM884.465 892V872.91H887.488V892H884.465ZM883.867 867.742C883.85 866.617 884.816 865.721 885.977 865.738C887.137 865.721 888.104 866.617 888.121 867.742C888.104 868.85 887.137 869.746 885.977 869.746C884.816 869.746 883.85 868.85 883.867 867.742ZM895.328 880.539V892H892.305V872.91H895.223V875.898H895.469C896.365 873.947 898.158 872.664 901.059 872.664C904.926 872.664 907.51 875.02 907.492 879.871V892H904.469V880.082C904.469 877.129 902.852 875.371 900.145 875.371C897.367 875.371 895.328 877.234 895.328 880.539ZM911.43 886.586C911.43 882.209 915.297 881.207 918.602 880.961C919.832 880.873 922.908 880.697 923.77 880.68V879.133C923.77 876.707 922.328 875.301 919.445 875.301C917.037 875.301 915.578 876.408 915.156 877.867H911.992C912.379 874.791 915.367 872.664 919.586 872.664C922.082 872.664 926.775 873.402 926.758 879.414V892H923.77V889.398H923.629C922.996 890.682 921.256 892.439 917.934 892.457C914.312 892.439 911.43 890.312 911.43 886.586ZM914.453 886.727C914.471 888.748 916.141 889.768 918.461 889.75C921.871 889.768 923.77 887.482 923.77 885.074V883.158C922.873 883.211 919.867 883.439 918.953 883.492C916.211 883.668 914.471 884.635 914.453 886.727ZM934.633 866.547V892H931.609V866.547H934.633ZM948.871 892V866.547H957.52C963.479 866.547 966.203 869.852 966.203 874.387C966.203 877.762 964.691 880.398 961.457 881.523L967.188 892H963.496L958.17 882.104C957.977 882.121 957.766 882.121 957.555 882.121H952.035V892H948.871ZM952.035 879.238H957.414C961.475 879.238 963.057 877.41 963.074 874.387C963.057 871.346 961.475 869.359 957.379 869.359H952.035V879.238ZM978.191 892.387C972.672 892.404 969.262 888.467 969.262 882.613C969.262 876.742 972.725 872.664 977.91 872.664C981.918 872.664 986.154 875.125 986.137 882.191V883.457H972.285C972.443 887.5 974.799 889.715 978.191 889.715C980.477 889.715 981.918 888.713 982.621 887.535H985.855C984.959 890.436 982.129 892.404 978.191 892.387ZM972.303 880.891H983.078C983.061 877.709 981.057 875.336 977.91 875.336C974.605 875.336 972.514 877.938 972.303 880.891ZM997.879 892.387C992.465 892.404 989.16 888.273 989.16 882.543C989.16 876.742 992.623 872.664 997.809 872.664C1001.87 872.664 1004.93 875.072 1005.4 878.676H1002.38C1001.94 876.936 1000.43 875.336 997.879 875.336C994.469 875.336 992.201 878.148 992.184 882.438C992.201 886.85 994.416 889.68 997.879 889.68C1000.13 889.68 1001.85 888.467 1002.38 886.375H1005.4C1004.93 889.785 1002.12 892.404 997.879 892.387ZM1016.93 892.387C1011.73 892.404 1008.21 888.467 1008.21 882.543C1008.21 876.584 1011.73 872.664 1016.93 872.664C1022.12 872.664 1025.6 876.584 1025.58 882.543C1025.6 888.467 1022.12 892.404 1016.93 892.387ZM1011.24 882.543C1011.26 886.357 1013.05 889.715 1016.93 889.715C1020.78 889.715 1022.56 886.357 1022.56 882.543C1022.56 878.746 1020.78 875.336 1016.93 875.336C1013.05 875.336 1011.26 878.746 1011.24 882.543ZM1029.55 892V872.91H1032.47V875.828H1032.68C1033.37 873.895 1035.36 872.611 1037.61 872.594C1038.06 872.611 1038.84 872.629 1039.19 872.664V875.723C1038.96 875.67 1038.15 875.512 1037.36 875.512C1034.62 875.512 1032.58 877.41 1032.58 879.977V892H1029.55ZM1048.71 892.387C1043.95 892.404 1040.59 888.572 1040.59 882.508C1040.59 876.461 1043.95 872.664 1048.75 872.664C1052.46 872.664 1053.62 874.914 1054.27 875.934H1054.48V866.547H1057.54V892H1054.59V889.082H1054.27C1053.6 890.137 1052.35 892.404 1048.71 892.387ZM1043.65 882.438C1043.65 886.498 1045.52 889.68 1049.14 889.68C1052.63 889.68 1054.57 886.727 1054.59 882.438C1054.57 878.201 1052.69 875.371 1049.14 875.371C1045.46 875.371 1043.65 878.447 1043.65 882.438Z" fill="#0079FF"/>
<rect x="814.5" y="825.5" width="294" height="106" rx="19.5" stroke="#E6EFF9"/>
<g opacity="0.2">
<path d="M815 536.5C813.333 536.5 812 537.833 812 539.5C812 541.167 813.333 542.5 815 542.5C816.667 542.5 818 541.167 818 539.5C818 537.833 816.667 536.5 815 536.5Z" fill="black"/>
<path d="M815 538C814.172 538 813.5 538.672 813.5 539.5C813.5 540.328 814.172 541 815 541V538ZM1107.06 540.561C1107.65 539.975 1107.65 539.025 1107.06 538.439L1097.51 528.893C1096.93 528.308 1095.98 528.308 1095.39 528.893C1094.81 529.479 1094.81 530.429 1095.39 531.015L1103.88 539.5L1095.39 547.985C1094.81 548.571 1094.81 549.521 1095.39 550.107C1095.98 550.692 1096.93 550.692 1097.51 550.107L1107.06 540.561ZM813.5 539.5C813.5 538.662 814.162 538 815 538V535C812.505 535 810.5 537.005 810.5 539.5H813.5ZM815 538C815.838 538 816.5 538.662 816.5 539.5H819.5C819.5 537.005 817.495 535 815 535V538ZM816.5 539.5C816.5 540.338 815.838 541 815 541V544C817.495 544 819.5 541.995 819.5 539.5H816.5ZM815 541C814.162 541 813.5 540.338 813.5 539.5H810.5C810.5 541.995 812.505 544 815 544V541ZM815 541H818V538H815V541ZM818 541H1106V538H818V541Z" fill="black"/>
</g>
<g opacity="0.2">
<path d="M873 248.5C871.333 248.5 870 249.833 870 251.5C870 253.167 871.333 254.5 873 254.5C874.667 254.5 876 253.167 876 251.5C876 249.833 874.667 248.5 873 248.5Z" fill="black"/>
<path d="M873 250C872.172 250 871.5 250.672 871.5 251.5C871.5 252.328 872.172 253 873 253V250ZM1047.06 252.561C1047.65 251.975 1047.65 251.025 1047.06 250.439L1037.51 240.893C1036.93 240.308 1035.98 240.308 1035.39 240.893C1034.81 241.479 1034.81 242.429 1035.39 243.015L1043.88 251.5L1035.39 259.985C1034.81 260.571 1034.81 261.521 1035.39 262.107C1035.98 262.692 1036.93 262.692 1037.51 262.107L1047.06 252.561ZM871.5 251.5C871.5 250.662 872.162 250 873 250V247C870.505 247 868.5 249.005 868.5 251.5H871.5ZM873 250C873.838 250 874.5 250.662 874.5 251.5H877.5C877.5 249.005 875.495 247 873 247V250ZM874.5 251.5C874.5 252.338 873.838 253 873 253V256C875.495 256 877.5 253.995 877.5 251.5H874.5ZM873 253C872.162 253 871.5 252.338 871.5 251.5H868.5C868.5 253.995 870.505 256 873 256V253ZM873 253H876V250H873V253ZM876 253H1046V250H876V253Z" fill="black"/>
</g>
<g opacity="0.2">
<path d="M694 483C692.333 483 691 484.333 691 486C691 487.667 692.333 489 694 489C695.667 489 697 487.667 697 486C697 484.333 695.667 483 694 483Z" fill="black"/>
<path d="M692.5 486C692.5 486.828 693.172 487.5 694 487.5C694.828 487.5 695.5 486.828 695.5 486H692.5ZM695.061 303.939C694.475 303.354 693.525 303.354 692.939 303.939L683.393 313.485C682.808 314.071 682.808 315.021 683.393 315.607C683.979 316.192 684.929 316.192 685.515 315.607L694 307.121L702.485 315.607C703.071 316.192 704.021 316.192 704.607 315.607C705.192 315.021 705.192 314.071 704.607 313.485L695.061 303.939ZM692.5 486C692.5 485.162 693.162 484.5 694 484.5V481.5C691.505 481.5 689.5 483.505 689.5 486H692.5ZM694 484.5C694.838 484.5 695.5 485.162 695.5 486H698.5C698.5 483.505 696.495 481.5 694 481.5V484.5ZM695.5 486C695.5 486.838 694.838 487.5 694 487.5V490.5C696.495 490.5 698.5 488.495 698.5 486H695.5ZM694 487.5C693.162 487.5 692.5 486.838 692.5 486H689.5C689.5 488.495 691.505 490.5 694 490.5V487.5ZM695.5 486V483H692.5V486H695.5ZM695.5 483V305H692.5V483H695.5Z" fill="black"/>
</g>
<g opacity="0.2">
<path d="M961.44 822.001C959.801 822.032 958.5 823.353 958.5 825C958.5 826.667 959.833 828 961.5 828C963.167 828 964.5 826.667 964.5 825C964.5 823.333 963.167 822 961.5 822C961.48 822 961.46 822 961.44 822.001Z" fill="black"/>
<path d="M960 825C960 825.828 960.672 826.5 961.5 826.5C962.328 826.5 963 825.828 963 825H960ZM695.049 591.928C694.456 591.348 693.507 591.359 692.928 591.951L683.489 601.603C682.909 602.195 682.92 603.145 683.512 603.724C684.105 604.303 685.054 604.293 685.633 603.701L694.024 595.121L702.603 603.511C703.195 604.091 704.145 604.08 704.724 603.488C705.303 602.895 705.293 601.946 704.701 601.367L695.049 591.928ZM960 825C960 824.172 960.646 823.516 961.469 823.5L961.411 820.501C958.957 820.548 957 822.535 957 825H960ZM961.469 823.5C961.479 823.5 961.49 823.5 961.5 823.5V820.5C961.47 820.5 961.44 820.5 961.411 820.501L961.469 823.5ZM961.5 823.5C962.338 823.5 963 824.162 963 825H966C966 822.505 963.995 820.5 961.5 820.5V823.5ZM963 825C963 825.838 962.338 826.5 961.5 826.5V829.5C963.995 829.5 966 827.495 966 825H963ZM961.5 826.5C960.662 826.5 960 825.838 960 825H957C957 827.495 959.005 829.5 961.5 829.5V826.5ZM963 825C963 823.971 962.979 822.952 962.939 821.94L959.941 822.061C959.98 823.032 960 824.011 960 825H963ZM962.939 821.94C961.775 793.017 944.138 771.394 918.779 753.489C893.441 735.599 860.114 721.224 827.093 706.868C793.987 692.476 761.189 678.103 736.571 660.189C711.983 642.296 695.813 621.06 695.5 592.983L692.5 593.017C692.828 622.436 709.84 644.447 734.806 662.614C759.743 680.76 792.871 695.262 825.897 709.619C859.007 724.014 892.015 738.265 917.049 755.939C942.06 773.599 958.831 794.48 959.941 822.061L962.939 821.94Z" fill="black"/>
</g>
<g opacity="0.2">
<path d="M961.5 822C959.833 822 958.5 823.333 958.5 825C958.5 826.667 959.833 828 961.5 828C963.167 828 964.5 826.667 964.5 825C964.5 823.351 963.195 822.028 961.553 822C961.535 822 961.518 822 961.5 822Z" fill="black"/>
<path d="M960 825C960 825.828 960.672 826.5 961.5 826.5C962.328 826.5 963 825.828 963 825H960ZM1226.79 592.232C1226.36 591.52 1225.44 591.287 1224.73 591.712L1213.14 598.626C1212.43 599.05 1212.19 599.971 1212.62 600.683C1213.04 601.394 1213.96 601.627 1214.67 601.203L1224.98 595.057L1231.13 605.363C1231.55 606.075 1232.47 606.308 1233.18 605.883C1233.89 605.459 1234.13 604.538 1233.7 603.827L1226.79 592.232ZM960 825C960 824.162 960.662 823.5 961.5 823.5V820.5C959.005 820.5 957 822.505 957 825H960ZM961.5 823.5C961.51 823.5 961.519 823.5 961.527 823.5L961.579 820.501C961.552 820.5 961.525 820.5 961.5 820.5V823.5ZM961.527 823.5C962.352 823.514 963 824.17 963 825H966C966 822.532 964.038 820.542 961.578 820.501L961.527 823.5ZM963 825C963 825.838 962.338 826.5 961.5 826.5V829.5C963.995 829.5 966 827.495 966 825H963ZM961.5 826.5C960.662 826.5 960 825.838 960 825H957C957 827.495 959.005 829.5 961.5 829.5V826.5ZM963 825C963 824.009 963.017 823.027 963.052 822.054L960.054 821.947C960.018 822.956 960 823.974 960 825H963ZM963.052 822.054C964.034 794.399 978.865 773.518 1001.32 755.894C1023.82 738.238 1053.8 723.994 1084.76 709.604C1115.64 695.247 1147.49 680.753 1173.41 662.631C1199.36 644.496 1219.56 622.606 1226.95 593.368L1224.05 592.632C1216.9 620.89 1197.34 642.246 1171.7 660.172C1146.03 678.11 1114.46 692.49 1083.49 706.883C1052.6 721.243 1022.29 735.625 999.472 753.534C976.608 771.475 961.078 793.097 960.054 821.947L963.052 822.054Z" fill="black"/>
</g>
<g opacity="0.2">
<path d="M1225.5 483C1223.83 483 1222.5 484.334 1222.5 486C1222.5 487.667 1223.83 489 1225.5 489C1227.17 489 1228.5 487.667 1228.5 486C1228.5 484.333 1227.17 483 1225.5 483C1225.5 483 1225.5 483 1225.5 483Z" fill="black"/>
<path d="M1224 486C1224 486.828 1224.67 487.5 1225.5 487.5C1226.33 487.5 1227 486.828 1227 486H1224ZM1224.56 303.937C1223.97 303.352 1223.02 303.355 1222.44 303.942L1212.91 313.511C1212.33 314.099 1212.33 315.048 1212.92 315.633C1213.51 316.217 1214.46 316.215 1215.04 315.627L1223.51 307.121L1232.01 315.586C1232.6 316.17 1233.55 316.168 1234.13 315.581C1234.72 314.993 1234.71 314.044 1234.13 313.459L1224.56 303.937ZM1224 486C1224 485.162 1224.66 484.5 1225.5 484.5L1225.5 481.5C1223 481.501 1221 483.505 1221 486H1224ZM1225.5 484.5C1225.5 484.5 1225.5 484.5 1225.5 484.5C1225.5 484.5 1225.5 484.5 1225.5 484.5C1225.5 484.5 1225.5 484.5 1225.5 484.5C1225.5 484.5 1225.5 484.5 1225.5 484.5C1225.5 484.5 1225.5 484.5 1225.5 484.5C1225.5 484.5 1225.5 484.5 1225.5 484.5C1225.5 484.5 1225.5 484.5 1225.5 484.5C1225.5 484.5 1225.5 484.5 1225.5 484.5C1225.5 484.5 1225.5 484.5 1225.5 484.5C1225.5 484.5 1225.5 484.5 1225.5 484.5C1225.5 484.5 1225.5 484.5 1225.5 484.5C1225.5 484.5 1225.5 484.5 1225.5 484.5C1225.5 484.5 1225.5 484.5 1225.5 484.5C1225.5 484.5 1225.5 484.5 1225.5 484.5C1225.5 484.5 1225.5 484.5 1225.5 484.5C1225.5 484.5 1225.5 484.5 1225.5 484.5C1225.5 484.5 1225.5 484.5 1225.5 484.5C1225.5 484.5 1225.5 484.5 1225.5 484.5C1225.5 484.5 1225.5 484.5 1225.5 484.5C1225.5 484.5 1225.5 484.5 1225.5 484.5C1225.5 484.5 1225.5 484.5 1225.5 484.5C1225.5 484.5 1225.5 484.5 1225.5 484.5C1225.5 484.5 1225.5 484.5 1225.5 484.5C1225.5 484.5 1225.5 484.5 1225.5 484.5C1225.5 484.5 1225.5 484.5 1225.5 484.5C1225.5 484.5 1225.5 484.5 1225.5 484.5C1225.5 484.5 1225.5 484.5 1225.5 484.5C1225.5 484.5 1225.5 484.5 1225.5 484.5C1225.5 484.5 1225.5 484.5 1225.5 484.5C1225.5 484.5 1225.5 484.5 1225.5 484.5C1225.5 484.5 1225.5 484.5 1225.5 484.5C1225.5 484.5 1225.5 484.5 1225.5 484.5C1225.5 484.5 1225.5 484.5 1225.5 484.5C1225.5 484.5 1225.5 484.5 1225.5 484.5C1225.5 484.5 1225.5 484.5 1225.5 484.5C1225.5 484.5 1225.5 484.5 1225.5 484.5C1225.5 484.5 1225.5 484.5 1225.5 484.5C1225.5 484.5 1225.5 484.5 1225.5 484.5C1225.5 484.5 1225.5 484.5 1225.5 484.5C1225.5 484.5 1225.5 484.5 1225.5 484.5C1225.5 484.5 1225.5 484.5 1225.5 484.5C1225.5 484.5 1225.5 484.5 1225.5 484.5C1225.5 484.5 1225.5 484.5 1225.5 484.5C1225.5 484.5 1225.5 484.5 1225.5 484.5C1225.5 484.5 1225.5 484.5 1225.5 484.5C1225.5 484.5 1225.5 484.5 1225.5 484.5C1225.5 484.5 1225.5 484.5 1225.5 484.5C1225.5 484.5 1225.5 484.5 1225.5 484.5C1225.5 484.5 1225.5 484.5 1225.5 484.5C1225.5 484.5 1225.5 484.5 1225.5 484.5C1225.5 484.5 1225.5 484.5 1225.5 484.5C1225.5 484.5 1225.5 484.5 1225.5 484.5C1225.5 484.5 1225.5 484.5 1225.5 484.5C1225.5 484.5 1225.5 484.5 1225.5 484.5C1225.5 484.5 1225.5 484.5 1225.5 484.5C1225.5 484.5 1225.5 484.5 1225.5 484.5C1225.5 484.5 1225.5 484.5 1225.5 484.5C1225.5 484.5 1225.5 484.5 1225.5 484.5C1225.5 484.5 1225.5 484.5 1225.5 484.5C1225.5 484.5 1225.5 484.5 1225.5 484.5C1225.5 484.5 1225.5 484.5 1225.5 484.5C1225.5 484.5 1225.5 484.5 1225.5 484.5C1225.5 484.5 1225.5 484.5 1225.5 484.5C1225.5 484.5 1225.5 484.5 1225.5 484.5C1225.5 484.5 1225.5 484.5 1225.5 484.5C1225.5 484.5 1225.5 484.5 1225.5 484.5C1225.5 484.5 1225.5 484.5 1225.5 484.5C1225.5 484.5 1225.5 484.5 1225.5 484.5C1225.5 484.5 1225.5 484.5 1225.5 484.5C1225.5 484.5 1225.5 484.5 1225.5 484.5C1225.5 484.5 1225.5 484.5 1225.5 484.5C1225.5 484.5 1225.5 484.5 1225.5 484.5C1225.5 484.5 1225.5 484.5 1225.5 484.5C1225.5 484.5 1225.5 484.5 1225.5 484.5C1225.5 484.5 1225.5 484.5 1225.5 484.5C1225.5 484.5 1225.5 484.5 1225.5 484.5C1225.5 484.5 1225.5 484.5 1225.5 484.5C1225.5 484.5 1225.5 484.5 1225.5 484.5C1225.5 484.5 1225.5 484.5 1225.5 484.5C1225.5 484.5 1225.5 484.5 1225.5 484.5C1225.5 484.5 1225.5 484.5 1225.5 484.5C1225.5 484.5 1225.5 484.5 1225.5 484.5C1225.5 484.5 1225.5 484.5 1225.5 484.5C1225.5 484.5 1225.5 484.5 1225.5 484.5C1225.5 484.5 1225.5 484.5 1225.5 484.5C1225.5 484.5 1225.5 484.5 1225.5 484.5C1225.5 484.5 1225.5 484.5 1225.5 484.5C1225.5 484.5 1225.5 484.5 1225.5 484.5C1225.5 484.5 1225.5 484.5 1225.5 484.5C1225.5 484.5 1225.5 484.5 1225.5 484.5C1225.5 484.5 1225.5 484.5 1225.5 484.5C1225.5 484.5 1225.5 484.5 1225.5 484.5C1225.5 484.5 1225.5 484.5 1225.5 484.5C1225.5 484.5 1225.5 484.5 1225.5 484.5C1225.5 484.5 1225.5 484.5 1225.5 484.5C1225.5 484.5 1225.5 484.5 1225.5 484.5C1225.5 484.5 1225.5 484.5 1225.5 484.5C1225.5 484.5 1225.5 484.5 1225.5 484.5C1225.5 484.5 1225.5 484.5 1225.5 484.5C1225.5 484.5 1225.5 484.5 1225.5 484.5C1225.5 484.5 1225.5 484.5 1225.5 484.5C1225.5 484.5 1225.5 484.5 1225.5 484.5C1225.5 484.5 1225.5 484.5 1225.5 484.5C1225.5 484.5 1225.5 484.5 1225.5 484.5C1225.5 484.5 1225.5 484.5 1225.5 484.5C1225.5 484.5 1225.5 484.5 1225.5 484.5C1225.5 484.5 1225.5 484.5 1225.5 484.5C1225.5 484.5 1225.5 484.5 1225.5 484.5C1225.5 484.5 1225.5 484.5 1225.5 484.5C1225.5 484.5 1225.5 484.5 1225.5 484.5C1225.5 484.5 1225.5 484.5 1225.5 484.5C1225.5 484.5 1225.5 484.5 1225.5 484.5C1225.5 484.5 1225.5 484.5 1225.5 484.5C1225.5 484.5 1225.5 484.5 1225.5 484.5C1225.5 484.5 1225.5 484.5 1225.5 484.5C1225.5 484.5 1225.5 484.5 1225.5 484.5C1225.5 484.5 1225.5 484.5 1225.5 484.5C1225.5 484.5 1225.5 484.5 1225.5 484.5C1225.5 484.5 1225.5 484.5 1225.5 484.5C1225.5 484.5 1225.5 484.5 1225.5 484.5C1225.5 484.5 1225.5 484.5 1225.5 484.5C1225.5 484.5 1225.5 484.5 1225.5 484.5C1225.5 484.5 1225.5 484.5 1225.5 484.5C1225.5 484.5 1225.5 484.5 1225.5 484.5C1225.5 484.5 1225.5 484.5 1225.5 484.5C1225.5 484.5 1225.5 484.5 1225.5 484.5C1225.5 484.5 1225.5 484.5 1225.5 484.5C1225.5 484.5 1225.5 484.5 1225.5 484.5C1225.5 484.5 1225.5 484.5 1225.5 484.5C1225.5 484.5 1225.5 484.5 1225.5 484.5C1225.5 484.5 1225.5 484.5 1225.5 484.5C1225.5 484.5 1225.5 484.5 1225.5 484.5C1225.5 484.5 1225.5 484.5 1225.5 484.5C1225.5 484.5 1225.5 484.5 1225.5 484.5C1225.5 484.5 1225.5 484.5 1225.5 484.5C1225.5 484.5 1225.5 484.5 1225.5 484.5C1225.5 484.5 1225.5 484.5 1225.5 484.5C1225.5 484.5 1225.5 484.5 1225.5 484.5C1225.5 484.5 1225.5 484.5 1225.5 484.5C1225.5 484.5 1225.5 484.5 1225.5 484.5C1225.5 484.5 1225.5 484.5 1225.5 484.5C1225.5 484.5 1225.5 484.5 1225.5 484.5C1225.5 484.5 1225.5 484.5 1225.5 484.5C1225.5 484.5 1225.5 484.5 1225.5 484.5C1225.5 484.5 1225.5 484.5 1225.5 484.5C1225.5 484.5 1225.5 484.5 1225.5 484.5C1225.5 484.5 1225.5 484.5 1225.5 484.5C1225.5 484.5 1225.5 484.5 1225.5 484.5C1225.5 484.5 1225.5 484.5 1225.5 484.5C1225.5 484.5 1225.5 484.5 1225.5 484.5C1225.5 484.5 1225.5 484.5 1225.5 484.5C1225.5 484.5 1225.5 484.5 1225.5 484.5C1225.5 484.5 1225.5 484.5 1225.5 484.5C1225.5 484.5 1225.5 484.5 1225.5 484.5C1225.5 484.5 1225.5 484.5 1225.5 484.5C1225.5 484.5 1225.5 484.5 1225.5 484.5C1225.5 484.5 1225.5 484.5 1225.5 484.5C1225.5 484.5 1225.5 484.5 1225.5 484.5C1225.5 484.5 1225.5 484.5 1225.5 484.5C1225.5 484.5 1225.5 484.5 1225.5 484.5C1225.5 484.5 1225.5 484.5 1225.5 484.5C1225.5 484.5 1225.5 484.5 1225.5 484.5C1225.5 484.5 1225.5 484.5 1225.5 484.5C1225.5 484.5 1225.5 484.5 1225.5 484.5C1225.5 484.5 1225.5 484.5 1225.5 484.5C1225.5 484.5 1225.5 484.5 1225.5 484.5C1225.5 484.5 1225.5 484.5 1225.5 484.5C1225.5 484.5 1225.5 484.5 1225.5 484.5C1225.5 484.5 1225.5 484.5 1225.5 484.5C1225.5 484.5 1225.5 484.5 1225.5 484.5C1225.5 484.5 1225.5 484.5 1225.5 484.5C1225.5 484.5 1225.5 484.5 1225.5 484.5C1225.5 484.5 1225.5 484.5 1225.5 484.5C1225.5 484.5 1225.5 484.5 1225.5 484.5C1225.5 484.5 1225.5 484.5 1225.5 484.5C1225.5 484.5 1225.5 484.5 1225.5 484.5C1225.5 484.5 1225.5 484.5 1225.5 484.5C1225.5 484.5 1225.5 484.5 1225.5 484.5C1225.5 484.5 1225.5 484.5 1225.5 484.5C1225.5 484.5 1225.5 484.5 1225.5 484.5C1225.5 484.5 1225.5 484.5 1225.5 484.5C1225.5 484.5 1225.5 484.5 1225.5 484.5C1225.5 484.5 1225.5 484.5 1225.5 484.5C1225.5 484.5 1225.5 484.5 1225.5 484.5C1225.5 484.5 1225.5 484.5 1225.5 484.5C1225.5 484.5 1225.5 484.5 1225.5 484.5C1225.5 484.5 1225.5 484.5 1225.5 484.5C1225.5 484.5 1225.5 484.5 1225.5 484.5C1225.5 484.5 1225.5 484.5 1225.5 484.5C1225.5 484.5 1225.5 484.5 1225.5 484.5C1225.5 484.5 1225.5 484.5 1225.5 484.5C1225.5 484.5 1225.5 484.5 1225.5 484.5C1225.5 484.5 1225.5 484.5 1225.5 484.5C1225.5 484.5 1225.5 484.5 1225.5 484.5C1225.5 484.5 1225.5 484.5 1225.5 484.5C1225.5 484.5 1225.5 484.5 1225.5 484.5C1225.5 484.5 1225.5 484.5 1225.5 484.5C1225.5 484.5 1225.5 484.5 1225.5 484.5C1225.5 484.5 1225.5 484.5 1225.5 484.5C1225.5 484.5 1225.5 484.5 1225.5 484.5C1225.5 484.5 1225.5 484.5 1225.5 484.5C1225.5 484.5 1225.5 484.5 1225.5 484.5C1225.5 484.5 1225.5 484.5 1225.5 484.5C1225.5 484.5 1225.5 484.5 1225.5 484.5C1225.5 484.5 1225.5 484.5 1225.5 484.5C1225.5 484.5 1225.5 484.5 1225.5 484.5C1225.5 484.5 1225.5 484.5 1225.5 484.5C1225.5 484.5 1225.5 484.5 1225.5 484.5C1225.5 484.5 1225.5 484.5 1225.5 484.5C1225.5 484.5 1225.5 484.5 1225.5 484.5C1225.5 484.5 1225.5 484.5 1225.5 484.5C1225.5 484.5 1225.5 484.5 1225.5 484.5C1225.5 484.5 1225.5 484.5 1225.5 484.5C1225.5 484.5 1225.5 484.5 1225.5 484.5C1225.5 484.5 1225.5 484.5 1225.5 484.5C1225.5 484.5 1225.5 484.5 1225.5 484.5C1225.5 484.5 1225.5 484.5 1225.5 484.5C1225.5 484.5 1225.5 484.5 1225.5 484.5C1225.5 484.5 1225.5 484.5 1225.5 484.5C1225.5 484.5 1225.5 484.5 1225.5 484.5C1225.5 484.5 1225.5 484.5 1225.5 484.5C1225.5 484.5 1225.5 484.5 1225.5 484.5C1225.5 484.5 1225.5 484.5 1225.5 484.5C1225.5 484.5 1225.5 484.5 1225.5 484.5C1225.5 484.5 1225.5 484.5 1225.5 484.5C1225.5 484.5 1225.5 484.5 1225.5 484.5C1225.5 484.5 1225.5 484.5 1225.5 484.5C1225.5 484.5 1225.5 484.5 1225.5 484.5C1225.5 484.5 1225.5 484.5 1225.5 484.5C1225.5 484.5 1225.5 484.5 1225.5 484.5C1225.5 484.5 1225.5 484.5 1225.5 484.5C1225.5 484.5 1225.5 484.5 1225.5 484.5C1225.5 484.5 1225.5 484.5 1225.5 484.5C1225.5 484.5 1225.5 484.5 1225.5 484.5C1225.5 484.5 1225.5 484.5 1225.5 484.5C1225.5 484.5 1225.5 484.5 1225.5 484.5C1225.5 484.5 1225.5 484.5 1225.5 484.5C1225.5 484.5 1225.5 484.5 1225.5 484.5C1225.5 484.5 1225.5 484.5 1225.5 484.5C1225.5 484.5 1225.5 484.5 1225.5 484.5C1225.5 484.5 1225.5 484.5 1225.5 484.5C1225.5 484.5 1225.5 484.5 1225.5 484.5C1225.5 484.5 1225.5 484.5 1225.5 484.5C1225.5 484.5 1225.5 484.5 1225.5 484.5C1225.5 484.5 1225.5 484.5 1225.5 484.5C1225.5 484.5 1225.5 484.5 1225.5 484.5C1225.5 484.5 1225.5 484.5 1225.5 484.5C1225.5 484.5 1225.5 484.5 1225.5 484.5C1225.5 484.5 1225.5 484.5 1225.5 484.5C1225.5 484.5 1225.5 484.5 1225.5 484.5C1225.5 484.5 1225.5 484.5 1225.5 484.5C1225.5 484.5 1225.5 484.5 1225.5 484.5C1225.5 484.5 1225.5 484.5 1225.5 484.5C1225.5 484.5 1225.5 484.5 1225.5 484.5C1225.5 484.5 1225.5 484.5 1225.5 484.5C1225.5 484.5 1225.5 484.5 1225.5 484.5C1225.5 484.5 1225.5 484.5 1225.5 484.5C1225.5 484.5 1225.5 484.5 1225.5 484.5C1225.5 484.5 1225.5 484.5 1225.5 484.5C1225.5 484.5 1225.5 484.5 1225.5 484.5C1225.5 484.5 1225.5 484.5 1225.5 484.5C1225.5 484.5 1225.5 484.5 1225.5 484.5C1225.5 484.5 1225.5 484.5 1225.5 484.5C1225.5 484.5 1225.5 484.5 1225.5 484.5C1225.5 484.5 1225.5 484.5 1225.5 484.5C1225.5 484.5 1225.5 484.5 1225.5 484.5C1225.5 484.5 1225.5 484.5 1225.5 484.5C1225.5 484.5 1225.5 484.5 1225.5 484.5C1225.5 484.5 1225.5 484.5 1225.5 484.5C1225.5 484.5 1225.5 484.5 1225.5 484.5C1225.5 484.5 1225.5 484.5 1225.5 484.5C1225.5 484.5 1225.5 484.5 1225.5 484.5C1225.5 484.5 1225.5 484.5 1225.5 484.5C1225.5 484.5 1225.5 484.5 1225.5 484.5C1225.5 484.5 1225.5 484.5 1225.5 484.5C1225.5 484.5 1225.5 484.5 1225.5 484.5C1225.5 484.5 1225.5 484.5 1225.5 484.5C1225.5 484.5 1225.5 484.5 1225.5 484.5C1225.5 484.5 1225.5 484.5 1225.5 484.5C1225.5 484.5 1225.5 484.5 1225.5 484.5C1225.5 484.5 1225.5 484.5 1225.5 484.5C1225.5 484.5 1225.5 484.5 1225.5 484.5C1225.5 484.5 1225.5 484.5 1225.5 484.5C1225.5 484.5 1225.5 484.5 1225.5 484.5C1225.5 484.5 1225.5 484.5 1225.5 484.5C1225.5 484.5 1225.5 484.5 1225.5 484.5C1225.5 484.5 1225.5 484.5 1225.5 484.5C1225.5 484.5 1225.5 484.5 1225.5 484.5C1225.5 484.5 1225.5 484.5 1225.5 484.5C1225.5 484.5 1225.5 484.5 1225.5 484.5C1225.5 484.5 1225.5 484.5 1225.5 484.5C1225.5 484.5 1225.5 484.5 1225.5 484.5C1225.5 484.5 1225.5 484.5 1225.5 484.5C1225.5 484.5 1225.5 484.5 1225.5 484.5C1225.5 484.5 1225.5 484.5 1225.5 484.5C1225.5 484.5 1225.5 484.5 1225.5 484.5C1225.5 484.5 1225.5 484.5 1225.5 484.5C1225.5 484.5 1225.5 484.5 1225.5 484.5C1225.5 484.5 1225.5 484.5 1225.5 484.5C1225.5 484.5 1225.5 484.5 1225.5 484.5C1225.5 484.5 1225.5 484.5 1225.5 484.5C1225.5 484.5 1225.5 484.5 1225.5 484.5C1225.5 484.5 1225.5 484.5 1225.5 484.5C1225.5 484.5 1225.5 484.5 1225.5 484.5C1225.5 484.5 1225.5 484.5 1225.5 484.5C1225.5 484.5 1225.5 484.5 1225.5 484.5C1225.5 484.5 1225.5 484.5 1225.5 484.5C1225.5 484.5 1225.5 484.5 1225.5 484.5C1225.5 484.5 1225.5 484.5 1225.5 484.5C1225.5 484.5 1225.5 484.5 1225.5 484.5C1225.5 484.5 1225.5 484.5 1225.5 484.5C1225.5 484.5 1225.5 484.5 1225.5 484.5C1225.5 484.5 1225.5 484.5 1225.5 484.5C1225.5 484.5 1225.5 484.5 1225.5 484.5C1225.5 484.5 1225.5 484.5 1225.5 484.5C1225.5 484.5 1225.5 484.5 1225.5 484.5C1225.5 484.5 1225.5 484.5 1225.5 484.5C1225.5 484.5 1225.5 484.5 1225.5 484.5C1225.5 484.5 1225.5 484.5 1225.5 484.5C1225.5 484.5 1225.5 484.5 1225.5 484.5C1225.5 484.5 1225.5 484.5 1225.5 484.5C1225.5 484.5 1225.5 484.5 1225.5 484.5C1225.5 484.5 1225.5 484.5 1225.5 484.5C1225.5 484.5 1225.5 484.5 1225.5 484.5C1225.5 484.5 1225.5 484.5 1225.5 484.5C1225.5 484.5 1225.5 484.5 1225.5 484.5C1225.5 484.5 1225.5 484.5 1225.5 484.5C1225.5 484.5 1225.5 484.5 1225.5 484.5C1225.5 484.5 1225.5 484.5 1225.5 484.5C1225.5 484.5 1225.5 484.5 1225.5 484.5C1225.5 484.5 1225.5 484.5 1225.5 484.5C1225.5 484.5 1225.5 484.5 1225.5 484.5C1225.5 484.5 1225.5 484.5 1225.5 484.5C1225.5 484.5 1225.5 484.5 1225.5 484.5C1225.5 484.5 1225.5 484.5 1225.5 484.5C1225.5 484.5 1225.5 484.5 1225.5 484.5C1225.5 484.5 1225.5 484.5 1225.5 484.5C1225.5 484.5 1225.5 484.5 1225.5 484.5C1225.5 484.5 1225.5 484.5 1225.5 484.5C1225.5 484.5 1225.5 484.5 1225.5 484.5C1225.5 484.5 1225.5 484.5 1225.5 484.5C1225.5 484.5 1225.5 484.5 1225.5 484.5C1225.5 484.5 1225.5 484.5 1225.5 484.5C1225.5 484.5 1225.5 484.5 1225.5 484.5C1225.5 484.5 1225.5 484.5 1225.5 484.5C1225.5 484.5 1225.5 484.5 1225.5 484.5C1225.5 484.5 1225.5 484.5 1225.5 484.5C1225.5 484.5 1225.5 484.5 1225.5 484.5C1225.5 484.5 1225.5 484.5 1225.5 484.5C1225.5 484.5 1225.5 484.5 1225.5 484.5C1225.5 484.5 1225.5 484.5 1225.5 484.5C1225.5 484.5 1225.5 484.5 1225.5 484.5C1225.5 484.5 1225.5 484.5 1225.5 484.5C1225.5 484.5 1225.5 484.5 1225.5 484.5C1225.5 484.5 1225.5 484.5 1225.5 484.5C1225.5 484.5 1225.5 484.5 1225.5 484.5C1225.5 484.5 1225.5 484.5 1225.5 484.5C1225.5 484.5 1225.5 484.5 1225.5 484.5C1225.5 484.5 1225.5 484.5 1225.5 484.5C1225.5 484.5 1225.5 484.5 1225.5 484.5C1225.5 484.5 1225.5 484.5 1225.5 484.5C1225.5 484.5 1225.5 484.5 1225.5 484.5C1225.5 484.5 1225.5 484.5 1225.5 484.5C1225.5 484.5 1225.5 484.5 1225.5 484.5C1225.5 484.5 1225.5 484.5 1225.5 484.5C1225.5 484.5 1225.5 484.5 1225.5 484.5C1225.5 484.5 1225.5 484.5 1225.5 484.5C1225.5 484.5 1225.5 484.5 1225.5 484.5C1225.5 484.5 1225.5 484.5 1225.5 484.5C1225.5 484.5 1225.5 484.5 1225.5 484.5C1225.5 484.5 1225.5 484.5 1225.5 484.5C1225.5 484.5 1225.5 484.5 1225.5 484.5C1225.5 484.5 1225.5 484.5 1225.5 484.5C1225.5 484.5 1225.5 484.5 1225.5 484.5C1225.5 484.5 1225.5 484.5 1225.5 484.5C1225.5 484.5 1225.5 484.5 1225.5 484.5C1225.5 484.5 1225.5 484.5 1225.5 484.5C1225.5 484.5 1225.5 484.5 1225.5 484.5C1225.5 484.5 1225.5 484.5 1225.5 484.5C1225.5 484.5 1225.5 484.5 1225.5 484.5C1225.5 484.5 1225.5 484.5 1225.5 484.5C1225.5 484.5 1225.5 484.5 1225.5 484.5C1225.5 484.5 1225.5 484.5 1225.5 484.5C1225.5 484.5 1225.5 484.5 1225.5 484.5C1225.5 484.5 1225.5 484.5 1225.5 484.5C1225.5 484.5 1225.5 484.5 1225.5 484.5C1225.5 484.5 1225.5 484.5 1225.5 484.5C1225.5 484.5 1225.5 484.5 1225.5 484.5C1225.5 484.5 1225.5 484.5 1225.5 484.5C1225.5 484.5 1225.5 484.5 1225.5 484.5C1225.5 484.5 1225.5 484.5 1225.5 484.5C1225.5 484.5 1225.5 484.5 1225.5 484.5C1225.5 484.5 1225.5 484.5 1225.5 484.5C1225.5 484.5 1225.5 484.5 1225.5 484.5C1225.5 484.5 1225.5 484.5 1225.5 484.5C1225.5 484.5 1225.5 484.5 1225.5 484.5C1225.5 484.5 1225.5 484.5 1225.5 484.5C1225.5 484.5 1225.5 484.5 1225.5 484.5C1225.5 484.5 1225.5 484.5 1225.5 484.5C1225.5 484.5 1225.5 484.5 1225.5 484.5C1225.5 484.5 1225.5 484.5 1225.5 484.5C1225.5 484.5 1225.5 484.5 1225.5 484.5C1225.5 484.5 1225.5 484.5 1225.5 484.5C1225.5 484.5 1225.5 484.5 1225.5 484.5C1225.5 484.5 1225.5 484.5 1225.5 484.5C1225.5 484.5 1225.5 484.5 1225.5 484.5C1225.5 484.5 1225.5 484.5 1225.5 484.5C1225.5 484.5 1225.5 484.5 1225.5 484.5C1225.5 484.5 1225.5 484.5 1225.5 484.5C1225.5 484.5 1225.5 484.5 1225.5 484.5C1225.5 484.5 1225.5 484.5 1225.5 484.5C1225.5 484.5 1225.5 484.5 1225.5 484.5C1225.5 484.5 1225.5 484.5 1225.5 484.5C1225.5 484.5 1225.5 484.5 1225.5 484.5C1225.5 484.5 1225.5 484.5 1225.5 484.5C1225.5 484.5 1225.5 484.5 1225.5 484.5C1225.5 484.5 1225.5 484.5 1225.5 484.5C1225.5 484.5 1225.5 484.5 1225.5 484.5C1225.5 484.5 1225.5 484.5 1225.5 484.5C1225.5 484.5 1225.5 484.5 1225.5 484.5C1225.5 484.5 1225.5 484.5 1225.5 484.5C1225.5 484.5 1225.5 484.5 1225.5 484.5C1225.5 484.5 1225.5 484.5 1225.5 484.5C1225.5 484.5 1225.5 484.5 1225.5 484.5C1225.5 484.5 1225.5 484.5 1225.5 484.5C1225.5 484.5 1225.5 484.5 1225.5 484.5C1225.5 484.5 1225.5 484.5 1225.5 484.5C1225.5 484.5 1225.5 484.5 1225.5 484.5C1225.5 484.5 1225.5 484.5 1225.5 484.5C1225.5 484.5 1225.5 484.5 1225.5 484.5C1225.5 484.5 1225.5 484.5 1225.5 484.5C1225.5 484.5 1225.5 484.5 1225.5 484.5C1225.5 484.5 1225.5 484.5 1225.5 484.5C1225.5 484.5 1225.5 484.5 1225.5 484.5C1225.5 484.5 1225.5 484.5 1225.5 484.5C1225.5 484.5 1225.5 484.5 1225.5 484.5C1225.5 484.5 1225.5 484.5 1225.5 484.5C1225.5 484.5 1225.5 484.5 1225.5 484.5C1225.5 484.5 1225.5 484.5 1225.5 484.5C1225.5 484.5 1225.5 484.5 1225.5 484.5C1225.5 484.5 1225.5 484.5 1225.5 484.5C1225.5 484.5 1225.5 484.5 1225.5 484.5C1225.5 484.5 1225.5 484.5 1225.5 484.5C1225.5 484.5 1225.5 484.5 1225.5 484.5C1225.5 484.5 1225.5 484.5 1225.5 484.5C1225.5 484.5 1225.5 484.5 1225.5 484.5C1225.5 484.5 1225.5 484.5 1225.5 484.5C1225.5 484.5 1225.5 484.5 1225.5 484.5C1225.5 484.5 1225.5 484.5 1225.5 484.5C1225.5 484.5 1225.5 484.5 1225.5 484.5C1225.5 484.5 1225.5 484.5 1225.5 484.5C1225.5 484.5 1225.5 484.5 1225.5 484.5C1225.5 484.5 1225.5 484.5 1225.5 484.5C1225.5 484.5 1225.5 484.5 1225.5 484.5C1225.5 484.5 1225.5 484.5 1225.5 484.5C1225.5 484.5 1225.5 484.5 1225.5 484.5C1225.5 484.5 1225.5 484.5 1225.5 484.5C1225.5 484.5 1225.5 484.5 1225.5 484.5C1225.5 484.5 1225.5 484.5 1225.5 484.5C1225.5 484.5 1225.5 484.5 1225.5 484.5C1225.5 484.5 1225.5 484.5 1225.5 484.5C1225.5 484.5 1225.5 484.5 1225.5 484.5C1225.5 484.5 1225.5 484.5 1225.5 484.5C1225.5 484.5 1225.5 484.5 1225.5 484.5C1225.5 484.5 1225.5 484.5 1225.5 484.5C1225.5 484.5 1225.5 484.5 1225.5 484.5C1225.5 484.5 1225.5 484.5 1225.5 484.5C1225.5 484.5 1225.5 484.5 1225.5 484.5C1225.5 484.5 1225.5 484.5 1225.5 484.5C1225.5 484.5 1225.5 484.5 1225.5 484.5C1225.5 484.5 1225.5 484.5 1225.5 484.5C1225.5 484.5 1225.5 484.5 1225.5 484.5C1225.5 484.5 1225.5 484.5 1225.5 484.5C1225.5 484.5 1225.5 484.5 1225.5 484.5C1225.5 484.5 1225.5 484.5 1225.5 484.5C1225.5 484.5 1225.5 484.5 1225.5 484.5C1225.5 484.5 1225.5 484.5 1225.5 484.5C1225.5 484.5 1225.5 484.5 1225.5 484.5C1225.5 484.5 1225.5 484.5 1225.5 484.5C1225.5 484.5 1225.5 484.5 1225.5 484.5C1225.5 484.5 1225.5 484.5 1225.5 484.5C1225.5 484.5 1225.5 484.5 1225.5 484.5C1225.5 484.5 1225.5 484.5 1225.5 484.5C1225.5 484.5 1225.5 484.5 1225.5 484.5C1225.5 484.5 1225.5 484.5 1225.5 484.5C1225.5 484.5 1225.5 484.5 1225.5 484.5C1225.5 484.5 1225.5 484.5 1225.5 484.5C1225.5 484.5 1225.5 484.5 1225.5 484.5C1225.5 484.5 1225.5 484.5 1225.5 484.5C1225.5 484.5 1225.5 484.5 1225.5 484.5C1225.5 484.5 1225.5 484.5 1225.5 484.5C1225.5 484.5 1225.5 484.5 1225.5 484.5C1225.5 484.5 1225.5 484.5 1225.5 484.5C1225.5 484.5 1225.5 484.5 1225.5 484.5C1225.5 484.5 1225.5 484.5 1225.5 484.5C1225.5 484.5 1225.5 484.5 1225.5 484.5C1225.5 484.5 1225.5 484.5 1225.5 484.5C1225.5 484.5 1225.5 484.5 1225.5 484.5C1225.5 484.5 1225.5 484.5 1225.5 484.5C1225.5 484.5 1225.5 484.5 1225.5 484.5C1225.5 484.5 1225.5 484.5 1225.5 484.5C1225.5 484.5 1225.5 484.5 1225.5 484.5C1225.5 484.5 1225.5 484.5 1225.5 484.5C1225.5 484.5 1225.5 484.5 1225.5 484.5C1225.5 484.5 1225.5 484.5 1225.5 484.5C1225.5 484.5 1225.5 484.5 1225.5 484.5C1225.5 484.5 1225.5 484.5 1225.5 484.5C1225.5 484.5 1225.5 484.5 1225.5 484.5C1225.5 484.5 1225.5 484.5 1225.5 484.5C1225.5 484.5 1225.5 484.5 1225.5 484.5C1225.5 484.5 1225.5 484.5 1225.5 484.5C1225.5 484.5 1225.5 484.5 1225.5 484.5V481.5C1225.5 481.5 1225.5 481.5 1225.5 481.5C1225.5 481.5 1225.5 481.5 1225.5 481.5C1225.5 481.5 1225.5 481.5 1225.5 481.5C1225.5 481.5 1225.5 481.5 1225.5 481.5C1225.5 481.5 1225.5 481.5 1225.5 481.5C1225.5 481.5 1225.5 481.5 1225.5 481.5C1225.5 481.5 1225.5 481.5 1225.5 481.5C1225.5 481.5 1225.5 481.5 1225.5 481.5C1225.5 481.5 1225.5 481.5 1225.5 481.5C1225.5 481.5 1225.5 481.5 1225.5 481.5C1225.5 481.5 1225.5 481.5 1225.5 481.5C1225.5 481.5 1225.5 481.5 1225.5 481.5C1225.5 481.5 1225.5 481.5 1225.5 481.5C1225.5 481.5 1225.5 481.5 1225.5 481.5C1225.5 481.5 1225.5 481.5 1225.5 481.5C1225.5 481.5 1225.5 481.5 1225.5 481.5C1225.5 481.5 1225.5 481.5 1225.5 481.5C1225.5 481.5 1225.5 481.5 1225.5 481.5C1225.5 481.5 1225.5 481.5 1225.5 481.5C1225.5 481.5 1225.5 481.5 1225.5 481.5C1225.5 481.5 1225.5 481.5 1225.5 481.5C1225.5 481.5 1225.5 481.5 1225.5 481.5C1225.5 481.5 1225.5 481.5 1225.5 481.5C1225.5 481.5 1225.5 481.5 1225.5 481.5C1225.5 481.5 1225.5 481.5 1225.5 481.5C1225.5 481.5 1225.5 481.5 1225.5 481.5C1225.5 481.5 1225.5 481.5 1225.5 481.5C1225.5 481.5 1225.5 481.5 1225.5 481.5C1225.5 481.5 1225.5 481.5 1225.5 481.5C1225.5 481.5 1225.5 481.5 1225.5 481.5C1225.5 481.5 1225.5 481.5 1225.5 481.5C1225.5 481.5 1225.5 481.5 1225.5 481.5C1225.5 481.5 1225.5 481.5 1225.5 481.5C1225.5 481.5 1225.5 481.5 1225.5 481.5C1225.5 481.5 1225.5 481.5 1225.5 481.5C1225.5 481.5 1225.5 481.5 1225.5 481.5C1225.5 481.5 1225.5 481.5 1225.5 481.5C1225.5 481.5 1225.5 481.5 1225.5 481.5C1225.5 481.5 1225.5 481.5 1225.5 481.5C1225.5 481.5 1225.5 481.5 1225.5 481.5C1225.5 481.5 1225.5 481.5 1225.5 481.5C1225.5 481.5 1225.5 481.5 1225.5 481.5C1225.5 481.5 1225.5 481.5 1225.5 481.5C1225.5 481.5 1225.5 481.5 1225.5 481.5C1225.5 481.5 1225.5 481.5 1225.5 481.5C1225.5 481.5 1225.5 481.5 1225.5 481.5C1225.5 481.5 1225.5 481.5 1225.5 481.5C1225.5 481.5 1225.5 481.5 1225.5 481.5C1225.5 481.5 1225.5 481.5 1225.5 481.5C1225.5 481.5 1225.5 481.5 1225.5 481.5C1225.5 481.5 1225.5 481.5 1225.5 481.5C1225.5 481.5 1225.5 481.5 1225.5 481.5C1225.5 481.5 1225.5 481.5 1225.5 481.5C1225.5 481.5 1225.5 481.5 1225.5 481.5C1225.5 481.5 1225.5 481.5 1225.5 481.5C1225.5 481.5 1225.5 481.5 1225.5 481.5C1225.5 481.5 1225.5 481.5 1225.5 481.5C1225.5 481.5 1225.5 481.5 1225.5 481.5C1225.5 481.5 1225.5 481.5 1225.5 481.5C1225.5 481.5 1225.5 481.5 1225.5 481.5C1225.5 481.5 1225.5 481.5 1225.5 481.5C1225.5 481.5 1225.5 481.5 1225.5 481.5C1225.5 481.5 1225.5 481.5 1225.5 481.5C1225.5 481.5 1225.5 481.5 1225.5 481.5C1225.5 481.5 1225.5 481.5 1225.5 481.5C1225.5 481.5 1225.5 481.5 1225.5 481.5C1225.5 481.5 1225.5 481.5 1225.5 481.5C1225.5 481.5 1225.5 481.5 1225.5 481.5C1225.5 481.5 1225.5 481.5 1225.5 481.5C1225.5 481.5 1225.5 481.5 1225.5 481.5C1225.5 481.5 1225.5 481.5 1225.5 481.5C1225.5 481.5 1225.5 481.5 1225.5 481.5C1225.5 481.5 1225.5 481.5 1225.5 481.5C1225.5 481.5 1225.5 481.5 1225.5 481.5C1225.5 481.5 1225.5 481.5 1225.5 481.5C1225.5 481.5 1225.5 481.5 1225.5 481.5C1225.5 481.5 1225.5 481.5 1225.5 481.5C1225.5 481.5 1225.5 481.5 1225.5 481.5C1225.5 481.5 1225.5 481.5 1225.5 481.5C1225.5 481.5 1225.5 481.5 1225.5 481.5C1225.5 481.5 1225.5 481.5 1225.5 481.5C1225.5 481.5 1225.5 481.5 1225.5 481.5C1225.5 481.5 1225.5 481.5 1225.5 481.5C1225.5 481.5 1225.5 481.5 1225.5 481.5C1225.5 481.5 1225.5 481.5 1225.5 481.5C1225.5 481.5 1225.5 481.5 1225.5 481.5C1225.5 481.5 1225.5 481.5 1225.5 481.5C1225.5 481.5 1225.5 481.5 1225.5 481.5C1225.5 481.5 1225.5 481.5 1225.5 481.5C1225.5 481.5 1225.5 481.5 1225.5 481.5C1225.5 481.5 1225.5 481.5 1225.5 481.5C1225.5 481.5 1225.5 481.5 1225.5 481.5C1225.5 481.5 1225.5 481.5 1225.5 481.5C1225.5 481.5 1225.5 481.5 1225.5 481.5C1225.5 481.5 1225.5 481.5 1225.5 481.5C1225.5 481.5 1225.5 481.5 1225.5 481.5C1225.5 481.5 1225.5 481.5 1225.5 481.5C1225.5 481.5 1225.5 481.5 1225.5 481.5C1225.5 481.5 1225.5 481.5 1225.5 481.5C1225.5 481.5 1225.5 481.5 1225.5 481.5C1225.5 481.5 1225.5 481.5 1225.5 481.5C1225.5 481.5 1225.5 481.5 1225.5 481.5C1225.5 481.5 1225.5 481.5 1225.5 481.5C1225.5 481.5 1225.5 481.5 1225.5 481.5C1225.5 481.5 1225.5 481.5 1225.5 481.5C1225.5 481.5 1225.5 481.5 1225.5 481.5C1225.5 481.5 1225.5 481.5 1225.5 481.5C1225.5 481.5 1225.5 481.5 1225.5 481.5C1225.5 481.5 1225.5 481.5 1225.5 481.5C1225.5 481.5 1225.5 481.5 1225.5 481.5C1225.5 481.5 1225.5 481.5 1225.5 481.5C1225.5 481.5 1225.5 481.5 1225.5 481.5C1225.5 481.5 1225.5 481.5 1225.5 481.5C1225.5 481.5 1225.5 481.5 1225.5 481.5C1225.5 481.5 1225.5 481.5 1225.5 481.5C1225.5 481.5 1225.5 481.5 1225.5 481.5C1225.5 481.5 1225.5 481.5 1225.5 481.5C1225.5 481.5 1225.5 481.5 1225.5 481.5C1225.5 481.5 1225.5 481.5 1225.5 481.5C1225.5 481.5 1225.5 481.5 1225.5 481.5C1225.5 481.5 1225.5 481.5 1225.5 481.5C1225.5 481.5 1225.5 481.5 1225.5 481.5C1225.5 481.5 1225.5 481.5 1225.5 481.5C1225.5 481.5 1225.5 481.5 1225.5 481.5C1225.5 481.5 1225.5 481.5 1225.5 481.5C1225.5 481.5 1225.5 481.5 1225.5 481.5C1225.5 481.5 1225.5 481.5 1225.5 481.5C1225.5 481.5 1225.5 481.5 1225.5 481.5C1225.5 481.5 1225.5 481.5 1225.5 481.5C1225.5 481.5 1225.5 481.5 1225.5 481.5C1225.5 481.5 1225.5 481.5 1225.5 481.5C1225.5 481.5 1225.5 481.5 1225.5 481.5C1225.5 481.5 1225.5 481.5 1225.5 481.5C1225.5 481.5 1225.5 481.5 1225.5 481.5C1225.5 481.5 1225.5 481.5 1225.5 481.5C1225.5 481.5 1225.5 481.5 1225.5 481.5C1225.5 481.5 1225.5 481.5 1225.5 481.5C1225.5 481.5 1225.5 481.5 1225.5 481.5C1225.5 481.5 1225.5 481.5 1225.5 481.5C1225.5 481.5 1225.5 481.5 1225.5 481.5C1225.5 481.5 1225.5 481.5 1225.5 481.5C1225.5 481.5 1225.5 481.5 1225.5 481.5C1225.5 481.5 1225.5 481.5 1225.5 481.5C1225.5 481.5 1225.5 481.5 1225.5 481.5C1225.5 481.5 1225.5 481.5 1225.5 481.5C1225.5 481.5 1225.5 481.5 1225.5 481.5C1225.5 481.5 1225.5 481.5 1225.5 481.5C1225.5 481.5 1225.5 481.5 1225.5 481.5C1225.5 481.5 1225.5 481.5 1225.5 481.5C1225.5 481.5 1225.5 481.5 1225.5 481.5C1225.5 481.5 1225.5 481.5 1225.5 481.5C1225.5 481.5 1225.5 481.5 1225.5 481.5C1225.5 481.5 1225.5 481.5 1225.5 481.5C1225.5 481.5 1225.5 481.5 1225.5 481.5C1225.5 481.5 1225.5 481.5 1225.5 481.5C1225.5 481.5 1225.5 481.5 1225.5 481.5C1225.5 481.5 1225.5 481.5 1225.5 481.5C1225.5 481.5 1225.5 481.5 1225.5 481.5C1225.5 481.5 1225.5 481.5 1225.5 481.5C1225.5 481.5 1225.5 481.5 1225.5 481.5C1225.5 481.5 1225.5 481.5 1225.5 481.5C1225.5 481.5 1225.5 481.5 1225.5 481.5C1225.5 481.5 1225.5 481.5 1225.5 481.5C1225.5 481.5 1225.5 481.5 1225.5 481.5C1225.5 481.5 1225.5 481.5 1225.5 481.5C1225.5 481.5 1225.5 481.5 1225.5 481.5C1225.5 481.5 1225.5 481.5 1225.5 481.5C1225.5 481.5 1225.5 481.5 1225.5 481.5C1225.5 481.5 1225.5 481.5 1225.5 481.5C1225.5 481.5 1225.5 481.5 1225.5 481.5C1225.5 481.5 1225.5 481.5 1225.5 481.5C1225.5 481.5 1225.5 481.5 1225.5 481.5C1225.5 481.5 1225.5 481.5 1225.5 481.5C1225.5 481.5 1225.5 481.5 1225.5 481.5C1225.5 481.5 1225.5 481.5 1225.5 481.5C1225.5 481.5 1225.5 481.5 1225.5 481.5C1225.5 481.5 1225.5 481.5 1225.5 481.5C1225.5 481.5 1225.5 481.5 1225.5 481.5C1225.5 481.5 1225.5 481.5 1225.5 481.5C1225.5 481.5 1225.5 481.5 1225.5 481.5C1225.5 481.5 1225.5 481.5 1225.5 481.5C1225.5 481.5 1225.5 481.5 1225.5 481.5C1225.5 481.5 1225.5 481.5 1225.5 481.5C1225.5 481.5 1225.5 481.5 1225.5 481.5C1225.5 481.5 1225.5 481.5 1225.5 481.5C1225.5 481.5 1225.5 481.5 1225.5 481.5C1225.5 481.5 1225.5 481.5 1225.5 481.5C1225.5 481.5 1225.5 481.5 1225.5 481.5C1225.5 481.5 1225.5 481.5 1225.5 481.5C1225.5 481.5 1225.5 481.5 1225.5 481.5C1225.5 481.5 1225.5 481.5 1225.5 481.5C1225.5 481.5 1225.5 481.5 1225.5 481.5C1225.5 481.5 1225.5 481.5 1225.5 481.5C1225.5 481.5 1225.5 481.5 1225.5 481.5C1225.5 481.5 1225.5 481.5 1225.5 481.5C1225.5 481.5 1225.5 481.5 1225.5 481.5C1225.5 481.5 1225.5 481.5 1225.5 481.5C1225.5 481.5 1225.5 481.5 1225.5 481.5C1225.5 481.5 1225.5 481.5 1225.5 481.5C1225.5 481.5 1225.5 481.5 1225.5 481.5C1225.5 481.5 1225.5 481.5 1225.5 481.5C1225.5 481.5 1225.5 481.5 1225.5 481.5C1225.5 481.5 1225.5 481.5 1225.5 481.5C1225.5 481.5 1225.5 481.5 1225.5 481.5C1225.5 481.5 1225.5 481.5 1225.5 481.5C1225.5 481.5 1225.5 481.5 1225.5 481.5C1225.5 481.5 1225.5 481.5 1225.5 481.5C1225.5 481.5 1225.5 481.5 1225.5 481.5C1225.5 481.5 1225.5 481.5 1225.5 481.5C1225.5 481.5 1225.5 481.5 1225.5 481.5C1225.5 481.5 1225.5 481.5 1225.5 481.5C1225.5 481.5 1225.5 481.5 1225.5 481.5C1225.5 481.5 1225.5 481.5 1225.5 481.5C1225.5 481.5 1225.5 481.5 1225.5 481.5C1225.5 481.5 1225.5 481.5 1225.5 481.5C1225.5 481.5 1225.5 481.5 1225.5 481.5C1225.5 481.5 1225.5 481.5 1225.5 481.5C1225.5 481.5 1225.5 481.5 1225.5 481.5C1225.5 481.5 1225.5 481.5 1225.5 481.5C1225.5 481.5 1225.5 481.5 1225.5 481.5C1225.5 481.5 1225.5 481.5 1225.5 481.5C1225.5 481.5 1225.5 481.5 1225.5 481.5C1225.5 481.5 1225.5 481.5 1225.5 481.5C1225.5 481.5 1225.5 481.5 1225.5 481.5C1225.5 481.5 1225.5 481.5 1225.5 481.5C1225.5 481.5 1225.5 481.5 1225.5 481.5C1225.5 481.5 1225.5 481.5 1225.5 481.5C1225.5 481.5 1225.5 481.5 1225.5 481.5C1225.5 481.5 1225.5 481.5 1225.5 481.5C1225.5 481.5 1225.5 481.5 1225.5 481.5C1225.5 481.5 1225.5 481.5 1225.5 481.5C1225.5 481.5 1225.5 481.5 1225.5 481.5C1225.5 481.5 1225.5 481.5 1225.5 481.5C1225.5 481.5 1225.5 481.5 1225.5 481.5C1225.5 481.5 1225.5 481.5 1225.5 481.5C1225.5 481.5 1225.5 481.5 1225.5 481.5C1225.5 481.5 1225.5 481.5 1225.5 481.5C1225.5 481.5 1225.5 481.5 1225.5 481.5C1225.5 481.5 1225.5 481.5 1225.5 481.5C1225.5 481.5 1225.5 481.5 1225.5 481.5C1225.5 481.5 1225.5 481.5 1225.5 481.5C1225.5 481.5 1225.5 481.5 1225.5 481.5C1225.5 481.5 1225.5 481.5 1225.5 481.5C1225.5 481.5 1225.5 481.5 1225.5 481.5C1225.5 481.5 1225.5 481.5 1225.5 481.5C1225.5 481.5 1225.5 481.5 1225.5 481.5C1225.5 481.5 1225.5 481.5 1225.5 481.5C1225.5 481.5 1225.5 481.5 1225.5 481.5C1225.5 481.5 1225.5 481.5 1225.5 481.5C1225.5 481.5 1225.5 481.5 1225.5 481.5C1225.5 481.5 1225.5 481.5 1225.5 481.5C1225.5 481.5 1225.5 481.5 1225.5 481.5C1225.5 481.5 1225.5 481.5 1225.5 481.5C1225.5 481.5 1225.5 481.5 1225.5 481.5C1225.5 481.5 1225.5 481.5 1225.5 481.5C1225.5 481.5 1225.5 481.5 1225.5 481.5C1225.5 481.5 1225.5 481.5 1225.5 481.5C1225.5 481.5 1225.5 481.5 1225.5 481.5C1225.5 481.5 1225.5 481.5 1225.5 481.5C1225.5 481.5 1225.5 481.5 1225.5 481.5C1225.5 481.5 1225.5 481.5 1225.5 481.5C1225.5 481.5 1225.5 481.5 1225.5 481.5C1225.5 481.5 1225.5 481.5 1225.5 481.5C1225.5 481.5 1225.5 481.5 1225.5 481.5C1225.5 481.5 1225.5 481.5 1225.5 481.5C1225.5 481.5 1225.5 481.5 1225.5 481.5C1225.5 481.5 1225.5 481.5 1225.5 481.5C1225.5 481.5 1225.5 481.5 1225.5 481.5C1225.5 481.5 1225.5 481.5 1225.5 481.5C1225.5 481.5 1225.5 481.5 1225.5 481.5C1225.5 481.5 1225.5 481.5 1225.5 481.5C1225.5 481.5 1225.5 481.5 1225.5 481.5C1225.5 481.5 1225.5 481.5 1225.5 481.5C1225.5 481.5 1225.5 481.5 1225.5 481.5C1225.5 481.5 1225.5 481.5 1225.5 481.5C1225.5 481.5 1225.5 481.5 1225.5 481.5C1225.5 481.5 1225.5 481.5 1225.5 481.5C1225.5 481.5 1225.5 481.5 1225.5 481.5C1225.5 481.5 1225.5 481.5 1225.5 481.5C1225.5 481.5 1225.5 481.5 1225.5 481.5C1225.5 481.5 1225.5 481.5 1225.5 481.5C1225.5 481.5 1225.5 481.5 1225.5 481.5C1225.5 481.5 1225.5 481.5 1225.5 481.5C1225.5 481.5 1225.5 481.5 1225.5 481.5C1225.5 481.5 1225.5 481.5 1225.5 481.5C1225.5 481.5 1225.5 481.5 1225.5 481.5C1225.5 481.5 1225.5 481.5 1225.5 481.5C1225.5 481.5 1225.5 481.5 1225.5 481.5C1225.5 481.5 1225.5 481.5 1225.5 481.5C1225.5 481.5 1225.5 481.5 1225.5 481.5C1225.5 481.5 1225.5 481.5 1225.5 481.5C1225.5 481.5 1225.5 481.5 1225.5 481.5C1225.5 481.5 1225.5 481.5 1225.5 481.5C1225.5 481.5 1225.5 481.5 1225.5 481.5C1225.5 481.5 1225.5 481.5 1225.5 481.5C1225.5 481.5 1225.5 481.5 1225.5 481.5C1225.5 481.5 1225.5 481.5 1225.5 481.5C1225.5 481.5 1225.5 481.5 1225.5 481.5C1225.5 481.5 1225.5 481.5 1225.5 481.5C1225.5 481.5 1225.5 481.5 1225.5 481.5C1225.5 481.5 1225.5 481.5 1225.5 481.5C1225.5 481.5 1225.5 481.5 1225.5 481.5C1225.5 481.5 1225.5 481.5 1225.5 481.5C1225.5 481.5 1225.5 481.5 1225.5 481.5C1225.5 481.5 1225.5 481.5 1225.5 481.5C1225.5 481.5 1225.5 481.5 1225.5 481.5C1225.5 481.5 1225.5 481.5 1225.5 481.5C1225.5 481.5 1225.5 481.5 1225.5 481.5C1225.5 481.5 1225.5 481.5 1225.5 481.5C1225.5 481.5 1225.5 481.5 1225.5 481.5C1225.5 481.5 1225.5 481.5 1225.5 481.5C1225.5 481.5 1225.5 481.5 1225.5 481.5C1225.5 481.5 1225.5 481.5 1225.5 481.5C1225.5 481.5 1225.5 481.5 1225.5 481.5C1225.5 481.5 1225.5 481.5 1225.5 481.5C1225.5 481.5 1225.5 481.5 1225.5 481.5C1225.5 481.5 1225.5 481.5 1225.5 481.5C1225.5 481.5 1225.5 481.5 1225.5 481.5C1225.5 481.5 1225.5 481.5 1225.5 481.5C1225.5 481.5 1225.5 481.5 1225.5 481.5C1225.5 481.5 1225.5 481.5 1225.5 481.5C1225.5 481.5 1225.5 481.5 1225.5 481.5C1225.5 481.5 1225.5 481.5 1225.5 481.5C1225.5 481.5 1225.5 481.5 1225.5 481.5C1225.5 481.5 1225.5 481.5 1225.5 481.5C1225.5 481.5 1225.5 481.5 1225.5 481.5C1225.5 481.5 1225.5 481.5 1225.5 481.5C1225.5 481.5 1225.5 481.5 1225.5 481.5C1225.5 481.5 1225.5 481.5 1225.5 481.5C1225.5 481.5 1225.5 481.5 1225.5 481.5C1225.5 481.5 1225.5 481.5 1225.5 481.5C1225.5 481.5 1225.5 481.5 1225.5 481.5C1225.5 481.5 1225.5 481.5 1225.5 481.5C1225.5 481.5 1225.5 481.5 1225.5 481.5C1225.5 481.5 1225.5 481.5 1225.5 481.5C1225.5 481.5 1225.5 481.5 1225.5 481.5C1225.5 481.5 1225.5 481.5 1225.5 481.5C1225.5 481.5 1225.5 481.5 1225.5 481.5C1225.5 481.5 1225.5 481.5 1225.5 481.5C1225.5 481.5 1225.5 481.5 1225.5 481.5C1225.5 481.5 1225.5 481.5 1225.5 481.5C1225.5 481.5 1225.5 481.5 1225.5 481.5C1225.5 481.5 1225.5 481.5 1225.5 481.5C1225.5 481.5 1225.5 481.5 1225.5 481.5C1225.5 481.5 1225.5 481.5 1225.5 481.5C1225.5 481.5 1225.5 481.5 1225.5 481.5C1225.5 481.5 1225.5 481.5 1225.5 481.5C1225.5 481.5 1225.5 481.5 1225.5 481.5C1225.5 481.5 1225.5 481.5 1225.5 481.5C1225.5 481.5 1225.5 481.5 1225.5 481.5C1225.5 481.5 1225.5 481.5 1225.5 481.5C1225.5 481.5 1225.5 481.5 1225.5 481.5C1225.5 481.5 1225.5 481.5 1225.5 481.5C1225.5 481.5 1225.5 481.5 1225.5 481.5C1225.5 481.5 1225.5 481.5 1225.5 481.5C1225.5 481.5 1225.5 481.5 1225.5 481.5C1225.5 481.5 1225.5 481.5 1225.5 481.5C1225.5 481.5 1225.5 481.5 1225.5 481.5C1225.5 481.5 1225.5 481.5 1225.5 481.5C1225.5 481.5 1225.5 481.5 1225.5 481.5C1225.5 481.5 1225.5 481.5 1225.5 481.5C1225.5 481.5 1225.5 481.5 1225.5 481.5C1225.5 481.5 1225.5 481.5 1225.5 481.5C1225.5 481.5 1225.5 481.5 1225.5 481.5C1225.5 481.5 1225.5 481.5 1225.5 481.5C1225.5 481.5 1225.5 481.5 1225.5 481.5C1225.5 481.5 1225.5 481.5 1225.5 481.5C1225.5 481.5 1225.5 481.5 1225.5 481.5C1225.5 481.5 1225.5 481.5 1225.5 481.5C1225.5 481.5 1225.5 481.5 1225.5 481.5C1225.5 481.5 1225.5 481.5 1225.5 481.5C1225.5 481.5 1225.5 481.5 1225.5 481.5C1225.5 481.5 1225.5 481.5 1225.5 481.5C1225.5 481.5 1225.5 481.5 1225.5 481.5C1225.5 481.5 1225.5 481.5 1225.5 481.5C1225.5 481.5 1225.5 481.5 1225.5 481.5C1225.5 481.5 1225.5 481.5 1225.5 481.5C1225.5 481.5 1225.5 481.5 1225.5 481.5C1225.5 481.5 1225.5 481.5 1225.5 481.5C1225.5 481.5 1225.5 481.5 1225.5 481.5C1225.5 481.5 1225.5 481.5 1225.5 481.5C1225.5 481.5 1225.5 481.5 1225.5 481.5C1225.5 481.5 1225.5 481.5 1225.5 481.5C1225.5 481.5 1225.5 481.5 1225.5 481.5C1225.5 481.5 1225.5 481.5 1225.5 481.5C1225.5 481.5 1225.5 481.5 1225.5 481.5C1225.5 481.5 1225.5 481.5 1225.5 481.5C1225.5 481.5 1225.5 481.5 1225.5 481.5C1225.5 481.5 1225.5 481.5 1225.5 481.5C1225.5 481.5 1225.5 481.5 1225.5 481.5C1225.5 481.5 1225.5 481.5 1225.5 481.5C1225.5 481.5 1225.5 481.5 1225.5 481.5C1225.5 481.5 1225.5 481.5 1225.5 481.5C1225.5 481.5 1225.5 481.5 1225.5 481.5C1225.5 481.5 1225.5 481.5 1225.5 481.5C1225.5 481.5 1225.5 481.5 1225.5 481.5C1225.5 481.5 1225.5 481.5 1225.5 481.5C1225.5 481.5 1225.5 481.5 1225.5 481.5C1225.5 481.5 1225.5 481.5 1225.5 481.5C1225.5 481.5 1225.5 481.5 1225.5 481.5C1225.5 481.5 1225.5 481.5 1225.5 481.5C1225.5 481.5 1225.5 481.5 1225.5 481.5C1225.5 481.5 1225.5 481.5 1225.5 481.5C1225.5 481.5 1225.5 481.5 1225.5 481.5C1225.5 481.5 1225.5 481.5 1225.5 481.5C1225.5 481.5 1225.5 481.5 1225.5 481.5C1225.5 481.5 1225.5 481.5 1225.5 481.5C1225.5 481.5 1225.5 481.5 1225.5 481.5C1225.5 481.5 1225.5 481.5 1225.5 481.5C1225.5 481.5 1225.5 481.5 1225.5 481.5C1225.5 481.5 1225.5 481.5 1225.5 481.5C1225.5 481.5 1225.5 481.5 1225.5 481.5C1225.5 481.5 1225.5 481.5 1225.5 481.5C1225.5 481.5 1225.5 481.5 1225.5 481.5C1225.5 481.5 1225.5 481.5 1225.5 481.5C1225.5 481.5 1225.5 481.5 1225.5 481.5C1225.5 481.5 1225.5 481.5 1225.5 481.5C1225.5 481.5 1225.5 481.5 1225.5 481.5C1225.5 481.5 1225.5 481.5 1225.5 481.5C1225.5 481.5 1225.5 481.5 1225.5 481.5C1225.5 481.5 1225.5 481.5 1225.5 481.5C1225.5 481.5 1225.5 481.5 1225.5 481.5C1225.5 481.5 1225.5 481.5 1225.5 481.5C1225.5 481.5 1225.5 481.5 1225.5 481.5C1225.5 481.5 1225.5 481.5 1225.5 481.5C1225.5 481.5 1225.5 481.5 1225.5 481.5C1225.5 481.5 1225.5 481.5 1225.5 481.5C1225.5 481.5 1225.5 481.5 1225.5 481.5C1225.5 481.5 1225.5 481.5 1225.5 481.5C1225.5 481.5 1225.5 481.5 1225.5 481.5C1225.5 481.5 1225.5 481.5 1225.5 481.5C1225.5 481.5 1225.5 481.5 1225.5 481.5C1225.5 481.5 1225.5 481.5 1225.5 481.5C1225.5 481.5 1225.5 481.5 1225.5 481.5C1225.5 481.5 1225.5 481.5 1225.5 481.5C1225.5 481.5 1225.5 481.5 1225.5 481.5C1225.5 481.5 1225.5 481.5 1225.5 481.5C1225.5 481.5 1225.5 481.5 1225.5 481.5C1225.5 481.5 1225.5 481.5 1225.5 481.5C1225.5 481.5 1225.5 481.5 1225.5 481.5C1225.5 481.5 1225.5 481.5 1225.5 481.5C1225.5 481.5 1225.5 481.5 1225.5 481.5C1225.5 481.5 1225.5 481.5 1225.5 481.5C1225.5 481.5 1225.5 481.5 1225.5 481.5C1225.5 481.5 1225.5 481.5 1225.5 481.5C1225.5 481.5 1225.5 481.5 1225.5 481.5C1225.5 481.5 1225.5 481.5 1225.5 481.5C1225.5 481.5 1225.5 481.5 1225.5 481.5C1225.5 481.5 1225.5 481.5 1225.5 481.5C1225.5 481.5 1225.5 481.5 1225.5 481.5C1225.5 481.5 1225.5 481.5 1225.5 481.5C1225.5 481.5 1225.5 481.5 1225.5 481.5C1225.5 481.5 1225.5 481.5 1225.5 481.5C1225.5 481.5 1225.5 481.5 1225.5 481.5C1225.5 481.5 1225.5 481.5 1225.5 481.5C1225.5 481.5 1225.5 481.5 1225.5 481.5C1225.5 481.5 1225.5 481.5 1225.5 481.5C1225.5 481.5 1225.5 481.5 1225.5 481.5C1225.5 481.5 1225.5 481.5 1225.5 481.5C1225.5 481.5 1225.5 481.5 1225.5 481.5C1225.5 481.5 1225.5 481.5 1225.5 481.5C1225.5 481.5 1225.5 481.5 1225.5 481.5C1225.5 481.5 1225.5 481.5 1225.5 481.5C1225.5 481.5 1225.5 481.5 1225.5 481.5C1225.5 481.5 1225.5 481.5 1225.5 481.5C1225.5 481.5 1225.5 481.5 1225.5 481.5C1225.5 481.5 1225.5 481.5 1225.5 481.5C1225.5 481.5 1225.5 481.5 1225.5 481.5C1225.5 481.5 1225.5 481.5 1225.5 481.5C1225.5 481.5 1225.5 481.5 1225.5 481.5C1225.5 481.5 1225.5 481.5 1225.5 481.5C1225.5 481.5 1225.5 481.5 1225.5 481.5C1225.5 481.5 1225.5 481.5 1225.5 481.5C1225.5 481.5 1225.5 481.5 1225.5 481.5C1225.5 481.5 1225.5 481.5 1225.5 481.5C1225.5 481.5 1225.5 481.5 1225.5 481.5C1225.5 481.5 1225.5 481.5 1225.5 481.5C1225.5 481.5 1225.5 481.5 1225.5 481.5C1225.5 481.5 1225.5 481.5 1225.5 481.5C1225.5 481.5 1225.5 481.5 1225.5 481.5C1225.5 481.5 1225.5 481.5 1225.5 481.5C1225.5 481.5 1225.5 481.5 1225.5 481.5C1225.5 481.5 1225.5 481.5 1225.5 481.5C1225.5 481.5 1225.5 481.5 1225.5 481.5C1225.5 481.5 1225.5 481.5 1225.5 481.5C1225.5 481.5 1225.5 481.5 1225.5 481.5C1225.5 481.5 1225.5 481.5 1225.5 481.5C1225.5 481.5 1225.5 481.5 1225.5 481.5C1225.5 481.5 1225.5 481.5 1225.5 481.5C1225.5 481.5 1225.5 481.5 1225.5 481.5C1225.5 481.5 1225.5 481.5 1225.5 481.5C1225.5 481.5 1225.5 481.5 1225.5 481.5C1225.5 481.5 1225.5 481.5 1225.5 481.5C1225.5 481.5 1225.5 481.5 1225.5 481.5C1225.5 481.5 1225.5 481.5 1225.5 481.5C1225.5 481.5 1225.5 481.5 1225.5 481.5C1225.5 481.5 1225.5 481.5 1225.5 481.5C1225.5 481.5 1225.5 481.5 1225.5 481.5C1225.5 481.5 1225.5 481.5 1225.5 481.5C1225.5 481.5 1225.5 481.5 1225.5 481.5C1225.5 481.5 1225.5 481.5 1225.5 481.5C1225.5 481.5 1225.5 481.5 1225.5 481.5C1225.5 481.5 1225.5 481.5 1225.5 481.5C1225.5 481.5 1225.5 481.5 1225.5 481.5C1225.5 481.5 1225.5 481.5 1225.5 481.5C1225.5 481.5 1225.5 481.5 1225.5 481.5C1225.5 481.5 1225.5 481.5 1225.5 481.5C1225.5 481.5 1225.5 481.5 1225.5 481.5C1225.5 481.5 1225.5 481.5 1225.5 481.5C1225.5 481.5 1225.5 481.5 1225.5 481.5C1225.5 481.5 1225.5 481.5 1225.5 481.5C1225.5 481.5 1225.5 481.5 1225.5 481.5V484.5ZM1225.5 484.5C1226.34 484.5 1227 485.162 1227 486H1230C1230 483.505 1228 481.5 1225.5 481.5V484.5ZM1227 486C1227 486.838 1226.34 487.5 1225.5 487.5V490.5C1228 490.5 1230 488.495 1230 486H1227ZM1225.5 487.5C1224.66 487.5 1224 486.838 1224 486H1221C1221 488.495 1223 490.5 1225.5 490.5V487.5ZM1227 486C1227 484.989 1227 483.988 1227 482.999L1224 483.001C1224 483.989 1224 484.989 1224 486H1227ZM1227 482.999C1226.98 439.23 1226.53 417.092 1226.07 394.71C1225.6 372.34 1225.11 349.728 1225 304.996L1222 305.004C1222.11 349.761 1222.6 372.394 1223.07 394.773C1223.54 417.142 1223.98 439.259 1224 483.001L1227 482.999Z" fill="black"/>
</g>
<rect x="919.5" y="227.5" width="82" height="55" rx="11.5" fill="#F7F7F7"/>
<path d="M941.797 266.387C936.277 266.404 932.867 262.467 932.867 256.613C932.867 250.742 936.33 246.664 941.516 246.664C945.523 246.664 949.76 249.125 949.742 256.191V257.457H935.891C936.049 261.5 938.404 263.715 941.797 263.715C944.082 263.715 945.523 262.713 946.227 261.535H949.461C948.564 264.436 945.734 266.404 941.797 266.387ZM935.908 254.891H946.684C946.666 251.709 944.662 249.336 941.516 249.336C938.211 249.336 936.119 251.938 935.908 254.891ZM956.703 254.539V266H953.68V246.91H956.598V249.898H956.844C957.74 247.947 959.533 246.664 962.434 246.664C966.301 246.664 968.885 249.02 968.867 253.871V266H965.844V254.082C965.844 251.129 964.227 249.371 961.52 249.371C958.742 249.371 956.703 251.234 956.703 254.539ZM988.73 246.91L981.664 266H978.535L971.504 246.91H974.809L980.012 262.062H980.223L985.426 246.91H988.73Z" fill="#414141"/>
<rect x="919.5" y="227.5" width="82" height="55" rx="11.5" stroke="#EDEDED"/>
<rect x="919.5" y="512.5" width="82" height="55" rx="11.5" fill="#F7F7F7"/>
<path d="M941.797 551.387C936.277 551.404 932.867 547.467 932.867 541.613C932.867 535.742 936.33 531.664 941.516 531.664C945.523 531.664 949.76 534.125 949.742 541.191V542.457H935.891C936.049 546.5 938.404 548.715 941.797 548.715C944.082 548.715 945.523 547.713 946.227 546.535H949.461C948.564 549.436 945.734 551.404 941.797 551.387ZM935.908 539.891H946.684C946.666 536.709 944.662 534.336 941.516 534.336C938.211 534.336 936.119 536.938 935.908 539.891ZM956.703 539.539V551H953.68V531.91H956.598V534.898H956.844C957.74 532.947 959.533 531.664 962.434 531.664C966.301 531.664 968.885 534.02 968.867 538.871V551H965.844V539.082C965.844 536.129 964.227 534.371 961.52 534.371C958.742 534.371 956.703 536.234 956.703 539.539ZM988.73 531.91L981.664 551H978.535L971.504 531.91H974.809L980.012 547.062H980.223L985.426 531.91H988.73Z" fill="#414141"/>
<rect x="919.5" y="512.5" width="82" height="55" rx="11.5" stroke="#EDEDED"/>
<rect x="697.5" y="668.5" width="203" height="55" rx="11.5" fill="#F7F7F7"/>
<path d="M711.426 707V687.91H714.344V690.828H714.555C715.24 688.895 717.227 687.611 719.477 687.594C719.934 687.611 720.707 687.629 721.059 687.664V690.723C720.83 690.67 720.021 690.512 719.23 690.512C716.488 690.512 714.449 692.41 714.449 694.977V707H711.426ZM731.395 707.387C725.875 707.404 722.465 703.467 722.465 697.613C722.465 691.742 725.928 687.664 731.113 687.664C735.121 687.664 739.357 690.125 739.34 697.191V698.457H725.488C725.646 702.5 728.002 704.715 731.395 704.715C733.68 704.715 735.121 703.713 735.824 702.535H739.059C738.162 705.436 735.332 707.404 731.395 707.387ZM725.506 695.891H736.281C736.264 692.709 734.26 690.336 731.113 690.336C727.809 690.336 725.717 692.938 725.506 695.891ZM751.082 707.387C745.668 707.404 742.363 703.273 742.363 697.543C742.363 691.742 745.826 687.664 751.012 687.664C755.072 687.664 758.131 690.072 758.605 693.676H755.582C755.143 691.936 753.631 690.336 751.082 690.336C747.672 690.336 745.404 693.148 745.387 697.438C745.404 701.85 747.619 704.68 751.082 704.68C753.332 704.68 755.055 703.467 755.582 701.375H758.605C758.131 704.785 755.318 707.404 751.082 707.387ZM770.137 707.387C764.934 707.404 761.418 703.467 761.418 697.543C761.418 691.584 764.934 687.664 770.137 687.664C775.322 687.664 778.803 691.584 778.785 697.543C778.803 703.467 775.322 707.404 770.137 707.387ZM764.441 697.543C764.459 701.357 766.252 704.715 770.137 704.715C773.986 704.715 775.762 701.357 775.762 697.543C775.762 693.746 773.986 690.336 770.137 690.336C766.252 690.336 764.459 693.746 764.441 697.543ZM782.758 707V687.91H785.676V690.828H785.887C786.572 688.895 788.559 687.611 790.809 687.594C791.266 687.611 792.039 687.629 792.391 687.664V690.723C792.162 690.67 791.354 690.512 790.562 690.512C787.82 690.512 785.781 692.41 785.781 694.977V707H782.758ZM801.918 707.387C797.154 707.404 793.797 703.572 793.797 697.508C793.797 691.461 797.154 687.664 801.953 687.664C805.662 687.664 806.822 689.914 807.473 690.934H807.684V681.547H810.742V707H807.789V704.082H807.473C806.805 705.137 805.557 707.404 801.918 707.387ZM796.855 697.438C796.855 701.498 798.719 704.68 802.34 704.68C805.838 704.68 807.771 701.727 807.789 697.438C807.771 693.201 805.891 690.371 802.34 690.371C798.666 690.371 796.855 693.447 796.855 697.438ZM824.277 707H816.367V681.547H824.594C832.029 681.547 836.406 686.311 836.406 694.238C836.406 702.184 832.029 707 824.277 707ZM819.531 704.188H824.066C830.307 704.188 833.312 700.408 833.312 694.238C833.312 688.086 830.307 684.359 824.383 684.359H819.531V704.188ZM839.746 701.586C839.746 697.209 843.613 696.207 846.918 695.961C848.148 695.873 851.225 695.697 852.086 695.68V694.133C852.086 691.707 850.645 690.301 847.762 690.301C845.354 690.301 843.895 691.408 843.473 692.867H840.309C840.695 689.791 843.684 687.664 847.902 687.664C850.398 687.664 855.092 688.402 855.074 694.414V707H852.086V704.398H851.945C851.312 705.682 849.572 707.439 846.25 707.457C842.629 707.439 839.746 705.312 839.746 701.586ZM842.77 701.727C842.787 703.748 844.457 704.768 846.777 704.75C850.188 704.768 852.086 702.482 852.086 700.074V698.158C851.189 698.211 848.184 698.439 847.27 698.492C844.527 698.668 842.787 699.635 842.77 701.727ZM868.258 687.91V690.441H864.25V701.516C864.232 703.959 865.463 704.363 866.746 704.363C867.291 704.363 868.1 704.311 868.539 704.293V707.105C868.064 707.176 867.326 707.246 866.43 707.246C863.881 707.246 861.209 705.664 861.191 702.289V690.441H858.309V687.91H861.191V683.34H864.25V687.91H868.258ZM871.246 701.586C871.246 697.209 875.113 696.207 878.418 695.961C879.648 695.873 882.725 695.697 883.586 695.68V694.133C883.586 691.707 882.145 690.301 879.262 690.301C876.854 690.301 875.395 691.408 874.973 692.867H871.809C872.195 689.791 875.184 687.664 879.402 687.664C881.898 687.664 886.592 688.402 886.574 694.414V707H883.586V704.398H883.445C882.812 705.682 881.072 707.439 877.75 707.457C874.129 707.439 871.246 705.312 871.246 701.586ZM874.27 701.727C874.287 703.748 875.957 704.768 878.277 704.75C881.688 704.768 883.586 702.482 883.586 700.074V698.158C882.689 698.211 879.684 698.439 878.77 698.492C876.027 698.668 874.287 699.635 874.27 701.727Z" fill="#414141"/>
<rect x="697.5" y="668.5" width="203" height="55" rx="11.5" stroke="#EDEDED"/>
<rect x="589.5" y="369.5" width="203" height="55" rx="11.5" fill="#F7F7F7"/>
<path d="M603.426 408V388.91H606.344V391.828H606.555C607.24 389.895 609.227 388.611 611.477 388.594C611.934 388.611 612.707 388.629 613.059 388.664V391.723C612.83 391.67 612.021 391.512 611.23 391.512C608.488 391.512 606.449 393.41 606.449 395.977V408H603.426ZM623.395 408.387C617.875 408.404 614.465 404.467 614.465 398.613C614.465 392.742 617.928 388.664 623.113 388.664C627.121 388.664 631.357 391.125 631.34 398.191V399.457H617.488C617.646 403.5 620.002 405.715 623.395 405.715C625.68 405.715 627.121 404.713 627.824 403.535H631.059C630.162 406.436 627.332 408.404 623.395 408.387ZM617.506 396.891H628.281C628.264 393.709 626.26 391.336 623.113 391.336C619.809 391.336 617.717 393.938 617.506 396.891ZM643.082 408.387C637.668 408.404 634.363 404.273 634.363 398.543C634.363 392.742 637.826 388.664 643.012 388.664C647.072 388.664 650.131 391.072 650.605 394.676H647.582C647.143 392.936 645.631 391.336 643.082 391.336C639.672 391.336 637.404 394.148 637.387 398.438C637.404 402.85 639.619 405.68 643.082 405.68C645.332 405.68 647.055 404.467 647.582 402.375H650.605C650.131 405.785 647.318 408.404 643.082 408.387ZM662.137 408.387C656.934 408.404 653.418 404.467 653.418 398.543C653.418 392.584 656.934 388.664 662.137 388.664C667.322 388.664 670.803 392.584 670.785 398.543C670.803 404.467 667.322 408.404 662.137 408.387ZM656.441 398.543C656.459 402.357 658.252 405.715 662.137 405.715C665.986 405.715 667.762 402.357 667.762 398.543C667.762 394.746 665.986 391.336 662.137 391.336C658.252 391.336 656.459 394.746 656.441 398.543ZM674.758 408V388.91H677.676V391.828H677.887C678.572 389.895 680.559 388.611 682.809 388.594C683.266 388.611 684.039 388.629 684.391 388.664V391.723C684.162 391.67 683.354 391.512 682.562 391.512C679.82 391.512 677.781 393.41 677.781 395.977V408H674.758ZM693.918 408.387C689.154 408.404 685.797 404.572 685.797 398.508C685.797 392.461 689.154 388.664 693.953 388.664C697.662 388.664 698.822 390.914 699.473 391.934H699.684V382.547H702.742V408H699.789V405.082H699.473C698.805 406.137 697.557 408.404 693.918 408.387ZM688.855 398.438C688.855 402.498 690.719 405.68 694.34 405.68C697.838 405.68 699.771 402.727 699.789 398.438C699.771 394.201 697.891 391.371 694.34 391.371C690.666 391.371 688.855 394.447 688.855 398.438ZM716.277 408H708.367V382.547H716.594C724.029 382.547 728.406 387.311 728.406 395.238C728.406 403.184 724.029 408 716.277 408ZM711.531 405.188H716.066C722.307 405.188 725.312 401.408 725.312 395.238C725.312 389.086 722.307 385.359 716.383 385.359H711.531V405.188ZM731.746 402.586C731.746 398.209 735.613 397.207 738.918 396.961C740.148 396.873 743.225 396.697 744.086 396.68V395.133C744.086 392.707 742.645 391.301 739.762 391.301C737.354 391.301 735.895 392.408 735.473 393.867H732.309C732.695 390.791 735.684 388.664 739.902 388.664C742.398 388.664 747.092 389.402 747.074 395.414V408H744.086V405.398H743.945C743.312 406.682 741.572 408.439 738.25 408.457C734.629 408.439 731.746 406.312 731.746 402.586ZM734.77 402.727C734.787 404.748 736.457 405.768 738.777 405.75C742.188 405.768 744.086 403.482 744.086 401.074V399.158C743.189 399.211 740.184 399.439 739.27 399.492C736.527 399.668 734.787 400.635 734.77 402.727ZM760.258 388.91V391.441H756.25V402.516C756.232 404.959 757.463 405.363 758.746 405.363C759.291 405.363 760.1 405.311 760.539 405.293V408.105C760.064 408.176 759.326 408.246 758.43 408.246C755.881 408.246 753.209 406.664 753.191 403.289V391.441H750.309V388.91H753.191V384.34H756.25V388.91H760.258ZM763.246 402.586C763.246 398.209 767.113 397.207 770.418 396.961C771.648 396.873 774.725 396.697 775.586 396.68V395.133C775.586 392.707 774.145 391.301 771.262 391.301C768.854 391.301 767.395 392.408 766.973 393.867H763.809C764.195 390.791 767.184 388.664 771.402 388.664C773.898 388.664 778.592 389.402 778.574 395.414V408H775.586V405.398H775.445C774.812 406.682 773.072 408.439 769.75 408.457C766.129 408.439 763.246 406.312 763.246 402.586ZM766.27 402.727C766.287 404.748 767.957 405.768 770.277 405.75C773.688 405.768 775.586 403.482 775.586 401.074V399.158C774.689 399.211 771.684 399.439 770.77 399.492C768.027 399.668 766.287 400.635 766.27 402.727Z" fill="#414141"/>
<rect x="589.5" y="369.5" width="203" height="55" rx="11.5" stroke="#EDEDED"/>
<rect x="1083.5" y="668.5" width="82" height="55" rx="11.5" fill="#F7F7F7"/>
<path d="M1105.8 707.387C1100.28 707.404 1096.87 703.467 1096.87 697.613C1096.87 691.742 1100.33 687.664 1105.52 687.664C1109.52 687.664 1113.76 690.125 1113.74 697.191V698.457H1099.89C1100.05 702.5 1102.4 704.715 1105.8 704.715C1108.08 704.715 1109.52 703.713 1110.23 702.535H1113.46C1112.56 705.436 1109.73 707.404 1105.8 707.387ZM1099.91 695.891H1110.68C1110.67 692.709 1108.66 690.336 1105.52 690.336C1102.21 690.336 1100.12 692.938 1099.91 695.891ZM1120.7 695.539V707H1117.68V687.91H1120.6V690.898H1120.84C1121.74 688.947 1123.53 687.664 1126.43 687.664C1130.3 687.664 1132.88 690.02 1132.87 694.871V707H1129.84V695.082C1129.84 692.129 1128.23 690.371 1125.52 690.371C1122.74 690.371 1120.7 692.234 1120.7 695.539ZM1152.73 687.91L1145.66 707H1142.54L1135.5 687.91H1138.81L1144.01 703.062H1144.22L1149.43 687.91H1152.73Z" fill="#414141"/>
<rect x="1083.5" y="668.5" width="82" height="55" rx="11.5" stroke="#EDEDED"/>
<rect x="1182.5" y="369.5" width="82" height="55" rx="11.5" fill="#F7F7F7"/>
<path d="M1204.8 408.387C1199.28 408.404 1195.87 404.467 1195.87 398.613C1195.87 392.742 1199.33 388.664 1204.52 388.664C1208.52 388.664 1212.76 391.125 1212.74 398.191V399.457H1198.89C1199.05 403.5 1201.4 405.715 1204.8 405.715C1207.08 405.715 1208.52 404.713 1209.23 403.535H1212.46C1211.56 406.436 1208.73 408.404 1204.8 408.387ZM1198.91 396.891H1209.68C1209.67 393.709 1207.66 391.336 1204.52 391.336C1201.21 391.336 1199.12 393.938 1198.91 396.891ZM1219.7 396.539V408H1216.68V388.91H1219.6V391.898H1219.84C1220.74 389.947 1222.53 388.664 1225.43 388.664C1229.3 388.664 1231.88 391.02 1231.87 395.871V408H1228.84V396.082C1228.84 393.129 1227.23 391.371 1224.52 391.371C1221.74 391.371 1219.7 393.234 1219.7 396.539ZM1251.73 388.91L1244.66 408H1241.54L1234.5 388.91H1237.81L1243.01 404.062H1243.22L1248.43 388.91H1251.73Z" fill="#414141"/>
<rect x="1182.5" y="369.5" width="82" height="55" rx="11.5" stroke="#EDEDED"/>
</svg>
